<?xml version="1.0" encoding="UTF-8" standalone="no"?>
<!-- Created with Inkscape (http://www.inkscape.org/) -->

<svg
   width="60mm"
   height="130mm"
   viewBox="0 0 60 130"
   version="1.1"
   id="svg1"
   inkscape:version="1.3.2 (091e20ef0f, 2023-11-25, custom)"
   sodipodi:docname="markings.svg"
   xmlns:inkscape="http://www.inkscape.org/namespaces/inkscape"
   xmlns:sodipodi="http://sodipodi.sourceforge.net/DTD/sodipodi-0.dtd"
   xmlns="http://www.w3.org/2000/svg"
   xmlns:svg="http://www.w3.org/2000/svg">
  <sodipodi:namedview
     id="namedview1"
     pagecolor="#505050"
     bordercolor="#eeeeee"
     borderopacity="1"
     inkscape:showpageshadow="0"
     inkscape:pageopacity="0"
     inkscape:pagecheckerboard="0"
     inkscape:deskcolor="#d1d1d1"
     inkscape:document-units="mm"
     showgrid="true"
     inkscape:zoom="1.0154442"
     inkscape:cx="-130.48477"
     inkscape:cy="94.539907"
     inkscape:window-width="2560"
     inkscape:window-height="1012"
     inkscape:window-x="1080"
     inkscape:window-y="32"
     inkscape:window-maximized="1"
     inkscape:current-layer="layer1">
    <inkscape:grid
       id="grid4"
       units="mm"
       originx="0"
       originy="0"
       spacingx="6"
       spacingy="6.5"
       empcolor="#0099e5"
       empopacity="0.30196078"
       color="#0099e5"
       opacity="0.14901961"
       empspacing="2"
       dotted="false"
       gridanglex="30"
       gridanglez="30"
       visible="true" />
  </sodipodi:namedview>
  <defs
     id="defs1" />
  <g
     inkscape:label="Layer 1"
     inkscape:groupmode="layer"
     id="layer1">
    <path
       style="font-size:7.05556px;font-family:PromptFont;-inkscape-font-specification:PromptFont;text-align:center;writing-mode:tb-rl;baseline-shift:baseline;text-anchor:middle;stroke-width:0.5;stroke-linecap:round;stroke-linejoin:round;stroke-miterlimit:100"
       d="m 9.0409777,11.715891 q 0.2610555,0.613833 0.2610555,1.284111 0,0.670278 -0.2610555,1.284111 -0.2610556,0.613833 -0.7055556,1.051278 -0.4374444,0.4445 -1.0512777,0.705555 -0.6138333,0.261056 -1.2841111,0.261056 -0.6702777,0 -1.2841111,-0.261056 Q 4.1020889,15.779891 3.6646445,15.335391 3.2201445,14.897946 2.959089,14.284113 2.6980334,13.67028 2.6980334,13.000002 q 0,-0.670278 0.2610556,-1.284111 Q 3.2201445,11.102058 3.6646445,10.657558 4.1020889,10.220113 4.7159222,9.9590576 5.3297556,9.698002 6.0000333,9.698002 q 0.6702778,0 1.2841111,0.2610556 0.6138333,0.2610554 1.0512777,0.6985004 0.4445,0.4445 0.7055556,1.058333 z M 5.0969222,11.51128 v 3.055055 l 2.6458333,-1.524 z"
       id="text10"
       aria-label="∀" />
    <path
       style="font-size:7.05556px;font-family:PromptFont;-inkscape-font-specification:PromptFont;text-align:center;writing-mode:tb-rl;text-anchor:middle;stroke-width:0.5;stroke-linecap:round;stroke-linejoin:round;stroke-miterlimit:100"
       d="m 9.0409777,24.715891 q 0.2610555,0.613833 0.2610555,1.284111 0,0.670278 -0.2610555,1.284111 -0.2610556,0.613833 -0.7055556,1.051278 -0.4374444,0.4445 -1.0512777,0.705555 -0.6138333,0.261056 -1.2841111,0.261056 -0.6702777,0 -1.2841111,-0.261056 Q 4.1020889,28.779891 3.6646445,28.335391 3.2201445,27.897946 2.959089,27.284113 2.6980334,26.67028 2.6980334,26.000002 q 0,-0.670278 0.2610556,-1.284111 0.2610555,-0.613833 0.7055555,-1.058333 0.4374444,-0.437445 1.0512777,-0.6985 0.6138334,-0.261056 1.2841111,-0.261056 0.6702778,0 1.2841111,0.261056 0.6138333,0.261055 1.0512777,0.6985 0.4445,0.4445 0.7055556,1.058333 z m -4.7836665,1.326444 2.6458332,1.524 V 24.51128 Z"
       id="text11"
       aria-label="∂" />
    <path
       style="font-size:7.05556px;font-family:PromptFont;-inkscape-font-specification:PromptFont;text-align:center;writing-mode:tb-rl;text-anchor:middle;stroke-width:0.5;stroke-linecap:round;stroke-linejoin:round;stroke-miterlimit:100"
       d="M 9.0409463,50.715888 Q 9.302002,51.329722 9.302002,52 q 0,0.670278 -0.2610557,1.284112 -0.2610557,0.613834 -0.705556,1.051278 -0.4374447,0.444501 -1.0512785,0.705556 -0.6138337,0.261056 -1.2841119,0.261056 -0.6702782,0 -1.2841119,-0.261056 Q 4.1020542,54.779891 3.6646095,54.33539 3.2201092,53.897946 2.9590535,53.284112 2.6979978,52.670278 2.6979978,52 q 0,-0.670278 0.2610557,-1.284112 0.2610557,-0.613834 0.705556,-1.058334 0.4374447,-0.437445 1.0512785,-0.6985 0.6138337,-0.261056 1.2841119,-0.261056 0.6702782,0 1.2841119,0.261056 0.6138338,0.261055 1.0512785,0.6985 0.4445003,0.4445 0.705556,1.058334 z M 4.5112767,52.903112 H 7.5663342 L 6.0423333,50.257277 Z"
       id="text12"
       aria-label="⇿" />
    <path
       style="font-size:7.05556px;font-family:PromptFont;-inkscape-font-specification:PromptFont;text-align:center;writing-mode:tb-rl;text-anchor:middle;stroke-width:0.5;stroke-linecap:round;stroke-linejoin:round;stroke-miterlimit:100"
       d="M 9.0409463,37.715888 Q 9.302002,38.329722 9.302002,39 q 0,0.670278 -0.2610557,1.284112 -0.2610557,0.613834 -0.705556,1.051278 -0.4374447,0.444501 -1.0512785,0.705556 -0.6138337,0.261056 -1.2841119,0.261056 -0.6702782,0 -1.2841119,-0.261056 Q 4.1020542,41.779891 3.6646095,41.33539 3.2201092,40.897946 2.9590535,40.284112 2.6979978,39.670278 2.6979978,39 q 0,-0.670278 0.2610557,-1.284112 0.2610557,-0.613834 0.705556,-1.058334 0.4374447,-0.437445 1.0512785,-0.6985 0.6138337,-0.261056 1.2841119,-0.261056 0.6702782,0 1.2841119,0.261056 0.6138338,0.261055 1.0512785,0.6985 0.4445003,0.4445 0.705556,1.058334 z m -4.6072807,0.381 1.5240009,2.645835 1.5310566,-2.645835 z"
       id="text13"
       aria-label="∁" />
    <path
       style="font-size:6.35px;font-family:PromptFont;-inkscape-font-specification:PromptFont;text-align:center;writing-mode:tb-rl;text-anchor:middle;stroke-width:0.5;stroke-linecap:round;stroke-linejoin:round;stroke-miterlimit:100"
       d="m 4.1585335,60.555003 h 4.1909999 v 3.1115 q 0,1.0795 -0.8636,1.0795 h -0.3683 q -0.5334,0 -0.7366,-0.41275 -0.1905,0.47625 -0.76835,0.47625 h -0.59055 q -0.8635999,0 -0.8635999,-1.0795 z m 0.7619999,1.27 v 1.49225 q 0,0.22225 0.1778,0.22225 h 0.69215 q 0.1778,0 0.1778,-0.22225 v -1.49225 z m 1.80975,0 v 1.42875 q 0,0.22225 0.1778,0.22225 h 0.50165 q 0.1778,0 0.1778,-0.22225 v -1.42875 z m 0.85725,4.286245 h 0.762 v 2.413 H 4.1585335 v -1.27 h 3.4289999 z"
       id="text14"
       aria-label="B1" />
    <path
       style="font-size:6.35px;font-family:PromptFont;-inkscape-font-specification:PromptFont;text-align:center;writing-mode:tb-rl;text-anchor:middle;stroke-width:0.5;stroke-linecap:round;stroke-linejoin:round;stroke-miterlimit:100"
       d="m 4.1585335,73.555003 h 4.1909999 v 3.1115 q 0,1.0795 -0.8636,1.0795 h -0.3683 q -0.5334,0 -0.7366,-0.41275 -0.1905,0.47625 -0.76835,0.47625 h -0.59055 q -0.8635999,0 -0.8635999,-1.0795 z m 0.7619999,1.27 v 1.49225 q 0,0.22225 0.1778,0.22225 h 0.69215 q 0.1778,0 0.1778,-0.22225 v -1.49225 z m 1.80975,0 v 1.42875 q 0,0.22225 0.1778,0.22225 h 0.50165 q 0.1778,0 0.1778,-0.22225 v -1.42875 z m -2.5717499,3.746495 h 1.7081499 q 0.8636,0 0.8636,1.0795 v 1.36525 q 0,0.22225 0.1778,0.22225 h 0.50165 q 0.1778,0 0.1778,-0.22225 v -2.12725 h 0.762 v 2.54 q 0,1.0795 -0.8636,1.0795 h -0.65405 q -0.8636,0 -0.8636,-1.0795 v -1.36525 q 0,-0.22225 -0.1778,-0.22225 h -0.86995 v 2.667 H 4.1585335 Z"
       id="text15"
       aria-label="B2" />
    <path
       style="font-size:6.35px;font-family:PromptFont;-inkscape-font-specification:PromptFont;text-align:center;writing-mode:tb-rl;text-anchor:middle;stroke-width:0.5;stroke-linecap:round;stroke-linejoin:round;stroke-miterlimit:100"
       d="m 4.1585335,86.586748 h 4.1909999 v 3.1115 q 0,1.0795 -0.8636,1.0795 h -0.8763 q -0.75565,0 -0.8636,-0.85725 l -1.5874999,1.04775 v -1.3716 l 1.5874999,-1.04775 v -0.69215 H 4.1585335 Z m 2.3494999,1.27 v 1.42875 q 0,0.22225 0.1778,0.22225 h 0.7239 q 0.1778,0 0.1778,-0.22225 v -1.42875 z m -2.3494999,3.683006 h 1.7081499 q 0.8636,0 0.8636,1.0795 v 1.36525 q 0,0.22225 0.1778,0.22225 h 0.50165 q 0.1778,0 0.1778,-0.22225 v -2.12725 h 0.762 v 2.54 q 0,1.0795 -0.8636,1.0795 h -0.65405 q -0.8636,0 -0.8636,-1.0795 v -1.36525 q 0,-0.22225 -0.1778,-0.22225 h -0.86995 v 2.667 H 4.1585335 Z"
       id="text16"
       aria-label="R2" />
    <path
       style="font-size:6.35px;font-family:PromptFont;-inkscape-font-specification:PromptFont;text-align:center;writing-mode:tb-rl;text-anchor:middle;stroke-width:0.5;stroke-linecap:round;stroke-linejoin:round;stroke-miterlimit:100"
       d="m 4.1585335,99.872498 h 4.1909999 v 1.270002 h -3.429 v 2.6035 H 4.1585335 Z m 0,4.381502 h 1.7081499 q 0.8636,0 0.8636,1.0795 v 1.36525 q 0,0.22225 0.1778,0.22225 h 0.50165 q 0.1778,0 0.1778,-0.22225 v -2.12725 h 0.762 v 2.54 q 0,1.0795 -0.8636,1.0795 h -0.65405 q -0.8636,0 -0.8636,-1.0795 v -1.36525 q 0,-0.22225 -0.1778,-0.22225 h -0.86995 v 2.667 H 4.1585335 Z"
       id="text17"
       aria-label="L2" />
    <path
       style="font-size:6.35px;font-family:PromptFont;-inkscape-font-specification:PromptFont;text-align:center;writing-mode:tb-rl;text-anchor:middle;stroke-width:0.5;stroke-linecap:round;stroke-linejoin:round;stroke-miterlimit:100"
       d="m 4.1585335,112.555 h 4.1909999 v 3.1115 q 0,1.0795 -0.8636,1.0795 h -0.3683 q -0.5334,0 -0.7366,-0.41275 -0.1905,0.47625 -0.76835,0.47625 h -0.59055 q -0.8635999,0 -0.8635999,-1.0795 z m 0.7619999,1.27 v 1.49225 q 0,0.22225 0.1778,0.22225 h 0.69215 q 0.1778,0 0.1778,-0.22225 V 113.825 Z m 1.80975,0 v 1.42875 q 0,0.22225 0.1778,0.22225 h 0.50165 q 0.1778,0 0.1778,-0.22225 V 113.825 Z m -2.5717499,3.8735 h 0.7619999 v 2.31775 q 0,0.22225 0.1778,0.22225 h 0.69215 q 0.1778,0 0.1778,-0.22225 V 118.27 h 0.762 v 1.74625 q 0,0.22225 0.1778,0.22225 h 0.50165 q 0.1778,0 0.1778,-0.22225 v -2.31775 h 0.762 v 2.7305 q 0,1.0795 -0.8636,1.0795 h -0.34925 q -0.55245,0 -0.75565,-0.45085 -0.2032,0.45085 -0.75565,0.45085 h -0.60325 q -0.8635999,0 -0.8635999,-1.0795 z"
       id="text18"
       aria-label="B3" />
    <text
       xml:space="preserve"
       style="font-style:normal;font-variant:normal;font-weight:normal;font-stretch:normal;font-size:8.46667px;font-family:PromptFont;-inkscape-font-specification:PromptFont;text-align:center;writing-mode:tb-rl;text-anchor:middle;fill:#000000;stroke-width:0.499999;stroke-linecap:round;stroke-linejoin:round;stroke-miterlimit:100;fill-opacity:1"
       x="52"
       y="117"
       id="text19"><tspan
         sodipodi:role="line"
         id="tspan19"
         style="stroke-width:0.5;fill:#000000;fill-opacity:1" /></text>
    <path
       style="font-size:6.35px;font-family:PromptFont;-inkscape-font-specification:PromptFont;text-align:center;writing-mode:tb-rl;text-anchor:middle;stroke-width:0.5;stroke-linecap:round;stroke-linejoin:round;stroke-miterlimit:100"
       d="m -55.8415,-121.445 h 4.191 v 3.1115 q 0,1.0795 -0.8636,1.0795 h -0.3683 q -0.5334,0 -0.7366,-0.41275 -0.1905,0.47625 -0.76835,0.47625 h -0.59055 q -0.8636,0 -0.8636,-1.0795 z m 0.762,1.27 v 1.49225 q 0,0.22225 0.1778,0.22225 h 0.69215 q 0.1778,0 0.1778,-0.22225 v -1.49225 z m 1.80975,0 v 1.42875 q 0,0.22225 0.1778,0.22225 h 0.50165 q 0.1778,0 0.1778,-0.22225 v -1.42875 z m -1.80975,3.7465 h 0.762 l 2.667,2.38125 v 1.55575 h -4.191 v -1.27 h 0.762 z m 0.762,1.41605 v 1.25095 h 1.4097 z"
       id="text20"
       transform="scale(-1)"
       aria-label="B4" />
    <path
       style="font-size:6.35px;font-family:PromptFont;-inkscape-font-specification:PromptFont;text-align:center;writing-mode:tb-rl;text-anchor:middle;stroke-width:0.5;stroke-linecap:round;stroke-linejoin:round;stroke-miterlimit:100"
       d="m -55.8415,-108.41325 h 4.191 v 3.1115 q 0,1.0795 -0.8636,1.0795 h -0.8763 q -0.75565,0 -0.8636,-0.85725 l -1.5875,1.04775 v -1.3716 l 1.5875,-1.04775 v -0.69215 h -1.5875 z m 2.3495,1.27 v 1.42875 q 0,0.22225 0.1778,0.22225 h 0.7239 q 0.1778,0 0.1778,-0.22225 v -1.42875 z m 1.0795,4.22275 h 0.762 v 2.413 h -4.191 v -1.27 h 3.429 z"
       id="text21"
       transform="scale(-1)"
       aria-label="R1" />
    <path
       style="font-size:6.35px;font-family:PromptFont;-inkscape-font-specification:PromptFont;text-align:center;writing-mode:tb-rl;text-anchor:middle;stroke-width:0.5;stroke-linecap:round;stroke-linejoin:round;stroke-miterlimit:100"
       d="m -55.8415,-95.127509 h 4.191 v 1.27 h -3.429 v 2.6035 h -0.762 z m 3.429,4.921255 h 0.762 v 2.413 h -4.191 v -1.27 h 3.429 z"
       id="text22"
       transform="scale(-1)"
       aria-label="L1" />
    <path
       style="font-size:6.35px;font-family:PromptFont;-inkscape-font-specification:PromptFont;text-align:center;writing-mode:tb-rl;text-anchor:middle;stroke-width:0.5;stroke-linecap:round;stroke-linejoin:round;stroke-miterlimit:100"
       d="m -55.8415,-82.445001 h 0.762 v 2.69875 q 0,0.22225 0.1778,0.22225 h 0.69215 q 0.1778,0 0.1778,-0.22225 v -1.61925 q 0,-1.0795 0.8636,-1.0795 h 0.65405 q 0.8636,0 0.8636,1.0795 v 2.794 h -0.762 v -2.38125 q 0,-0.22225 -0.1778,-0.22225 h -0.50165 q -0.1778,0 -0.1778,0.22225 v 1.61925 q 0,1.0795 -0.8636,1.0795 h -0.84455 q -0.8636,0 -0.8636,-1.0795 z m 3.429,5.492754 h 0.762 v 2.413 h -4.191 v -1.27 h 3.429 z"
       id="text23"
       transform="scale(-1)"
       aria-label="S1" />
    <path
       style="font-size:6.35px;font-family:PromptFont;-inkscape-font-specification:PromptFont;text-align:center;writing-mode:tb-rl;text-anchor:middle;stroke-width:0.5;stroke-linecap:round;stroke-linejoin:round;stroke-miterlimit:100"
       d="m -55.8415,-69.445009 h 0.762 v 2.69875 q 0,0.22225 0.1778,0.22225 h 0.69215 q 0.1778,0 0.1778,-0.22225 v -1.61925 q 0,-1.0795 0.8636,-1.0795 h 0.65405 q 0.8636,0 0.8636,1.0795 v 2.794 h -0.762 v -2.38125 q 0,-0.22225 -0.1778,-0.22225 h -0.50165 q -0.1778,0 -0.1778,0.22225 v 1.61925 q 0,1.0795 -0.8636,1.0795 h -0.84455 q -0.8636,0 -0.8636,-1.0795 z m 0,4.953004 h 1.70815 q 0.8636,0 0.8636,1.0795 v 1.36525 q 0,0.22225 0.1778,0.22225 h 0.50165 q 0.1778,0 0.1778,-0.22225 v -2.12725 h 0.762 v 2.54 q 0,1.0795 -0.8636,1.0795 h -0.65405 q -0.8636,0 -0.8636,-1.0795 v -1.36525 q 0,-0.22225 -0.1778,-0.22225 h -0.86995 v 2.667 h -0.762 z"
       id="text24"
       transform="scale(-1)"
       aria-label="S2" />
    <text
       xml:space="preserve"
       style="font-style:normal;font-variant:normal;font-weight:normal;font-stretch:normal;font-size:8.46667px;font-family:PromptFont;-inkscape-font-specification:PromptFont;text-align:center;writing-mode:tb-rl;text-anchor:middle;fill:#000000;stroke-width:0.499999;stroke-linecap:round;stroke-linejoin:round;stroke-miterlimit:100;fill-opacity:1"
       x="26"
       y="78"
       id="text25"><tspan
         sodipodi:role="line"
         id="tspan25"
         style="stroke-width:0.5;fill:#000000;fill-opacity:1" /></text>
    <path
       style="font-size:6.35px;font-family:PromptFont;-inkscape-font-specification:PromptFont;text-align:center;writing-mode:tb-rl;text-anchor:middle;stroke-width:0.5;stroke-linecap:round;stroke-linejoin:round;stroke-miterlimit:100"
       d="m -55.8415,-56.127505 h 4.191 v 1.27 h -3.429 v 2.603499 h -0.762 z m 0,4.508504 h 0.762 v 2.31775 q 0,0.22225 0.1778,0.22225 h 0.69215 q 0.1778,0 0.1778,-0.22225 v -1.74625 h 0.762 v 1.74625 q 0,0.22225 0.1778,0.22225 h 0.50165 q 0.1778,0 0.1778,-0.22225 v -2.31775 h 0.762 v 2.7305 q 0,1.0795 -0.8636,1.0795 h -0.34925 q -0.55245,0 -0.75565,-0.45085 -0.2032,0.45085 -0.75565,0.45085 h -0.60325 q -0.8636,0 -0.8636,-1.0795 z"
       id="text26"
       transform="scale(-1)"
       aria-label="L3" />
    <path
       style="font-size:6.35px;font-family:PromptFont;-inkscape-font-specification:PromptFont;text-align:center;writing-mode:tb-rl;text-anchor:middle;stroke-width:0.5;stroke-linecap:round;stroke-linejoin:round;stroke-miterlimit:100"
       d="m -55.8415,-43.413256 h 4.191 v 3.1115 q 0,1.0795 -0.8636,1.0795 h -0.8763 q -0.75565,0 -0.8636,-0.85725 l -1.5875,1.04775 v -1.3716 l 1.5875,-1.04775 v -0.69215 h -1.5875 z m 2.3495,1.27 v 1.42875 q 0,0.22225 0.1778,0.22225 h 0.7239 q 0.1778,0 0.1778,-0.22225 v -1.42875 z m -2.3495,3.810006 h 0.762 v 2.31775 q 0,0.22225 0.1778,0.22225 h 0.69215 q 0.1778,0 0.1778,-0.22225 v -1.74625 h 0.762 v 1.74625 q 0,0.22225 0.1778,0.22225 h 0.50165 q 0.1778,0 0.1778,-0.22225 v -2.31775 h 0.762 v 2.7305 q 0,1.0795 -0.8636,1.0795 h -0.34925 q -0.55245,0 -0.75565,-0.45085 -0.2032,0.45085 -0.75565,0.45085 h -0.60325 q -0.8636,0 -0.8636,-1.0795 z"
       id="text27"
       transform="scale(-1)"
       aria-label="R3" />
    <path
       style="font-size:6.35px;font-family:PromptFont;-inkscape-font-specification:PromptFont;text-align:center;writing-mode:tb-rl;text-anchor:middle;stroke-width:0.5;stroke-linecap:round;stroke-linejoin:round;stroke-miterlimit:100"
       d="m -55.8415,-30.953007 4.191,1.80975 v 1.5875 l -4.191,1.80975 v -1.2446 l 0.889,-0.381 v -1.9558 l -0.889,-0.381 z m 1.651,1.9558 v 1.2954 l 1.49225,-0.6477 z m 1.778,4.2037 h 0.762 v 2.413 h -4.191 v -1.27 h 3.429 z"
       id="text28"
       transform="scale(-1)"
       aria-label="A1" />
    <path
       style="font-size:6.35px;font-family:PromptFont;-inkscape-font-specification:PromptFont;text-align:center;writing-mode:tb-rl;text-anchor:middle;stroke-width:0.5;stroke-linecap:round;stroke-linejoin:round;stroke-miterlimit:100"
       d="m -55.8415,-17.953007 4.191,1.80975 v 1.5875 l -4.191,1.80975 v -1.2446 l 0.889,-0.381 v -1.9558 l -0.889,-0.381 z m 1.651,1.9558 v 1.2954 l 1.49225,-0.6477 z m -1.651,3.66395 h 1.70815 q 0.8636,0 0.8636,1.0795 v 1.3652496 q 0,0.22225 0.1778,0.22225 h 0.50165 q 0.1778,0 0.1778,-0.22225 v -2.1272496 h 0.762 v 2.5399996 q 0,1.0795 -0.8636,1.0795 h -0.65405 q -0.8636,0 -0.8636,-1.0795 v -1.3652496 q 0,-0.22225 -0.1778,-0.22225 h -0.86995 v 2.6669996 h -0.762 z"
       id="text29"
       transform="scale(-1)"
       aria-label="A2" />
  </g>
</svg>
