%TF.GenerationSoftware,KiCad,Pcbnew,7.0.10*%
%TF.CreationDate,2024-03-07T13:06:01-05:00*%
%TF.ProjectId,adaptive-2040-nomoth,61646170-7469-4766-952d-323034302d6e,0*%
%TF.SameCoordinates,Original*%
%TF.FileFunction,Soldermask,Top*%
%TF.FilePolarity,Negative*%
%FSLAX46Y46*%
G04 Gerber Fmt 4.6, Leading zero omitted, Abs format (unit mm)*
G04 Created by KiCad (PCBNEW 7.0.10) date 2024-03-07 13:06:01*
%MOMM*%
%LPD*%
G01*
G04 APERTURE LIST*
G04 Aperture macros list*
%AMRoundRect*
0 Rectangle with rounded corners*
0 $1 Rounding radius*
0 $2 $3 $4 $5 $6 $7 $8 $9 X,Y pos of 4 corners*
0 Add a 4 corners polygon primitive as box body*
4,1,4,$2,$3,$4,$5,$6,$7,$8,$9,$2,$3,0*
0 Add four circle primitives for the rounded corners*
1,1,$1+$1,$2,$3*
1,1,$1+$1,$4,$5*
1,1,$1+$1,$6,$7*
1,1,$1+$1,$8,$9*
0 Add four rect primitives between the rounded corners*
20,1,$1+$1,$2,$3,$4,$5,0*
20,1,$1+$1,$4,$5,$6,$7,0*
20,1,$1+$1,$6,$7,$8,$9,0*
20,1,$1+$1,$8,$9,$2,$3,0*%
%AMFreePoly0*
4,1,28,0.178017,0.779942,0.347107,0.720775,0.498792,0.625465,0.625465,0.498792,0.720775,0.347107,0.779942,0.178017,0.800000,0.000000,0.779942,-0.178017,0.720775,-0.347107,0.625465,-0.498792,0.498792,-0.625465,0.347107,-0.720775,0.178017,-0.779942,0.000000,-0.800000,-2.200000,-0.800000,-2.205014,-0.794986,-2.244504,-0.794986,-2.324698,-0.756366,-2.380194,-0.686777,-2.400000,-0.600000,
-2.400000,0.600000,-2.380194,0.686777,-2.324698,0.756366,-2.244504,0.794986,-2.205014,0.794986,-2.200000,0.800000,0.000000,0.800000,0.178017,0.779942,0.178017,0.779942,$1*%
%AMFreePoly1*
4,1,28,0.605014,0.794986,0.644504,0.794986,0.724698,0.756366,0.780194,0.686777,0.800000,0.600000,0.800000,-0.600000,0.780194,-0.686777,0.724698,-0.756366,0.644504,-0.794986,0.605014,-0.794986,0.600000,-0.800000,0.000000,-0.800000,-0.178017,-0.779942,-0.347107,-0.720775,-0.498792,-0.625465,-0.625465,-0.498792,-0.720775,-0.347107,-0.779942,-0.178017,-0.800000,0.000000,-0.779942,0.178017,
-0.720775,0.347107,-0.625465,0.498792,-0.498792,0.625465,-0.347107,0.720775,-0.178017,0.779942,0.000000,0.800000,0.600000,0.800000,0.605014,0.794986,0.605014,0.794986,$1*%
%AMFreePoly2*
4,1,29,0.605014,0.794986,0.644504,0.794986,0.724698,0.756366,0.780194,0.686777,0.800000,0.600000,0.800000,-0.600000,0.780194,-0.686777,0.724698,-0.756366,0.644504,-0.794986,0.605014,-0.794986,0.600000,-0.800000,0.000000,-0.800000,-1.600000,-0.800000,-1.778017,-0.779942,-1.947107,-0.720775,-2.098792,-0.625465,-2.225465,-0.498792,-2.320775,-0.347107,-2.379942,-0.178017,-2.400000,0.000000,
-2.379942,0.178017,-2.320775,0.347107,-2.225465,0.498792,-2.098792,0.625465,-1.947107,0.720775,-1.778017,0.779942,-1.600000,0.800000,0.600000,0.800000,0.605014,0.794986,0.605014,0.794986,$1*%
%AMFreePoly3*
4,1,28,0.178017,0.779942,0.347107,0.720775,0.498792,0.625465,0.625465,0.498792,0.720775,0.347107,0.779942,0.178017,0.800000,0.000000,0.779942,-0.178017,0.720775,-0.347107,0.625465,-0.498792,0.498792,-0.625465,0.347107,-0.720775,0.178017,-0.779942,0.000000,-0.800000,-0.600000,-0.800000,-0.605014,-0.794986,-0.644504,-0.794986,-0.724698,-0.756366,-0.780194,-0.686777,-0.800000,-0.600000,
-0.800000,0.600000,-0.780194,0.686777,-0.724698,0.756366,-0.644504,0.794986,-0.605014,0.794986,-0.600000,0.800000,0.000000,0.800000,0.178017,0.779942,0.178017,0.779942,$1*%
%AMFreePoly4*
4,1,29,1.778017,0.779942,1.947107,0.720775,2.098792,0.625465,2.225465,0.498792,2.320775,0.347107,2.379942,0.178017,2.400000,0.000000,2.379942,-0.178017,2.320775,-0.347107,2.225465,-0.498792,2.098792,-0.625465,1.947107,-0.720775,1.778017,-0.779942,1.600000,-0.800000,0.000000,-0.800000,-0.600000,-0.800000,-0.605014,-0.794986,-0.644504,-0.794986,-0.724698,-0.756366,-0.780194,-0.686777,
-0.800000,-0.600000,-0.800000,0.600000,-0.780194,0.686777,-0.724698,0.756366,-0.644504,0.794986,-0.605014,0.794986,-0.600000,0.800000,1.600000,0.800000,1.778017,0.779942,1.778017,0.779942,$1*%
G04 Aperture macros list end*
%ADD10O,2.500000X4.000000*%
%ADD11R,1.600000X1.500000*%
%ADD12C,1.600000*%
%ADD13C,3.000000*%
%ADD14C,3.200000*%
%ADD15C,2.200000*%
%ADD16C,1.850000*%
%ADD17RoundRect,0.200000X-0.600000X-0.600000X0.600000X-0.600000X0.600000X0.600000X-0.600000X0.600000X0*%
%ADD18FreePoly0,0.000000*%
%ADD19RoundRect,0.800000X-0.800000X0.000000X0.800000X0.000000X0.800000X0.000000X-0.800000X0.000000X0*%
%ADD20FreePoly1,0.000000*%
%ADD21FreePoly2,0.000000*%
%ADD22FreePoly3,0.000000*%
%ADD23FreePoly4,0.000000*%
G04 APERTURE END LIST*
D10*
%TO.C,J10*%
X79717000Y-177927000D03*
X85217000Y-177927000D03*
X89717000Y-177927000D03*
%TD*%
D11*
%TO.C,J1*%
X101529000Y-179679000D03*
D12*
X104029000Y-179679000D03*
X106029000Y-179679000D03*
X108529000Y-179679000D03*
D13*
X98459000Y-182389000D03*
X111599000Y-182389000D03*
%TD*%
D10*
%TO.C,J2*%
X79717000Y-118999000D03*
X85217000Y-118999000D03*
X89717000Y-118999000D03*
%TD*%
D14*
%TO.C,REF11*%
X81661000Y-111887000D03*
%TD*%
D10*
%TO.C,J14*%
X130349000Y-155829000D03*
X124849000Y-155829000D03*
X120349000Y-155829000D03*
%TD*%
%TO.C,J15*%
X130341000Y-148463000D03*
X124841000Y-148463000D03*
X120341000Y-148463000D03*
%TD*%
%TO.C,J19*%
X130349000Y-118999000D03*
X124849000Y-118999000D03*
X120349000Y-118999000D03*
%TD*%
D14*
%TO.C,REF13*%
X81661000Y-185039000D03*
%TD*%
D10*
%TO.C,J3*%
X79717000Y-126365000D03*
X85217000Y-126365000D03*
X89717000Y-126365000D03*
%TD*%
%TO.C,J12*%
X130341000Y-170561000D03*
X124841000Y-170561000D03*
X120341000Y-170561000D03*
%TD*%
%TO.C,J5*%
X79717000Y-141097000D03*
X85217000Y-141097000D03*
X89717000Y-141097000D03*
%TD*%
%TO.C,J17*%
X130341000Y-133731000D03*
X124841000Y-133731000D03*
X120341000Y-133731000D03*
%TD*%
%TO.C,J4*%
X79717000Y-133731000D03*
X85217000Y-133731000D03*
X89717000Y-133731000D03*
%TD*%
D14*
%TO.C,REF14145235*%
X128397000Y-185039000D03*
%TD*%
D10*
%TO.C,J9*%
X79717000Y-170561000D03*
X85217000Y-170561000D03*
X89717000Y-170561000D03*
%TD*%
%TO.C,J7*%
X79717000Y-155829000D03*
X85217000Y-155829000D03*
X89717000Y-155829000D03*
%TD*%
%TO.C,J16*%
X130341000Y-141097000D03*
X124841000Y-141097000D03*
X120341000Y-141097000D03*
%TD*%
D14*
%TO.C,REF12*%
X128397000Y-111887000D03*
%TD*%
D10*
%TO.C,J6*%
X79717000Y-148463000D03*
X85217000Y-148463000D03*
X89717000Y-148463000D03*
%TD*%
D15*
%TO.C,U1*%
X102304000Y-110112000D03*
D16*
X102604000Y-113142000D03*
X107454000Y-113142000D03*
D15*
X107754000Y-110112000D03*
D17*
X96139000Y-109982000D03*
D18*
X96139000Y-109982000D03*
D12*
X96139000Y-112522000D03*
D19*
X95339000Y-112522000D03*
D20*
X96139000Y-115062000D03*
D21*
X96139000Y-115062000D03*
D12*
X96139000Y-117602000D03*
D19*
X95339000Y-117602000D03*
D12*
X96139000Y-120142000D03*
D19*
X95339000Y-120142000D03*
D12*
X96139000Y-122682000D03*
D19*
X95339000Y-122682000D03*
D12*
X96139000Y-125222000D03*
D19*
X95339000Y-125222000D03*
D20*
X96139000Y-127762000D03*
D21*
X96139000Y-127762000D03*
D12*
X96139000Y-130302000D03*
D19*
X95339000Y-130302000D03*
D12*
X96139000Y-132842000D03*
D19*
X95339000Y-132842000D03*
D12*
X96139000Y-135382000D03*
D19*
X95339000Y-135382000D03*
D12*
X96139000Y-137922000D03*
D19*
X95339000Y-137922000D03*
D20*
X96139000Y-140462000D03*
D21*
X96139000Y-140462000D03*
D12*
X96139000Y-143002000D03*
D19*
X95339000Y-143002000D03*
D12*
X96139000Y-145542000D03*
D19*
X95339000Y-145542000D03*
D12*
X96139000Y-148082000D03*
D19*
X95339000Y-148082000D03*
D12*
X96139000Y-150622000D03*
D19*
X95339000Y-150622000D03*
D20*
X96139000Y-153162000D03*
D21*
X96139000Y-153162000D03*
D12*
X96139000Y-155702000D03*
D19*
X95339000Y-155702000D03*
D12*
X96139000Y-158242000D03*
D19*
X95339000Y-158242000D03*
D12*
X113919000Y-158242000D03*
D19*
X114719000Y-158242000D03*
D12*
X113919000Y-155702000D03*
D19*
X114719000Y-155702000D03*
D22*
X113919000Y-153162000D03*
D23*
X113919000Y-153162000D03*
D12*
X113919000Y-150622000D03*
D19*
X114719000Y-150622000D03*
D12*
X113919000Y-148082000D03*
D19*
X114719000Y-148082000D03*
D12*
X113919000Y-145542000D03*
D19*
X114719000Y-145542000D03*
D12*
X113919000Y-143002000D03*
D19*
X114719000Y-143002000D03*
D22*
X113919000Y-140462000D03*
D23*
X113919000Y-140462000D03*
D12*
X113919000Y-137922000D03*
D19*
X114719000Y-137922000D03*
D12*
X113919000Y-135382000D03*
D19*
X114719000Y-135382000D03*
D12*
X113919000Y-132842000D03*
D19*
X114719000Y-132842000D03*
D12*
X113919000Y-130302000D03*
D19*
X114719000Y-130302000D03*
D22*
X113919000Y-127762000D03*
D23*
X113919000Y-127762000D03*
D12*
X113919000Y-125222000D03*
D19*
X114719000Y-125222000D03*
D12*
X113919000Y-122682000D03*
D19*
X114719000Y-122682000D03*
D12*
X113919000Y-120142000D03*
D19*
X114719000Y-120142000D03*
D12*
X113919000Y-117602000D03*
D19*
X114719000Y-117602000D03*
D22*
X113919000Y-115062000D03*
D23*
X113919000Y-115062000D03*
D12*
X113919000Y-112522000D03*
D19*
X114719000Y-112522000D03*
D12*
X113919000Y-109982000D03*
D19*
X114719000Y-109982000D03*
%TD*%
D10*
%TO.C,J8*%
X79717000Y-163195000D03*
X85217000Y-163195000D03*
X89717000Y-163195000D03*
%TD*%
%TO.C,J11*%
X130341000Y-177927000D03*
X124841000Y-177927000D03*
X120341000Y-177927000D03*
%TD*%
%TO.C,J13*%
X130341000Y-163195000D03*
X124841000Y-163195000D03*
X120341000Y-163195000D03*
%TD*%
%TO.C,J18*%
X130341000Y-126365000D03*
X124841000Y-126365000D03*
X120341000Y-126365000D03*
%TD*%
M02*
