%TF.GenerationSoftware,KiCad,Pcbnew,7.0.10*%
%TF.CreationDate,2024-03-07T13:06:01-05:00*%
%TF.ProjectId,adaptive-2040-nomoth,61646170-7469-4766-952d-323034302d6e,0*%
%TF.SameCoordinates,Original*%
%TF.FileFunction,Legend,Top*%
%TF.FilePolarity,Positive*%
%FSLAX46Y46*%
G04 Gerber Fmt 4.6, Leading zero omitted, Abs format (unit mm)*
G04 Created by KiCad (PCBNEW 7.0.10) date 2024-03-07 13:06:01*
%MOMM*%
%LPD*%
G01*
G04 APERTURE LIST*
%ADD10C,0.150000*%
%ADD11C,0.250000*%
%ADD12C,0.120000*%
G04 APERTURE END LIST*
D10*
X96415904Y-170941104D02*
X96892094Y-170941104D01*
X96284951Y-171226819D02*
X96743285Y-170226819D01*
X96743285Y-170226819D02*
X96951618Y-171226819D01*
X97719475Y-171179200D02*
X97618285Y-171226819D01*
X97618285Y-171226819D02*
X97427809Y-171226819D01*
X97427809Y-171226819D02*
X97338523Y-171179200D01*
X97338523Y-171179200D02*
X97296856Y-171131580D01*
X97296856Y-171131580D02*
X97261142Y-171036342D01*
X97261142Y-171036342D02*
X97296856Y-170750628D01*
X97296856Y-170750628D02*
X97356380Y-170655390D01*
X97356380Y-170655390D02*
X97409951Y-170607771D01*
X97409951Y-170607771D02*
X97511142Y-170560152D01*
X97511142Y-170560152D02*
X97701618Y-170560152D01*
X97701618Y-170560152D02*
X97790904Y-170607771D01*
X98576618Y-171179200D02*
X98475428Y-171226819D01*
X98475428Y-171226819D02*
X98284952Y-171226819D01*
X98284952Y-171226819D02*
X98195666Y-171179200D01*
X98195666Y-171179200D02*
X98153999Y-171131580D01*
X98153999Y-171131580D02*
X98118285Y-171036342D01*
X98118285Y-171036342D02*
X98153999Y-170750628D01*
X98153999Y-170750628D02*
X98213523Y-170655390D01*
X98213523Y-170655390D02*
X98267094Y-170607771D01*
X98267094Y-170607771D02*
X98368285Y-170560152D01*
X98368285Y-170560152D02*
X98558761Y-170560152D01*
X98558761Y-170560152D02*
X98648047Y-170607771D01*
X99386142Y-171179200D02*
X99284952Y-171226819D01*
X99284952Y-171226819D02*
X99094475Y-171226819D01*
X99094475Y-171226819D02*
X99005190Y-171179200D01*
X99005190Y-171179200D02*
X98969475Y-171083961D01*
X98969475Y-171083961D02*
X99017095Y-170703009D01*
X99017095Y-170703009D02*
X99076618Y-170607771D01*
X99076618Y-170607771D02*
X99177809Y-170560152D01*
X99177809Y-170560152D02*
X99368285Y-170560152D01*
X99368285Y-170560152D02*
X99457571Y-170607771D01*
X99457571Y-170607771D02*
X99493285Y-170703009D01*
X99493285Y-170703009D02*
X99481380Y-170798247D01*
X99481380Y-170798247D02*
X98993285Y-170893485D01*
X99814714Y-171179200D02*
X99903999Y-171226819D01*
X99903999Y-171226819D02*
X100094476Y-171226819D01*
X100094476Y-171226819D02*
X100195666Y-171179200D01*
X100195666Y-171179200D02*
X100255190Y-171083961D01*
X100255190Y-171083961D02*
X100261142Y-171036342D01*
X100261142Y-171036342D02*
X100225428Y-170941104D01*
X100225428Y-170941104D02*
X100136142Y-170893485D01*
X100136142Y-170893485D02*
X99993285Y-170893485D01*
X99993285Y-170893485D02*
X99903999Y-170845866D01*
X99903999Y-170845866D02*
X99868285Y-170750628D01*
X99868285Y-170750628D02*
X99874238Y-170703009D01*
X99874238Y-170703009D02*
X99933761Y-170607771D01*
X99933761Y-170607771D02*
X100034952Y-170560152D01*
X100034952Y-170560152D02*
X100177809Y-170560152D01*
X100177809Y-170560152D02*
X100267095Y-170607771D01*
X100624238Y-171179200D02*
X100713523Y-171226819D01*
X100713523Y-171226819D02*
X100904000Y-171226819D01*
X100904000Y-171226819D02*
X101005190Y-171179200D01*
X101005190Y-171179200D02*
X101064714Y-171083961D01*
X101064714Y-171083961D02*
X101070666Y-171036342D01*
X101070666Y-171036342D02*
X101034952Y-170941104D01*
X101034952Y-170941104D02*
X100945666Y-170893485D01*
X100945666Y-170893485D02*
X100802809Y-170893485D01*
X100802809Y-170893485D02*
X100713523Y-170845866D01*
X100713523Y-170845866D02*
X100677809Y-170750628D01*
X100677809Y-170750628D02*
X100683762Y-170703009D01*
X100683762Y-170703009D02*
X100743285Y-170607771D01*
X100743285Y-170607771D02*
X100844476Y-170560152D01*
X100844476Y-170560152D02*
X100987333Y-170560152D01*
X100987333Y-170560152D02*
X101076619Y-170607771D01*
X101475428Y-171226819D02*
X101558762Y-170560152D01*
X101600428Y-170226819D02*
X101546857Y-170274438D01*
X101546857Y-170274438D02*
X101588524Y-170322057D01*
X101588524Y-170322057D02*
X101642095Y-170274438D01*
X101642095Y-170274438D02*
X101600428Y-170226819D01*
X101600428Y-170226819D02*
X101588524Y-170322057D01*
X101951618Y-171226819D02*
X102076618Y-170226819D01*
X102028999Y-170607771D02*
X102130190Y-170560152D01*
X102130190Y-170560152D02*
X102320666Y-170560152D01*
X102320666Y-170560152D02*
X102409952Y-170607771D01*
X102409952Y-170607771D02*
X102451618Y-170655390D01*
X102451618Y-170655390D02*
X102487333Y-170750628D01*
X102487333Y-170750628D02*
X102451618Y-171036342D01*
X102451618Y-171036342D02*
X102392095Y-171131580D01*
X102392095Y-171131580D02*
X102338523Y-171179200D01*
X102338523Y-171179200D02*
X102237333Y-171226819D01*
X102237333Y-171226819D02*
X102046856Y-171226819D01*
X102046856Y-171226819D02*
X101957571Y-171179200D01*
X102856380Y-171226819D02*
X102939714Y-170560152D01*
X102981380Y-170226819D02*
X102927809Y-170274438D01*
X102927809Y-170274438D02*
X102969476Y-170322057D01*
X102969476Y-170322057D02*
X103023047Y-170274438D01*
X103023047Y-170274438D02*
X102981380Y-170226819D01*
X102981380Y-170226819D02*
X102969476Y-170322057D01*
X103475428Y-171226819D02*
X103386142Y-171179200D01*
X103386142Y-171179200D02*
X103350428Y-171083961D01*
X103350428Y-171083961D02*
X103457570Y-170226819D01*
X103856380Y-171226819D02*
X103939714Y-170560152D01*
X103981380Y-170226819D02*
X103927809Y-170274438D01*
X103927809Y-170274438D02*
X103969476Y-170322057D01*
X103969476Y-170322057D02*
X104023047Y-170274438D01*
X104023047Y-170274438D02*
X103981380Y-170226819D01*
X103981380Y-170226819D02*
X103969476Y-170322057D01*
X104273047Y-170560152D02*
X104653999Y-170560152D01*
X104457570Y-170226819D02*
X104350428Y-171083961D01*
X104350428Y-171083961D02*
X104386142Y-171179200D01*
X104386142Y-171179200D02*
X104475428Y-171226819D01*
X104475428Y-171226819D02*
X104570666Y-171226819D01*
X104892095Y-170560152D02*
X105046857Y-171226819D01*
X105368285Y-170560152D02*
X105046857Y-171226819D01*
X105046857Y-171226819D02*
X104921857Y-171464914D01*
X104921857Y-171464914D02*
X104868285Y-171512533D01*
X104868285Y-171512533D02*
X104767095Y-171560152D01*
X106427809Y-171226819D02*
X106511143Y-170560152D01*
X106552809Y-170226819D02*
X106499238Y-170274438D01*
X106499238Y-170274438D02*
X106540905Y-170322057D01*
X106540905Y-170322057D02*
X106594476Y-170274438D01*
X106594476Y-170274438D02*
X106552809Y-170226819D01*
X106552809Y-170226819D02*
X106540905Y-170322057D01*
X106862333Y-171179200D02*
X106951618Y-171226819D01*
X106951618Y-171226819D02*
X107142095Y-171226819D01*
X107142095Y-171226819D02*
X107243285Y-171179200D01*
X107243285Y-171179200D02*
X107302809Y-171083961D01*
X107302809Y-171083961D02*
X107308761Y-171036342D01*
X107308761Y-171036342D02*
X107273047Y-170941104D01*
X107273047Y-170941104D02*
X107183761Y-170893485D01*
X107183761Y-170893485D02*
X107040904Y-170893485D01*
X107040904Y-170893485D02*
X106951618Y-170845866D01*
X106951618Y-170845866D02*
X106915904Y-170750628D01*
X106915904Y-170750628D02*
X106921857Y-170703009D01*
X106921857Y-170703009D02*
X106981380Y-170607771D01*
X106981380Y-170607771D02*
X107082571Y-170560152D01*
X107082571Y-170560152D02*
X107225428Y-170560152D01*
X107225428Y-170560152D02*
X107314714Y-170607771D01*
X108904000Y-171226819D02*
X108969476Y-170703009D01*
X108969476Y-170703009D02*
X108933762Y-170607771D01*
X108933762Y-170607771D02*
X108844476Y-170560152D01*
X108844476Y-170560152D02*
X108654000Y-170560152D01*
X108654000Y-170560152D02*
X108552809Y-170607771D01*
X108909952Y-171179200D02*
X108808762Y-171226819D01*
X108808762Y-171226819D02*
X108570666Y-171226819D01*
X108570666Y-171226819D02*
X108481381Y-171179200D01*
X108481381Y-171179200D02*
X108445666Y-171083961D01*
X108445666Y-171083961D02*
X108457571Y-170988723D01*
X108457571Y-170988723D02*
X108517095Y-170893485D01*
X108517095Y-170893485D02*
X108618286Y-170845866D01*
X108618286Y-170845866D02*
X108856381Y-170845866D01*
X108856381Y-170845866D02*
X108957571Y-170798247D01*
X110142095Y-171226819D02*
X110225429Y-170560152D01*
X110201619Y-170750628D02*
X110261143Y-170655390D01*
X110261143Y-170655390D02*
X110314714Y-170607771D01*
X110314714Y-170607771D02*
X110415905Y-170560152D01*
X110415905Y-170560152D02*
X110511143Y-170560152D01*
X110761143Y-171226819D02*
X110844477Y-170560152D01*
X110886143Y-170226819D02*
X110832572Y-170274438D01*
X110832572Y-170274438D02*
X110874239Y-170322057D01*
X110874239Y-170322057D02*
X110927810Y-170274438D01*
X110927810Y-170274438D02*
X110886143Y-170226819D01*
X110886143Y-170226819D02*
X110874239Y-170322057D01*
X111749238Y-170560152D02*
X111648048Y-171369676D01*
X111648048Y-171369676D02*
X111588524Y-171464914D01*
X111588524Y-171464914D02*
X111534952Y-171512533D01*
X111534952Y-171512533D02*
X111433762Y-171560152D01*
X111433762Y-171560152D02*
X111290905Y-171560152D01*
X111290905Y-171560152D02*
X111201619Y-171512533D01*
X111671857Y-171179200D02*
X111570667Y-171226819D01*
X111570667Y-171226819D02*
X111380191Y-171226819D01*
X111380191Y-171226819D02*
X111290905Y-171179200D01*
X111290905Y-171179200D02*
X111249238Y-171131580D01*
X111249238Y-171131580D02*
X111213524Y-171036342D01*
X111213524Y-171036342D02*
X111249238Y-170750628D01*
X111249238Y-170750628D02*
X111308762Y-170655390D01*
X111308762Y-170655390D02*
X111362333Y-170607771D01*
X111362333Y-170607771D02*
X111463524Y-170560152D01*
X111463524Y-170560152D02*
X111654000Y-170560152D01*
X111654000Y-170560152D02*
X111743286Y-170607771D01*
X112142095Y-171226819D02*
X112267095Y-170226819D01*
X112570667Y-171226819D02*
X112636143Y-170703009D01*
X112636143Y-170703009D02*
X112600429Y-170607771D01*
X112600429Y-170607771D02*
X112511143Y-170560152D01*
X112511143Y-170560152D02*
X112368286Y-170560152D01*
X112368286Y-170560152D02*
X112267095Y-170607771D01*
X112267095Y-170607771D02*
X112213524Y-170655390D01*
X112987334Y-170560152D02*
X113368286Y-170560152D01*
X113171857Y-170226819D02*
X113064715Y-171083961D01*
X113064715Y-171083961D02*
X113100429Y-171179200D01*
X113100429Y-171179200D02*
X113189715Y-171226819D01*
X113189715Y-171226819D02*
X113284953Y-171226819D01*
X113671858Y-171179200D02*
X113665905Y-171226819D01*
X113665905Y-171226819D02*
X113606382Y-171322057D01*
X113606382Y-171322057D02*
X113552810Y-171369676D01*
X99511142Y-172170152D02*
X99427808Y-172836819D01*
X99499237Y-172265390D02*
X99552808Y-172217771D01*
X99552808Y-172217771D02*
X99653999Y-172170152D01*
X99653999Y-172170152D02*
X99796856Y-172170152D01*
X99796856Y-172170152D02*
X99886142Y-172217771D01*
X99886142Y-172217771D02*
X99921856Y-172313009D01*
X99921856Y-172313009D02*
X99856380Y-172836819D01*
X100475428Y-172836819D02*
X100386142Y-172789200D01*
X100386142Y-172789200D02*
X100344475Y-172741580D01*
X100344475Y-172741580D02*
X100308761Y-172646342D01*
X100308761Y-172646342D02*
X100344475Y-172360628D01*
X100344475Y-172360628D02*
X100403999Y-172265390D01*
X100403999Y-172265390D02*
X100457570Y-172217771D01*
X100457570Y-172217771D02*
X100558761Y-172170152D01*
X100558761Y-172170152D02*
X100701618Y-172170152D01*
X100701618Y-172170152D02*
X100790904Y-172217771D01*
X100790904Y-172217771D02*
X100832570Y-172265390D01*
X100832570Y-172265390D02*
X100868285Y-172360628D01*
X100868285Y-172360628D02*
X100832570Y-172646342D01*
X100832570Y-172646342D02*
X100773047Y-172741580D01*
X100773047Y-172741580D02*
X100719475Y-172789200D01*
X100719475Y-172789200D02*
X100618285Y-172836819D01*
X100618285Y-172836819D02*
X100475428Y-172836819D01*
X101177809Y-172170152D02*
X101558761Y-172170152D01*
X101362332Y-171836819D02*
X101255190Y-172693961D01*
X101255190Y-172693961D02*
X101290904Y-172789200D01*
X101290904Y-172789200D02*
X101380190Y-172836819D01*
X101380190Y-172836819D02*
X101475428Y-172836819D01*
X102999238Y-172836819D02*
X103064714Y-172313009D01*
X103064714Y-172313009D02*
X103029000Y-172217771D01*
X103029000Y-172217771D02*
X102939714Y-172170152D01*
X102939714Y-172170152D02*
X102749238Y-172170152D01*
X102749238Y-172170152D02*
X102648047Y-172217771D01*
X103005190Y-172789200D02*
X102904000Y-172836819D01*
X102904000Y-172836819D02*
X102665904Y-172836819D01*
X102665904Y-172836819D02*
X102576619Y-172789200D01*
X102576619Y-172789200D02*
X102540904Y-172693961D01*
X102540904Y-172693961D02*
X102552809Y-172598723D01*
X102552809Y-172598723D02*
X102612333Y-172503485D01*
X102612333Y-172503485D02*
X102713524Y-172455866D01*
X102713524Y-172455866D02*
X102951619Y-172455866D01*
X102951619Y-172455866D02*
X103052809Y-172408247D01*
X104320667Y-172170152D02*
X104195667Y-173170152D01*
X104314714Y-172217771D02*
X104415905Y-172170152D01*
X104415905Y-172170152D02*
X104606381Y-172170152D01*
X104606381Y-172170152D02*
X104695667Y-172217771D01*
X104695667Y-172217771D02*
X104737333Y-172265390D01*
X104737333Y-172265390D02*
X104773048Y-172360628D01*
X104773048Y-172360628D02*
X104737333Y-172646342D01*
X104737333Y-172646342D02*
X104677810Y-172741580D01*
X104677810Y-172741580D02*
X104624238Y-172789200D01*
X104624238Y-172789200D02*
X104523048Y-172836819D01*
X104523048Y-172836819D02*
X104332571Y-172836819D01*
X104332571Y-172836819D02*
X104243286Y-172789200D01*
X105142095Y-172836819D02*
X105225429Y-172170152D01*
X105201619Y-172360628D02*
X105261143Y-172265390D01*
X105261143Y-172265390D02*
X105314714Y-172217771D01*
X105314714Y-172217771D02*
X105415905Y-172170152D01*
X105415905Y-172170152D02*
X105511143Y-172170152D01*
X105761143Y-172836819D02*
X105844477Y-172170152D01*
X105886143Y-171836819D02*
X105832572Y-171884438D01*
X105832572Y-171884438D02*
X105874239Y-171932057D01*
X105874239Y-171932057D02*
X105927810Y-171884438D01*
X105927810Y-171884438D02*
X105886143Y-171836819D01*
X105886143Y-171836819D02*
X105874239Y-171932057D01*
X106225429Y-172170152D02*
X106380191Y-172836819D01*
X106380191Y-172836819D02*
X106701619Y-172170152D01*
X106999238Y-172836819D02*
X107082572Y-172170152D01*
X107124238Y-171836819D02*
X107070667Y-171884438D01*
X107070667Y-171884438D02*
X107112334Y-171932057D01*
X107112334Y-171932057D02*
X107165905Y-171884438D01*
X107165905Y-171884438D02*
X107124238Y-171836819D01*
X107124238Y-171836819D02*
X107112334Y-171932057D01*
X107618286Y-172836819D02*
X107529000Y-172789200D01*
X107529000Y-172789200D02*
X107493286Y-172693961D01*
X107493286Y-172693961D02*
X107600428Y-171836819D01*
X108386143Y-172789200D02*
X108284953Y-172836819D01*
X108284953Y-172836819D02*
X108094476Y-172836819D01*
X108094476Y-172836819D02*
X108005191Y-172789200D01*
X108005191Y-172789200D02*
X107969476Y-172693961D01*
X107969476Y-172693961D02*
X108017096Y-172313009D01*
X108017096Y-172313009D02*
X108076619Y-172217771D01*
X108076619Y-172217771D02*
X108177810Y-172170152D01*
X108177810Y-172170152D02*
X108368286Y-172170152D01*
X108368286Y-172170152D02*
X108457572Y-172217771D01*
X108457572Y-172217771D02*
X108493286Y-172313009D01*
X108493286Y-172313009D02*
X108481381Y-172408247D01*
X108481381Y-172408247D02*
X107993286Y-172503485D01*
X109368286Y-172170152D02*
X109267096Y-172979676D01*
X109267096Y-172979676D02*
X109207572Y-173074914D01*
X109207572Y-173074914D02*
X109154000Y-173122533D01*
X109154000Y-173122533D02*
X109052810Y-173170152D01*
X109052810Y-173170152D02*
X108909953Y-173170152D01*
X108909953Y-173170152D02*
X108820667Y-173122533D01*
X109290905Y-172789200D02*
X109189715Y-172836819D01*
X109189715Y-172836819D02*
X108999239Y-172836819D01*
X108999239Y-172836819D02*
X108909953Y-172789200D01*
X108909953Y-172789200D02*
X108868286Y-172741580D01*
X108868286Y-172741580D02*
X108832572Y-172646342D01*
X108832572Y-172646342D02*
X108868286Y-172360628D01*
X108868286Y-172360628D02*
X108927810Y-172265390D01*
X108927810Y-172265390D02*
X108981381Y-172217771D01*
X108981381Y-172217771D02*
X109082572Y-172170152D01*
X109082572Y-172170152D02*
X109273048Y-172170152D01*
X109273048Y-172170152D02*
X109362334Y-172217771D01*
X110148048Y-172789200D02*
X110046858Y-172836819D01*
X110046858Y-172836819D02*
X109856381Y-172836819D01*
X109856381Y-172836819D02*
X109767096Y-172789200D01*
X109767096Y-172789200D02*
X109731381Y-172693961D01*
X109731381Y-172693961D02*
X109779001Y-172313009D01*
X109779001Y-172313009D02*
X109838524Y-172217771D01*
X109838524Y-172217771D02*
X109939715Y-172170152D01*
X109939715Y-172170152D02*
X110130191Y-172170152D01*
X110130191Y-172170152D02*
X110219477Y-172217771D01*
X110219477Y-172217771D02*
X110255191Y-172313009D01*
X110255191Y-172313009D02*
X110243286Y-172408247D01*
X110243286Y-172408247D02*
X109755191Y-172503485D01*
X110630191Y-172741580D02*
X110671858Y-172789200D01*
X110671858Y-172789200D02*
X110618286Y-172836819D01*
X110618286Y-172836819D02*
X110576620Y-172789200D01*
X110576620Y-172789200D02*
X110630191Y-172741580D01*
X110630191Y-172741580D02*
X110618286Y-172836819D01*
X117898104Y-127079285D02*
X117898104Y-126603095D01*
X118183819Y-127174523D02*
X117183819Y-126841190D01*
X117183819Y-126841190D02*
X118183819Y-126507857D01*
X118183819Y-125650714D02*
X118183819Y-126222142D01*
X118183819Y-125936428D02*
X117183819Y-125936428D01*
X117183819Y-125936428D02*
X117326676Y-126031666D01*
X117326676Y-126031666D02*
X117421914Y-126126904D01*
X117421914Y-126126904D02*
X117469533Y-126222142D01*
X118183819Y-141263666D02*
X118183819Y-141739856D01*
X118183819Y-141739856D02*
X117183819Y-141739856D01*
X117183819Y-141025570D02*
X117183819Y-140406523D01*
X117183819Y-140406523D02*
X117564771Y-140739856D01*
X117564771Y-140739856D02*
X117564771Y-140596999D01*
X117564771Y-140596999D02*
X117612390Y-140501761D01*
X117612390Y-140501761D02*
X117660009Y-140454142D01*
X117660009Y-140454142D02*
X117755247Y-140406523D01*
X117755247Y-140406523D02*
X117993342Y-140406523D01*
X117993342Y-140406523D02*
X118088580Y-140454142D01*
X118088580Y-140454142D02*
X118136200Y-140501761D01*
X118136200Y-140501761D02*
X118183819Y-140596999D01*
X118183819Y-140596999D02*
X118183819Y-140882713D01*
X118183819Y-140882713D02*
X118136200Y-140977951D01*
X118136200Y-140977951D02*
X118088580Y-141025570D01*
X92397990Y-177522238D02*
X92350371Y-177665095D01*
X92350371Y-177665095D02*
X92302752Y-177712714D01*
X92302752Y-177712714D02*
X92207514Y-177760333D01*
X92207514Y-177760333D02*
X92064657Y-177760333D01*
X92064657Y-177760333D02*
X91969419Y-177712714D01*
X91969419Y-177712714D02*
X91921800Y-177665095D01*
X91921800Y-177665095D02*
X91874180Y-177569857D01*
X91874180Y-177569857D02*
X91874180Y-177188905D01*
X91874180Y-177188905D02*
X92874180Y-177188905D01*
X92874180Y-177188905D02*
X92874180Y-177522238D01*
X92874180Y-177522238D02*
X92826561Y-177617476D01*
X92826561Y-177617476D02*
X92778942Y-177665095D01*
X92778942Y-177665095D02*
X92683704Y-177712714D01*
X92683704Y-177712714D02*
X92588466Y-177712714D01*
X92588466Y-177712714D02*
X92493228Y-177665095D01*
X92493228Y-177665095D02*
X92445609Y-177617476D01*
X92445609Y-177617476D02*
X92397990Y-177522238D01*
X92397990Y-177522238D02*
X92397990Y-177188905D01*
X92874180Y-178093667D02*
X92874180Y-178712714D01*
X92874180Y-178712714D02*
X92493228Y-178379381D01*
X92493228Y-178379381D02*
X92493228Y-178522238D01*
X92493228Y-178522238D02*
X92445609Y-178617476D01*
X92445609Y-178617476D02*
X92397990Y-178665095D01*
X92397990Y-178665095D02*
X92302752Y-178712714D01*
X92302752Y-178712714D02*
X92064657Y-178712714D01*
X92064657Y-178712714D02*
X91969419Y-178665095D01*
X91969419Y-178665095D02*
X91921800Y-178617476D01*
X91921800Y-178617476D02*
X91874180Y-178522238D01*
X91874180Y-178522238D02*
X91874180Y-178236524D01*
X91874180Y-178236524D02*
X91921800Y-178141286D01*
X91921800Y-178141286D02*
X91969419Y-178093667D01*
X92397990Y-148058238D02*
X92350371Y-148201095D01*
X92350371Y-148201095D02*
X92302752Y-148248714D01*
X92302752Y-148248714D02*
X92207514Y-148296333D01*
X92207514Y-148296333D02*
X92064657Y-148296333D01*
X92064657Y-148296333D02*
X91969419Y-148248714D01*
X91969419Y-148248714D02*
X91921800Y-148201095D01*
X91921800Y-148201095D02*
X91874180Y-148105857D01*
X91874180Y-148105857D02*
X91874180Y-147724905D01*
X91874180Y-147724905D02*
X92874180Y-147724905D01*
X92874180Y-147724905D02*
X92874180Y-148058238D01*
X92874180Y-148058238D02*
X92826561Y-148153476D01*
X92826561Y-148153476D02*
X92778942Y-148201095D01*
X92778942Y-148201095D02*
X92683704Y-148248714D01*
X92683704Y-148248714D02*
X92588466Y-148248714D01*
X92588466Y-148248714D02*
X92493228Y-148201095D01*
X92493228Y-148201095D02*
X92445609Y-148153476D01*
X92445609Y-148153476D02*
X92397990Y-148058238D01*
X92397990Y-148058238D02*
X92397990Y-147724905D01*
X91874180Y-149248714D02*
X91874180Y-148677286D01*
X91874180Y-148963000D02*
X92874180Y-148963000D01*
X92874180Y-148963000D02*
X92731323Y-148867762D01*
X92731323Y-148867762D02*
X92636085Y-148772524D01*
X92636085Y-148772524D02*
X92588466Y-148677286D01*
X96290904Y-166856580D02*
X96243285Y-166904200D01*
X96243285Y-166904200D02*
X96100428Y-166951819D01*
X96100428Y-166951819D02*
X96005190Y-166951819D01*
X96005190Y-166951819D02*
X95862333Y-166904200D01*
X95862333Y-166904200D02*
X95767095Y-166808961D01*
X95767095Y-166808961D02*
X95719476Y-166713723D01*
X95719476Y-166713723D02*
X95671857Y-166523247D01*
X95671857Y-166523247D02*
X95671857Y-166380390D01*
X95671857Y-166380390D02*
X95719476Y-166189914D01*
X95719476Y-166189914D02*
X95767095Y-166094676D01*
X95767095Y-166094676D02*
X95862333Y-165999438D01*
X95862333Y-165999438D02*
X96005190Y-165951819D01*
X96005190Y-165951819D02*
X96100428Y-165951819D01*
X96100428Y-165951819D02*
X96243285Y-165999438D01*
X96243285Y-165999438D02*
X96290904Y-166047057D01*
X97290904Y-166856580D02*
X97243285Y-166904200D01*
X97243285Y-166904200D02*
X97100428Y-166951819D01*
X97100428Y-166951819D02*
X97005190Y-166951819D01*
X97005190Y-166951819D02*
X96862333Y-166904200D01*
X96862333Y-166904200D02*
X96767095Y-166808961D01*
X96767095Y-166808961D02*
X96719476Y-166713723D01*
X96719476Y-166713723D02*
X96671857Y-166523247D01*
X96671857Y-166523247D02*
X96671857Y-166380390D01*
X96671857Y-166380390D02*
X96719476Y-166189914D01*
X96719476Y-166189914D02*
X96767095Y-166094676D01*
X96767095Y-166094676D02*
X96862333Y-165999438D01*
X96862333Y-165999438D02*
X97005190Y-165951819D01*
X97005190Y-165951819D02*
X97100428Y-165951819D01*
X97100428Y-165951819D02*
X97243285Y-165999438D01*
X97243285Y-165999438D02*
X97290904Y-166047057D01*
X97719476Y-166570866D02*
X98481381Y-166570866D01*
X99290904Y-166428009D02*
X99433761Y-166475628D01*
X99433761Y-166475628D02*
X99481380Y-166523247D01*
X99481380Y-166523247D02*
X99528999Y-166618485D01*
X99528999Y-166618485D02*
X99528999Y-166761342D01*
X99528999Y-166761342D02*
X99481380Y-166856580D01*
X99481380Y-166856580D02*
X99433761Y-166904200D01*
X99433761Y-166904200D02*
X99338523Y-166951819D01*
X99338523Y-166951819D02*
X98957571Y-166951819D01*
X98957571Y-166951819D02*
X98957571Y-165951819D01*
X98957571Y-165951819D02*
X99290904Y-165951819D01*
X99290904Y-165951819D02*
X99386142Y-165999438D01*
X99386142Y-165999438D02*
X99433761Y-166047057D01*
X99433761Y-166047057D02*
X99481380Y-166142295D01*
X99481380Y-166142295D02*
X99481380Y-166237533D01*
X99481380Y-166237533D02*
X99433761Y-166332771D01*
X99433761Y-166332771D02*
X99386142Y-166380390D01*
X99386142Y-166380390D02*
X99290904Y-166428009D01*
X99290904Y-166428009D02*
X98957571Y-166428009D01*
X100148047Y-166475628D02*
X100148047Y-166951819D01*
X99814714Y-165951819D02*
X100148047Y-166475628D01*
X100148047Y-166475628D02*
X100481380Y-165951819D01*
X100814714Y-166570866D02*
X101576619Y-166570866D01*
X102005190Y-166904200D02*
X102148047Y-166951819D01*
X102148047Y-166951819D02*
X102386142Y-166951819D01*
X102386142Y-166951819D02*
X102481380Y-166904200D01*
X102481380Y-166904200D02*
X102528999Y-166856580D01*
X102528999Y-166856580D02*
X102576618Y-166761342D01*
X102576618Y-166761342D02*
X102576618Y-166666104D01*
X102576618Y-166666104D02*
X102528999Y-166570866D01*
X102528999Y-166570866D02*
X102481380Y-166523247D01*
X102481380Y-166523247D02*
X102386142Y-166475628D01*
X102386142Y-166475628D02*
X102195666Y-166428009D01*
X102195666Y-166428009D02*
X102100428Y-166380390D01*
X102100428Y-166380390D02*
X102052809Y-166332771D01*
X102052809Y-166332771D02*
X102005190Y-166237533D01*
X102005190Y-166237533D02*
X102005190Y-166142295D01*
X102005190Y-166142295D02*
X102052809Y-166047057D01*
X102052809Y-166047057D02*
X102100428Y-165999438D01*
X102100428Y-165999438D02*
X102195666Y-165951819D01*
X102195666Y-165951819D02*
X102433761Y-165951819D01*
X102433761Y-165951819D02*
X102576618Y-165999438D01*
X102957571Y-166666104D02*
X103433761Y-166666104D01*
X102862333Y-166951819D02*
X103195666Y-165951819D01*
X103195666Y-165951819D02*
X103528999Y-166951819D01*
X104624238Y-166951819D02*
X104624238Y-166285152D01*
X104624238Y-166380390D02*
X104671857Y-166332771D01*
X104671857Y-166332771D02*
X104767095Y-166285152D01*
X104767095Y-166285152D02*
X104909952Y-166285152D01*
X104909952Y-166285152D02*
X105005190Y-166332771D01*
X105005190Y-166332771D02*
X105052809Y-166428009D01*
X105052809Y-166428009D02*
X105052809Y-166951819D01*
X105052809Y-166428009D02*
X105100428Y-166332771D01*
X105100428Y-166332771D02*
X105195666Y-166285152D01*
X105195666Y-166285152D02*
X105338523Y-166285152D01*
X105338523Y-166285152D02*
X105433762Y-166332771D01*
X105433762Y-166332771D02*
X105481381Y-166428009D01*
X105481381Y-166428009D02*
X105481381Y-166951819D01*
X106100428Y-166951819D02*
X106005190Y-166904200D01*
X106005190Y-166904200D02*
X105957571Y-166856580D01*
X105957571Y-166856580D02*
X105909952Y-166761342D01*
X105909952Y-166761342D02*
X105909952Y-166475628D01*
X105909952Y-166475628D02*
X105957571Y-166380390D01*
X105957571Y-166380390D02*
X106005190Y-166332771D01*
X106005190Y-166332771D02*
X106100428Y-166285152D01*
X106100428Y-166285152D02*
X106243285Y-166285152D01*
X106243285Y-166285152D02*
X106338523Y-166332771D01*
X106338523Y-166332771D02*
X106386142Y-166380390D01*
X106386142Y-166380390D02*
X106433761Y-166475628D01*
X106433761Y-166475628D02*
X106433761Y-166761342D01*
X106433761Y-166761342D02*
X106386142Y-166856580D01*
X106386142Y-166856580D02*
X106338523Y-166904200D01*
X106338523Y-166904200D02*
X106243285Y-166951819D01*
X106243285Y-166951819D02*
X106100428Y-166951819D01*
X106719476Y-166285152D02*
X107100428Y-166285152D01*
X106862333Y-165951819D02*
X106862333Y-166808961D01*
X106862333Y-166808961D02*
X106909952Y-166904200D01*
X106909952Y-166904200D02*
X107005190Y-166951819D01*
X107005190Y-166951819D02*
X107100428Y-166951819D01*
X107433762Y-166951819D02*
X107433762Y-165951819D01*
X107862333Y-166951819D02*
X107862333Y-166428009D01*
X107862333Y-166428009D02*
X107814714Y-166332771D01*
X107814714Y-166332771D02*
X107719476Y-166285152D01*
X107719476Y-166285152D02*
X107576619Y-166285152D01*
X107576619Y-166285152D02*
X107481381Y-166332771D01*
X107481381Y-166332771D02*
X107433762Y-166380390D01*
X108338524Y-166856580D02*
X108386143Y-166904200D01*
X108386143Y-166904200D02*
X108338524Y-166951819D01*
X108338524Y-166951819D02*
X108290905Y-166904200D01*
X108290905Y-166904200D02*
X108338524Y-166856580D01*
X108338524Y-166856580D02*
X108338524Y-166951819D01*
X108814714Y-166951819D02*
X108814714Y-166285152D01*
X108814714Y-166380390D02*
X108862333Y-166332771D01*
X108862333Y-166332771D02*
X108957571Y-166285152D01*
X108957571Y-166285152D02*
X109100428Y-166285152D01*
X109100428Y-166285152D02*
X109195666Y-166332771D01*
X109195666Y-166332771D02*
X109243285Y-166428009D01*
X109243285Y-166428009D02*
X109243285Y-166951819D01*
X109243285Y-166428009D02*
X109290904Y-166332771D01*
X109290904Y-166332771D02*
X109386142Y-166285152D01*
X109386142Y-166285152D02*
X109528999Y-166285152D01*
X109528999Y-166285152D02*
X109624238Y-166332771D01*
X109624238Y-166332771D02*
X109671857Y-166428009D01*
X109671857Y-166428009D02*
X109671857Y-166951819D01*
X110290904Y-166951819D02*
X110195666Y-166904200D01*
X110195666Y-166904200D02*
X110148047Y-166856580D01*
X110148047Y-166856580D02*
X110100428Y-166761342D01*
X110100428Y-166761342D02*
X110100428Y-166475628D01*
X110100428Y-166475628D02*
X110148047Y-166380390D01*
X110148047Y-166380390D02*
X110195666Y-166332771D01*
X110195666Y-166332771D02*
X110290904Y-166285152D01*
X110290904Y-166285152D02*
X110433761Y-166285152D01*
X110433761Y-166285152D02*
X110528999Y-166332771D01*
X110528999Y-166332771D02*
X110576618Y-166380390D01*
X110576618Y-166380390D02*
X110624237Y-166475628D01*
X110624237Y-166475628D02*
X110624237Y-166761342D01*
X110624237Y-166761342D02*
X110576618Y-166856580D01*
X110576618Y-166856580D02*
X110528999Y-166904200D01*
X110528999Y-166904200D02*
X110433761Y-166951819D01*
X110433761Y-166951819D02*
X110290904Y-166951819D01*
X111052809Y-166285152D02*
X111052809Y-166951819D01*
X111052809Y-166380390D02*
X111100428Y-166332771D01*
X111100428Y-166332771D02*
X111195666Y-166285152D01*
X111195666Y-166285152D02*
X111338523Y-166285152D01*
X111338523Y-166285152D02*
X111433761Y-166332771D01*
X111433761Y-166332771D02*
X111481380Y-166428009D01*
X111481380Y-166428009D02*
X111481380Y-166951819D01*
X111909952Y-166904200D02*
X112005190Y-166951819D01*
X112005190Y-166951819D02*
X112195666Y-166951819D01*
X112195666Y-166951819D02*
X112290904Y-166904200D01*
X112290904Y-166904200D02*
X112338523Y-166808961D01*
X112338523Y-166808961D02*
X112338523Y-166761342D01*
X112338523Y-166761342D02*
X112290904Y-166666104D01*
X112290904Y-166666104D02*
X112195666Y-166618485D01*
X112195666Y-166618485D02*
X112052809Y-166618485D01*
X112052809Y-166618485D02*
X111957571Y-166570866D01*
X111957571Y-166570866D02*
X111909952Y-166475628D01*
X111909952Y-166475628D02*
X111909952Y-166428009D01*
X111909952Y-166428009D02*
X111957571Y-166332771D01*
X111957571Y-166332771D02*
X112052809Y-166285152D01*
X112052809Y-166285152D02*
X112195666Y-166285152D01*
X112195666Y-166285152D02*
X112290904Y-166332771D01*
X112624238Y-166285152D02*
X113005190Y-166285152D01*
X112767095Y-165951819D02*
X112767095Y-166808961D01*
X112767095Y-166808961D02*
X112814714Y-166904200D01*
X112814714Y-166904200D02*
X112909952Y-166951819D01*
X112909952Y-166951819D02*
X113005190Y-166951819D01*
X113719476Y-166904200D02*
X113624238Y-166951819D01*
X113624238Y-166951819D02*
X113433762Y-166951819D01*
X113433762Y-166951819D02*
X113338524Y-166904200D01*
X113338524Y-166904200D02*
X113290905Y-166808961D01*
X113290905Y-166808961D02*
X113290905Y-166428009D01*
X113290905Y-166428009D02*
X113338524Y-166332771D01*
X113338524Y-166332771D02*
X113433762Y-166285152D01*
X113433762Y-166285152D02*
X113624238Y-166285152D01*
X113624238Y-166285152D02*
X113719476Y-166332771D01*
X113719476Y-166332771D02*
X113767095Y-166428009D01*
X113767095Y-166428009D02*
X113767095Y-166523247D01*
X113767095Y-166523247D02*
X113290905Y-166618485D01*
X114195667Y-166951819D02*
X114195667Y-166285152D01*
X114195667Y-166475628D02*
X114243286Y-166380390D01*
X114243286Y-166380390D02*
X114290905Y-166332771D01*
X114290905Y-166332771D02*
X114386143Y-166285152D01*
X114386143Y-166285152D02*
X114481381Y-166285152D01*
X118183819Y-133897666D02*
X117707628Y-134230999D01*
X118183819Y-134469094D02*
X117183819Y-134469094D01*
X117183819Y-134469094D02*
X117183819Y-134088142D01*
X117183819Y-134088142D02*
X117231438Y-133992904D01*
X117231438Y-133992904D02*
X117279057Y-133945285D01*
X117279057Y-133945285D02*
X117374295Y-133897666D01*
X117374295Y-133897666D02*
X117517152Y-133897666D01*
X117517152Y-133897666D02*
X117612390Y-133945285D01*
X117612390Y-133945285D02*
X117660009Y-133992904D01*
X117660009Y-133992904D02*
X117707628Y-134088142D01*
X117707628Y-134088142D02*
X117707628Y-134469094D01*
X117183819Y-133564332D02*
X117183819Y-132945285D01*
X117183819Y-132945285D02*
X117564771Y-133278618D01*
X117564771Y-133278618D02*
X117564771Y-133135761D01*
X117564771Y-133135761D02*
X117612390Y-133040523D01*
X117612390Y-133040523D02*
X117660009Y-132992904D01*
X117660009Y-132992904D02*
X117755247Y-132945285D01*
X117755247Y-132945285D02*
X117993342Y-132945285D01*
X117993342Y-132945285D02*
X118088580Y-132992904D01*
X118088580Y-132992904D02*
X118136200Y-133040523D01*
X118136200Y-133040523D02*
X118183819Y-133135761D01*
X118183819Y-133135761D02*
X118183819Y-133421475D01*
X118183819Y-133421475D02*
X118136200Y-133516713D01*
X118136200Y-133516713D02*
X118088580Y-133564332D01*
X91874180Y-170394333D02*
X91874180Y-169918143D01*
X91874180Y-169918143D02*
X92874180Y-169918143D01*
X92778942Y-170680048D02*
X92826561Y-170727667D01*
X92826561Y-170727667D02*
X92874180Y-170822905D01*
X92874180Y-170822905D02*
X92874180Y-171061000D01*
X92874180Y-171061000D02*
X92826561Y-171156238D01*
X92826561Y-171156238D02*
X92778942Y-171203857D01*
X92778942Y-171203857D02*
X92683704Y-171251476D01*
X92683704Y-171251476D02*
X92588466Y-171251476D01*
X92588466Y-171251476D02*
X92445609Y-171203857D01*
X92445609Y-171203857D02*
X91874180Y-170632429D01*
X91874180Y-170632429D02*
X91874180Y-171251476D01*
X118136200Y-149224904D02*
X118183819Y-149082047D01*
X118183819Y-149082047D02*
X118183819Y-148843952D01*
X118183819Y-148843952D02*
X118136200Y-148748714D01*
X118136200Y-148748714D02*
X118088580Y-148701095D01*
X118088580Y-148701095D02*
X117993342Y-148653476D01*
X117993342Y-148653476D02*
X117898104Y-148653476D01*
X117898104Y-148653476D02*
X117802866Y-148701095D01*
X117802866Y-148701095D02*
X117755247Y-148748714D01*
X117755247Y-148748714D02*
X117707628Y-148843952D01*
X117707628Y-148843952D02*
X117660009Y-149034428D01*
X117660009Y-149034428D02*
X117612390Y-149129666D01*
X117612390Y-149129666D02*
X117564771Y-149177285D01*
X117564771Y-149177285D02*
X117469533Y-149224904D01*
X117469533Y-149224904D02*
X117374295Y-149224904D01*
X117374295Y-149224904D02*
X117279057Y-149177285D01*
X117279057Y-149177285D02*
X117231438Y-149129666D01*
X117231438Y-149129666D02*
X117183819Y-149034428D01*
X117183819Y-149034428D02*
X117183819Y-148796333D01*
X117183819Y-148796333D02*
X117231438Y-148653476D01*
X117279057Y-148272523D02*
X117231438Y-148224904D01*
X117231438Y-148224904D02*
X117183819Y-148129666D01*
X117183819Y-148129666D02*
X117183819Y-147891571D01*
X117183819Y-147891571D02*
X117231438Y-147796333D01*
X117231438Y-147796333D02*
X117279057Y-147748714D01*
X117279057Y-147748714D02*
X117374295Y-147701095D01*
X117374295Y-147701095D02*
X117469533Y-147701095D01*
X117469533Y-147701095D02*
X117612390Y-147748714D01*
X117612390Y-147748714D02*
X118183819Y-148320142D01*
X118183819Y-148320142D02*
X118183819Y-147701095D01*
X118183819Y-163361666D02*
X118183819Y-163837856D01*
X118183819Y-163837856D02*
X117183819Y-163837856D01*
X118183819Y-162504523D02*
X118183819Y-163075951D01*
X118183819Y-162790237D02*
X117183819Y-162790237D01*
X117183819Y-162790237D02*
X117326676Y-162885475D01*
X117326676Y-162885475D02*
X117421914Y-162980713D01*
X117421914Y-162980713D02*
X117469533Y-163075951D01*
X103767095Y-175603819D02*
X103767095Y-176413342D01*
X103767095Y-176413342D02*
X103814714Y-176508580D01*
X103814714Y-176508580D02*
X103862333Y-176556200D01*
X103862333Y-176556200D02*
X103957571Y-176603819D01*
X103957571Y-176603819D02*
X104148047Y-176603819D01*
X104148047Y-176603819D02*
X104243285Y-176556200D01*
X104243285Y-176556200D02*
X104290904Y-176508580D01*
X104290904Y-176508580D02*
X104338523Y-176413342D01*
X104338523Y-176413342D02*
X104338523Y-175603819D01*
X104767095Y-176556200D02*
X104909952Y-176603819D01*
X104909952Y-176603819D02*
X105148047Y-176603819D01*
X105148047Y-176603819D02*
X105243285Y-176556200D01*
X105243285Y-176556200D02*
X105290904Y-176508580D01*
X105290904Y-176508580D02*
X105338523Y-176413342D01*
X105338523Y-176413342D02*
X105338523Y-176318104D01*
X105338523Y-176318104D02*
X105290904Y-176222866D01*
X105290904Y-176222866D02*
X105243285Y-176175247D01*
X105243285Y-176175247D02*
X105148047Y-176127628D01*
X105148047Y-176127628D02*
X104957571Y-176080009D01*
X104957571Y-176080009D02*
X104862333Y-176032390D01*
X104862333Y-176032390D02*
X104814714Y-175984771D01*
X104814714Y-175984771D02*
X104767095Y-175889533D01*
X104767095Y-175889533D02*
X104767095Y-175794295D01*
X104767095Y-175794295D02*
X104814714Y-175699057D01*
X104814714Y-175699057D02*
X104862333Y-175651438D01*
X104862333Y-175651438D02*
X104957571Y-175603819D01*
X104957571Y-175603819D02*
X105195666Y-175603819D01*
X105195666Y-175603819D02*
X105338523Y-175651438D01*
X106100428Y-176080009D02*
X106243285Y-176127628D01*
X106243285Y-176127628D02*
X106290904Y-176175247D01*
X106290904Y-176175247D02*
X106338523Y-176270485D01*
X106338523Y-176270485D02*
X106338523Y-176413342D01*
X106338523Y-176413342D02*
X106290904Y-176508580D01*
X106290904Y-176508580D02*
X106243285Y-176556200D01*
X106243285Y-176556200D02*
X106148047Y-176603819D01*
X106148047Y-176603819D02*
X105767095Y-176603819D01*
X105767095Y-176603819D02*
X105767095Y-175603819D01*
X105767095Y-175603819D02*
X106100428Y-175603819D01*
X106100428Y-175603819D02*
X106195666Y-175651438D01*
X106195666Y-175651438D02*
X106243285Y-175699057D01*
X106243285Y-175699057D02*
X106290904Y-175794295D01*
X106290904Y-175794295D02*
X106290904Y-175889533D01*
X106290904Y-175889533D02*
X106243285Y-175984771D01*
X106243285Y-175984771D02*
X106195666Y-176032390D01*
X106195666Y-176032390D02*
X106100428Y-176080009D01*
X106100428Y-176080009D02*
X105767095Y-176080009D01*
X117660009Y-178331761D02*
X117707628Y-178188904D01*
X117707628Y-178188904D02*
X117755247Y-178141285D01*
X117755247Y-178141285D02*
X117850485Y-178093666D01*
X117850485Y-178093666D02*
X117993342Y-178093666D01*
X117993342Y-178093666D02*
X118088580Y-178141285D01*
X118088580Y-178141285D02*
X118136200Y-178188904D01*
X118136200Y-178188904D02*
X118183819Y-178284142D01*
X118183819Y-178284142D02*
X118183819Y-178665094D01*
X118183819Y-178665094D02*
X117183819Y-178665094D01*
X117183819Y-178665094D02*
X117183819Y-178331761D01*
X117183819Y-178331761D02*
X117231438Y-178236523D01*
X117231438Y-178236523D02*
X117279057Y-178188904D01*
X117279057Y-178188904D02*
X117374295Y-178141285D01*
X117374295Y-178141285D02*
X117469533Y-178141285D01*
X117469533Y-178141285D02*
X117564771Y-178188904D01*
X117564771Y-178188904D02*
X117612390Y-178236523D01*
X117612390Y-178236523D02*
X117660009Y-178331761D01*
X117660009Y-178331761D02*
X117660009Y-178665094D01*
X117517152Y-177236523D02*
X118183819Y-177236523D01*
X117136200Y-177474618D02*
X117850485Y-177712713D01*
X117850485Y-177712713D02*
X117850485Y-177093666D01*
X91874180Y-163028333D02*
X92350371Y-162695000D01*
X91874180Y-162456905D02*
X92874180Y-162456905D01*
X92874180Y-162456905D02*
X92874180Y-162837857D01*
X92874180Y-162837857D02*
X92826561Y-162933095D01*
X92826561Y-162933095D02*
X92778942Y-162980714D01*
X92778942Y-162980714D02*
X92683704Y-163028333D01*
X92683704Y-163028333D02*
X92540847Y-163028333D01*
X92540847Y-163028333D02*
X92445609Y-162980714D01*
X92445609Y-162980714D02*
X92397990Y-162933095D01*
X92397990Y-162933095D02*
X92350371Y-162837857D01*
X92350371Y-162837857D02*
X92350371Y-162456905D01*
X92778942Y-163409286D02*
X92826561Y-163456905D01*
X92826561Y-163456905D02*
X92874180Y-163552143D01*
X92874180Y-163552143D02*
X92874180Y-163790238D01*
X92874180Y-163790238D02*
X92826561Y-163885476D01*
X92826561Y-163885476D02*
X92778942Y-163933095D01*
X92778942Y-163933095D02*
X92683704Y-163980714D01*
X92683704Y-163980714D02*
X92588466Y-163980714D01*
X92588466Y-163980714D02*
X92445609Y-163933095D01*
X92445609Y-163933095D02*
X91874180Y-163361667D01*
X91874180Y-163361667D02*
X91874180Y-163980714D01*
D11*
X95505094Y-164969238D02*
X95505094Y-163921619D01*
X95505094Y-163921619D02*
X95409856Y-163731142D01*
X95409856Y-163731142D02*
X95219380Y-163635904D01*
X95219380Y-163635904D02*
X94838427Y-163635904D01*
X94838427Y-163635904D02*
X94647951Y-163731142D01*
X95505094Y-164874000D02*
X95314618Y-164969238D01*
X95314618Y-164969238D02*
X94838427Y-164969238D01*
X94838427Y-164969238D02*
X94647951Y-164874000D01*
X94647951Y-164874000D02*
X94552713Y-164683523D01*
X94552713Y-164683523D02*
X94552713Y-164493047D01*
X94552713Y-164493047D02*
X94647951Y-164302571D01*
X94647951Y-164302571D02*
X94838427Y-164207333D01*
X94838427Y-164207333D02*
X95314618Y-164207333D01*
X95314618Y-164207333D02*
X95505094Y-164112095D01*
X97314618Y-164969238D02*
X97314618Y-162969238D01*
X97314618Y-164874000D02*
X97124142Y-164969238D01*
X97124142Y-164969238D02*
X96743189Y-164969238D01*
X96743189Y-164969238D02*
X96552713Y-164874000D01*
X96552713Y-164874000D02*
X96457475Y-164778761D01*
X96457475Y-164778761D02*
X96362237Y-164588285D01*
X96362237Y-164588285D02*
X96362237Y-164016857D01*
X96362237Y-164016857D02*
X96457475Y-163826380D01*
X96457475Y-163826380D02*
X96552713Y-163731142D01*
X96552713Y-163731142D02*
X96743189Y-163635904D01*
X96743189Y-163635904D02*
X97124142Y-163635904D01*
X97124142Y-163635904D02*
X97314618Y-163731142D01*
X99124142Y-164969238D02*
X99124142Y-163921619D01*
X99124142Y-163921619D02*
X99028904Y-163731142D01*
X99028904Y-163731142D02*
X98838428Y-163635904D01*
X98838428Y-163635904D02*
X98457475Y-163635904D01*
X98457475Y-163635904D02*
X98266999Y-163731142D01*
X99124142Y-164874000D02*
X98933666Y-164969238D01*
X98933666Y-164969238D02*
X98457475Y-164969238D01*
X98457475Y-164969238D02*
X98266999Y-164874000D01*
X98266999Y-164874000D02*
X98171761Y-164683523D01*
X98171761Y-164683523D02*
X98171761Y-164493047D01*
X98171761Y-164493047D02*
X98266999Y-164302571D01*
X98266999Y-164302571D02*
X98457475Y-164207333D01*
X98457475Y-164207333D02*
X98933666Y-164207333D01*
X98933666Y-164207333D02*
X99124142Y-164112095D01*
X100076523Y-163635904D02*
X100076523Y-165635904D01*
X100076523Y-163731142D02*
X100266999Y-163635904D01*
X100266999Y-163635904D02*
X100647952Y-163635904D01*
X100647952Y-163635904D02*
X100838428Y-163731142D01*
X100838428Y-163731142D02*
X100933666Y-163826380D01*
X100933666Y-163826380D02*
X101028904Y-164016857D01*
X101028904Y-164016857D02*
X101028904Y-164588285D01*
X101028904Y-164588285D02*
X100933666Y-164778761D01*
X100933666Y-164778761D02*
X100838428Y-164874000D01*
X100838428Y-164874000D02*
X100647952Y-164969238D01*
X100647952Y-164969238D02*
X100266999Y-164969238D01*
X100266999Y-164969238D02*
X100076523Y-164874000D01*
X101600333Y-163635904D02*
X102362237Y-163635904D01*
X101886047Y-162969238D02*
X101886047Y-164683523D01*
X101886047Y-164683523D02*
X101981285Y-164874000D01*
X101981285Y-164874000D02*
X102171761Y-164969238D01*
X102171761Y-164969238D02*
X102362237Y-164969238D01*
X103028904Y-164969238D02*
X103028904Y-163635904D01*
X103028904Y-162969238D02*
X102933666Y-163064476D01*
X102933666Y-163064476D02*
X103028904Y-163159714D01*
X103028904Y-163159714D02*
X103124142Y-163064476D01*
X103124142Y-163064476D02*
X103028904Y-162969238D01*
X103028904Y-162969238D02*
X103028904Y-163159714D01*
X103790809Y-163635904D02*
X104266999Y-164969238D01*
X104266999Y-164969238D02*
X104743190Y-163635904D01*
X106267000Y-164874000D02*
X106076524Y-164969238D01*
X106076524Y-164969238D02*
X105695571Y-164969238D01*
X105695571Y-164969238D02*
X105505095Y-164874000D01*
X105505095Y-164874000D02*
X105409857Y-164683523D01*
X105409857Y-164683523D02*
X105409857Y-163921619D01*
X105409857Y-163921619D02*
X105505095Y-163731142D01*
X105505095Y-163731142D02*
X105695571Y-163635904D01*
X105695571Y-163635904D02*
X106076524Y-163635904D01*
X106076524Y-163635904D02*
X106267000Y-163731142D01*
X106267000Y-163731142D02*
X106362238Y-163921619D01*
X106362238Y-163921619D02*
X106362238Y-164112095D01*
X106362238Y-164112095D02*
X105409857Y-164302571D01*
X107124143Y-163159714D02*
X107219381Y-163064476D01*
X107219381Y-163064476D02*
X107409857Y-162969238D01*
X107409857Y-162969238D02*
X107886048Y-162969238D01*
X107886048Y-162969238D02*
X108076524Y-163064476D01*
X108076524Y-163064476D02*
X108171762Y-163159714D01*
X108171762Y-163159714D02*
X108267000Y-163350190D01*
X108267000Y-163350190D02*
X108267000Y-163540666D01*
X108267000Y-163540666D02*
X108171762Y-163826380D01*
X108171762Y-163826380D02*
X107028905Y-164969238D01*
X107028905Y-164969238D02*
X108267000Y-164969238D01*
X109505095Y-162969238D02*
X109695572Y-162969238D01*
X109695572Y-162969238D02*
X109886048Y-163064476D01*
X109886048Y-163064476D02*
X109981286Y-163159714D01*
X109981286Y-163159714D02*
X110076524Y-163350190D01*
X110076524Y-163350190D02*
X110171762Y-163731142D01*
X110171762Y-163731142D02*
X110171762Y-164207333D01*
X110171762Y-164207333D02*
X110076524Y-164588285D01*
X110076524Y-164588285D02*
X109981286Y-164778761D01*
X109981286Y-164778761D02*
X109886048Y-164874000D01*
X109886048Y-164874000D02*
X109695572Y-164969238D01*
X109695572Y-164969238D02*
X109505095Y-164969238D01*
X109505095Y-164969238D02*
X109314619Y-164874000D01*
X109314619Y-164874000D02*
X109219381Y-164778761D01*
X109219381Y-164778761D02*
X109124143Y-164588285D01*
X109124143Y-164588285D02*
X109028905Y-164207333D01*
X109028905Y-164207333D02*
X109028905Y-163731142D01*
X109028905Y-163731142D02*
X109124143Y-163350190D01*
X109124143Y-163350190D02*
X109219381Y-163159714D01*
X109219381Y-163159714D02*
X109314619Y-163064476D01*
X109314619Y-163064476D02*
X109505095Y-162969238D01*
X111886048Y-163635904D02*
X111886048Y-164969238D01*
X111409857Y-162874000D02*
X110933667Y-164302571D01*
X110933667Y-164302571D02*
X112171762Y-164302571D01*
X113314619Y-162969238D02*
X113505096Y-162969238D01*
X113505096Y-162969238D02*
X113695572Y-163064476D01*
X113695572Y-163064476D02*
X113790810Y-163159714D01*
X113790810Y-163159714D02*
X113886048Y-163350190D01*
X113886048Y-163350190D02*
X113981286Y-163731142D01*
X113981286Y-163731142D02*
X113981286Y-164207333D01*
X113981286Y-164207333D02*
X113886048Y-164588285D01*
X113886048Y-164588285D02*
X113790810Y-164778761D01*
X113790810Y-164778761D02*
X113695572Y-164874000D01*
X113695572Y-164874000D02*
X113505096Y-164969238D01*
X113505096Y-164969238D02*
X113314619Y-164969238D01*
X113314619Y-164969238D02*
X113124143Y-164874000D01*
X113124143Y-164874000D02*
X113028905Y-164778761D01*
X113028905Y-164778761D02*
X112933667Y-164588285D01*
X112933667Y-164588285D02*
X112838429Y-164207333D01*
X112838429Y-164207333D02*
X112838429Y-163731142D01*
X112838429Y-163731142D02*
X112933667Y-163350190D01*
X112933667Y-163350190D02*
X113028905Y-163159714D01*
X113028905Y-163159714D02*
X113124143Y-163064476D01*
X113124143Y-163064476D02*
X113314619Y-162969238D01*
D10*
X102624238Y-133095152D02*
X102624238Y-134095152D01*
X102624238Y-133142771D02*
X102719476Y-133095152D01*
X102719476Y-133095152D02*
X102909952Y-133095152D01*
X102909952Y-133095152D02*
X103005190Y-133142771D01*
X103005190Y-133142771D02*
X103052809Y-133190390D01*
X103052809Y-133190390D02*
X103100428Y-133285628D01*
X103100428Y-133285628D02*
X103100428Y-133571342D01*
X103100428Y-133571342D02*
X103052809Y-133666580D01*
X103052809Y-133666580D02*
X103005190Y-133714200D01*
X103005190Y-133714200D02*
X102909952Y-133761819D01*
X102909952Y-133761819D02*
X102719476Y-133761819D01*
X102719476Y-133761819D02*
X102624238Y-133714200D01*
X103529000Y-133761819D02*
X103529000Y-133095152D01*
X103529000Y-132761819D02*
X103481381Y-132809438D01*
X103481381Y-132809438D02*
X103529000Y-132857057D01*
X103529000Y-132857057D02*
X103576619Y-132809438D01*
X103576619Y-132809438D02*
X103529000Y-132761819D01*
X103529000Y-132761819D02*
X103529000Y-132857057D01*
X104767095Y-133095152D02*
X104767095Y-134095152D01*
X104767095Y-133142771D02*
X104862333Y-133095152D01*
X104862333Y-133095152D02*
X105052809Y-133095152D01*
X105052809Y-133095152D02*
X105148047Y-133142771D01*
X105148047Y-133142771D02*
X105195666Y-133190390D01*
X105195666Y-133190390D02*
X105243285Y-133285628D01*
X105243285Y-133285628D02*
X105243285Y-133571342D01*
X105243285Y-133571342D02*
X105195666Y-133666580D01*
X105195666Y-133666580D02*
X105148047Y-133714200D01*
X105148047Y-133714200D02*
X105052809Y-133761819D01*
X105052809Y-133761819D02*
X104862333Y-133761819D01*
X104862333Y-133761819D02*
X104767095Y-133714200D01*
X105671857Y-133761819D02*
X105671857Y-133095152D01*
X105671857Y-132761819D02*
X105624238Y-132809438D01*
X105624238Y-132809438D02*
X105671857Y-132857057D01*
X105671857Y-132857057D02*
X105719476Y-132809438D01*
X105719476Y-132809438D02*
X105671857Y-132761819D01*
X105671857Y-132761819D02*
X105671857Y-132857057D01*
X106576618Y-133714200D02*
X106481380Y-133761819D01*
X106481380Y-133761819D02*
X106290904Y-133761819D01*
X106290904Y-133761819D02*
X106195666Y-133714200D01*
X106195666Y-133714200D02*
X106148047Y-133666580D01*
X106148047Y-133666580D02*
X106100428Y-133571342D01*
X106100428Y-133571342D02*
X106100428Y-133285628D01*
X106100428Y-133285628D02*
X106148047Y-133190390D01*
X106148047Y-133190390D02*
X106195666Y-133142771D01*
X106195666Y-133142771D02*
X106290904Y-133095152D01*
X106290904Y-133095152D02*
X106481380Y-133095152D01*
X106481380Y-133095152D02*
X106576618Y-133142771D01*
X107148047Y-133761819D02*
X107052809Y-133714200D01*
X107052809Y-133714200D02*
X107005190Y-133666580D01*
X107005190Y-133666580D02*
X106957571Y-133571342D01*
X106957571Y-133571342D02*
X106957571Y-133285628D01*
X106957571Y-133285628D02*
X107005190Y-133190390D01*
X107005190Y-133190390D02*
X107052809Y-133142771D01*
X107052809Y-133142771D02*
X107148047Y-133095152D01*
X107148047Y-133095152D02*
X107290904Y-133095152D01*
X107290904Y-133095152D02*
X107386142Y-133142771D01*
X107386142Y-133142771D02*
X107433761Y-133190390D01*
X107433761Y-133190390D02*
X107481380Y-133285628D01*
X107481380Y-133285628D02*
X107481380Y-133571342D01*
X107481380Y-133571342D02*
X107433761Y-133666580D01*
X107433761Y-133666580D02*
X107386142Y-133714200D01*
X107386142Y-133714200D02*
X107290904Y-133761819D01*
X107290904Y-133761819D02*
X107148047Y-133761819D01*
X101957570Y-134705152D02*
X101957570Y-135514676D01*
X101957570Y-135514676D02*
X101909951Y-135609914D01*
X101909951Y-135609914D02*
X101862332Y-135657533D01*
X101862332Y-135657533D02*
X101767094Y-135705152D01*
X101767094Y-135705152D02*
X101624237Y-135705152D01*
X101624237Y-135705152D02*
X101528999Y-135657533D01*
X101957570Y-135324200D02*
X101862332Y-135371819D01*
X101862332Y-135371819D02*
X101671856Y-135371819D01*
X101671856Y-135371819D02*
X101576618Y-135324200D01*
X101576618Y-135324200D02*
X101528999Y-135276580D01*
X101528999Y-135276580D02*
X101481380Y-135181342D01*
X101481380Y-135181342D02*
X101481380Y-134895628D01*
X101481380Y-134895628D02*
X101528999Y-134800390D01*
X101528999Y-134800390D02*
X101576618Y-134752771D01*
X101576618Y-134752771D02*
X101671856Y-134705152D01*
X101671856Y-134705152D02*
X101862332Y-134705152D01*
X101862332Y-134705152D02*
X101957570Y-134752771D01*
X102576618Y-135371819D02*
X102481380Y-135324200D01*
X102481380Y-135324200D02*
X102433761Y-135276580D01*
X102433761Y-135276580D02*
X102386142Y-135181342D01*
X102386142Y-135181342D02*
X102386142Y-134895628D01*
X102386142Y-134895628D02*
X102433761Y-134800390D01*
X102433761Y-134800390D02*
X102481380Y-134752771D01*
X102481380Y-134752771D02*
X102576618Y-134705152D01*
X102576618Y-134705152D02*
X102719475Y-134705152D01*
X102719475Y-134705152D02*
X102814713Y-134752771D01*
X102814713Y-134752771D02*
X102862332Y-134800390D01*
X102862332Y-134800390D02*
X102909951Y-134895628D01*
X102909951Y-134895628D02*
X102909951Y-135181342D01*
X102909951Y-135181342D02*
X102862332Y-135276580D01*
X102862332Y-135276580D02*
X102814713Y-135324200D01*
X102814713Y-135324200D02*
X102719475Y-135371819D01*
X102719475Y-135371819D02*
X102576618Y-135371819D01*
X103719475Y-135324200D02*
X103624237Y-135371819D01*
X103624237Y-135371819D02*
X103433761Y-135371819D01*
X103433761Y-135371819D02*
X103338523Y-135324200D01*
X103338523Y-135324200D02*
X103290904Y-135228961D01*
X103290904Y-135228961D02*
X103290904Y-134848009D01*
X103290904Y-134848009D02*
X103338523Y-134752771D01*
X103338523Y-134752771D02*
X103433761Y-134705152D01*
X103433761Y-134705152D02*
X103624237Y-134705152D01*
X103624237Y-134705152D02*
X103719475Y-134752771D01*
X103719475Y-134752771D02*
X103767094Y-134848009D01*
X103767094Y-134848009D02*
X103767094Y-134943247D01*
X103767094Y-134943247D02*
X103290904Y-135038485D01*
X104148047Y-135324200D02*
X104243285Y-135371819D01*
X104243285Y-135371819D02*
X104433761Y-135371819D01*
X104433761Y-135371819D02*
X104528999Y-135324200D01*
X104528999Y-135324200D02*
X104576618Y-135228961D01*
X104576618Y-135228961D02*
X104576618Y-135181342D01*
X104576618Y-135181342D02*
X104528999Y-135086104D01*
X104528999Y-135086104D02*
X104433761Y-135038485D01*
X104433761Y-135038485D02*
X104290904Y-135038485D01*
X104290904Y-135038485D02*
X104195666Y-134990866D01*
X104195666Y-134990866D02*
X104148047Y-134895628D01*
X104148047Y-134895628D02*
X104148047Y-134848009D01*
X104148047Y-134848009D02*
X104195666Y-134752771D01*
X104195666Y-134752771D02*
X104290904Y-134705152D01*
X104290904Y-134705152D02*
X104433761Y-134705152D01*
X104433761Y-134705152D02*
X104528999Y-134752771D01*
X105767095Y-135371819D02*
X105767095Y-134371819D01*
X106195666Y-135371819D02*
X106195666Y-134848009D01*
X106195666Y-134848009D02*
X106148047Y-134752771D01*
X106148047Y-134752771D02*
X106052809Y-134705152D01*
X106052809Y-134705152D02*
X105909952Y-134705152D01*
X105909952Y-134705152D02*
X105814714Y-134752771D01*
X105814714Y-134752771D02*
X105767095Y-134800390D01*
X107052809Y-135324200D02*
X106957571Y-135371819D01*
X106957571Y-135371819D02*
X106767095Y-135371819D01*
X106767095Y-135371819D02*
X106671857Y-135324200D01*
X106671857Y-135324200D02*
X106624238Y-135228961D01*
X106624238Y-135228961D02*
X106624238Y-134848009D01*
X106624238Y-134848009D02*
X106671857Y-134752771D01*
X106671857Y-134752771D02*
X106767095Y-134705152D01*
X106767095Y-134705152D02*
X106957571Y-134705152D01*
X106957571Y-134705152D02*
X107052809Y-134752771D01*
X107052809Y-134752771D02*
X107100428Y-134848009D01*
X107100428Y-134848009D02*
X107100428Y-134943247D01*
X107100428Y-134943247D02*
X106624238Y-135038485D01*
X107529000Y-135371819D02*
X107529000Y-134705152D01*
X107529000Y-134895628D02*
X107576619Y-134800390D01*
X107576619Y-134800390D02*
X107624238Y-134752771D01*
X107624238Y-134752771D02*
X107719476Y-134705152D01*
X107719476Y-134705152D02*
X107814714Y-134705152D01*
X108529000Y-135324200D02*
X108433762Y-135371819D01*
X108433762Y-135371819D02*
X108243286Y-135371819D01*
X108243286Y-135371819D02*
X108148048Y-135324200D01*
X108148048Y-135324200D02*
X108100429Y-135228961D01*
X108100429Y-135228961D02*
X108100429Y-134848009D01*
X108100429Y-134848009D02*
X108148048Y-134752771D01*
X108148048Y-134752771D02*
X108243286Y-134705152D01*
X108243286Y-134705152D02*
X108433762Y-134705152D01*
X108433762Y-134705152D02*
X108529000Y-134752771D01*
X108529000Y-134752771D02*
X108576619Y-134848009D01*
X108576619Y-134848009D02*
X108576619Y-134943247D01*
X108576619Y-134943247D02*
X108100429Y-135038485D01*
X91874180Y-124484048D02*
X92874180Y-124484048D01*
X92874180Y-124484048D02*
X92874180Y-124722143D01*
X92874180Y-124722143D02*
X92826561Y-124865000D01*
X92826561Y-124865000D02*
X92731323Y-124960238D01*
X92731323Y-124960238D02*
X92636085Y-125007857D01*
X92636085Y-125007857D02*
X92445609Y-125055476D01*
X92445609Y-125055476D02*
X92302752Y-125055476D01*
X92302752Y-125055476D02*
X92112276Y-125007857D01*
X92112276Y-125007857D02*
X92017038Y-124960238D01*
X92017038Y-124960238D02*
X91921800Y-124865000D01*
X91921800Y-124865000D02*
X91874180Y-124722143D01*
X91874180Y-124722143D02*
X91874180Y-124484048D01*
X92874180Y-125674524D02*
X92874180Y-125865000D01*
X92874180Y-125865000D02*
X92826561Y-125960238D01*
X92826561Y-125960238D02*
X92731323Y-126055476D01*
X92731323Y-126055476D02*
X92540847Y-126103095D01*
X92540847Y-126103095D02*
X92207514Y-126103095D01*
X92207514Y-126103095D02*
X92017038Y-126055476D01*
X92017038Y-126055476D02*
X91921800Y-125960238D01*
X91921800Y-125960238D02*
X91874180Y-125865000D01*
X91874180Y-125865000D02*
X91874180Y-125674524D01*
X91874180Y-125674524D02*
X91921800Y-125579286D01*
X91921800Y-125579286D02*
X92017038Y-125484048D01*
X92017038Y-125484048D02*
X92207514Y-125436429D01*
X92207514Y-125436429D02*
X92540847Y-125436429D01*
X92540847Y-125436429D02*
X92731323Y-125484048D01*
X92731323Y-125484048D02*
X92826561Y-125579286D01*
X92826561Y-125579286D02*
X92874180Y-125674524D01*
X92874180Y-126436429D02*
X91874180Y-126674524D01*
X91874180Y-126674524D02*
X92588466Y-126865000D01*
X92588466Y-126865000D02*
X91874180Y-127055476D01*
X91874180Y-127055476D02*
X92874180Y-127293572D01*
X91874180Y-127674524D02*
X92874180Y-127674524D01*
X92874180Y-127674524D02*
X91874180Y-128245952D01*
X91874180Y-128245952D02*
X92874180Y-128245952D01*
X91874180Y-132778618D02*
X91874180Y-132302428D01*
X91874180Y-132302428D02*
X92874180Y-132302428D01*
X92397990Y-133111952D02*
X92397990Y-133445285D01*
X91874180Y-133588142D02*
X91874180Y-133111952D01*
X91874180Y-133111952D02*
X92874180Y-133111952D01*
X92874180Y-133111952D02*
X92874180Y-133588142D01*
X92397990Y-134350047D02*
X92397990Y-134016714D01*
X91874180Y-134016714D02*
X92874180Y-134016714D01*
X92874180Y-134016714D02*
X92874180Y-134492904D01*
X92874180Y-134731000D02*
X92874180Y-135302428D01*
X91874180Y-135016714D02*
X92874180Y-135016714D01*
X118136200Y-156590904D02*
X118183819Y-156448047D01*
X118183819Y-156448047D02*
X118183819Y-156209952D01*
X118183819Y-156209952D02*
X118136200Y-156114714D01*
X118136200Y-156114714D02*
X118088580Y-156067095D01*
X118088580Y-156067095D02*
X117993342Y-156019476D01*
X117993342Y-156019476D02*
X117898104Y-156019476D01*
X117898104Y-156019476D02*
X117802866Y-156067095D01*
X117802866Y-156067095D02*
X117755247Y-156114714D01*
X117755247Y-156114714D02*
X117707628Y-156209952D01*
X117707628Y-156209952D02*
X117660009Y-156400428D01*
X117660009Y-156400428D02*
X117612390Y-156495666D01*
X117612390Y-156495666D02*
X117564771Y-156543285D01*
X117564771Y-156543285D02*
X117469533Y-156590904D01*
X117469533Y-156590904D02*
X117374295Y-156590904D01*
X117374295Y-156590904D02*
X117279057Y-156543285D01*
X117279057Y-156543285D02*
X117231438Y-156495666D01*
X117231438Y-156495666D02*
X117183819Y-156400428D01*
X117183819Y-156400428D02*
X117183819Y-156162333D01*
X117183819Y-156162333D02*
X117231438Y-156019476D01*
X118183819Y-155067095D02*
X118183819Y-155638523D01*
X118183819Y-155352809D02*
X117183819Y-155352809D01*
X117183819Y-155352809D02*
X117326676Y-155448047D01*
X117326676Y-155448047D02*
X117421914Y-155543285D01*
X117421914Y-155543285D02*
X117469533Y-155638523D01*
X92397990Y-155424238D02*
X92350371Y-155567095D01*
X92350371Y-155567095D02*
X92302752Y-155614714D01*
X92302752Y-155614714D02*
X92207514Y-155662333D01*
X92207514Y-155662333D02*
X92064657Y-155662333D01*
X92064657Y-155662333D02*
X91969419Y-155614714D01*
X91969419Y-155614714D02*
X91921800Y-155567095D01*
X91921800Y-155567095D02*
X91874180Y-155471857D01*
X91874180Y-155471857D02*
X91874180Y-155090905D01*
X91874180Y-155090905D02*
X92874180Y-155090905D01*
X92874180Y-155090905D02*
X92874180Y-155424238D01*
X92874180Y-155424238D02*
X92826561Y-155519476D01*
X92826561Y-155519476D02*
X92778942Y-155567095D01*
X92778942Y-155567095D02*
X92683704Y-155614714D01*
X92683704Y-155614714D02*
X92588466Y-155614714D01*
X92588466Y-155614714D02*
X92493228Y-155567095D01*
X92493228Y-155567095D02*
X92445609Y-155519476D01*
X92445609Y-155519476D02*
X92397990Y-155424238D01*
X92397990Y-155424238D02*
X92397990Y-155090905D01*
X92778942Y-156043286D02*
X92826561Y-156090905D01*
X92826561Y-156090905D02*
X92874180Y-156186143D01*
X92874180Y-156186143D02*
X92874180Y-156424238D01*
X92874180Y-156424238D02*
X92826561Y-156519476D01*
X92826561Y-156519476D02*
X92778942Y-156567095D01*
X92778942Y-156567095D02*
X92683704Y-156614714D01*
X92683704Y-156614714D02*
X92588466Y-156614714D01*
X92588466Y-156614714D02*
X92445609Y-156567095D01*
X92445609Y-156567095D02*
X91874180Y-155995667D01*
X91874180Y-155995667D02*
X91874180Y-156614714D01*
X114514381Y-165096819D02*
X114514381Y-164430152D01*
X114514381Y-164620628D02*
X114562000Y-164525390D01*
X114562000Y-164525390D02*
X114609619Y-164477771D01*
X114609619Y-164477771D02*
X114704857Y-164430152D01*
X114704857Y-164430152D02*
X114800095Y-164430152D01*
X115323905Y-164096819D02*
X115419143Y-164096819D01*
X115419143Y-164096819D02*
X115514381Y-164144438D01*
X115514381Y-164144438D02*
X115562000Y-164192057D01*
X115562000Y-164192057D02*
X115609619Y-164287295D01*
X115609619Y-164287295D02*
X115657238Y-164477771D01*
X115657238Y-164477771D02*
X115657238Y-164715866D01*
X115657238Y-164715866D02*
X115609619Y-164906342D01*
X115609619Y-164906342D02*
X115562000Y-165001580D01*
X115562000Y-165001580D02*
X115514381Y-165049200D01*
X115514381Y-165049200D02*
X115419143Y-165096819D01*
X115419143Y-165096819D02*
X115323905Y-165096819D01*
X115323905Y-165096819D02*
X115228667Y-165049200D01*
X115228667Y-165049200D02*
X115181048Y-165001580D01*
X115181048Y-165001580D02*
X115133429Y-164906342D01*
X115133429Y-164906342D02*
X115085810Y-164715866D01*
X115085810Y-164715866D02*
X115085810Y-164477771D01*
X115085810Y-164477771D02*
X115133429Y-164287295D01*
X115133429Y-164287295D02*
X115181048Y-164192057D01*
X115181048Y-164192057D02*
X115228667Y-164144438D01*
X115228667Y-164144438D02*
X115323905Y-164096819D01*
X92874180Y-118213286D02*
X92064657Y-118213286D01*
X92064657Y-118213286D02*
X91969419Y-118260905D01*
X91969419Y-118260905D02*
X91921800Y-118308524D01*
X91921800Y-118308524D02*
X91874180Y-118403762D01*
X91874180Y-118403762D02*
X91874180Y-118594238D01*
X91874180Y-118594238D02*
X91921800Y-118689476D01*
X91921800Y-118689476D02*
X91969419Y-118737095D01*
X91969419Y-118737095D02*
X92064657Y-118784714D01*
X92064657Y-118784714D02*
X92874180Y-118784714D01*
X91874180Y-119260905D02*
X92874180Y-119260905D01*
X92874180Y-119260905D02*
X92874180Y-119641857D01*
X92874180Y-119641857D02*
X92826561Y-119737095D01*
X92826561Y-119737095D02*
X92778942Y-119784714D01*
X92778942Y-119784714D02*
X92683704Y-119832333D01*
X92683704Y-119832333D02*
X92540847Y-119832333D01*
X92540847Y-119832333D02*
X92445609Y-119784714D01*
X92445609Y-119784714D02*
X92397990Y-119737095D01*
X92397990Y-119737095D02*
X92350371Y-119641857D01*
X92350371Y-119641857D02*
X92350371Y-119260905D01*
X91874180Y-139763666D02*
X92350371Y-139430333D01*
X91874180Y-139192238D02*
X92874180Y-139192238D01*
X92874180Y-139192238D02*
X92874180Y-139573190D01*
X92874180Y-139573190D02*
X92826561Y-139668428D01*
X92826561Y-139668428D02*
X92778942Y-139716047D01*
X92778942Y-139716047D02*
X92683704Y-139763666D01*
X92683704Y-139763666D02*
X92540847Y-139763666D01*
X92540847Y-139763666D02*
X92445609Y-139716047D01*
X92445609Y-139716047D02*
X92397990Y-139668428D01*
X92397990Y-139668428D02*
X92350371Y-139573190D01*
X92350371Y-139573190D02*
X92350371Y-139192238D01*
X91874180Y-140192238D02*
X92874180Y-140192238D01*
X92826561Y-141192237D02*
X92874180Y-141096999D01*
X92874180Y-141096999D02*
X92874180Y-140954142D01*
X92874180Y-140954142D02*
X92826561Y-140811285D01*
X92826561Y-140811285D02*
X92731323Y-140716047D01*
X92731323Y-140716047D02*
X92636085Y-140668428D01*
X92636085Y-140668428D02*
X92445609Y-140620809D01*
X92445609Y-140620809D02*
X92302752Y-140620809D01*
X92302752Y-140620809D02*
X92112276Y-140668428D01*
X92112276Y-140668428D02*
X92017038Y-140716047D01*
X92017038Y-140716047D02*
X91921800Y-140811285D01*
X91921800Y-140811285D02*
X91874180Y-140954142D01*
X91874180Y-140954142D02*
X91874180Y-141049380D01*
X91874180Y-141049380D02*
X91921800Y-141192237D01*
X91921800Y-141192237D02*
X91969419Y-141239856D01*
X91969419Y-141239856D02*
X92302752Y-141239856D01*
X92302752Y-141239856D02*
X92302752Y-141049380D01*
X91874180Y-141668428D02*
X92874180Y-141668428D01*
X92397990Y-141668428D02*
X92397990Y-142239856D01*
X91874180Y-142239856D02*
X92874180Y-142239856D01*
X92874180Y-142573190D02*
X92874180Y-143144618D01*
X91874180Y-142858904D02*
X92874180Y-142858904D01*
X117898104Y-119713285D02*
X117898104Y-119237095D01*
X118183819Y-119808523D02*
X117183819Y-119475190D01*
X117183819Y-119475190D02*
X118183819Y-119141857D01*
X117279057Y-118856142D02*
X117231438Y-118808523D01*
X117231438Y-118808523D02*
X117183819Y-118713285D01*
X117183819Y-118713285D02*
X117183819Y-118475190D01*
X117183819Y-118475190D02*
X117231438Y-118379952D01*
X117231438Y-118379952D02*
X117279057Y-118332333D01*
X117279057Y-118332333D02*
X117374295Y-118284714D01*
X117374295Y-118284714D02*
X117469533Y-118284714D01*
X117469533Y-118284714D02*
X117612390Y-118332333D01*
X117612390Y-118332333D02*
X118183819Y-118903761D01*
X118183819Y-118903761D02*
X118183819Y-118284714D01*
X118183819Y-170727666D02*
X117707628Y-171060999D01*
X118183819Y-171299094D02*
X117183819Y-171299094D01*
X117183819Y-171299094D02*
X117183819Y-170918142D01*
X117183819Y-170918142D02*
X117231438Y-170822904D01*
X117231438Y-170822904D02*
X117279057Y-170775285D01*
X117279057Y-170775285D02*
X117374295Y-170727666D01*
X117374295Y-170727666D02*
X117517152Y-170727666D01*
X117517152Y-170727666D02*
X117612390Y-170775285D01*
X117612390Y-170775285D02*
X117660009Y-170822904D01*
X117660009Y-170822904D02*
X117707628Y-170918142D01*
X117707628Y-170918142D02*
X117707628Y-171299094D01*
X118183819Y-169775285D02*
X118183819Y-170346713D01*
X118183819Y-170060999D02*
X117183819Y-170060999D01*
X117183819Y-170060999D02*
X117326676Y-170156237D01*
X117326676Y-170156237D02*
X117421914Y-170251475D01*
X117421914Y-170251475D02*
X117469533Y-170346713D01*
D12*
%TO.C,J10*%
X78217000Y-174427000D02*
X91217000Y-174427000D01*
X91217000Y-174427000D02*
X91217000Y-181427000D01*
X91217000Y-181427000D02*
X78217000Y-181427000D01*
X78217000Y-181427000D02*
X78217000Y-174427000D01*
%TO.C,J1*%
X97719000Y-192259000D02*
X97719000Y-192779000D01*
X97719000Y-192779000D02*
X112339000Y-192779000D01*
X98369000Y-177299000D02*
X98369000Y-180629000D01*
X98369000Y-177299000D02*
X111689000Y-177299000D01*
X98369000Y-192259000D02*
X97719000Y-192259000D01*
X98369000Y-192259000D02*
X98369000Y-184149000D01*
X100629000Y-177079000D02*
X102429000Y-177079000D01*
X111689000Y-177299000D02*
X111689000Y-180629000D01*
X111689000Y-184149000D02*
X111689000Y-192259000D01*
X112339000Y-192259000D02*
X111689000Y-192259000D01*
X112339000Y-192779000D02*
X112339000Y-192259000D01*
%TO.C,J2*%
X78217000Y-115499000D02*
X91217000Y-115499000D01*
X91217000Y-115499000D02*
X91217000Y-122499000D01*
X91217000Y-122499000D02*
X78217000Y-122499000D01*
X78217000Y-122499000D02*
X78217000Y-115499000D01*
%TO.C,J14*%
X131849000Y-159329000D02*
X118849000Y-159329000D01*
X118849000Y-159329000D02*
X118849000Y-152329000D01*
X118849000Y-152329000D02*
X131849000Y-152329000D01*
X131849000Y-152329000D02*
X131849000Y-159329000D01*
%TO.C,J15*%
X131841000Y-151963000D02*
X118841000Y-151963000D01*
X118841000Y-151963000D02*
X118841000Y-144963000D01*
X118841000Y-144963000D02*
X131841000Y-144963000D01*
X131841000Y-144963000D02*
X131841000Y-151963000D01*
%TO.C,J19*%
X131849000Y-122499000D02*
X118849000Y-122499000D01*
X118849000Y-122499000D02*
X118849000Y-115499000D01*
X118849000Y-115499000D02*
X131849000Y-115499000D01*
X131849000Y-115499000D02*
X131849000Y-122499000D01*
%TO.C,J3*%
X78217000Y-122865000D02*
X91217000Y-122865000D01*
X91217000Y-122865000D02*
X91217000Y-129865000D01*
X91217000Y-129865000D02*
X78217000Y-129865000D01*
X78217000Y-129865000D02*
X78217000Y-122865000D01*
%TO.C,J12*%
X131841000Y-174061000D02*
X118841000Y-174061000D01*
X118841000Y-174061000D02*
X118841000Y-167061000D01*
X118841000Y-167061000D02*
X131841000Y-167061000D01*
X131841000Y-167061000D02*
X131841000Y-174061000D01*
%TO.C,J5*%
X78217000Y-137597000D02*
X91217000Y-137597000D01*
X91217000Y-137597000D02*
X91217000Y-144597000D01*
X91217000Y-144597000D02*
X78217000Y-144597000D01*
X78217000Y-144597000D02*
X78217000Y-137597000D01*
%TO.C,J17*%
X131841000Y-137231000D02*
X118841000Y-137231000D01*
X118841000Y-137231000D02*
X118841000Y-130231000D01*
X118841000Y-130231000D02*
X131841000Y-130231000D01*
X131841000Y-130231000D02*
X131841000Y-137231000D01*
%TO.C,J4*%
X78217000Y-130231000D02*
X91217000Y-130231000D01*
X91217000Y-130231000D02*
X91217000Y-137231000D01*
X91217000Y-137231000D02*
X78217000Y-137231000D01*
X78217000Y-137231000D02*
X78217000Y-130231000D01*
%TO.C,J9*%
X78217000Y-167061000D02*
X91217000Y-167061000D01*
X91217000Y-167061000D02*
X91217000Y-174061000D01*
X91217000Y-174061000D02*
X78217000Y-174061000D01*
X78217000Y-174061000D02*
X78217000Y-167061000D01*
%TO.C,J7*%
X78217000Y-152329000D02*
X91217000Y-152329000D01*
X91217000Y-152329000D02*
X91217000Y-159329000D01*
X91217000Y-159329000D02*
X78217000Y-159329000D01*
X78217000Y-159329000D02*
X78217000Y-152329000D01*
%TO.C,J16*%
X131841000Y-144597000D02*
X118841000Y-144597000D01*
X118841000Y-144597000D02*
X118841000Y-137597000D01*
X118841000Y-137597000D02*
X131841000Y-137597000D01*
X131841000Y-137597000D02*
X131841000Y-144597000D01*
%TO.C,J6*%
X78217000Y-144963000D02*
X91217000Y-144963000D01*
X91217000Y-144963000D02*
X91217000Y-151963000D01*
X91217000Y-151963000D02*
X78217000Y-151963000D01*
X78217000Y-151963000D02*
X78217000Y-144963000D01*
%TO.C,U1*%
X94419000Y-111042000D02*
X93939000Y-111042000D01*
X94419000Y-111042000D02*
X94419000Y-111462000D01*
X94419000Y-113582000D02*
X94419000Y-114002000D01*
X94419000Y-116122000D02*
X94419000Y-116542000D01*
X94419000Y-118662000D02*
X94419000Y-119082000D01*
X94419000Y-121202000D02*
X94419000Y-121622000D01*
X94419000Y-123742000D02*
X94419000Y-124162000D01*
X94419000Y-126282000D02*
X94419000Y-126702000D01*
X94419000Y-128822000D02*
X94419000Y-129242000D01*
X94419000Y-131362000D02*
X94419000Y-131782000D01*
X94419000Y-133902000D02*
X94419000Y-134322000D01*
X94419000Y-136442000D02*
X94419000Y-136862000D01*
X94419000Y-138982000D02*
X94419000Y-139402000D01*
X94419000Y-141522000D02*
X94419000Y-141942000D01*
X94419000Y-144062000D02*
X94419000Y-144482000D01*
X94419000Y-146602000D02*
X94419000Y-147022000D01*
X94419000Y-149142000D02*
X94419000Y-149562000D01*
X94419000Y-151682000D02*
X94419000Y-152102000D01*
X94419000Y-154222000D02*
X94419000Y-154642000D01*
X94419000Y-156762000D02*
X94419000Y-157182000D01*
X94449324Y-108922063D02*
X93939000Y-108922000D01*
X94759000Y-108922063D02*
X94759000Y-108565000D01*
X94759000Y-111042000D02*
X94759000Y-111462000D01*
X94759000Y-113582000D02*
X94759000Y-114002000D01*
X94759000Y-116122000D02*
X94759000Y-116542000D01*
X94759000Y-118662000D02*
X94759000Y-119082000D01*
X94759000Y-121202000D02*
X94759000Y-121622000D01*
X94759000Y-123742000D02*
X94759000Y-124162000D01*
X94759000Y-126282000D02*
X94759000Y-126702000D01*
X94759000Y-128822000D02*
X94759000Y-129242000D01*
X94759000Y-131362000D02*
X94759000Y-131782000D01*
X94759000Y-133902000D02*
X94759000Y-134322000D01*
X94759000Y-136442000D02*
X94759000Y-136862000D01*
X94759000Y-138982000D02*
X94759000Y-139402000D01*
X94759000Y-141522000D02*
X94759000Y-141942000D01*
X94759000Y-144062000D02*
X94759000Y-144482000D01*
X94759000Y-146602000D02*
X94759000Y-147022000D01*
X94759000Y-149142000D02*
X94759000Y-149562000D01*
X94759000Y-151682000D02*
X94759000Y-152102000D01*
X94759000Y-154222000D02*
X94759000Y-154642000D01*
X94759000Y-156762000D02*
X94759000Y-157182000D01*
X94759000Y-159301937D02*
X94759000Y-159659000D01*
X95029000Y-108502000D02*
X97519000Y-108502000D01*
X95029000Y-159722000D02*
X101429000Y-159722000D01*
X97519000Y-108502000D02*
X97519000Y-109415520D01*
X97519000Y-108502000D02*
X100794000Y-108502000D01*
X97519000Y-109415520D02*
X97519000Y-111808480D01*
X97519000Y-111808480D02*
X97519000Y-156415520D01*
X97519000Y-156415520D02*
X97519000Y-158808480D01*
X97519000Y-158808480D02*
X97519000Y-159722000D01*
X100794000Y-108502000D02*
X109264000Y-108502000D01*
X101129000Y-108502000D02*
X101129000Y-109418000D01*
X101129000Y-110796800D02*
X101129000Y-113022000D01*
X101129000Y-113022000D02*
X101425090Y-113022000D01*
X103782910Y-113022000D02*
X106275090Y-113022000D01*
X108629000Y-159722000D02*
X101429000Y-159722000D01*
X108629000Y-159722000D02*
X115029000Y-159722000D01*
X108632910Y-113022000D02*
X108929000Y-113022000D01*
X108929000Y-108502000D02*
X108929000Y-109418000D01*
X108929000Y-110796800D02*
X108929000Y-113022000D01*
X109264000Y-108502000D02*
X112539000Y-108502000D01*
X112539000Y-108502000D02*
X112539000Y-109415520D01*
X112539000Y-109415520D02*
X112539000Y-111808480D01*
X112539000Y-111808480D02*
X112539000Y-156415520D01*
X112539000Y-156415520D02*
X112539000Y-158808480D01*
X112539000Y-158808480D02*
X112539000Y-159722000D01*
X115029000Y-108502000D02*
X112539000Y-108502000D01*
X115299000Y-108922063D02*
X115299000Y-108565000D01*
X115299000Y-111042000D02*
X115299000Y-111462000D01*
X115299000Y-113582000D02*
X115299000Y-114002000D01*
X115299000Y-116122000D02*
X115299000Y-116542000D01*
X115299000Y-118662000D02*
X115299000Y-119082000D01*
X115299000Y-121202000D02*
X115299000Y-121622000D01*
X115299000Y-123742000D02*
X115299000Y-124162000D01*
X115299000Y-126282000D02*
X115299000Y-126702000D01*
X115299000Y-128822000D02*
X115299000Y-129242000D01*
X115299000Y-131362000D02*
X115299000Y-131782000D01*
X115299000Y-133902000D02*
X115299000Y-134322000D01*
X115299000Y-136442000D02*
X115299000Y-136862000D01*
X115299000Y-138982000D02*
X115299000Y-139402000D01*
X115299000Y-141522000D02*
X115299000Y-141942000D01*
X115299000Y-144062000D02*
X115299000Y-144482000D01*
X115299000Y-146602000D02*
X115299000Y-147022000D01*
X115299000Y-149142000D02*
X115299000Y-149562000D01*
X115299000Y-151682000D02*
X115299000Y-152102000D01*
X115299000Y-154222000D02*
X115299000Y-154642000D01*
X115299000Y-156762000D02*
X115299000Y-157182000D01*
X115299000Y-159301937D02*
X115299000Y-159659000D01*
X115639000Y-111042000D02*
X115639000Y-111462000D01*
X115639000Y-113582000D02*
X115639000Y-114002000D01*
X115639000Y-116122000D02*
X115639000Y-116542000D01*
X115639000Y-118662000D02*
X115639000Y-119082000D01*
X115639000Y-121202000D02*
X115639000Y-121622000D01*
X115639000Y-123742000D02*
X115639000Y-124162000D01*
X115639000Y-126282000D02*
X115639000Y-126702000D01*
X115639000Y-128822000D02*
X115639000Y-129242000D01*
X115639000Y-131362000D02*
X115639000Y-131782000D01*
X115639000Y-133902000D02*
X115639000Y-134322000D01*
X115639000Y-136442000D02*
X115639000Y-136862000D01*
X115639000Y-138982000D02*
X115639000Y-139402000D01*
X115639000Y-141522000D02*
X115639000Y-141942000D01*
X115639000Y-144062000D02*
X115639000Y-144482000D01*
X115639000Y-146602000D02*
X115639000Y-147022000D01*
X115639000Y-149142000D02*
X115639000Y-149562000D01*
X115639000Y-151682000D02*
X115639000Y-152102000D01*
X115639000Y-154222000D02*
X115639000Y-154642000D01*
X115639000Y-156762000D02*
X115639000Y-157182000D01*
X95029000Y-108502000D02*
G75*
G03*
X94449324Y-108922063I0J-610000D01*
G01*
X94449324Y-159301937D02*
G75*
G03*
X95029000Y-159722000I579677J189939D01*
G01*
X115608676Y-108922063D02*
G75*
G03*
X115029000Y-108502000I-579676J-189937D01*
G01*
X115029000Y-159722003D02*
G75*
G03*
X115608675Y-159301937I40J609943D01*
G01*
X100269000Y-110612000D02*
G75*
G03*
X98389000Y-110612000I-940000J0D01*
G01*
X98389000Y-110612000D02*
G75*
G03*
X100269000Y-110612000I940000J0D01*
G01*
X100269000Y-157612000D02*
G75*
G03*
X98389000Y-157612000I-940000J0D01*
G01*
X98389000Y-157612000D02*
G75*
G03*
X100269000Y-157612000I940000J0D01*
G01*
X111669000Y-110612000D02*
G75*
G03*
X109789000Y-110612000I-940000J0D01*
G01*
X109789000Y-110612000D02*
G75*
G03*
X111669000Y-110612000I940000J0D01*
G01*
X111669000Y-157612000D02*
G75*
G03*
X109789000Y-157612000I-940000J0D01*
G01*
X109789000Y-157612000D02*
G75*
G03*
X111669000Y-157612000I940000J0D01*
G01*
%TO.C,J8*%
X78217000Y-159695000D02*
X91217000Y-159695000D01*
X91217000Y-159695000D02*
X91217000Y-166695000D01*
X91217000Y-166695000D02*
X78217000Y-166695000D01*
X78217000Y-166695000D02*
X78217000Y-159695000D01*
%TO.C,J11*%
X131841000Y-181427000D02*
X118841000Y-181427000D01*
X118841000Y-181427000D02*
X118841000Y-174427000D01*
X118841000Y-174427000D02*
X131841000Y-174427000D01*
X131841000Y-174427000D02*
X131841000Y-181427000D01*
%TO.C,J13*%
X131841000Y-166695000D02*
X118841000Y-166695000D01*
X118841000Y-166695000D02*
X118841000Y-159695000D01*
X118841000Y-159695000D02*
X131841000Y-159695000D01*
X131841000Y-159695000D02*
X131841000Y-166695000D01*
%TO.C,J18*%
X131841000Y-129865000D02*
X118841000Y-129865000D01*
X118841000Y-129865000D02*
X118841000Y-122865000D01*
X118841000Y-122865000D02*
X131841000Y-122865000D01*
X131841000Y-122865000D02*
X131841000Y-129865000D01*
%TD*%
M02*
