M48
; DRILL file {KiCad 7.0.10} date Thu 07 Mar 2024 01:06:09 PM EST
; FORMAT={-:-/ absolute / inch / decimal}
; #@! TF.CreationDate,2024-03-07T13:06:09-05:00
; #@! TF.GenerationSoftware,Kicad,Pcbnew,7.0.10
; #@! TF.FileFunction,Plated,1,2,PTH
FMAT,2
INCH
; #@! TA.AperFunction,Plated,PTH,ViaDrill
T1C0.0157
; #@! TA.AperFunction,Plated,PTH,ComponentDrill
T2C0.0374
; #@! TA.AperFunction,Plated,PTH,ComponentDrill
T3C0.0394
; #@! TA.AperFunction,Plated,PTH,ComponentDrill
T4C0.0906
%
G90
G05
T1
X4.425Y-6.3965
X4.425Y-6.489
T2
X3.9972Y-7.074
X4.0956Y-7.074
X4.1744Y-7.074
X4.2728Y-7.074
T3
X3.785Y-4.33
X3.785Y-4.43
X3.785Y-4.53
X3.785Y-4.63
X3.785Y-4.73
X3.785Y-4.83
X3.785Y-4.93
X3.785Y-5.03
X3.785Y-5.13
X3.785Y-5.23
X3.785Y-5.33
X3.785Y-5.43
X3.785Y-5.53
X3.785Y-5.63
X3.785Y-5.73
X3.785Y-5.83
X3.785Y-5.93
X3.785Y-6.03
X3.785Y-6.13
X3.785Y-6.23
X4.485Y-4.33
X4.485Y-4.43
X4.485Y-4.53
X4.485Y-4.63
X4.485Y-4.73
X4.485Y-4.83
X4.485Y-4.93
X4.485Y-5.03
X4.485Y-5.13
X4.485Y-5.23
X4.485Y-5.33
X4.485Y-5.43
X4.485Y-5.53
X4.485Y-5.63
X4.485Y-5.73
X4.485Y-5.83
X4.485Y-5.93
X4.485Y-6.03
X4.485Y-6.13
X4.485Y-6.23
T4
X3.8763Y-7.1807
X4.3937Y-7.1807
T3
G00X3.1385Y-4.6555
M15
G01X3.1385Y-4.7145
M16
G05
G00X3.1385Y-4.9455
M15
G01X3.1385Y-5.0045
M16
G05
G00X3.1385Y-5.2355
M15
G01X3.1385Y-5.2945
M16
G05
G00X3.1385Y-5.5255
M15
G01X3.1385Y-5.5845
M16
G05
G00X3.1385Y-5.8155
M15
G01X3.1385Y-5.8745
M16
G05
G00X3.1385Y-6.1055
M15
G01X3.1385Y-6.1645
M16
G05
G00X3.1385Y-6.3955
M15
G01X3.1385Y-6.4545
M16
G05
G00X3.1385Y-6.6855
M15
G01X3.1385Y-6.7445
M16
G05
G00X3.1385Y-6.9755
M15
G01X3.1385Y-7.0345
M16
G05
G00X3.355Y-4.6555
M15
G01X3.355Y-4.7145
M16
G05
G00X3.355Y-4.9455
M15
G01X3.355Y-5.0045
M16
G05
G00X3.355Y-5.2355
M15
G01X3.355Y-5.2945
M16
G05
G00X3.355Y-5.5255
M15
G01X3.355Y-5.5845
M16
G05
G00X3.355Y-5.8155
M15
G01X3.355Y-5.8745
M16
G05
G00X3.355Y-6.1055
M15
G01X3.355Y-6.1645
M16
G05
G00X3.355Y-6.3955
M15
G01X3.355Y-6.4545
M16
G05
G00X3.355Y-6.6855
M15
G01X3.355Y-6.7445
M16
G05
G00X3.355Y-6.9755
M15
G01X3.355Y-7.0345
M16
G05
G00X3.5322Y-4.6555
M15
G01X3.5322Y-4.7145
M16
G05
G00X3.5322Y-4.9455
M15
G01X3.5322Y-5.0045
M16
G05
G00X3.5322Y-5.2355
M15
G01X3.5322Y-5.2945
M16
G05
G00X3.5322Y-5.5255
M15
G01X3.5322Y-5.5845
M16
G05
G00X3.5322Y-5.8155
M15
G01X3.5322Y-5.8745
M16
G05
G00X3.5322Y-6.1055
M15
G01X3.5322Y-6.1645
M16
G05
G00X3.5322Y-6.3955
M15
G01X3.5322Y-6.4545
M16
G05
G00X3.5322Y-6.6855
M15
G01X3.5322Y-6.7445
M16
G05
G00X3.5322Y-6.9755
M15
G01X3.5322Y-7.0345
M16
G05
G00X4.7378Y-5.0045
M15
G01X4.7378Y-4.9455
M16
G05
G00X4.7378Y-5.2945
M15
G01X4.7378Y-5.2355
M16
G05
G00X4.7378Y-5.5845
M15
G01X4.7378Y-5.5255
M16
G05
G00X4.7378Y-5.8745
M15
G01X4.7378Y-5.8155
M16
G05
G00X4.7378Y-6.4545
M15
G01X4.7378Y-6.3955
M16
G05
G00X4.7378Y-6.7445
M15
G01X4.7378Y-6.6855
M16
G05
G00X4.7378Y-7.0345
M15
G01X4.7378Y-6.9755
M16
G05
G00X4.7381Y-4.7145
M15
G01X4.7381Y-4.6555
M16
G05
G00X4.7381Y-6.1645
M15
G01X4.7381Y-6.1055
M16
G05
G00X4.915Y-5.0045
M15
G01X4.915Y-4.9455
M16
G05
G00X4.915Y-5.2945
M15
G01X4.915Y-5.2355
M16
G05
G00X4.915Y-5.5845
M15
G01X4.915Y-5.5255
M16
G05
G00X4.915Y-5.8745
M15
G01X4.915Y-5.8155
M16
G05
G00X4.915Y-6.4545
M15
G01X4.915Y-6.3955
M16
G05
G00X4.915Y-6.7445
M15
G01X4.915Y-6.6855
M16
G05
G00X4.915Y-7.0345
M15
G01X4.915Y-6.9755
M16
G05
G00X4.9153Y-4.7145
M15
G01X4.9153Y-4.6555
M16
G05
G00X4.9153Y-6.1645
M15
G01X4.9153Y-6.1055
M16
G05
G00X5.1315Y-5.0045
M15
G01X5.1315Y-4.9455
M16
G05
G00X5.1315Y-5.2945
M15
G01X5.1315Y-5.2355
M16
G05
G00X5.1315Y-5.5845
M15
G01X5.1315Y-5.5255
M16
G05
G00X5.1315Y-5.8745
M15
G01X5.1315Y-5.8155
M16
G05
G00X5.1315Y-6.4545
M15
G01X5.1315Y-6.3955
M16
G05
G00X5.1315Y-6.7445
M15
G01X5.1315Y-6.6855
M16
G05
G00X5.1315Y-7.0345
M15
G01X5.1315Y-6.9755
M16
G05
G00X5.1319Y-4.7145
M15
G01X5.1319Y-4.6555
M16
G05
G00X5.1319Y-6.1645
M15
G01X5.1319Y-6.1055
M16
G05
M30
