%TF.GenerationSoftware,KiCad,Pcbnew,8.0.1*%
%TF.CreationDate,2024-04-04T17:18:09-04:00*%
%TF.ProjectId,adaptive-2040,61646170-7469-4766-952d-323034302e6b,1.1*%
%TF.SameCoordinates,Original*%
%TF.FileFunction,Copper,L2,Bot*%
%TF.FilePolarity,Positive*%
%FSLAX46Y46*%
G04 Gerber Fmt 4.6, Leading zero omitted, Abs format (unit mm)*
G04 Created by KiCad (PCBNEW 8.0.1) date 2024-04-04 17:18:09*
%MOMM*%
%LPD*%
G01*
G04 APERTURE LIST*
G04 Aperture macros list*
%AMRoundRect*
0 Rectangle with rounded corners*
0 $1 Rounding radius*
0 $2 $3 $4 $5 $6 $7 $8 $9 X,Y pos of 4 corners*
0 Add a 4 corners polygon primitive as box body*
4,1,4,$2,$3,$4,$5,$6,$7,$8,$9,$2,$3,0*
0 Add four circle primitives for the rounded corners*
1,1,$1+$1,$2,$3*
1,1,$1+$1,$4,$5*
1,1,$1+$1,$6,$7*
1,1,$1+$1,$8,$9*
0 Add four rect primitives between the rounded corners*
20,1,$1+$1,$2,$3,$4,$5,0*
20,1,$1+$1,$4,$5,$6,$7,0*
20,1,$1+$1,$6,$7,$8,$9,0*
20,1,$1+$1,$8,$9,$2,$3,0*%
%AMFreePoly0*
4,1,28,0.605014,0.794986,0.644504,0.794986,0.724698,0.756366,0.780194,0.686777,0.800000,0.600000,0.800000,-0.600000,0.780194,-0.686777,0.724698,-0.756366,0.644504,-0.794986,0.605014,-0.794986,0.600000,-0.800000,0.000000,-0.800000,-0.178017,-0.779942,-0.347107,-0.720775,-0.498792,-0.625465,-0.625465,-0.498792,-0.720775,-0.347107,-0.779942,-0.178017,-0.800000,0.000000,-0.779942,0.178017,
-0.720775,0.347107,-0.625465,0.498792,-0.498792,0.625465,-0.347107,0.720775,-0.178017,0.779942,0.000000,0.800000,0.600000,0.800000,0.605014,0.794986,0.605014,0.794986,$1*%
%AMFreePoly1*
4,1,28,0.178017,0.779942,0.347107,0.720775,0.498792,0.625465,0.625465,0.498792,0.720775,0.347107,0.779942,0.178017,0.800000,0.000000,0.779942,-0.178017,0.720775,-0.347107,0.625465,-0.498792,0.498792,-0.625465,0.347107,-0.720775,0.178017,-0.779942,0.000000,-0.800000,-0.600000,-0.800000,-0.605014,-0.794986,-0.644504,-0.794986,-0.724698,-0.756366,-0.780194,-0.686777,-0.800000,-0.600000,
-0.800000,0.600000,-0.780194,0.686777,-0.724698,0.756366,-0.644504,0.794986,-0.605014,0.794986,-0.600000,0.800000,0.000000,0.800000,0.178017,0.779942,0.178017,0.779942,$1*%
G04 Aperture macros list end*
%TA.AperFunction,ComponentPad*%
%ADD10O,2.500000X4.000000*%
%TD*%
%TA.AperFunction,ComponentPad*%
%ADD11R,1.600000X1.500000*%
%TD*%
%TA.AperFunction,ComponentPad*%
%ADD12C,1.600000*%
%TD*%
%TA.AperFunction,ComponentPad*%
%ADD13C,3.000000*%
%TD*%
%TA.AperFunction,ComponentPad*%
%ADD14RoundRect,0.200000X-0.600000X-0.600000X0.600000X-0.600000X0.600000X0.600000X-0.600000X0.600000X0*%
%TD*%
%TA.AperFunction,ComponentPad*%
%ADD15FreePoly0,0.000000*%
%TD*%
%TA.AperFunction,ComponentPad*%
%ADD16FreePoly1,0.000000*%
%TD*%
%TA.AperFunction,Conductor*%
%ADD17C,0.500000*%
%TD*%
%TA.AperFunction,Conductor*%
%ADD18C,0.250000*%
%TD*%
%TA.AperFunction,Conductor*%
%ADD19C,0.200000*%
%TD*%
G04 APERTURE END LIST*
D10*
%TO.P,J10,S*%
%TO.N,GND*%
X78820000Y-200660000D03*
%TO.P,J10,T*%
%TO.N,B3*%
X84320000Y-200660000D03*
%TO.P,J10,TN*%
X88820000Y-200660000D03*
%TD*%
D11*
%TO.P,J1,1,VBUS*%
%TO.N,VBUS*%
X100640000Y-202920000D03*
D12*
%TO.P,J1,2,D-*%
%TO.N,DM*%
X103140000Y-202920000D03*
%TO.P,J1,3,D+*%
%TO.N,DP*%
X105140000Y-202920000D03*
%TO.P,J1,4,GND*%
%TO.N,GND*%
X107640000Y-202920000D03*
D13*
%TO.P,J1,5,Shield*%
X97570000Y-205630000D03*
X110710000Y-205630000D03*
%TD*%
D10*
%TO.P,J2,S*%
%TO.N,GND*%
X78820000Y-99060000D03*
%TO.P,J2,T*%
%TO.N,UP*%
X84320000Y-99060000D03*
%TO.P,J2,TN*%
X88820000Y-99060000D03*
%TD*%
%TO.P,J14,S*%
%TO.N,GND*%
X129460000Y-162560000D03*
%TO.P,J14,T*%
%TO.N,S1*%
X123960000Y-162560000D03*
%TO.P,J14,TN*%
X119460000Y-162560000D03*
%TD*%
%TO.P,J15,S*%
%TO.N,GND*%
X129460000Y-149860000D03*
%TO.P,J15,T*%
%TO.N,S2*%
X123960000Y-149860000D03*
%TO.P,J15,TN*%
X119460000Y-149860000D03*
%TD*%
%TO.P,J19,S*%
%TO.N,GND*%
X129460000Y-99060000D03*
%TO.P,J19,T*%
%TO.N,A2*%
X123960000Y-99060000D03*
%TO.P,J19,TN*%
X119460000Y-99060000D03*
%TD*%
%TO.P,J3,S*%
%TO.N,GND*%
X78820000Y-111760000D03*
%TO.P,J3,T*%
%TO.N,DOWN*%
X84320000Y-111760000D03*
%TO.P,J3,TN*%
X88820000Y-111760000D03*
%TD*%
%TO.P,J12,S*%
%TO.N,GND*%
X129540000Y-187960000D03*
%TO.P,J12,T*%
%TO.N,R1*%
X124040000Y-187960000D03*
%TO.P,J12,TN*%
X119540000Y-187960000D03*
%TD*%
%TO.P,J5,S*%
%TO.N,GND*%
X78820000Y-137160000D03*
%TO.P,J5,T*%
%TO.N,RIGHT*%
X84320000Y-137160000D03*
%TO.P,J5,TN*%
X88820000Y-137160000D03*
%TD*%
%TO.P,J17,S*%
%TO.N,GND*%
X129460000Y-124460000D03*
%TO.P,J17,T*%
%TO.N,R3*%
X123960000Y-124460000D03*
%TO.P,J17,TN*%
X119460000Y-124460000D03*
%TD*%
%TO.P,J4,S*%
%TO.N,GND*%
X78820000Y-124460000D03*
%TO.P,J4,T*%
%TO.N,LEFT*%
X84320000Y-124460000D03*
%TO.P,J4,TN*%
X88820000Y-124460000D03*
%TD*%
%TO.P,J9,S*%
%TO.N,GND*%
X78820000Y-187960000D03*
%TO.P,J9,T*%
%TO.N,L2*%
X84320000Y-187960000D03*
%TO.P,J9,TN*%
X88820000Y-187960000D03*
%TD*%
%TO.P,J7,S*%
%TO.N,GND*%
X78820000Y-162560000D03*
%TO.P,J7,T*%
%TO.N,B2*%
X84320000Y-162560000D03*
%TO.P,J7,TN*%
X88820000Y-162560000D03*
%TD*%
%TO.P,J16,S*%
%TO.N,GND*%
X129460000Y-137160000D03*
%TO.P,J16,T*%
%TO.N,L3*%
X123960000Y-137160000D03*
%TO.P,J16,TN*%
X119460000Y-137160000D03*
%TD*%
%TO.P,J6,S*%
%TO.N,GND*%
X78820000Y-149860000D03*
%TO.P,J6,T*%
%TO.N,B1*%
X84320000Y-149860000D03*
%TO.P,J6,TN*%
X88820000Y-149860000D03*
%TD*%
D14*
%TO.P,U1,1,GPIO0*%
%TO.N,DP*%
X95250000Y-89277500D03*
D12*
%TO.P,U1,2,GPIO1*%
%TO.N,DM*%
X95250000Y-91817500D03*
D15*
%TO.P,U1,3,GND*%
%TO.N,GND*%
X95250000Y-94357500D03*
D12*
%TO.P,U1,4,GPIO2*%
%TO.N,UP*%
X95250000Y-96897500D03*
%TO.P,U1,5,GPIO3*%
%TO.N,DOWN*%
X95250000Y-99437500D03*
%TO.P,U1,6,GPIO4*%
%TO.N,LEFT*%
X95250000Y-101977500D03*
%TO.P,U1,7,GPIO5*%
%TO.N,RIGHT*%
X95250000Y-104517500D03*
D15*
%TO.P,U1,8,GND*%
%TO.N,GND*%
X95250000Y-107057500D03*
D12*
%TO.P,U1,9,GPIO6*%
%TO.N,B1*%
X95250000Y-109597500D03*
%TO.P,U1,10,GPIO7*%
%TO.N,B2*%
X95250000Y-112137500D03*
%TO.P,U1,11,GPIO8*%
%TO.N,R2*%
X95250000Y-114677500D03*
%TO.P,U1,12,GPIO9*%
%TO.N,L2*%
X95250000Y-117217500D03*
D15*
%TO.P,U1,13,GND*%
%TO.N,GND*%
X95250000Y-119757500D03*
D12*
%TO.P,U1,14,GPIO10*%
%TO.N,B3*%
X95250000Y-122297500D03*
%TO.P,U1,15,GPIO11*%
%TO.N,B4*%
X95250000Y-124837500D03*
%TO.P,U1,16,GPIO12*%
%TO.N,R1*%
X95250000Y-127377500D03*
%TO.P,U1,17,GPIO13*%
%TO.N,L1*%
X95250000Y-129917500D03*
D15*
%TO.P,U1,18,GND*%
%TO.N,GND*%
X95250000Y-132457500D03*
D12*
%TO.P,U1,19,GPIO14*%
%TO.N,unconnected-(U1-GPIO14-Pad19)*%
X95250000Y-134997500D03*
%TO.P,U1,20,GPIO15*%
%TO.N,unconnected-(U1-GPIO15-Pad20)*%
X95250000Y-137537500D03*
%TO.P,U1,21,GPIO16*%
%TO.N,S1*%
X113030000Y-137537500D03*
%TO.P,U1,22,GPIO17*%
%TO.N,S2*%
X113030000Y-134997500D03*
D16*
%TO.P,U1,23,GND*%
%TO.N,GND*%
X113030000Y-132457500D03*
D12*
%TO.P,U1,24,GPIO18*%
%TO.N,L3*%
X113030000Y-129917500D03*
%TO.P,U1,25,GPIO19*%
%TO.N,R3*%
X113030000Y-127377500D03*
%TO.P,U1,26,GPIO20*%
%TO.N,A1*%
X113030000Y-124837500D03*
%TO.P,U1,27,GPIO21*%
%TO.N,A2*%
X113030000Y-122297500D03*
D16*
%TO.P,U1,28,GND*%
%TO.N,GND*%
X113030000Y-119757500D03*
D12*
%TO.P,U1,29,GPIO22*%
%TO.N,unconnected-(U1-GPIO22-Pad29)*%
X113030000Y-117217500D03*
%TO.P,U1,30,RUN*%
%TO.N,unconnected-(U1-RUN-Pad30)*%
X113030000Y-114677500D03*
%TO.P,U1,31,GPIO26_ADC0*%
%TO.N,unconnected-(U1-GPIO26_ADC0-Pad31)*%
X113030000Y-112137500D03*
%TO.P,U1,32,GPIO27_ADC1*%
%TO.N,unconnected-(U1-GPIO27_ADC1-Pad32)*%
X113030000Y-109597500D03*
D16*
%TO.P,U1,33,AGND*%
%TO.N,unconnected-(U1-AGND-Pad33)*%
X113030000Y-107057500D03*
D12*
%TO.P,U1,34,GPIO28_ADC2*%
%TO.N,unconnected-(U1-GPIO28_ADC2-Pad34)*%
X113030000Y-104517500D03*
%TO.P,U1,35,ADC_VREF*%
%TO.N,unconnected-(U1-ADC_VREF-Pad35)*%
X113030000Y-101977500D03*
%TO.P,U1,36,3V3*%
%TO.N,unconnected-(U1-3V3-Pad36)*%
X113030000Y-99437500D03*
%TO.P,U1,37,3V3_EN*%
%TO.N,unconnected-(U1-3V3_EN-Pad37)*%
X113030000Y-96897500D03*
D16*
%TO.P,U1,38,GND*%
%TO.N,GND*%
X113030000Y-94357500D03*
D12*
%TO.P,U1,39,VSYS*%
%TO.N,unconnected-(U1-VSYS-Pad39)*%
X113030000Y-91817500D03*
%TO.P,U1,40,VBUS*%
%TO.N,VBUS*%
X113030000Y-89277500D03*
%TD*%
D10*
%TO.P,J8,S*%
%TO.N,GND*%
X78820000Y-175260000D03*
%TO.P,J8,T*%
%TO.N,R2*%
X84320000Y-175260000D03*
%TO.P,J8,TN*%
X88820000Y-175260000D03*
%TD*%
%TO.P,J11,S*%
%TO.N,GND*%
X129540000Y-200660000D03*
%TO.P,J11,T*%
%TO.N,B4*%
X124040000Y-200660000D03*
%TO.P,J11,TN*%
X119540000Y-200660000D03*
%TD*%
%TO.P,J13,S*%
%TO.N,GND*%
X129460000Y-175260000D03*
%TO.P,J13,T*%
%TO.N,L1*%
X123960000Y-175260000D03*
%TO.P,J13,TN*%
X119460000Y-175260000D03*
%TD*%
%TO.P,J18,S*%
%TO.N,GND*%
X129460000Y-111760000D03*
%TO.P,J18,T*%
%TO.N,A1*%
X123960000Y-111760000D03*
%TO.P,J18,TN*%
X119460000Y-111760000D03*
%TD*%
D17*
%TO.N,VBUS*%
X111490000Y-135890000D02*
X111490000Y-90817500D01*
X100640000Y-202920000D02*
X100640000Y-146740000D01*
X100640000Y-146740000D02*
X111490000Y-135890000D01*
X111490000Y-90817500D02*
X113030000Y-89277500D01*
D18*
%TO.N,DM*%
X96465000Y-201581396D02*
X96465000Y-93032500D01*
X103140000Y-203566396D02*
X101786396Y-204920000D01*
X99803604Y-204920000D02*
X96465000Y-201581396D01*
X96465000Y-93032500D02*
X95250000Y-91817500D01*
X101786396Y-204920000D02*
X99803604Y-204920000D01*
X103140000Y-202920000D02*
X103140000Y-203566396D01*
%TO.N,DP*%
X102015000Y-204055000D02*
X102015000Y-202454009D01*
X96915000Y-201395000D02*
X99990000Y-204470000D01*
X95250000Y-89277500D02*
X96915000Y-90942500D01*
X99990000Y-204470000D02*
X101600000Y-204470000D01*
X104015000Y-201795000D02*
X105140000Y-202920000D01*
X96915000Y-90942500D02*
X96915000Y-201395000D01*
X101600000Y-204470000D02*
X102015000Y-204055000D01*
X102015000Y-202454009D02*
X102674009Y-201795000D01*
X102674009Y-201795000D02*
X104015000Y-201795000D01*
%TO.N,UP*%
X84320000Y-99060000D02*
X88820000Y-99060000D01*
%TO.N,DOWN*%
X84320000Y-111760000D02*
X88820000Y-111760000D01*
%TO.N,LEFT*%
X84320000Y-124460000D02*
X88820000Y-124460000D01*
%TO.N,RIGHT*%
X84320000Y-137160000D02*
X88820000Y-137160000D01*
%TO.N,B1*%
X84320000Y-149860000D02*
X88820000Y-149860000D01*
%TO.N,B2*%
X84320000Y-162560000D02*
X88820000Y-162560000D01*
%TO.N,R2*%
X84320000Y-175260000D02*
X88820000Y-175260000D01*
%TO.N,L2*%
X84320000Y-187960000D02*
X88820000Y-187960000D01*
%TO.N,B3*%
X84320000Y-200660000D02*
X88820000Y-200660000D01*
D19*
%TO.N,B4*%
X119540000Y-200660000D02*
X124040000Y-200660000D01*
%TO.N,R1*%
X119540000Y-187960000D02*
X124040000Y-187960000D01*
%TO.N,L1*%
X119460000Y-175260000D02*
X123960000Y-175260000D01*
%TO.N,S1*%
X119460000Y-162560000D02*
X123960000Y-162560000D01*
%TO.N,S2*%
X119460000Y-149860000D02*
X123960000Y-149860000D01*
%TO.N,L3*%
X119460000Y-137160000D02*
X123960000Y-137160000D01*
%TO.N,R3*%
X119460000Y-124460000D02*
X123960000Y-124460000D01*
D18*
%TO.N,A1*%
X123960000Y-111760000D02*
X119460000Y-111760000D01*
D19*
%TO.N,A2*%
X119460000Y-99060000D02*
X123960000Y-99060000D01*
%TD*%
%TA.AperFunction,Conductor*%
%TO.N,GND*%
G36*
X127635840Y-87630010D02*
G01*
X127828856Y-87632536D01*
X127840172Y-87633203D01*
X128224967Y-87673646D01*
X128237783Y-87675676D01*
X128615419Y-87755945D01*
X128627954Y-87759304D01*
X128995136Y-87878609D01*
X129007253Y-87883260D01*
X129359964Y-88040297D01*
X129371514Y-88046182D01*
X129705872Y-88239223D01*
X129716749Y-88246286D01*
X129897197Y-88377390D01*
X130029101Y-88473224D01*
X130039187Y-88481392D01*
X130326096Y-88739725D01*
X130335274Y-88748903D01*
X130593607Y-89035812D01*
X130601775Y-89045898D01*
X130828710Y-89358246D01*
X130835779Y-89369132D01*
X131028813Y-89703478D01*
X131034706Y-89715043D01*
X131191739Y-90067746D01*
X131196390Y-90079863D01*
X131315695Y-90447045D01*
X131319054Y-90459582D01*
X131399322Y-90837214D01*
X131401353Y-90850034D01*
X131441795Y-91234815D01*
X131442463Y-91246153D01*
X131444989Y-91439158D01*
X131445000Y-91440781D01*
X131445000Y-98088427D01*
X131425315Y-98155466D01*
X131372511Y-98201221D01*
X131303353Y-98211165D01*
X131239797Y-98182140D01*
X131202023Y-98123362D01*
X131198061Y-98104612D01*
X131180057Y-97967862D01*
X131120681Y-97746269D01*
X131032897Y-97534340D01*
X131032893Y-97534331D01*
X130918190Y-97335661D01*
X130778544Y-97153670D01*
X130778538Y-97153663D01*
X130616336Y-96991461D01*
X130616329Y-96991455D01*
X130434338Y-96851809D01*
X130235668Y-96737106D01*
X130235659Y-96737102D01*
X130023730Y-96649318D01*
X129802137Y-96589942D01*
X129710000Y-96577811D01*
X129710000Y-97876988D01*
X129652993Y-97844075D01*
X129525826Y-97810000D01*
X129394174Y-97810000D01*
X129267007Y-97844075D01*
X129210000Y-97876988D01*
X129210000Y-96577811D01*
X129209999Y-96577811D01*
X129117862Y-96589942D01*
X128896269Y-96649318D01*
X128684340Y-96737102D01*
X128684331Y-96737106D01*
X128485661Y-96851809D01*
X128303670Y-96991455D01*
X128303663Y-96991461D01*
X128141461Y-97153663D01*
X128141455Y-97153670D01*
X128001809Y-97335661D01*
X127887106Y-97534331D01*
X127887102Y-97534340D01*
X127799318Y-97746269D01*
X127739942Y-97967862D01*
X127710001Y-98195289D01*
X127710000Y-98195305D01*
X127710000Y-98810000D01*
X128960000Y-98810000D01*
X128960000Y-99310000D01*
X127710000Y-99310000D01*
X127710000Y-99924694D01*
X127710001Y-99924710D01*
X127739942Y-100152137D01*
X127799318Y-100373730D01*
X127887102Y-100585659D01*
X127887106Y-100585668D01*
X128001809Y-100784338D01*
X128141455Y-100966329D01*
X128141461Y-100966336D01*
X128303663Y-101128538D01*
X128303670Y-101128544D01*
X128485661Y-101268190D01*
X128684331Y-101382893D01*
X128684340Y-101382897D01*
X128896269Y-101470681D01*
X129117859Y-101530056D01*
X129117864Y-101530057D01*
X129209999Y-101542186D01*
X129210000Y-101542186D01*
X129210000Y-100243012D01*
X129267007Y-100275925D01*
X129394174Y-100310000D01*
X129525826Y-100310000D01*
X129652993Y-100275925D01*
X129710000Y-100243012D01*
X129710000Y-101542186D01*
X129802135Y-101530057D01*
X129802140Y-101530056D01*
X130023730Y-101470681D01*
X130235659Y-101382897D01*
X130235668Y-101382893D01*
X130434338Y-101268190D01*
X130616329Y-101128544D01*
X130616336Y-101128538D01*
X130778538Y-100966336D01*
X130778544Y-100966329D01*
X130918190Y-100784338D01*
X131032893Y-100585668D01*
X131032897Y-100585659D01*
X131120681Y-100373730D01*
X131180057Y-100152137D01*
X131198061Y-100015387D01*
X131226327Y-99951490D01*
X131284652Y-99913019D01*
X131354517Y-99912188D01*
X131413740Y-99949260D01*
X131443519Y-100012466D01*
X131445000Y-100031572D01*
X131445000Y-110788427D01*
X131425315Y-110855466D01*
X131372511Y-110901221D01*
X131303353Y-110911165D01*
X131239797Y-110882140D01*
X131202023Y-110823362D01*
X131198061Y-110804612D01*
X131180057Y-110667862D01*
X131120681Y-110446269D01*
X131032897Y-110234340D01*
X131032893Y-110234331D01*
X130918190Y-110035661D01*
X130778544Y-109853670D01*
X130778538Y-109853663D01*
X130616336Y-109691461D01*
X130616329Y-109691455D01*
X130434338Y-109551809D01*
X130235668Y-109437106D01*
X130235659Y-109437102D01*
X130023730Y-109349318D01*
X129802137Y-109289942D01*
X129710000Y-109277811D01*
X129710000Y-110576988D01*
X129652993Y-110544075D01*
X129525826Y-110510000D01*
X129394174Y-110510000D01*
X129267007Y-110544075D01*
X129210000Y-110576988D01*
X129210000Y-109277811D01*
X129209999Y-109277811D01*
X129117862Y-109289942D01*
X128896269Y-109349318D01*
X128684340Y-109437102D01*
X128684331Y-109437106D01*
X128485661Y-109551809D01*
X128303670Y-109691455D01*
X128303663Y-109691461D01*
X128141461Y-109853663D01*
X128141455Y-109853670D01*
X128001809Y-110035661D01*
X127887106Y-110234331D01*
X127887102Y-110234340D01*
X127799318Y-110446269D01*
X127739942Y-110667862D01*
X127710001Y-110895289D01*
X127710000Y-110895305D01*
X127710000Y-111510000D01*
X128960000Y-111510000D01*
X128960000Y-112010000D01*
X127710000Y-112010000D01*
X127710000Y-112624694D01*
X127710001Y-112624710D01*
X127739942Y-112852137D01*
X127799318Y-113073730D01*
X127887102Y-113285659D01*
X127887106Y-113285668D01*
X128001809Y-113484338D01*
X128141455Y-113666329D01*
X128141461Y-113666336D01*
X128303663Y-113828538D01*
X128303670Y-113828544D01*
X128485661Y-113968190D01*
X128684331Y-114082893D01*
X128684340Y-114082897D01*
X128896269Y-114170681D01*
X129117859Y-114230056D01*
X129117864Y-114230057D01*
X129209999Y-114242186D01*
X129210000Y-114242186D01*
X129210000Y-112943012D01*
X129267007Y-112975925D01*
X129394174Y-113010000D01*
X129525826Y-113010000D01*
X129652993Y-112975925D01*
X129710000Y-112943012D01*
X129710000Y-114242186D01*
X129802135Y-114230057D01*
X129802140Y-114230056D01*
X130023730Y-114170681D01*
X130235659Y-114082897D01*
X130235668Y-114082893D01*
X130434338Y-113968190D01*
X130616329Y-113828544D01*
X130616336Y-113828538D01*
X130778538Y-113666336D01*
X130778544Y-113666329D01*
X130918190Y-113484338D01*
X131032893Y-113285668D01*
X131032897Y-113285659D01*
X131120681Y-113073730D01*
X131180057Y-112852137D01*
X131198061Y-112715387D01*
X131226327Y-112651490D01*
X131284652Y-112613019D01*
X131354517Y-112612188D01*
X131413740Y-112649260D01*
X131443519Y-112712466D01*
X131445000Y-112731572D01*
X131445000Y-123488427D01*
X131425315Y-123555466D01*
X131372511Y-123601221D01*
X131303353Y-123611165D01*
X131239797Y-123582140D01*
X131202023Y-123523362D01*
X131198061Y-123504612D01*
X131180057Y-123367862D01*
X131120681Y-123146269D01*
X131032897Y-122934340D01*
X131032893Y-122934331D01*
X130918190Y-122735661D01*
X130778544Y-122553670D01*
X130778538Y-122553663D01*
X130616336Y-122391461D01*
X130616329Y-122391455D01*
X130434338Y-122251809D01*
X130235668Y-122137106D01*
X130235659Y-122137102D01*
X130023730Y-122049318D01*
X129802137Y-121989942D01*
X129710000Y-121977811D01*
X129710000Y-123276988D01*
X129652993Y-123244075D01*
X129525826Y-123210000D01*
X129394174Y-123210000D01*
X129267007Y-123244075D01*
X129210000Y-123276988D01*
X129210000Y-121977811D01*
X129209999Y-121977811D01*
X129117862Y-121989942D01*
X128896269Y-122049318D01*
X128684340Y-122137102D01*
X128684331Y-122137106D01*
X128485661Y-122251809D01*
X128303670Y-122391455D01*
X128303663Y-122391461D01*
X128141461Y-122553663D01*
X128141455Y-122553670D01*
X128001809Y-122735661D01*
X127887106Y-122934331D01*
X127887102Y-122934340D01*
X127799318Y-123146269D01*
X127739942Y-123367862D01*
X127710001Y-123595289D01*
X127710000Y-123595305D01*
X127710000Y-124210000D01*
X128960000Y-124210000D01*
X128960000Y-124710000D01*
X127710000Y-124710000D01*
X127710000Y-125324694D01*
X127710001Y-125324710D01*
X127739942Y-125552137D01*
X127799318Y-125773730D01*
X127887102Y-125985659D01*
X127887106Y-125985668D01*
X128001809Y-126184338D01*
X128141455Y-126366329D01*
X128141461Y-126366336D01*
X128303663Y-126528538D01*
X128303670Y-126528544D01*
X128485661Y-126668190D01*
X128684331Y-126782893D01*
X128684340Y-126782897D01*
X128896269Y-126870681D01*
X129117859Y-126930056D01*
X129117864Y-126930057D01*
X129209999Y-126942186D01*
X129210000Y-126942186D01*
X129210000Y-125643012D01*
X129267007Y-125675925D01*
X129394174Y-125710000D01*
X129525826Y-125710000D01*
X129652993Y-125675925D01*
X129710000Y-125643012D01*
X129710000Y-126942186D01*
X129802135Y-126930057D01*
X129802140Y-126930056D01*
X130023730Y-126870681D01*
X130235659Y-126782897D01*
X130235668Y-126782893D01*
X130434338Y-126668190D01*
X130616329Y-126528544D01*
X130616336Y-126528538D01*
X130778538Y-126366336D01*
X130778544Y-126366329D01*
X130918190Y-126184338D01*
X131032893Y-125985668D01*
X131032897Y-125985659D01*
X131120681Y-125773730D01*
X131180057Y-125552137D01*
X131198061Y-125415387D01*
X131226327Y-125351490D01*
X131284652Y-125313019D01*
X131354517Y-125312188D01*
X131413740Y-125349260D01*
X131443519Y-125412466D01*
X131445000Y-125431572D01*
X131445000Y-136188427D01*
X131425315Y-136255466D01*
X131372511Y-136301221D01*
X131303353Y-136311165D01*
X131239797Y-136282140D01*
X131202023Y-136223362D01*
X131198061Y-136204612D01*
X131180057Y-136067862D01*
X131120681Y-135846269D01*
X131032897Y-135634340D01*
X131032893Y-135634331D01*
X130918190Y-135435661D01*
X130778544Y-135253670D01*
X130778538Y-135253663D01*
X130616336Y-135091461D01*
X130616329Y-135091455D01*
X130434338Y-134951809D01*
X130235668Y-134837106D01*
X130235659Y-134837102D01*
X130023730Y-134749318D01*
X129802137Y-134689942D01*
X129710000Y-134677811D01*
X129710000Y-135976988D01*
X129652993Y-135944075D01*
X129525826Y-135910000D01*
X129394174Y-135910000D01*
X129267007Y-135944075D01*
X129210000Y-135976988D01*
X129210000Y-134677811D01*
X129209999Y-134677811D01*
X129117862Y-134689942D01*
X128896269Y-134749318D01*
X128684340Y-134837102D01*
X128684331Y-134837106D01*
X128485661Y-134951809D01*
X128303670Y-135091455D01*
X128303663Y-135091461D01*
X128141461Y-135253663D01*
X128141455Y-135253670D01*
X128001809Y-135435661D01*
X127887106Y-135634331D01*
X127887102Y-135634340D01*
X127799318Y-135846269D01*
X127739942Y-136067862D01*
X127710001Y-136295289D01*
X127710000Y-136295305D01*
X127710000Y-136910000D01*
X128960000Y-136910000D01*
X128960000Y-137410000D01*
X127710000Y-137410000D01*
X127710000Y-138024694D01*
X127710001Y-138024710D01*
X127739942Y-138252137D01*
X127799318Y-138473730D01*
X127887102Y-138685659D01*
X127887106Y-138685668D01*
X128001809Y-138884338D01*
X128141455Y-139066329D01*
X128141461Y-139066336D01*
X128303663Y-139228538D01*
X128303670Y-139228544D01*
X128485661Y-139368190D01*
X128684331Y-139482893D01*
X128684340Y-139482897D01*
X128896269Y-139570681D01*
X129117859Y-139630056D01*
X129117864Y-139630057D01*
X129209999Y-139642186D01*
X129210000Y-139642186D01*
X129210000Y-138343012D01*
X129267007Y-138375925D01*
X129394174Y-138410000D01*
X129525826Y-138410000D01*
X129652993Y-138375925D01*
X129710000Y-138343012D01*
X129710000Y-139642186D01*
X129802135Y-139630057D01*
X129802140Y-139630056D01*
X130023730Y-139570681D01*
X130235659Y-139482897D01*
X130235668Y-139482893D01*
X130434338Y-139368190D01*
X130616329Y-139228544D01*
X130616336Y-139228538D01*
X130778538Y-139066336D01*
X130778544Y-139066329D01*
X130918190Y-138884338D01*
X131032893Y-138685668D01*
X131032897Y-138685659D01*
X131120681Y-138473730D01*
X131180057Y-138252137D01*
X131198061Y-138115387D01*
X131226327Y-138051490D01*
X131284652Y-138013019D01*
X131354517Y-138012188D01*
X131413740Y-138049260D01*
X131443519Y-138112466D01*
X131445000Y-138131572D01*
X131445000Y-148888427D01*
X131425315Y-148955466D01*
X131372511Y-149001221D01*
X131303353Y-149011165D01*
X131239797Y-148982140D01*
X131202023Y-148923362D01*
X131198061Y-148904612D01*
X131180057Y-148767862D01*
X131120681Y-148546269D01*
X131032897Y-148334340D01*
X131032893Y-148334331D01*
X130918190Y-148135661D01*
X130778544Y-147953670D01*
X130778538Y-147953663D01*
X130616336Y-147791461D01*
X130616329Y-147791455D01*
X130434338Y-147651809D01*
X130235668Y-147537106D01*
X130235659Y-147537102D01*
X130023730Y-147449318D01*
X129802137Y-147389942D01*
X129710000Y-147377811D01*
X129710000Y-148676988D01*
X129652993Y-148644075D01*
X129525826Y-148610000D01*
X129394174Y-148610000D01*
X129267007Y-148644075D01*
X129210000Y-148676988D01*
X129210000Y-147377811D01*
X129209999Y-147377811D01*
X129117862Y-147389942D01*
X128896269Y-147449318D01*
X128684340Y-147537102D01*
X128684331Y-147537106D01*
X128485661Y-147651809D01*
X128303670Y-147791455D01*
X128303663Y-147791461D01*
X128141461Y-147953663D01*
X128141455Y-147953670D01*
X128001809Y-148135661D01*
X127887106Y-148334331D01*
X127887102Y-148334340D01*
X127799318Y-148546269D01*
X127739942Y-148767862D01*
X127710001Y-148995289D01*
X127710000Y-148995305D01*
X127710000Y-149610000D01*
X128960000Y-149610000D01*
X128960000Y-150110000D01*
X127710000Y-150110000D01*
X127710000Y-150724694D01*
X127710001Y-150724710D01*
X127739942Y-150952137D01*
X127799318Y-151173730D01*
X127887102Y-151385659D01*
X127887106Y-151385668D01*
X128001809Y-151584338D01*
X128141455Y-151766329D01*
X128141461Y-151766336D01*
X128303663Y-151928538D01*
X128303670Y-151928544D01*
X128485661Y-152068190D01*
X128684331Y-152182893D01*
X128684340Y-152182897D01*
X128896269Y-152270681D01*
X129117859Y-152330056D01*
X129117864Y-152330057D01*
X129209999Y-152342186D01*
X129210000Y-152342186D01*
X129210000Y-151043012D01*
X129267007Y-151075925D01*
X129394174Y-151110000D01*
X129525826Y-151110000D01*
X129652993Y-151075925D01*
X129710000Y-151043012D01*
X129710000Y-152342186D01*
X129802135Y-152330057D01*
X129802140Y-152330056D01*
X130023730Y-152270681D01*
X130235659Y-152182897D01*
X130235668Y-152182893D01*
X130434338Y-152068190D01*
X130616329Y-151928544D01*
X130616336Y-151928538D01*
X130778538Y-151766336D01*
X130778544Y-151766329D01*
X130918190Y-151584338D01*
X131032893Y-151385668D01*
X131032897Y-151385659D01*
X131120681Y-151173730D01*
X131180057Y-150952137D01*
X131198061Y-150815387D01*
X131226327Y-150751490D01*
X131284652Y-150713019D01*
X131354517Y-150712188D01*
X131413740Y-150749260D01*
X131443519Y-150812466D01*
X131445000Y-150831572D01*
X131445000Y-161588427D01*
X131425315Y-161655466D01*
X131372511Y-161701221D01*
X131303353Y-161711165D01*
X131239797Y-161682140D01*
X131202023Y-161623362D01*
X131198061Y-161604612D01*
X131180057Y-161467862D01*
X131120681Y-161246269D01*
X131032897Y-161034340D01*
X131032893Y-161034331D01*
X130918190Y-160835661D01*
X130778544Y-160653670D01*
X130778538Y-160653663D01*
X130616336Y-160491461D01*
X130616329Y-160491455D01*
X130434338Y-160351809D01*
X130235668Y-160237106D01*
X130235659Y-160237102D01*
X130023730Y-160149318D01*
X129802137Y-160089942D01*
X129710000Y-160077811D01*
X129710000Y-161376988D01*
X129652993Y-161344075D01*
X129525826Y-161310000D01*
X129394174Y-161310000D01*
X129267007Y-161344075D01*
X129210000Y-161376988D01*
X129210000Y-160077811D01*
X129209999Y-160077811D01*
X129117862Y-160089942D01*
X128896269Y-160149318D01*
X128684340Y-160237102D01*
X128684331Y-160237106D01*
X128485661Y-160351809D01*
X128303670Y-160491455D01*
X128303663Y-160491461D01*
X128141461Y-160653663D01*
X128141455Y-160653670D01*
X128001809Y-160835661D01*
X127887106Y-161034331D01*
X127887102Y-161034340D01*
X127799318Y-161246269D01*
X127739942Y-161467862D01*
X127710001Y-161695289D01*
X127710000Y-161695305D01*
X127710000Y-162310000D01*
X128960000Y-162310000D01*
X128960000Y-162810000D01*
X127710000Y-162810000D01*
X127710000Y-163424694D01*
X127710001Y-163424710D01*
X127739942Y-163652137D01*
X127799318Y-163873730D01*
X127887102Y-164085659D01*
X127887106Y-164085668D01*
X128001809Y-164284338D01*
X128141455Y-164466329D01*
X128141461Y-164466336D01*
X128303663Y-164628538D01*
X128303670Y-164628544D01*
X128485661Y-164768190D01*
X128684331Y-164882893D01*
X128684340Y-164882897D01*
X128896269Y-164970681D01*
X129117859Y-165030056D01*
X129117864Y-165030057D01*
X129209999Y-165042186D01*
X129210000Y-165042186D01*
X129210000Y-163743012D01*
X129267007Y-163775925D01*
X129394174Y-163810000D01*
X129525826Y-163810000D01*
X129652993Y-163775925D01*
X129710000Y-163743012D01*
X129710000Y-165042186D01*
X129802135Y-165030057D01*
X129802140Y-165030056D01*
X130023730Y-164970681D01*
X130235659Y-164882897D01*
X130235668Y-164882893D01*
X130434338Y-164768190D01*
X130616329Y-164628544D01*
X130616336Y-164628538D01*
X130778538Y-164466336D01*
X130778544Y-164466329D01*
X130918190Y-164284338D01*
X131032893Y-164085668D01*
X131032897Y-164085659D01*
X131120681Y-163873730D01*
X131180057Y-163652137D01*
X131198061Y-163515387D01*
X131226327Y-163451490D01*
X131284652Y-163413019D01*
X131354517Y-163412188D01*
X131413740Y-163449260D01*
X131443519Y-163512466D01*
X131445000Y-163531572D01*
X131445000Y-174288427D01*
X131425315Y-174355466D01*
X131372511Y-174401221D01*
X131303353Y-174411165D01*
X131239797Y-174382140D01*
X131202023Y-174323362D01*
X131198061Y-174304612D01*
X131180057Y-174167862D01*
X131120681Y-173946269D01*
X131032897Y-173734340D01*
X131032893Y-173734331D01*
X130918190Y-173535661D01*
X130778544Y-173353670D01*
X130778538Y-173353663D01*
X130616336Y-173191461D01*
X130616329Y-173191455D01*
X130434338Y-173051809D01*
X130235668Y-172937106D01*
X130235659Y-172937102D01*
X130023730Y-172849318D01*
X129802137Y-172789942D01*
X129710000Y-172777811D01*
X129710000Y-174076988D01*
X129652993Y-174044075D01*
X129525826Y-174010000D01*
X129394174Y-174010000D01*
X129267007Y-174044075D01*
X129210000Y-174076988D01*
X129210000Y-172777811D01*
X129209999Y-172777811D01*
X129117862Y-172789942D01*
X128896269Y-172849318D01*
X128684340Y-172937102D01*
X128684331Y-172937106D01*
X128485661Y-173051809D01*
X128303670Y-173191455D01*
X128303663Y-173191461D01*
X128141461Y-173353663D01*
X128141455Y-173353670D01*
X128001809Y-173535661D01*
X127887106Y-173734331D01*
X127887102Y-173734340D01*
X127799318Y-173946269D01*
X127739942Y-174167862D01*
X127710001Y-174395289D01*
X127710000Y-174395305D01*
X127710000Y-175010000D01*
X128960000Y-175010000D01*
X128960000Y-175510000D01*
X127710000Y-175510000D01*
X127710000Y-176124694D01*
X127710001Y-176124710D01*
X127739942Y-176352137D01*
X127799318Y-176573730D01*
X127887102Y-176785659D01*
X127887106Y-176785668D01*
X128001809Y-176984338D01*
X128141455Y-177166329D01*
X128141461Y-177166336D01*
X128303663Y-177328538D01*
X128303670Y-177328544D01*
X128485661Y-177468190D01*
X128684331Y-177582893D01*
X128684340Y-177582897D01*
X128896269Y-177670681D01*
X129117859Y-177730056D01*
X129117864Y-177730057D01*
X129209999Y-177742186D01*
X129210000Y-177742186D01*
X129210000Y-176443012D01*
X129267007Y-176475925D01*
X129394174Y-176510000D01*
X129525826Y-176510000D01*
X129652993Y-176475925D01*
X129710000Y-176443012D01*
X129710000Y-177742186D01*
X129802135Y-177730057D01*
X129802140Y-177730056D01*
X130023730Y-177670681D01*
X130235659Y-177582897D01*
X130235668Y-177582893D01*
X130434338Y-177468190D01*
X130616329Y-177328544D01*
X130616336Y-177328538D01*
X130778538Y-177166336D01*
X130778544Y-177166329D01*
X130918190Y-176984338D01*
X131032893Y-176785668D01*
X131032897Y-176785659D01*
X131120681Y-176573730D01*
X131180057Y-176352137D01*
X131198061Y-176215387D01*
X131226327Y-176151490D01*
X131284652Y-176113019D01*
X131354517Y-176112188D01*
X131413740Y-176149260D01*
X131443519Y-176212466D01*
X131445000Y-176231572D01*
X131445000Y-186616204D01*
X131425315Y-186683243D01*
X131372511Y-186728998D01*
X131303353Y-186738942D01*
X131239797Y-186709917D01*
X131202023Y-186651139D01*
X131201225Y-186648298D01*
X131200681Y-186646269D01*
X131112897Y-186434340D01*
X131112893Y-186434331D01*
X130998190Y-186235661D01*
X130858544Y-186053670D01*
X130858538Y-186053663D01*
X130696336Y-185891461D01*
X130696329Y-185891455D01*
X130514338Y-185751809D01*
X130315668Y-185637106D01*
X130315659Y-185637102D01*
X130103730Y-185549318D01*
X129882137Y-185489942D01*
X129790000Y-185477811D01*
X129790000Y-186776988D01*
X129732993Y-186744075D01*
X129605826Y-186710000D01*
X129474174Y-186710000D01*
X129347007Y-186744075D01*
X129290000Y-186776988D01*
X129290000Y-185477811D01*
X129289999Y-185477811D01*
X129197862Y-185489942D01*
X128976269Y-185549318D01*
X128764340Y-185637102D01*
X128764331Y-185637106D01*
X128565661Y-185751809D01*
X128383670Y-185891455D01*
X128383663Y-185891461D01*
X128221461Y-186053663D01*
X128221455Y-186053670D01*
X128081809Y-186235661D01*
X127967106Y-186434331D01*
X127967102Y-186434340D01*
X127879318Y-186646269D01*
X127819942Y-186867862D01*
X127790001Y-187095289D01*
X127790000Y-187095305D01*
X127790000Y-187710000D01*
X129040000Y-187710000D01*
X129040000Y-188210000D01*
X127790000Y-188210000D01*
X127790000Y-188824694D01*
X127790001Y-188824710D01*
X127819942Y-189052137D01*
X127879318Y-189273730D01*
X127967102Y-189485659D01*
X127967106Y-189485668D01*
X128081809Y-189684338D01*
X128221455Y-189866329D01*
X128221461Y-189866336D01*
X128383663Y-190028538D01*
X128383670Y-190028544D01*
X128565661Y-190168190D01*
X128764331Y-190282893D01*
X128764340Y-190282897D01*
X128976269Y-190370681D01*
X129197859Y-190430056D01*
X129197864Y-190430057D01*
X129289999Y-190442186D01*
X129290000Y-190442186D01*
X129290000Y-189143012D01*
X129347007Y-189175925D01*
X129474174Y-189210000D01*
X129605826Y-189210000D01*
X129732993Y-189175925D01*
X129790000Y-189143012D01*
X129790000Y-190442186D01*
X129882135Y-190430057D01*
X129882140Y-190430056D01*
X130103730Y-190370681D01*
X130315659Y-190282897D01*
X130315668Y-190282893D01*
X130514338Y-190168190D01*
X130696329Y-190028544D01*
X130696336Y-190028538D01*
X130858538Y-189866336D01*
X130858544Y-189866329D01*
X130998190Y-189684338D01*
X131112893Y-189485668D01*
X131112897Y-189485659D01*
X131200681Y-189273729D01*
X131201224Y-189271706D01*
X131201551Y-189271169D01*
X131201986Y-189269888D01*
X131202272Y-189269985D01*
X131237587Y-189212044D01*
X131300433Y-189181513D01*
X131369809Y-189189805D01*
X131423688Y-189234288D01*
X131444965Y-189300840D01*
X131445000Y-189303795D01*
X131445000Y-199316204D01*
X131425315Y-199383243D01*
X131372511Y-199428998D01*
X131303353Y-199438942D01*
X131239797Y-199409917D01*
X131202023Y-199351139D01*
X131201225Y-199348298D01*
X131200681Y-199346269D01*
X131112897Y-199134340D01*
X131112893Y-199134331D01*
X130998190Y-198935661D01*
X130858544Y-198753670D01*
X130858538Y-198753663D01*
X130696336Y-198591461D01*
X130696329Y-198591455D01*
X130514338Y-198451809D01*
X130315668Y-198337106D01*
X130315659Y-198337102D01*
X130103730Y-198249318D01*
X129882137Y-198189942D01*
X129790000Y-198177811D01*
X129790000Y-199476988D01*
X129732993Y-199444075D01*
X129605826Y-199410000D01*
X129474174Y-199410000D01*
X129347007Y-199444075D01*
X129290000Y-199476988D01*
X129290000Y-198177811D01*
X129289999Y-198177811D01*
X129197862Y-198189942D01*
X128976269Y-198249318D01*
X128764340Y-198337102D01*
X128764331Y-198337106D01*
X128565661Y-198451809D01*
X128383670Y-198591455D01*
X128383663Y-198591461D01*
X128221461Y-198753663D01*
X128221455Y-198753670D01*
X128081809Y-198935661D01*
X127967106Y-199134331D01*
X127967102Y-199134340D01*
X127879318Y-199346269D01*
X127819942Y-199567862D01*
X127790001Y-199795289D01*
X127790000Y-199795305D01*
X127790000Y-200410000D01*
X129040000Y-200410000D01*
X129040000Y-200910000D01*
X127790000Y-200910000D01*
X127790000Y-201524694D01*
X127790001Y-201524710D01*
X127819942Y-201752137D01*
X127879318Y-201973730D01*
X127967102Y-202185659D01*
X127967106Y-202185668D01*
X128081809Y-202384338D01*
X128221455Y-202566329D01*
X128221461Y-202566336D01*
X128383663Y-202728538D01*
X128383670Y-202728544D01*
X128565661Y-202868190D01*
X128764331Y-202982893D01*
X128764340Y-202982897D01*
X128976269Y-203070681D01*
X129197859Y-203130056D01*
X129197864Y-203130057D01*
X129289999Y-203142186D01*
X129290000Y-203142186D01*
X129290000Y-201843012D01*
X129347007Y-201875925D01*
X129474174Y-201910000D01*
X129605826Y-201910000D01*
X129732993Y-201875925D01*
X129790000Y-201843012D01*
X129790000Y-203142186D01*
X129882135Y-203130057D01*
X129882140Y-203130056D01*
X130103730Y-203070681D01*
X130315659Y-202982897D01*
X130315668Y-202982893D01*
X130514338Y-202868190D01*
X130696329Y-202728544D01*
X130696336Y-202728538D01*
X130858538Y-202566336D01*
X130858544Y-202566329D01*
X130998190Y-202384338D01*
X131112893Y-202185668D01*
X131112897Y-202185659D01*
X131200681Y-201973729D01*
X131201224Y-201971706D01*
X131201551Y-201971169D01*
X131201986Y-201969888D01*
X131202272Y-201969985D01*
X131237587Y-201912044D01*
X131300433Y-201881513D01*
X131369809Y-201889805D01*
X131423688Y-201934288D01*
X131444965Y-202000840D01*
X131445000Y-202003795D01*
X131445000Y-208279218D01*
X131444989Y-208280841D01*
X131442463Y-208473846D01*
X131441795Y-208485184D01*
X131401353Y-208869965D01*
X131399322Y-208882785D01*
X131319054Y-209260417D01*
X131315695Y-209272954D01*
X131196390Y-209640136D01*
X131191739Y-209652253D01*
X131034706Y-210004956D01*
X131028813Y-210016521D01*
X130835779Y-210350867D01*
X130828710Y-210361753D01*
X130601775Y-210674101D01*
X130593607Y-210684187D01*
X130335274Y-210971096D01*
X130326096Y-210980274D01*
X130039187Y-211238607D01*
X130029101Y-211246775D01*
X129716753Y-211473710D01*
X129705867Y-211480779D01*
X129371521Y-211673813D01*
X129359956Y-211679706D01*
X129007253Y-211836739D01*
X128995136Y-211841390D01*
X128627954Y-211960695D01*
X128615417Y-211964054D01*
X128237785Y-212044322D01*
X128224965Y-212046353D01*
X127840184Y-212086795D01*
X127828846Y-212087463D01*
X127642914Y-212089896D01*
X127635839Y-212089989D01*
X127634219Y-212090000D01*
X80645781Y-212090000D01*
X80644160Y-212089989D01*
X80636890Y-212089893D01*
X80451153Y-212087463D01*
X80439815Y-212086795D01*
X80055034Y-212046353D01*
X80042214Y-212044322D01*
X79664582Y-211964054D01*
X79652045Y-211960695D01*
X79284863Y-211841390D01*
X79272746Y-211836739D01*
X78920043Y-211679706D01*
X78908478Y-211673813D01*
X78574132Y-211480779D01*
X78563246Y-211473710D01*
X78250898Y-211246775D01*
X78240812Y-211238607D01*
X77953903Y-210980274D01*
X77944725Y-210971096D01*
X77686392Y-210684187D01*
X77678224Y-210674101D01*
X77451289Y-210361753D01*
X77444220Y-210350867D01*
X77298712Y-210098838D01*
X77251182Y-210016514D01*
X77245297Y-210004964D01*
X77088260Y-209652253D01*
X77083609Y-209640136D01*
X76964304Y-209272954D01*
X76960945Y-209260417D01*
X76880677Y-208882785D01*
X76878646Y-208869965D01*
X76838203Y-208485172D01*
X76837536Y-208473856D01*
X76836587Y-208401288D01*
X78794500Y-208401288D01*
X78826161Y-208641785D01*
X78888947Y-208876104D01*
X78981773Y-209100205D01*
X78981776Y-209100212D01*
X79103064Y-209310289D01*
X79103066Y-209310292D01*
X79103067Y-209310293D01*
X79250733Y-209502736D01*
X79250739Y-209502743D01*
X79422256Y-209674260D01*
X79422262Y-209674265D01*
X79614711Y-209821936D01*
X79824788Y-209943224D01*
X80048900Y-210036054D01*
X80283211Y-210098838D01*
X80463586Y-210122584D01*
X80523711Y-210130500D01*
X80523712Y-210130500D01*
X80766289Y-210130500D01*
X80814388Y-210124167D01*
X81006789Y-210098838D01*
X81241100Y-210036054D01*
X81465212Y-209943224D01*
X81675289Y-209821936D01*
X81867738Y-209674265D01*
X82039265Y-209502738D01*
X82186936Y-209310289D01*
X82308224Y-209100212D01*
X82401054Y-208876100D01*
X82463838Y-208641789D01*
X82495500Y-208401288D01*
X125784500Y-208401288D01*
X125816161Y-208641785D01*
X125878947Y-208876104D01*
X125971773Y-209100205D01*
X125971776Y-209100212D01*
X126093064Y-209310289D01*
X126093066Y-209310292D01*
X126093067Y-209310293D01*
X126240733Y-209502736D01*
X126240739Y-209502743D01*
X126412256Y-209674260D01*
X126412262Y-209674265D01*
X126604711Y-209821936D01*
X126814788Y-209943224D01*
X127038900Y-210036054D01*
X127273211Y-210098838D01*
X127453586Y-210122584D01*
X127513711Y-210130500D01*
X127513712Y-210130500D01*
X127756289Y-210130500D01*
X127804388Y-210124167D01*
X127996789Y-210098838D01*
X128231100Y-210036054D01*
X128455212Y-209943224D01*
X128665289Y-209821936D01*
X128857738Y-209674265D01*
X129029265Y-209502738D01*
X129176936Y-209310289D01*
X129298224Y-209100212D01*
X129391054Y-208876100D01*
X129453838Y-208641789D01*
X129485500Y-208401288D01*
X129485500Y-208158712D01*
X129453838Y-207918211D01*
X129391054Y-207683900D01*
X129298224Y-207459788D01*
X129176936Y-207249711D01*
X129029265Y-207057262D01*
X129029260Y-207057256D01*
X128857743Y-206885739D01*
X128857736Y-206885733D01*
X128665293Y-206738067D01*
X128665292Y-206738066D01*
X128665289Y-206738064D01*
X128455212Y-206616776D01*
X128447467Y-206613568D01*
X128231104Y-206523947D01*
X128113944Y-206492554D01*
X127996789Y-206461162D01*
X127996788Y-206461161D01*
X127996785Y-206461161D01*
X127756289Y-206429500D01*
X127756288Y-206429500D01*
X127513712Y-206429500D01*
X127513711Y-206429500D01*
X127273214Y-206461161D01*
X127038895Y-206523947D01*
X126814794Y-206616773D01*
X126814785Y-206616777D01*
X126604706Y-206738067D01*
X126412263Y-206885733D01*
X126412256Y-206885739D01*
X126240739Y-207057256D01*
X126240733Y-207057263D01*
X126093067Y-207249706D01*
X125971777Y-207459785D01*
X125971773Y-207459794D01*
X125878947Y-207683895D01*
X125816161Y-207918214D01*
X125784500Y-208158711D01*
X125784500Y-208401288D01*
X82495500Y-208401288D01*
X82495500Y-208158712D01*
X82463838Y-207918211D01*
X82401054Y-207683900D01*
X82308224Y-207459788D01*
X82186936Y-207249711D01*
X82039265Y-207057262D01*
X82039260Y-207057256D01*
X81867743Y-206885739D01*
X81867736Y-206885733D01*
X81675293Y-206738067D01*
X81675292Y-206738066D01*
X81675289Y-206738064D01*
X81465212Y-206616776D01*
X81457467Y-206613568D01*
X81241104Y-206523947D01*
X81123944Y-206492554D01*
X81006789Y-206461162D01*
X81006788Y-206461161D01*
X81006785Y-206461161D01*
X80766289Y-206429500D01*
X80766288Y-206429500D01*
X80523712Y-206429500D01*
X80523711Y-206429500D01*
X80283214Y-206461161D01*
X80048895Y-206523947D01*
X79824794Y-206616773D01*
X79824785Y-206616777D01*
X79614706Y-206738067D01*
X79422263Y-206885733D01*
X79422256Y-206885739D01*
X79250739Y-207057256D01*
X79250733Y-207057263D01*
X79103067Y-207249706D01*
X78981777Y-207459785D01*
X78981773Y-207459794D01*
X78888947Y-207683895D01*
X78826161Y-207918214D01*
X78794500Y-208158711D01*
X78794500Y-208401288D01*
X76836587Y-208401288D01*
X76835011Y-208280840D01*
X76835000Y-208279218D01*
X76835000Y-201631572D01*
X76854685Y-201564533D01*
X76907489Y-201518778D01*
X76976647Y-201508834D01*
X77040203Y-201537859D01*
X77077977Y-201596637D01*
X77081939Y-201615387D01*
X77099942Y-201752137D01*
X77159318Y-201973730D01*
X77247102Y-202185659D01*
X77247106Y-202185668D01*
X77361809Y-202384338D01*
X77501455Y-202566329D01*
X77501461Y-202566336D01*
X77663663Y-202728538D01*
X77663670Y-202728544D01*
X77845661Y-202868190D01*
X78044331Y-202982893D01*
X78044340Y-202982897D01*
X78256269Y-203070681D01*
X78477859Y-203130056D01*
X78477864Y-203130057D01*
X78569999Y-203142186D01*
X78570000Y-203142186D01*
X78570000Y-201843012D01*
X78627007Y-201875925D01*
X78754174Y-201910000D01*
X78885826Y-201910000D01*
X79012993Y-201875925D01*
X79070000Y-201843012D01*
X79070000Y-203142186D01*
X79162135Y-203130057D01*
X79162140Y-203130056D01*
X79383730Y-203070681D01*
X79595659Y-202982897D01*
X79595668Y-202982893D01*
X79794338Y-202868190D01*
X79976329Y-202728544D01*
X79976336Y-202728538D01*
X80138538Y-202566336D01*
X80138544Y-202566329D01*
X80278190Y-202384338D01*
X80392893Y-202185668D01*
X80392897Y-202185659D01*
X80480681Y-201973730D01*
X80540057Y-201752137D01*
X80569994Y-201524741D01*
X82569500Y-201524741D01*
X82588559Y-201669500D01*
X82599452Y-201752238D01*
X82644391Y-201919953D01*
X82658842Y-201973887D01*
X82746650Y-202185876D01*
X82746657Y-202185890D01*
X82861392Y-202384617D01*
X83001081Y-202566661D01*
X83001089Y-202566670D01*
X83163330Y-202728911D01*
X83163338Y-202728918D01*
X83163339Y-202728919D01*
X83188650Y-202748341D01*
X83345382Y-202868607D01*
X83345385Y-202868608D01*
X83345388Y-202868611D01*
X83544112Y-202983344D01*
X83544117Y-202983346D01*
X83544123Y-202983349D01*
X83635480Y-203021190D01*
X83756113Y-203071158D01*
X83977762Y-203130548D01*
X84205266Y-203160500D01*
X84205273Y-203160500D01*
X84434727Y-203160500D01*
X84434734Y-203160500D01*
X84662238Y-203130548D01*
X84883887Y-203071158D01*
X85095888Y-202983344D01*
X85294612Y-202868611D01*
X85476661Y-202728919D01*
X85476665Y-202728914D01*
X85476670Y-202728911D01*
X85638911Y-202566670D01*
X85638914Y-202566665D01*
X85638919Y-202566661D01*
X85778611Y-202384612D01*
X85893344Y-202185888D01*
X85981158Y-201973887D01*
X86040548Y-201752238D01*
X86070500Y-201524734D01*
X86070500Y-201409500D01*
X86090185Y-201342461D01*
X86142989Y-201296706D01*
X86194500Y-201285500D01*
X86945500Y-201285500D01*
X87012539Y-201305185D01*
X87058294Y-201357989D01*
X87069500Y-201409500D01*
X87069500Y-201524741D01*
X87088559Y-201669500D01*
X87099452Y-201752238D01*
X87144391Y-201919953D01*
X87158842Y-201973887D01*
X87246650Y-202185876D01*
X87246657Y-202185890D01*
X87361392Y-202384617D01*
X87501081Y-202566661D01*
X87501089Y-202566670D01*
X87663330Y-202728911D01*
X87663338Y-202728918D01*
X87663339Y-202728919D01*
X87688650Y-202748341D01*
X87845382Y-202868607D01*
X87845385Y-202868608D01*
X87845388Y-202868611D01*
X88044112Y-202983344D01*
X88044117Y-202983346D01*
X88044123Y-202983349D01*
X88135480Y-203021190D01*
X88256113Y-203071158D01*
X88477762Y-203130548D01*
X88705266Y-203160500D01*
X88705273Y-203160500D01*
X88934727Y-203160500D01*
X88934734Y-203160500D01*
X89162238Y-203130548D01*
X89383887Y-203071158D01*
X89595888Y-202983344D01*
X89794612Y-202868611D01*
X89976661Y-202728919D01*
X89976665Y-202728914D01*
X89976670Y-202728911D01*
X90138911Y-202566670D01*
X90138914Y-202566665D01*
X90138919Y-202566661D01*
X90278611Y-202384612D01*
X90393344Y-202185888D01*
X90481158Y-201973887D01*
X90540548Y-201752238D01*
X90570500Y-201524734D01*
X90570500Y-199795266D01*
X90540548Y-199567762D01*
X90481158Y-199346113D01*
X90431190Y-199225480D01*
X90393349Y-199134123D01*
X90393346Y-199134117D01*
X90393344Y-199134112D01*
X90278611Y-198935388D01*
X90278608Y-198935385D01*
X90278607Y-198935382D01*
X90139173Y-198753670D01*
X90138919Y-198753339D01*
X90138918Y-198753338D01*
X90138911Y-198753330D01*
X89976670Y-198591089D01*
X89976661Y-198591081D01*
X89794617Y-198451392D01*
X89595890Y-198336657D01*
X89595876Y-198336650D01*
X89383887Y-198248842D01*
X89162238Y-198189452D01*
X89124215Y-198184446D01*
X88934741Y-198159500D01*
X88934734Y-198159500D01*
X88705266Y-198159500D01*
X88705258Y-198159500D01*
X88488715Y-198188009D01*
X88477762Y-198189452D01*
X88384076Y-198214554D01*
X88256112Y-198248842D01*
X88044123Y-198336650D01*
X88044109Y-198336657D01*
X87845382Y-198451392D01*
X87663338Y-198591081D01*
X87501081Y-198753338D01*
X87361392Y-198935382D01*
X87246657Y-199134109D01*
X87246650Y-199134123D01*
X87158842Y-199346112D01*
X87099453Y-199567759D01*
X87099451Y-199567770D01*
X87069500Y-199795258D01*
X87069500Y-199910500D01*
X87049815Y-199977539D01*
X86997011Y-200023294D01*
X86945500Y-200034500D01*
X86194500Y-200034500D01*
X86127461Y-200014815D01*
X86081706Y-199962011D01*
X86070500Y-199910500D01*
X86070500Y-199795272D01*
X86070499Y-199795258D01*
X86066977Y-199768509D01*
X86040548Y-199567762D01*
X85981158Y-199346113D01*
X85931190Y-199225480D01*
X85893349Y-199134123D01*
X85893346Y-199134117D01*
X85893344Y-199134112D01*
X85778611Y-198935388D01*
X85778608Y-198935385D01*
X85778607Y-198935382D01*
X85639173Y-198753670D01*
X85638919Y-198753339D01*
X85638918Y-198753338D01*
X85638911Y-198753330D01*
X85476670Y-198591089D01*
X85476661Y-198591081D01*
X85294617Y-198451392D01*
X85095890Y-198336657D01*
X85095876Y-198336650D01*
X84883887Y-198248842D01*
X84662238Y-198189452D01*
X84624215Y-198184446D01*
X84434741Y-198159500D01*
X84434734Y-198159500D01*
X84205266Y-198159500D01*
X84205258Y-198159500D01*
X83988715Y-198188009D01*
X83977762Y-198189452D01*
X83884076Y-198214554D01*
X83756112Y-198248842D01*
X83544123Y-198336650D01*
X83544109Y-198336657D01*
X83345382Y-198451392D01*
X83163338Y-198591081D01*
X83001081Y-198753338D01*
X82861392Y-198935382D01*
X82746657Y-199134109D01*
X82746650Y-199134123D01*
X82658842Y-199346112D01*
X82599453Y-199567759D01*
X82599451Y-199567770D01*
X82569500Y-199795258D01*
X82569500Y-201524741D01*
X80569994Y-201524741D01*
X80569998Y-201524710D01*
X80570000Y-201524694D01*
X80570000Y-200910000D01*
X79320000Y-200910000D01*
X79320000Y-200410000D01*
X80570000Y-200410000D01*
X80570000Y-199795305D01*
X80569998Y-199795289D01*
X80540057Y-199567862D01*
X80480681Y-199346269D01*
X80392897Y-199134340D01*
X80392893Y-199134331D01*
X80278190Y-198935661D01*
X80138544Y-198753670D01*
X80138538Y-198753663D01*
X79976336Y-198591461D01*
X79976329Y-198591455D01*
X79794338Y-198451809D01*
X79595668Y-198337106D01*
X79595659Y-198337102D01*
X79383730Y-198249318D01*
X79162137Y-198189942D01*
X79070000Y-198177811D01*
X79070000Y-199476988D01*
X79012993Y-199444075D01*
X78885826Y-199410000D01*
X78754174Y-199410000D01*
X78627007Y-199444075D01*
X78570000Y-199476988D01*
X78570000Y-198177811D01*
X78569999Y-198177811D01*
X78477862Y-198189942D01*
X78256269Y-198249318D01*
X78044340Y-198337102D01*
X78044331Y-198337106D01*
X77845661Y-198451809D01*
X77663670Y-198591455D01*
X77663663Y-198591461D01*
X77501461Y-198753663D01*
X77501455Y-198753670D01*
X77361809Y-198935661D01*
X77247106Y-199134331D01*
X77247102Y-199134340D01*
X77159318Y-199346269D01*
X77099942Y-199567862D01*
X77081939Y-199704612D01*
X77053672Y-199768509D01*
X76995348Y-199806980D01*
X76925483Y-199807811D01*
X76866260Y-199770739D01*
X76836481Y-199707533D01*
X76835000Y-199688427D01*
X76835000Y-188931572D01*
X76854685Y-188864533D01*
X76907489Y-188818778D01*
X76976647Y-188808834D01*
X77040203Y-188837859D01*
X77077977Y-188896637D01*
X77081939Y-188915387D01*
X77099942Y-189052137D01*
X77159318Y-189273730D01*
X77247102Y-189485659D01*
X77247106Y-189485668D01*
X77361809Y-189684338D01*
X77501455Y-189866329D01*
X77501461Y-189866336D01*
X77663663Y-190028538D01*
X77663670Y-190028544D01*
X77845661Y-190168190D01*
X78044331Y-190282893D01*
X78044340Y-190282897D01*
X78256269Y-190370681D01*
X78477859Y-190430056D01*
X78477864Y-190430057D01*
X78569999Y-190442186D01*
X78570000Y-190442186D01*
X78570000Y-189143012D01*
X78627007Y-189175925D01*
X78754174Y-189210000D01*
X78885826Y-189210000D01*
X79012993Y-189175925D01*
X79070000Y-189143012D01*
X79070000Y-190442186D01*
X79162135Y-190430057D01*
X79162140Y-190430056D01*
X79383730Y-190370681D01*
X79595659Y-190282897D01*
X79595668Y-190282893D01*
X79794338Y-190168190D01*
X79976329Y-190028544D01*
X79976336Y-190028538D01*
X80138538Y-189866336D01*
X80138544Y-189866329D01*
X80278190Y-189684338D01*
X80392893Y-189485668D01*
X80392897Y-189485659D01*
X80480681Y-189273730D01*
X80540057Y-189052137D01*
X80569994Y-188824741D01*
X82569500Y-188824741D01*
X82594446Y-189014215D01*
X82599452Y-189052238D01*
X82648232Y-189234288D01*
X82658842Y-189273887D01*
X82746650Y-189485876D01*
X82746657Y-189485890D01*
X82861392Y-189684617D01*
X83001081Y-189866661D01*
X83001089Y-189866670D01*
X83163330Y-190028911D01*
X83163338Y-190028918D01*
X83345382Y-190168607D01*
X83345385Y-190168608D01*
X83345388Y-190168611D01*
X83544112Y-190283344D01*
X83544117Y-190283346D01*
X83544123Y-190283349D01*
X83635480Y-190321190D01*
X83756113Y-190371158D01*
X83977762Y-190430548D01*
X84205266Y-190460500D01*
X84205273Y-190460500D01*
X84434727Y-190460500D01*
X84434734Y-190460500D01*
X84662238Y-190430548D01*
X84883887Y-190371158D01*
X85095888Y-190283344D01*
X85294612Y-190168611D01*
X85476661Y-190028919D01*
X85476665Y-190028914D01*
X85476670Y-190028911D01*
X85638911Y-189866670D01*
X85638914Y-189866665D01*
X85638919Y-189866661D01*
X85778611Y-189684612D01*
X85893344Y-189485888D01*
X85981158Y-189273887D01*
X86040548Y-189052238D01*
X86070500Y-188824734D01*
X86070500Y-188709500D01*
X86090185Y-188642461D01*
X86142989Y-188596706D01*
X86194500Y-188585500D01*
X86945500Y-188585500D01*
X87012539Y-188605185D01*
X87058294Y-188657989D01*
X87069500Y-188709500D01*
X87069500Y-188824741D01*
X87094446Y-189014215D01*
X87099452Y-189052238D01*
X87148232Y-189234288D01*
X87158842Y-189273887D01*
X87246650Y-189485876D01*
X87246657Y-189485890D01*
X87361392Y-189684617D01*
X87501081Y-189866661D01*
X87501089Y-189866670D01*
X87663330Y-190028911D01*
X87663338Y-190028918D01*
X87845382Y-190168607D01*
X87845385Y-190168608D01*
X87845388Y-190168611D01*
X88044112Y-190283344D01*
X88044117Y-190283346D01*
X88044123Y-190283349D01*
X88135480Y-190321190D01*
X88256113Y-190371158D01*
X88477762Y-190430548D01*
X88705266Y-190460500D01*
X88705273Y-190460500D01*
X88934727Y-190460500D01*
X88934734Y-190460500D01*
X89162238Y-190430548D01*
X89383887Y-190371158D01*
X89595888Y-190283344D01*
X89794612Y-190168611D01*
X89976661Y-190028919D01*
X89976665Y-190028914D01*
X89976670Y-190028911D01*
X90138911Y-189866670D01*
X90138914Y-189866665D01*
X90138919Y-189866661D01*
X90278611Y-189684612D01*
X90393344Y-189485888D01*
X90481158Y-189273887D01*
X90540548Y-189052238D01*
X90570500Y-188824734D01*
X90570500Y-187095266D01*
X90540548Y-186867762D01*
X90481158Y-186646113D01*
X90431190Y-186525480D01*
X90393349Y-186434123D01*
X90393346Y-186434117D01*
X90393344Y-186434112D01*
X90278611Y-186235388D01*
X90278608Y-186235385D01*
X90278607Y-186235382D01*
X90139173Y-186053670D01*
X90138919Y-186053339D01*
X90138918Y-186053338D01*
X90138911Y-186053330D01*
X89976670Y-185891089D01*
X89976661Y-185891081D01*
X89794617Y-185751392D01*
X89595890Y-185636657D01*
X89595876Y-185636650D01*
X89383887Y-185548842D01*
X89162238Y-185489452D01*
X89124215Y-185484446D01*
X88934741Y-185459500D01*
X88934734Y-185459500D01*
X88705266Y-185459500D01*
X88705258Y-185459500D01*
X88488715Y-185488009D01*
X88477762Y-185489452D01*
X88384076Y-185514554D01*
X88256112Y-185548842D01*
X88044123Y-185636650D01*
X88044109Y-185636657D01*
X87845382Y-185751392D01*
X87663338Y-185891081D01*
X87501081Y-186053338D01*
X87361392Y-186235382D01*
X87246657Y-186434109D01*
X87246650Y-186434123D01*
X87158842Y-186646112D01*
X87099453Y-186867759D01*
X87099451Y-186867770D01*
X87069500Y-187095258D01*
X87069500Y-187210500D01*
X87049815Y-187277539D01*
X86997011Y-187323294D01*
X86945500Y-187334500D01*
X86194500Y-187334500D01*
X86127461Y-187314815D01*
X86081706Y-187262011D01*
X86070500Y-187210500D01*
X86070500Y-187095272D01*
X86070499Y-187095258D01*
X86066977Y-187068509D01*
X86040548Y-186867762D01*
X85981158Y-186646113D01*
X85931190Y-186525480D01*
X85893349Y-186434123D01*
X85893346Y-186434117D01*
X85893344Y-186434112D01*
X85778611Y-186235388D01*
X85778608Y-186235385D01*
X85778607Y-186235382D01*
X85639173Y-186053670D01*
X85638919Y-186053339D01*
X85638918Y-186053338D01*
X85638911Y-186053330D01*
X85476670Y-185891089D01*
X85476661Y-185891081D01*
X85294617Y-185751392D01*
X85095890Y-185636657D01*
X85095876Y-185636650D01*
X84883887Y-185548842D01*
X84662238Y-185489452D01*
X84624215Y-185484446D01*
X84434741Y-185459500D01*
X84434734Y-185459500D01*
X84205266Y-185459500D01*
X84205258Y-185459500D01*
X83988715Y-185488009D01*
X83977762Y-185489452D01*
X83884076Y-185514554D01*
X83756112Y-185548842D01*
X83544123Y-185636650D01*
X83544109Y-185636657D01*
X83345382Y-185751392D01*
X83163338Y-185891081D01*
X83001081Y-186053338D01*
X82861392Y-186235382D01*
X82746657Y-186434109D01*
X82746650Y-186434123D01*
X82658842Y-186646112D01*
X82599453Y-186867759D01*
X82599451Y-186867770D01*
X82569500Y-187095258D01*
X82569500Y-188824741D01*
X80569994Y-188824741D01*
X80569998Y-188824710D01*
X80570000Y-188824694D01*
X80570000Y-188210000D01*
X79320000Y-188210000D01*
X79320000Y-187710000D01*
X80570000Y-187710000D01*
X80570000Y-187095305D01*
X80569998Y-187095289D01*
X80540057Y-186867862D01*
X80480681Y-186646269D01*
X80392897Y-186434340D01*
X80392893Y-186434331D01*
X80278190Y-186235661D01*
X80138544Y-186053670D01*
X80138538Y-186053663D01*
X79976336Y-185891461D01*
X79976329Y-185891455D01*
X79794338Y-185751809D01*
X79595668Y-185637106D01*
X79595659Y-185637102D01*
X79383730Y-185549318D01*
X79162137Y-185489942D01*
X79070000Y-185477811D01*
X79070000Y-186776988D01*
X79012993Y-186744075D01*
X78885826Y-186710000D01*
X78754174Y-186710000D01*
X78627007Y-186744075D01*
X78570000Y-186776988D01*
X78570000Y-185477811D01*
X78569999Y-185477811D01*
X78477862Y-185489942D01*
X78256269Y-185549318D01*
X78044340Y-185637102D01*
X78044331Y-185637106D01*
X77845661Y-185751809D01*
X77663670Y-185891455D01*
X77663663Y-185891461D01*
X77501461Y-186053663D01*
X77501455Y-186053670D01*
X77361809Y-186235661D01*
X77247106Y-186434331D01*
X77247102Y-186434340D01*
X77159318Y-186646269D01*
X77099942Y-186867862D01*
X77081939Y-187004612D01*
X77053672Y-187068509D01*
X76995348Y-187106980D01*
X76925483Y-187107811D01*
X76866260Y-187070739D01*
X76836481Y-187007533D01*
X76835000Y-186988427D01*
X76835000Y-176231572D01*
X76854685Y-176164533D01*
X76907489Y-176118778D01*
X76976647Y-176108834D01*
X77040203Y-176137859D01*
X77077977Y-176196637D01*
X77081939Y-176215387D01*
X77099942Y-176352137D01*
X77159318Y-176573730D01*
X77247102Y-176785659D01*
X77247106Y-176785668D01*
X77361809Y-176984338D01*
X77501455Y-177166329D01*
X77501461Y-177166336D01*
X77663663Y-177328538D01*
X77663670Y-177328544D01*
X77845661Y-177468190D01*
X78044331Y-177582893D01*
X78044340Y-177582897D01*
X78256269Y-177670681D01*
X78477859Y-177730056D01*
X78477864Y-177730057D01*
X78569999Y-177742186D01*
X78570000Y-177742186D01*
X78570000Y-176443012D01*
X78627007Y-176475925D01*
X78754174Y-176510000D01*
X78885826Y-176510000D01*
X79012993Y-176475925D01*
X79070000Y-176443012D01*
X79070000Y-177742186D01*
X79162135Y-177730057D01*
X79162140Y-177730056D01*
X79383730Y-177670681D01*
X79595659Y-177582897D01*
X79595668Y-177582893D01*
X79794338Y-177468190D01*
X79976329Y-177328544D01*
X79976336Y-177328538D01*
X80138538Y-177166336D01*
X80138544Y-177166329D01*
X80278190Y-176984338D01*
X80392893Y-176785668D01*
X80392897Y-176785659D01*
X80480681Y-176573730D01*
X80540057Y-176352137D01*
X80569994Y-176124741D01*
X82569500Y-176124741D01*
X82594446Y-176314215D01*
X82599452Y-176352238D01*
X82641724Y-176510000D01*
X82658842Y-176573887D01*
X82746650Y-176785876D01*
X82746657Y-176785890D01*
X82861392Y-176984617D01*
X83001081Y-177166661D01*
X83001089Y-177166670D01*
X83163330Y-177328911D01*
X83163338Y-177328918D01*
X83345382Y-177468607D01*
X83345385Y-177468608D01*
X83345388Y-177468611D01*
X83544112Y-177583344D01*
X83544117Y-177583346D01*
X83544123Y-177583349D01*
X83635480Y-177621190D01*
X83756113Y-177671158D01*
X83977762Y-177730548D01*
X84205266Y-177760500D01*
X84205273Y-177760500D01*
X84434727Y-177760500D01*
X84434734Y-177760500D01*
X84662238Y-177730548D01*
X84883887Y-177671158D01*
X85095888Y-177583344D01*
X85294612Y-177468611D01*
X85476661Y-177328919D01*
X85476665Y-177328914D01*
X85476670Y-177328911D01*
X85638911Y-177166670D01*
X85638914Y-177166665D01*
X85638919Y-177166661D01*
X85778611Y-176984612D01*
X85893344Y-176785888D01*
X85981158Y-176573887D01*
X86040548Y-176352238D01*
X86070500Y-176124734D01*
X86070500Y-176009500D01*
X86090185Y-175942461D01*
X86142989Y-175896706D01*
X86194500Y-175885500D01*
X86945500Y-175885500D01*
X87012539Y-175905185D01*
X87058294Y-175957989D01*
X87069500Y-176009500D01*
X87069500Y-176124741D01*
X87094446Y-176314215D01*
X87099452Y-176352238D01*
X87141724Y-176510000D01*
X87158842Y-176573887D01*
X87246650Y-176785876D01*
X87246657Y-176785890D01*
X87361392Y-176984617D01*
X87501081Y-177166661D01*
X87501089Y-177166670D01*
X87663330Y-177328911D01*
X87663338Y-177328918D01*
X87845382Y-177468607D01*
X87845385Y-177468608D01*
X87845388Y-177468611D01*
X88044112Y-177583344D01*
X88044117Y-177583346D01*
X88044123Y-177583349D01*
X88135480Y-177621190D01*
X88256113Y-177671158D01*
X88477762Y-177730548D01*
X88705266Y-177760500D01*
X88705273Y-177760500D01*
X88934727Y-177760500D01*
X88934734Y-177760500D01*
X89162238Y-177730548D01*
X89383887Y-177671158D01*
X89595888Y-177583344D01*
X89794612Y-177468611D01*
X89976661Y-177328919D01*
X89976665Y-177328914D01*
X89976670Y-177328911D01*
X90138911Y-177166670D01*
X90138914Y-177166665D01*
X90138919Y-177166661D01*
X90278611Y-176984612D01*
X90393344Y-176785888D01*
X90481158Y-176573887D01*
X90540548Y-176352238D01*
X90570500Y-176124734D01*
X90570500Y-174395266D01*
X90540548Y-174167762D01*
X90481158Y-173946113D01*
X90431190Y-173825480D01*
X90393349Y-173734123D01*
X90393346Y-173734117D01*
X90393344Y-173734112D01*
X90278611Y-173535388D01*
X90278608Y-173535385D01*
X90278607Y-173535382D01*
X90139173Y-173353670D01*
X90138919Y-173353339D01*
X90138918Y-173353338D01*
X90138911Y-173353330D01*
X89976670Y-173191089D01*
X89976661Y-173191081D01*
X89794617Y-173051392D01*
X89595890Y-172936657D01*
X89595876Y-172936650D01*
X89383887Y-172848842D01*
X89162238Y-172789452D01*
X89124215Y-172784446D01*
X88934741Y-172759500D01*
X88934734Y-172759500D01*
X88705266Y-172759500D01*
X88705258Y-172759500D01*
X88488715Y-172788009D01*
X88477762Y-172789452D01*
X88384076Y-172814554D01*
X88256112Y-172848842D01*
X88044123Y-172936650D01*
X88044109Y-172936657D01*
X87845382Y-173051392D01*
X87663338Y-173191081D01*
X87501081Y-173353338D01*
X87361392Y-173535382D01*
X87246657Y-173734109D01*
X87246650Y-173734123D01*
X87158842Y-173946112D01*
X87099453Y-174167759D01*
X87099451Y-174167770D01*
X87069500Y-174395258D01*
X87069500Y-174510500D01*
X87049815Y-174577539D01*
X86997011Y-174623294D01*
X86945500Y-174634500D01*
X86194500Y-174634500D01*
X86127461Y-174614815D01*
X86081706Y-174562011D01*
X86070500Y-174510500D01*
X86070500Y-174395272D01*
X86070499Y-174395258D01*
X86061033Y-174323362D01*
X86040548Y-174167762D01*
X85981158Y-173946113D01*
X85931190Y-173825480D01*
X85893349Y-173734123D01*
X85893346Y-173734117D01*
X85893344Y-173734112D01*
X85778611Y-173535388D01*
X85778608Y-173535385D01*
X85778607Y-173535382D01*
X85639173Y-173353670D01*
X85638919Y-173353339D01*
X85638918Y-173353338D01*
X85638911Y-173353330D01*
X85476670Y-173191089D01*
X85476661Y-173191081D01*
X85294617Y-173051392D01*
X85095890Y-172936657D01*
X85095876Y-172936650D01*
X84883887Y-172848842D01*
X84662238Y-172789452D01*
X84624215Y-172784446D01*
X84434741Y-172759500D01*
X84434734Y-172759500D01*
X84205266Y-172759500D01*
X84205258Y-172759500D01*
X83988715Y-172788009D01*
X83977762Y-172789452D01*
X83884076Y-172814554D01*
X83756112Y-172848842D01*
X83544123Y-172936650D01*
X83544109Y-172936657D01*
X83345382Y-173051392D01*
X83163338Y-173191081D01*
X83001081Y-173353338D01*
X82861392Y-173535382D01*
X82746657Y-173734109D01*
X82746650Y-173734123D01*
X82658842Y-173946112D01*
X82599453Y-174167759D01*
X82599451Y-174167770D01*
X82569500Y-174395258D01*
X82569500Y-176124741D01*
X80569994Y-176124741D01*
X80569998Y-176124710D01*
X80570000Y-176124694D01*
X80570000Y-175510000D01*
X79320000Y-175510000D01*
X79320000Y-175010000D01*
X80570000Y-175010000D01*
X80570000Y-174395305D01*
X80569998Y-174395289D01*
X80540057Y-174167862D01*
X80480681Y-173946269D01*
X80392897Y-173734340D01*
X80392893Y-173734331D01*
X80278190Y-173535661D01*
X80138544Y-173353670D01*
X80138538Y-173353663D01*
X79976336Y-173191461D01*
X79976329Y-173191455D01*
X79794338Y-173051809D01*
X79595668Y-172937106D01*
X79595659Y-172937102D01*
X79383730Y-172849318D01*
X79162137Y-172789942D01*
X79070000Y-172777811D01*
X79070000Y-174076988D01*
X79012993Y-174044075D01*
X78885826Y-174010000D01*
X78754174Y-174010000D01*
X78627007Y-174044075D01*
X78570000Y-174076988D01*
X78570000Y-172777811D01*
X78569999Y-172777811D01*
X78477862Y-172789942D01*
X78256269Y-172849318D01*
X78044340Y-172937102D01*
X78044331Y-172937106D01*
X77845661Y-173051809D01*
X77663670Y-173191455D01*
X77663663Y-173191461D01*
X77501461Y-173353663D01*
X77501455Y-173353670D01*
X77361809Y-173535661D01*
X77247106Y-173734331D01*
X77247102Y-173734340D01*
X77159318Y-173946269D01*
X77099942Y-174167862D01*
X77081939Y-174304612D01*
X77053672Y-174368509D01*
X76995348Y-174406980D01*
X76925483Y-174407811D01*
X76866260Y-174370739D01*
X76836481Y-174307533D01*
X76835000Y-174288427D01*
X76835000Y-163531572D01*
X76854685Y-163464533D01*
X76907489Y-163418778D01*
X76976647Y-163408834D01*
X77040203Y-163437859D01*
X77077977Y-163496637D01*
X77081939Y-163515387D01*
X77099942Y-163652137D01*
X77159318Y-163873730D01*
X77247102Y-164085659D01*
X77247106Y-164085668D01*
X77361809Y-164284338D01*
X77501455Y-164466329D01*
X77501461Y-164466336D01*
X77663663Y-164628538D01*
X77663670Y-164628544D01*
X77845661Y-164768190D01*
X78044331Y-164882893D01*
X78044340Y-164882897D01*
X78256269Y-164970681D01*
X78477859Y-165030056D01*
X78477864Y-165030057D01*
X78569999Y-165042186D01*
X78570000Y-165042186D01*
X78570000Y-163743012D01*
X78627007Y-163775925D01*
X78754174Y-163810000D01*
X78885826Y-163810000D01*
X79012993Y-163775925D01*
X79070000Y-163743012D01*
X79070000Y-165042186D01*
X79162135Y-165030057D01*
X79162140Y-165030056D01*
X79383730Y-164970681D01*
X79595659Y-164882897D01*
X79595668Y-164882893D01*
X79794338Y-164768190D01*
X79976329Y-164628544D01*
X79976336Y-164628538D01*
X80138538Y-164466336D01*
X80138544Y-164466329D01*
X80278190Y-164284338D01*
X80392893Y-164085668D01*
X80392897Y-164085659D01*
X80480681Y-163873730D01*
X80540057Y-163652137D01*
X80569994Y-163424741D01*
X82569500Y-163424741D01*
X82594446Y-163614215D01*
X82599452Y-163652238D01*
X82641724Y-163810000D01*
X82658842Y-163873887D01*
X82746650Y-164085876D01*
X82746657Y-164085890D01*
X82861392Y-164284617D01*
X83001081Y-164466661D01*
X83001089Y-164466670D01*
X83163330Y-164628911D01*
X83163338Y-164628918D01*
X83345382Y-164768607D01*
X83345385Y-164768608D01*
X83345388Y-164768611D01*
X83544112Y-164883344D01*
X83544117Y-164883346D01*
X83544123Y-164883349D01*
X83635480Y-164921190D01*
X83756113Y-164971158D01*
X83977762Y-165030548D01*
X84205266Y-165060500D01*
X84205273Y-165060500D01*
X84434727Y-165060500D01*
X84434734Y-165060500D01*
X84662238Y-165030548D01*
X84883887Y-164971158D01*
X85095888Y-164883344D01*
X85294612Y-164768611D01*
X85476661Y-164628919D01*
X85476665Y-164628914D01*
X85476670Y-164628911D01*
X85638911Y-164466670D01*
X85638914Y-164466665D01*
X85638919Y-164466661D01*
X85778611Y-164284612D01*
X85893344Y-164085888D01*
X85981158Y-163873887D01*
X86040548Y-163652238D01*
X86070500Y-163424734D01*
X86070500Y-163309500D01*
X86090185Y-163242461D01*
X86142989Y-163196706D01*
X86194500Y-163185500D01*
X86945500Y-163185500D01*
X87012539Y-163205185D01*
X87058294Y-163257989D01*
X87069500Y-163309500D01*
X87069500Y-163424741D01*
X87094446Y-163614215D01*
X87099452Y-163652238D01*
X87141724Y-163810000D01*
X87158842Y-163873887D01*
X87246650Y-164085876D01*
X87246657Y-164085890D01*
X87361392Y-164284617D01*
X87501081Y-164466661D01*
X87501089Y-164466670D01*
X87663330Y-164628911D01*
X87663338Y-164628918D01*
X87845382Y-164768607D01*
X87845385Y-164768608D01*
X87845388Y-164768611D01*
X88044112Y-164883344D01*
X88044117Y-164883346D01*
X88044123Y-164883349D01*
X88135480Y-164921190D01*
X88256113Y-164971158D01*
X88477762Y-165030548D01*
X88705266Y-165060500D01*
X88705273Y-165060500D01*
X88934727Y-165060500D01*
X88934734Y-165060500D01*
X89162238Y-165030548D01*
X89383887Y-164971158D01*
X89595888Y-164883344D01*
X89794612Y-164768611D01*
X89976661Y-164628919D01*
X89976665Y-164628914D01*
X89976670Y-164628911D01*
X90138911Y-164466670D01*
X90138914Y-164466665D01*
X90138919Y-164466661D01*
X90278611Y-164284612D01*
X90393344Y-164085888D01*
X90481158Y-163873887D01*
X90540548Y-163652238D01*
X90570500Y-163424734D01*
X90570500Y-161695266D01*
X90540548Y-161467762D01*
X90481158Y-161246113D01*
X90431190Y-161125480D01*
X90393349Y-161034123D01*
X90393346Y-161034117D01*
X90393344Y-161034112D01*
X90278611Y-160835388D01*
X90278608Y-160835385D01*
X90278607Y-160835382D01*
X90139173Y-160653670D01*
X90138919Y-160653339D01*
X90138918Y-160653338D01*
X90138911Y-160653330D01*
X89976670Y-160491089D01*
X89976661Y-160491081D01*
X89794617Y-160351392D01*
X89595890Y-160236657D01*
X89595876Y-160236650D01*
X89383887Y-160148842D01*
X89162238Y-160089452D01*
X89124215Y-160084446D01*
X88934741Y-160059500D01*
X88934734Y-160059500D01*
X88705266Y-160059500D01*
X88705258Y-160059500D01*
X88488715Y-160088009D01*
X88477762Y-160089452D01*
X88384076Y-160114554D01*
X88256112Y-160148842D01*
X88044123Y-160236650D01*
X88044109Y-160236657D01*
X87845382Y-160351392D01*
X87663338Y-160491081D01*
X87501081Y-160653338D01*
X87361392Y-160835382D01*
X87246657Y-161034109D01*
X87246650Y-161034123D01*
X87158842Y-161246112D01*
X87099453Y-161467759D01*
X87099451Y-161467770D01*
X87069500Y-161695258D01*
X87069500Y-161810500D01*
X87049815Y-161877539D01*
X86997011Y-161923294D01*
X86945500Y-161934500D01*
X86194500Y-161934500D01*
X86127461Y-161914815D01*
X86081706Y-161862011D01*
X86070500Y-161810500D01*
X86070500Y-161695272D01*
X86070499Y-161695258D01*
X86061033Y-161623362D01*
X86040548Y-161467762D01*
X85981158Y-161246113D01*
X85931190Y-161125480D01*
X85893349Y-161034123D01*
X85893346Y-161034117D01*
X85893344Y-161034112D01*
X85778611Y-160835388D01*
X85778608Y-160835385D01*
X85778607Y-160835382D01*
X85639173Y-160653670D01*
X85638919Y-160653339D01*
X85638918Y-160653338D01*
X85638911Y-160653330D01*
X85476670Y-160491089D01*
X85476661Y-160491081D01*
X85294617Y-160351392D01*
X85095890Y-160236657D01*
X85095876Y-160236650D01*
X84883887Y-160148842D01*
X84662238Y-160089452D01*
X84624215Y-160084446D01*
X84434741Y-160059500D01*
X84434734Y-160059500D01*
X84205266Y-160059500D01*
X84205258Y-160059500D01*
X83988715Y-160088009D01*
X83977762Y-160089452D01*
X83884076Y-160114554D01*
X83756112Y-160148842D01*
X83544123Y-160236650D01*
X83544109Y-160236657D01*
X83345382Y-160351392D01*
X83163338Y-160491081D01*
X83001081Y-160653338D01*
X82861392Y-160835382D01*
X82746657Y-161034109D01*
X82746650Y-161034123D01*
X82658842Y-161246112D01*
X82599453Y-161467759D01*
X82599451Y-161467770D01*
X82569500Y-161695258D01*
X82569500Y-163424741D01*
X80569994Y-163424741D01*
X80569998Y-163424710D01*
X80570000Y-163424694D01*
X80570000Y-162810000D01*
X79320000Y-162810000D01*
X79320000Y-162310000D01*
X80570000Y-162310000D01*
X80570000Y-161695305D01*
X80569998Y-161695289D01*
X80540057Y-161467862D01*
X80480681Y-161246269D01*
X80392897Y-161034340D01*
X80392893Y-161034331D01*
X80278190Y-160835661D01*
X80138544Y-160653670D01*
X80138538Y-160653663D01*
X79976336Y-160491461D01*
X79976329Y-160491455D01*
X79794338Y-160351809D01*
X79595668Y-160237106D01*
X79595659Y-160237102D01*
X79383730Y-160149318D01*
X79162137Y-160089942D01*
X79070000Y-160077811D01*
X79070000Y-161376988D01*
X79012993Y-161344075D01*
X78885826Y-161310000D01*
X78754174Y-161310000D01*
X78627007Y-161344075D01*
X78570000Y-161376988D01*
X78570000Y-160077811D01*
X78569999Y-160077811D01*
X78477862Y-160089942D01*
X78256269Y-160149318D01*
X78044340Y-160237102D01*
X78044331Y-160237106D01*
X77845661Y-160351809D01*
X77663670Y-160491455D01*
X77663663Y-160491461D01*
X77501461Y-160653663D01*
X77501455Y-160653670D01*
X77361809Y-160835661D01*
X77247106Y-161034331D01*
X77247102Y-161034340D01*
X77159318Y-161246269D01*
X77099942Y-161467862D01*
X77081939Y-161604612D01*
X77053672Y-161668509D01*
X76995348Y-161706980D01*
X76925483Y-161707811D01*
X76866260Y-161670739D01*
X76836481Y-161607533D01*
X76835000Y-161588427D01*
X76835000Y-150831572D01*
X76854685Y-150764533D01*
X76907489Y-150718778D01*
X76976647Y-150708834D01*
X77040203Y-150737859D01*
X77077977Y-150796637D01*
X77081939Y-150815387D01*
X77099942Y-150952137D01*
X77159318Y-151173730D01*
X77247102Y-151385659D01*
X77247106Y-151385668D01*
X77361809Y-151584338D01*
X77501455Y-151766329D01*
X77501461Y-151766336D01*
X77663663Y-151928538D01*
X77663670Y-151928544D01*
X77845661Y-152068190D01*
X78044331Y-152182893D01*
X78044340Y-152182897D01*
X78256269Y-152270681D01*
X78477859Y-152330056D01*
X78477864Y-152330057D01*
X78569999Y-152342186D01*
X78570000Y-152342186D01*
X78570000Y-151043012D01*
X78627007Y-151075925D01*
X78754174Y-151110000D01*
X78885826Y-151110000D01*
X79012993Y-151075925D01*
X79070000Y-151043012D01*
X79070000Y-152342186D01*
X79162135Y-152330057D01*
X79162140Y-152330056D01*
X79383730Y-152270681D01*
X79595659Y-152182897D01*
X79595668Y-152182893D01*
X79794338Y-152068190D01*
X79976329Y-151928544D01*
X79976336Y-151928538D01*
X80138538Y-151766336D01*
X80138544Y-151766329D01*
X80278190Y-151584338D01*
X80392893Y-151385668D01*
X80392897Y-151385659D01*
X80480681Y-151173730D01*
X80540057Y-150952137D01*
X80569994Y-150724741D01*
X82569500Y-150724741D01*
X82594446Y-150914215D01*
X82599452Y-150952238D01*
X82641724Y-151110000D01*
X82658842Y-151173887D01*
X82746650Y-151385876D01*
X82746657Y-151385890D01*
X82861392Y-151584617D01*
X83001081Y-151766661D01*
X83001089Y-151766670D01*
X83163330Y-151928911D01*
X83163338Y-151928918D01*
X83345382Y-152068607D01*
X83345385Y-152068608D01*
X83345388Y-152068611D01*
X83544112Y-152183344D01*
X83544117Y-152183346D01*
X83544123Y-152183349D01*
X83635480Y-152221190D01*
X83756113Y-152271158D01*
X83977762Y-152330548D01*
X84205266Y-152360500D01*
X84205273Y-152360500D01*
X84434727Y-152360500D01*
X84434734Y-152360500D01*
X84662238Y-152330548D01*
X84883887Y-152271158D01*
X85095888Y-152183344D01*
X85294612Y-152068611D01*
X85476661Y-151928919D01*
X85476665Y-151928914D01*
X85476670Y-151928911D01*
X85638911Y-151766670D01*
X85638914Y-151766665D01*
X85638919Y-151766661D01*
X85778611Y-151584612D01*
X85893344Y-151385888D01*
X85981158Y-151173887D01*
X86040548Y-150952238D01*
X86070500Y-150724734D01*
X86070500Y-150609500D01*
X86090185Y-150542461D01*
X86142989Y-150496706D01*
X86194500Y-150485500D01*
X86945500Y-150485500D01*
X87012539Y-150505185D01*
X87058294Y-150557989D01*
X87069500Y-150609500D01*
X87069500Y-150724741D01*
X87094446Y-150914215D01*
X87099452Y-150952238D01*
X87141724Y-151110000D01*
X87158842Y-151173887D01*
X87246650Y-151385876D01*
X87246657Y-151385890D01*
X87361392Y-151584617D01*
X87501081Y-151766661D01*
X87501089Y-151766670D01*
X87663330Y-151928911D01*
X87663338Y-151928918D01*
X87845382Y-152068607D01*
X87845385Y-152068608D01*
X87845388Y-152068611D01*
X88044112Y-152183344D01*
X88044117Y-152183346D01*
X88044123Y-152183349D01*
X88135480Y-152221190D01*
X88256113Y-152271158D01*
X88477762Y-152330548D01*
X88705266Y-152360500D01*
X88705273Y-152360500D01*
X88934727Y-152360500D01*
X88934734Y-152360500D01*
X89162238Y-152330548D01*
X89383887Y-152271158D01*
X89595888Y-152183344D01*
X89794612Y-152068611D01*
X89976661Y-151928919D01*
X89976665Y-151928914D01*
X89976670Y-151928911D01*
X90138911Y-151766670D01*
X90138914Y-151766665D01*
X90138919Y-151766661D01*
X90278611Y-151584612D01*
X90393344Y-151385888D01*
X90481158Y-151173887D01*
X90540548Y-150952238D01*
X90570500Y-150724734D01*
X90570500Y-148995266D01*
X90540548Y-148767762D01*
X90481158Y-148546113D01*
X90431190Y-148425480D01*
X90393349Y-148334123D01*
X90393346Y-148334117D01*
X90393344Y-148334112D01*
X90278611Y-148135388D01*
X90278608Y-148135385D01*
X90278607Y-148135382D01*
X90139173Y-147953670D01*
X90138919Y-147953339D01*
X90138918Y-147953338D01*
X90138911Y-147953330D01*
X89976670Y-147791089D01*
X89976661Y-147791081D01*
X89794617Y-147651392D01*
X89595890Y-147536657D01*
X89595876Y-147536650D01*
X89383887Y-147448842D01*
X89162238Y-147389452D01*
X89124215Y-147384446D01*
X88934741Y-147359500D01*
X88934734Y-147359500D01*
X88705266Y-147359500D01*
X88705258Y-147359500D01*
X88488715Y-147388009D01*
X88477762Y-147389452D01*
X88384076Y-147414554D01*
X88256112Y-147448842D01*
X88044123Y-147536650D01*
X88044109Y-147536657D01*
X87845382Y-147651392D01*
X87663338Y-147791081D01*
X87501081Y-147953338D01*
X87361392Y-148135382D01*
X87246657Y-148334109D01*
X87246650Y-148334123D01*
X87158842Y-148546112D01*
X87099453Y-148767759D01*
X87099451Y-148767770D01*
X87069500Y-148995258D01*
X87069500Y-149110500D01*
X87049815Y-149177539D01*
X86997011Y-149223294D01*
X86945500Y-149234500D01*
X86194500Y-149234500D01*
X86127461Y-149214815D01*
X86081706Y-149162011D01*
X86070500Y-149110500D01*
X86070500Y-148995272D01*
X86070499Y-148995258D01*
X86061033Y-148923362D01*
X86040548Y-148767762D01*
X85981158Y-148546113D01*
X85931190Y-148425480D01*
X85893349Y-148334123D01*
X85893346Y-148334117D01*
X85893344Y-148334112D01*
X85778611Y-148135388D01*
X85778608Y-148135385D01*
X85778607Y-148135382D01*
X85639173Y-147953670D01*
X85638919Y-147953339D01*
X85638918Y-147953338D01*
X85638911Y-147953330D01*
X85476670Y-147791089D01*
X85476661Y-147791081D01*
X85294617Y-147651392D01*
X85095890Y-147536657D01*
X85095876Y-147536650D01*
X84883887Y-147448842D01*
X84662238Y-147389452D01*
X84624215Y-147384446D01*
X84434741Y-147359500D01*
X84434734Y-147359500D01*
X84205266Y-147359500D01*
X84205258Y-147359500D01*
X83988715Y-147388009D01*
X83977762Y-147389452D01*
X83884076Y-147414554D01*
X83756112Y-147448842D01*
X83544123Y-147536650D01*
X83544109Y-147536657D01*
X83345382Y-147651392D01*
X83163338Y-147791081D01*
X83001081Y-147953338D01*
X82861392Y-148135382D01*
X82746657Y-148334109D01*
X82746650Y-148334123D01*
X82658842Y-148546112D01*
X82599453Y-148767759D01*
X82599451Y-148767770D01*
X82569500Y-148995258D01*
X82569500Y-150724741D01*
X80569994Y-150724741D01*
X80569998Y-150724710D01*
X80570000Y-150724694D01*
X80570000Y-150110000D01*
X79320000Y-150110000D01*
X79320000Y-149610000D01*
X80570000Y-149610000D01*
X80570000Y-148995305D01*
X80569998Y-148995289D01*
X80540057Y-148767862D01*
X80480681Y-148546269D01*
X80392897Y-148334340D01*
X80392893Y-148334331D01*
X80278190Y-148135661D01*
X80138544Y-147953670D01*
X80138538Y-147953663D01*
X79976336Y-147791461D01*
X79976329Y-147791455D01*
X79794338Y-147651809D01*
X79595668Y-147537106D01*
X79595659Y-147537102D01*
X79383730Y-147449318D01*
X79162137Y-147389942D01*
X79070000Y-147377811D01*
X79070000Y-148676988D01*
X79012993Y-148644075D01*
X78885826Y-148610000D01*
X78754174Y-148610000D01*
X78627007Y-148644075D01*
X78570000Y-148676988D01*
X78570000Y-147377811D01*
X78569999Y-147377811D01*
X78477862Y-147389942D01*
X78256269Y-147449318D01*
X78044340Y-147537102D01*
X78044331Y-147537106D01*
X77845661Y-147651809D01*
X77663670Y-147791455D01*
X77663663Y-147791461D01*
X77501461Y-147953663D01*
X77501455Y-147953670D01*
X77361809Y-148135661D01*
X77247106Y-148334331D01*
X77247102Y-148334340D01*
X77159318Y-148546269D01*
X77099942Y-148767862D01*
X77081939Y-148904612D01*
X77053672Y-148968509D01*
X76995348Y-149006980D01*
X76925483Y-149007811D01*
X76866260Y-148970739D01*
X76836481Y-148907533D01*
X76835000Y-148888427D01*
X76835000Y-138131572D01*
X76854685Y-138064533D01*
X76907489Y-138018778D01*
X76976647Y-138008834D01*
X77040203Y-138037859D01*
X77077977Y-138096637D01*
X77081939Y-138115387D01*
X77099942Y-138252137D01*
X77159318Y-138473730D01*
X77247102Y-138685659D01*
X77247106Y-138685668D01*
X77361809Y-138884338D01*
X77501455Y-139066329D01*
X77501461Y-139066336D01*
X77663663Y-139228538D01*
X77663670Y-139228544D01*
X77845661Y-139368190D01*
X78044331Y-139482893D01*
X78044340Y-139482897D01*
X78256269Y-139570681D01*
X78477859Y-139630056D01*
X78477864Y-139630057D01*
X78569999Y-139642186D01*
X78570000Y-139642186D01*
X78570000Y-138343012D01*
X78627007Y-138375925D01*
X78754174Y-138410000D01*
X78885826Y-138410000D01*
X79012993Y-138375925D01*
X79070000Y-138343012D01*
X79070000Y-139642186D01*
X79162135Y-139630057D01*
X79162140Y-139630056D01*
X79383730Y-139570681D01*
X79595659Y-139482897D01*
X79595668Y-139482893D01*
X79794338Y-139368190D01*
X79976329Y-139228544D01*
X79976336Y-139228538D01*
X80138538Y-139066336D01*
X80138544Y-139066329D01*
X80278190Y-138884338D01*
X80392893Y-138685668D01*
X80392897Y-138685659D01*
X80480681Y-138473730D01*
X80540057Y-138252137D01*
X80569994Y-138024741D01*
X82569500Y-138024741D01*
X82591289Y-138190234D01*
X82599452Y-138252238D01*
X82636648Y-138391058D01*
X82658842Y-138473887D01*
X82746650Y-138685876D01*
X82746657Y-138685890D01*
X82861392Y-138884617D01*
X83001081Y-139066661D01*
X83001089Y-139066670D01*
X83163330Y-139228911D01*
X83163338Y-139228918D01*
X83345382Y-139368607D01*
X83345385Y-139368608D01*
X83345388Y-139368611D01*
X83544112Y-139483344D01*
X83544117Y-139483346D01*
X83544123Y-139483349D01*
X83635480Y-139521190D01*
X83756113Y-139571158D01*
X83977762Y-139630548D01*
X84205266Y-139660500D01*
X84205273Y-139660500D01*
X84434727Y-139660500D01*
X84434734Y-139660500D01*
X84662238Y-139630548D01*
X84883887Y-139571158D01*
X85095888Y-139483344D01*
X85294612Y-139368611D01*
X85476661Y-139228919D01*
X85476665Y-139228914D01*
X85476670Y-139228911D01*
X85638911Y-139066670D01*
X85638914Y-139066665D01*
X85638919Y-139066661D01*
X85778611Y-138884612D01*
X85893344Y-138685888D01*
X85981158Y-138473887D01*
X86040548Y-138252238D01*
X86070500Y-138024734D01*
X86070500Y-137909500D01*
X86090185Y-137842461D01*
X86142989Y-137796706D01*
X86194500Y-137785500D01*
X86945500Y-137785500D01*
X87012539Y-137805185D01*
X87058294Y-137857989D01*
X87069500Y-137909500D01*
X87069500Y-138024741D01*
X87091289Y-138190234D01*
X87099452Y-138252238D01*
X87136648Y-138391058D01*
X87158842Y-138473887D01*
X87246650Y-138685876D01*
X87246657Y-138685890D01*
X87361392Y-138884617D01*
X87501081Y-139066661D01*
X87501089Y-139066670D01*
X87663330Y-139228911D01*
X87663338Y-139228918D01*
X87845382Y-139368607D01*
X87845385Y-139368608D01*
X87845388Y-139368611D01*
X88044112Y-139483344D01*
X88044117Y-139483346D01*
X88044123Y-139483349D01*
X88135480Y-139521190D01*
X88256113Y-139571158D01*
X88477762Y-139630548D01*
X88705266Y-139660500D01*
X88705273Y-139660500D01*
X88934727Y-139660500D01*
X88934734Y-139660500D01*
X89162238Y-139630548D01*
X89383887Y-139571158D01*
X89595888Y-139483344D01*
X89794612Y-139368611D01*
X89976661Y-139228919D01*
X89976665Y-139228914D01*
X89976670Y-139228911D01*
X90138911Y-139066670D01*
X90138914Y-139066665D01*
X90138919Y-139066661D01*
X90278611Y-138884612D01*
X90393344Y-138685888D01*
X90481158Y-138473887D01*
X90540548Y-138252238D01*
X90570500Y-138024734D01*
X90570500Y-136295266D01*
X90540548Y-136067762D01*
X90481158Y-135846113D01*
X90400022Y-135650234D01*
X90393349Y-135634123D01*
X90393346Y-135634117D01*
X90393344Y-135634112D01*
X90278611Y-135435388D01*
X90278608Y-135435385D01*
X90278607Y-135435382D01*
X90139173Y-135253670D01*
X90138919Y-135253339D01*
X90138918Y-135253338D01*
X90138911Y-135253330D01*
X89976670Y-135091089D01*
X89976661Y-135091081D01*
X89794617Y-134951392D01*
X89595890Y-134836657D01*
X89595876Y-134836650D01*
X89383887Y-134748842D01*
X89162238Y-134689452D01*
X89124215Y-134684446D01*
X88934741Y-134659500D01*
X88934734Y-134659500D01*
X88705266Y-134659500D01*
X88705258Y-134659500D01*
X88488715Y-134688009D01*
X88477762Y-134689452D01*
X88384076Y-134714554D01*
X88256112Y-134748842D01*
X88044123Y-134836650D01*
X88044109Y-134836657D01*
X87845382Y-134951392D01*
X87663338Y-135091081D01*
X87501081Y-135253338D01*
X87361392Y-135435382D01*
X87246657Y-135634109D01*
X87246650Y-135634123D01*
X87158842Y-135846112D01*
X87099453Y-136067759D01*
X87099451Y-136067770D01*
X87069500Y-136295258D01*
X87069500Y-136410500D01*
X87049815Y-136477539D01*
X86997011Y-136523294D01*
X86945500Y-136534500D01*
X86194500Y-136534500D01*
X86127461Y-136514815D01*
X86081706Y-136462011D01*
X86070500Y-136410500D01*
X86070500Y-136295272D01*
X86070499Y-136295258D01*
X86061033Y-136223362D01*
X86040548Y-136067762D01*
X85981158Y-135846113D01*
X85900022Y-135650234D01*
X85893349Y-135634123D01*
X85893346Y-135634117D01*
X85893344Y-135634112D01*
X85778611Y-135435388D01*
X85778608Y-135435385D01*
X85778607Y-135435382D01*
X85639173Y-135253670D01*
X85638919Y-135253339D01*
X85638918Y-135253338D01*
X85638911Y-135253330D01*
X85476670Y-135091089D01*
X85476661Y-135091081D01*
X85294617Y-134951392D01*
X85095890Y-134836657D01*
X85095876Y-134836650D01*
X84883887Y-134748842D01*
X84662238Y-134689452D01*
X84624215Y-134684446D01*
X84434741Y-134659500D01*
X84434734Y-134659500D01*
X84205266Y-134659500D01*
X84205258Y-134659500D01*
X83988715Y-134688009D01*
X83977762Y-134689452D01*
X83884076Y-134714554D01*
X83756112Y-134748842D01*
X83544123Y-134836650D01*
X83544109Y-134836657D01*
X83345382Y-134951392D01*
X83163338Y-135091081D01*
X83001081Y-135253338D01*
X82861392Y-135435382D01*
X82746657Y-135634109D01*
X82746650Y-135634123D01*
X82658842Y-135846112D01*
X82599453Y-136067759D01*
X82599451Y-136067770D01*
X82569500Y-136295258D01*
X82569500Y-138024741D01*
X80569994Y-138024741D01*
X80569998Y-138024710D01*
X80570000Y-138024694D01*
X80570000Y-137410000D01*
X79320000Y-137410000D01*
X79320000Y-136910000D01*
X80570000Y-136910000D01*
X80570000Y-136295305D01*
X80569998Y-136295289D01*
X80540057Y-136067862D01*
X80480681Y-135846269D01*
X80392897Y-135634340D01*
X80392893Y-135634331D01*
X80278190Y-135435661D01*
X80138544Y-135253670D01*
X80138538Y-135253663D01*
X79976336Y-135091461D01*
X79976329Y-135091455D01*
X79794338Y-134951809D01*
X79595668Y-134837106D01*
X79595659Y-134837102D01*
X79383730Y-134749318D01*
X79162137Y-134689942D01*
X79070000Y-134677811D01*
X79070000Y-135976988D01*
X79012993Y-135944075D01*
X78885826Y-135910000D01*
X78754174Y-135910000D01*
X78627007Y-135944075D01*
X78570000Y-135976988D01*
X78570000Y-134677811D01*
X78569999Y-134677811D01*
X78477862Y-134689942D01*
X78256269Y-134749318D01*
X78044340Y-134837102D01*
X78044331Y-134837106D01*
X77845661Y-134951809D01*
X77663670Y-135091455D01*
X77663663Y-135091461D01*
X77501461Y-135253663D01*
X77501455Y-135253670D01*
X77361809Y-135435661D01*
X77247106Y-135634331D01*
X77247102Y-135634340D01*
X77159318Y-135846269D01*
X77099942Y-136067862D01*
X77081939Y-136204612D01*
X77053672Y-136268509D01*
X76995348Y-136306980D01*
X76925483Y-136307811D01*
X76866260Y-136270739D01*
X76836481Y-136207533D01*
X76835000Y-136188427D01*
X76835000Y-132514047D01*
X93943113Y-132514047D01*
X93963296Y-132693173D01*
X93963298Y-132693189D01*
X93988459Y-132803427D01*
X93988461Y-132803433D01*
X94048002Y-132973594D01*
X94097066Y-133075476D01*
X94167066Y-133186879D01*
X94767037Y-132586909D01*
X94784075Y-132650493D01*
X94849901Y-132764507D01*
X94942993Y-132857599D01*
X95057007Y-132923425D01*
X95120590Y-132940462D01*
X94520619Y-133540433D01*
X94632023Y-133610433D01*
X94649789Y-133618989D01*
X94701649Y-133665812D01*
X94719961Y-133733239D01*
X94698913Y-133799863D01*
X94648393Y-133843091D01*
X94597264Y-133866933D01*
X94410858Y-133997454D01*
X94249954Y-134158358D01*
X94119432Y-134344765D01*
X94119431Y-134344767D01*
X94023261Y-134551002D01*
X94023258Y-134551011D01*
X93964366Y-134770802D01*
X93964364Y-134770813D01*
X93944532Y-134997498D01*
X93944532Y-134997501D01*
X93964364Y-135224186D01*
X93964366Y-135224197D01*
X94023258Y-135443988D01*
X94023261Y-135443997D01*
X94119431Y-135650232D01*
X94119432Y-135650234D01*
X94249954Y-135836641D01*
X94410858Y-135997545D01*
X94448559Y-136023943D01*
X94597266Y-136128068D01*
X94655275Y-136155118D01*
X94707714Y-136201291D01*
X94726866Y-136268484D01*
X94706650Y-136335365D01*
X94655275Y-136379882D01*
X94597267Y-136406931D01*
X94597265Y-136406932D01*
X94410858Y-136537454D01*
X94249954Y-136698358D01*
X94119432Y-136884765D01*
X94119431Y-136884767D01*
X94023261Y-137091002D01*
X94023258Y-137091011D01*
X93964366Y-137310802D01*
X93964364Y-137310813D01*
X93944532Y-137537498D01*
X93944532Y-137537501D01*
X93964364Y-137764186D01*
X93964366Y-137764197D01*
X94023258Y-137983988D01*
X94023261Y-137983997D01*
X94119431Y-138190232D01*
X94119432Y-138190234D01*
X94249954Y-138376641D01*
X94410858Y-138537545D01*
X94410861Y-138537547D01*
X94597266Y-138668068D01*
X94803504Y-138764239D01*
X95023308Y-138823135D01*
X95185230Y-138837301D01*
X95249998Y-138842968D01*
X95250000Y-138842968D01*
X95250002Y-138842968D01*
X95306673Y-138838009D01*
X95476692Y-138823135D01*
X95683407Y-138767746D01*
X95753256Y-138769409D01*
X95811119Y-138808572D01*
X95838623Y-138872800D01*
X95839500Y-138887521D01*
X95839500Y-201643007D01*
X95863535Y-201763840D01*
X95863540Y-201763857D01*
X95910685Y-201877676D01*
X95910692Y-201877688D01*
X95944083Y-201927662D01*
X95944089Y-201927669D01*
X95979141Y-201980128D01*
X95979144Y-201980132D01*
X96070586Y-202071574D01*
X96070608Y-202071594D01*
X97428312Y-203429298D01*
X97461797Y-203490621D01*
X97456813Y-203560313D01*
X97414941Y-203616246D01*
X97349477Y-203640663D01*
X97284637Y-203645300D01*
X97005104Y-203706109D01*
X96737041Y-203806091D01*
X96485961Y-203943191D01*
X96485953Y-203943196D01*
X96343436Y-204049882D01*
X96951466Y-204657913D01*
X96820825Y-204752829D01*
X96692829Y-204880825D01*
X96597913Y-205011466D01*
X95989883Y-204403436D01*
X95989882Y-204403437D01*
X95883196Y-204545953D01*
X95883191Y-204545961D01*
X95746091Y-204797041D01*
X95646109Y-205065104D01*
X95585300Y-205344637D01*
X95564891Y-205629998D01*
X95564891Y-205630001D01*
X95585300Y-205915362D01*
X95646109Y-206194895D01*
X95746091Y-206462958D01*
X95883191Y-206714038D01*
X95883196Y-206714046D01*
X95989882Y-206856561D01*
X95989883Y-206856562D01*
X96597912Y-206248532D01*
X96692829Y-206379175D01*
X96820825Y-206507171D01*
X96951465Y-206602086D01*
X96343436Y-207210115D01*
X96485960Y-207316807D01*
X96485961Y-207316808D01*
X96737042Y-207453908D01*
X96737041Y-207453908D01*
X97005104Y-207553890D01*
X97284637Y-207614699D01*
X97569999Y-207635109D01*
X97570001Y-207635109D01*
X97855362Y-207614699D01*
X98134895Y-207553890D01*
X98402958Y-207453908D01*
X98654047Y-207316803D01*
X98796561Y-207210116D01*
X98796562Y-207210115D01*
X98188534Y-206602086D01*
X98319175Y-206507171D01*
X98447171Y-206379175D01*
X98542086Y-206248533D01*
X99150115Y-206856562D01*
X99150116Y-206856561D01*
X99256803Y-206714047D01*
X99393908Y-206462958D01*
X99493890Y-206194895D01*
X99554699Y-205915362D01*
X99573382Y-205654145D01*
X99582387Y-205630001D01*
X108704891Y-205630001D01*
X108725300Y-205915362D01*
X108786109Y-206194895D01*
X108886091Y-206462958D01*
X109023191Y-206714038D01*
X109023196Y-206714046D01*
X109129882Y-206856561D01*
X109129883Y-206856562D01*
X109737912Y-206248532D01*
X109832829Y-206379175D01*
X109960825Y-206507171D01*
X110091465Y-206602086D01*
X109483436Y-207210115D01*
X109625960Y-207316807D01*
X109625961Y-207316808D01*
X109877042Y-207453908D01*
X109877041Y-207453908D01*
X110145104Y-207553890D01*
X110424637Y-207614699D01*
X110709999Y-207635109D01*
X110710001Y-207635109D01*
X110995362Y-207614699D01*
X111274895Y-207553890D01*
X111542958Y-207453908D01*
X111794047Y-207316803D01*
X111936561Y-207210116D01*
X111936562Y-207210115D01*
X111328534Y-206602086D01*
X111459175Y-206507171D01*
X111587171Y-206379175D01*
X111682086Y-206248533D01*
X112290115Y-206856562D01*
X112290116Y-206856561D01*
X112396803Y-206714047D01*
X112533908Y-206462958D01*
X112633890Y-206194895D01*
X112694699Y-205915362D01*
X112715109Y-205630001D01*
X112715109Y-205629998D01*
X112694699Y-205344637D01*
X112633890Y-205065104D01*
X112533908Y-204797041D01*
X112396808Y-204545961D01*
X112396807Y-204545960D01*
X112290115Y-204403436D01*
X111682086Y-205011465D01*
X111587171Y-204880825D01*
X111459175Y-204752829D01*
X111328533Y-204657912D01*
X111936562Y-204049883D01*
X111936561Y-204049882D01*
X111794046Y-203943196D01*
X111794038Y-203943191D01*
X111542957Y-203806091D01*
X111542958Y-203806091D01*
X111274895Y-203706109D01*
X110995362Y-203645300D01*
X110710001Y-203624891D01*
X110709999Y-203624891D01*
X110424637Y-203645300D01*
X110145104Y-203706109D01*
X109877041Y-203806091D01*
X109625961Y-203943191D01*
X109625953Y-203943196D01*
X109483437Y-204049882D01*
X109483436Y-204049883D01*
X110091466Y-204657913D01*
X109960825Y-204752829D01*
X109832829Y-204880825D01*
X109737913Y-205011466D01*
X109129883Y-204403436D01*
X109129882Y-204403437D01*
X109023196Y-204545953D01*
X109023191Y-204545961D01*
X108886091Y-204797041D01*
X108786109Y-205065104D01*
X108725300Y-205344637D01*
X108704891Y-205629998D01*
X108704891Y-205630001D01*
X99582387Y-205630001D01*
X99597799Y-205588681D01*
X99653732Y-205546809D01*
X99721260Y-205541375D01*
X99737092Y-205544524D01*
X99741996Y-205545500D01*
X99741997Y-205545500D01*
X101848003Y-205545500D01*
X101908425Y-205533481D01*
X101968848Y-205521463D01*
X101968851Y-205521461D01*
X101968854Y-205521461D01*
X102002183Y-205507654D01*
X102002182Y-205507654D01*
X102002188Y-205507652D01*
X102082682Y-205474312D01*
X102133905Y-205440084D01*
X102185129Y-205405858D01*
X102272254Y-205318733D01*
X102272255Y-205318731D01*
X102279321Y-205311665D01*
X102279324Y-205311661D01*
X103368687Y-204222297D01*
X103424272Y-204190206D01*
X103528312Y-204162329D01*
X103586486Y-204146742D01*
X103586489Y-204146740D01*
X103586496Y-204146739D01*
X103792734Y-204050568D01*
X103979139Y-203920047D01*
X104052320Y-203846865D01*
X104113641Y-203813382D01*
X104183333Y-203818366D01*
X104227679Y-203846865D01*
X104300861Y-203920047D01*
X104487266Y-204050568D01*
X104693504Y-204146739D01*
X104913308Y-204205635D01*
X105075230Y-204219801D01*
X105139998Y-204225468D01*
X105140000Y-204225468D01*
X105140002Y-204225468D01*
X105196673Y-204220509D01*
X105366692Y-204205635D01*
X105586496Y-204146739D01*
X105792734Y-204050568D01*
X105979139Y-203920047D01*
X106140047Y-203759139D01*
X106270568Y-203572734D01*
X106277893Y-203557024D01*
X106324064Y-203504586D01*
X106391257Y-203485433D01*
X106458138Y-203505648D01*
X106502657Y-203557024D01*
X106509864Y-203572480D01*
X106560974Y-203645472D01*
X107177449Y-203028997D01*
X107197370Y-203103343D01*
X107259905Y-203211657D01*
X107348343Y-203300095D01*
X107456657Y-203362630D01*
X107531002Y-203382550D01*
X106914526Y-203999025D01*
X106987513Y-204050132D01*
X106987521Y-204050136D01*
X107193668Y-204146264D01*
X107193682Y-204146269D01*
X107413389Y-204205139D01*
X107413400Y-204205141D01*
X107639998Y-204224966D01*
X107640002Y-204224966D01*
X107866599Y-204205141D01*
X107866610Y-204205139D01*
X108086317Y-204146269D01*
X108086331Y-204146264D01*
X108292478Y-204050136D01*
X108365471Y-203999024D01*
X107748997Y-203382550D01*
X107823343Y-203362630D01*
X107931657Y-203300095D01*
X108020095Y-203211657D01*
X108082630Y-203103343D01*
X108102550Y-203028997D01*
X108719024Y-203645471D01*
X108770136Y-203572478D01*
X108866264Y-203366331D01*
X108866269Y-203366317D01*
X108925139Y-203146610D01*
X108925141Y-203146599D01*
X108944966Y-202920002D01*
X108944966Y-202919997D01*
X108925141Y-202693400D01*
X108925139Y-202693389D01*
X108866269Y-202473682D01*
X108866264Y-202473668D01*
X108770136Y-202267521D01*
X108770132Y-202267513D01*
X108719025Y-202194526D01*
X108102550Y-202811001D01*
X108082630Y-202736657D01*
X108020095Y-202628343D01*
X107931657Y-202539905D01*
X107823343Y-202477370D01*
X107748998Y-202457449D01*
X108365472Y-201840974D01*
X108292478Y-201789863D01*
X108086331Y-201693735D01*
X108086317Y-201693730D01*
X107866610Y-201634860D01*
X107866599Y-201634858D01*
X107640002Y-201615034D01*
X107639998Y-201615034D01*
X107413400Y-201634858D01*
X107413389Y-201634860D01*
X107193682Y-201693730D01*
X107193673Y-201693734D01*
X106987516Y-201789866D01*
X106987512Y-201789868D01*
X106914526Y-201840973D01*
X106914526Y-201840974D01*
X107531002Y-202457449D01*
X107456657Y-202477370D01*
X107348343Y-202539905D01*
X107259905Y-202628343D01*
X107197370Y-202736657D01*
X107177449Y-202811001D01*
X106560974Y-202194526D01*
X106560973Y-202194526D01*
X106509868Y-202267512D01*
X106509867Y-202267514D01*
X106502656Y-202282979D01*
X106456482Y-202335417D01*
X106389288Y-202354567D01*
X106322407Y-202334350D01*
X106277893Y-202282976D01*
X106270568Y-202267266D01*
X106140047Y-202080861D01*
X106140045Y-202080858D01*
X105979141Y-201919954D01*
X105792734Y-201789432D01*
X105792732Y-201789431D01*
X105586497Y-201693261D01*
X105586488Y-201693258D01*
X105366697Y-201634366D01*
X105366693Y-201634365D01*
X105366692Y-201634365D01*
X105366691Y-201634364D01*
X105366686Y-201634364D01*
X105140002Y-201614532D01*
X105139999Y-201614532D01*
X104913313Y-201634364D01*
X104913307Y-201634365D01*
X104844948Y-201652681D01*
X104775098Y-201651016D01*
X104725176Y-201620586D01*
X104629331Y-201524741D01*
X117789500Y-201524741D01*
X117808559Y-201669500D01*
X117819452Y-201752238D01*
X117864391Y-201919953D01*
X117878842Y-201973887D01*
X117966650Y-202185876D01*
X117966657Y-202185890D01*
X118081392Y-202384617D01*
X118221081Y-202566661D01*
X118221089Y-202566670D01*
X118383330Y-202728911D01*
X118383338Y-202728918D01*
X118383339Y-202728919D01*
X118408650Y-202748341D01*
X118565382Y-202868607D01*
X118565385Y-202868608D01*
X118565388Y-202868611D01*
X118764112Y-202983344D01*
X118764117Y-202983346D01*
X118764123Y-202983349D01*
X118855480Y-203021190D01*
X118976113Y-203071158D01*
X119197762Y-203130548D01*
X119425266Y-203160500D01*
X119425273Y-203160500D01*
X119654727Y-203160500D01*
X119654734Y-203160500D01*
X119882238Y-203130548D01*
X120103887Y-203071158D01*
X120315888Y-202983344D01*
X120514612Y-202868611D01*
X120696661Y-202728919D01*
X120696665Y-202728914D01*
X120696670Y-202728911D01*
X120858911Y-202566670D01*
X120858914Y-202566665D01*
X120858919Y-202566661D01*
X120998611Y-202384612D01*
X121113344Y-202185888D01*
X121201158Y-201973887D01*
X121260548Y-201752238D01*
X121290500Y-201524734D01*
X121290500Y-201384500D01*
X121310185Y-201317461D01*
X121362989Y-201271706D01*
X121414500Y-201260500D01*
X122165500Y-201260500D01*
X122232539Y-201280185D01*
X122278294Y-201332989D01*
X122289500Y-201384500D01*
X122289500Y-201524741D01*
X122308559Y-201669500D01*
X122319452Y-201752238D01*
X122364391Y-201919953D01*
X122378842Y-201973887D01*
X122466650Y-202185876D01*
X122466657Y-202185890D01*
X122581392Y-202384617D01*
X122721081Y-202566661D01*
X122721089Y-202566670D01*
X122883330Y-202728911D01*
X122883338Y-202728918D01*
X122883339Y-202728919D01*
X122908650Y-202748341D01*
X123065382Y-202868607D01*
X123065385Y-202868608D01*
X123065388Y-202868611D01*
X123264112Y-202983344D01*
X123264117Y-202983346D01*
X123264123Y-202983349D01*
X123355480Y-203021190D01*
X123476113Y-203071158D01*
X123697762Y-203130548D01*
X123925266Y-203160500D01*
X123925273Y-203160500D01*
X124154727Y-203160500D01*
X124154734Y-203160500D01*
X124382238Y-203130548D01*
X124603887Y-203071158D01*
X124815888Y-202983344D01*
X125014612Y-202868611D01*
X125196661Y-202728919D01*
X125196665Y-202728914D01*
X125196670Y-202728911D01*
X125358911Y-202566670D01*
X125358914Y-202566665D01*
X125358919Y-202566661D01*
X125498611Y-202384612D01*
X125613344Y-202185888D01*
X125701158Y-201973887D01*
X125760548Y-201752238D01*
X125790500Y-201524734D01*
X125790500Y-199795266D01*
X125760548Y-199567762D01*
X125701158Y-199346113D01*
X125651190Y-199225480D01*
X125613349Y-199134123D01*
X125613346Y-199134117D01*
X125613344Y-199134112D01*
X125498611Y-198935388D01*
X125498608Y-198935385D01*
X125498607Y-198935382D01*
X125359173Y-198753670D01*
X125358919Y-198753339D01*
X125358918Y-198753338D01*
X125358911Y-198753330D01*
X125196670Y-198591089D01*
X125196661Y-198591081D01*
X125014617Y-198451392D01*
X124815890Y-198336657D01*
X124815876Y-198336650D01*
X124603887Y-198248842D01*
X124382238Y-198189452D01*
X124344215Y-198184446D01*
X124154741Y-198159500D01*
X124154734Y-198159500D01*
X123925266Y-198159500D01*
X123925258Y-198159500D01*
X123708715Y-198188009D01*
X123697762Y-198189452D01*
X123604076Y-198214554D01*
X123476112Y-198248842D01*
X123264123Y-198336650D01*
X123264109Y-198336657D01*
X123065382Y-198451392D01*
X122883338Y-198591081D01*
X122721081Y-198753338D01*
X122581392Y-198935382D01*
X122466657Y-199134109D01*
X122466650Y-199134123D01*
X122378842Y-199346112D01*
X122319453Y-199567759D01*
X122319451Y-199567770D01*
X122289500Y-199795258D01*
X122289500Y-199935500D01*
X122269815Y-200002539D01*
X122217011Y-200048294D01*
X122165500Y-200059500D01*
X121414500Y-200059500D01*
X121347461Y-200039815D01*
X121301706Y-199987011D01*
X121290500Y-199935500D01*
X121290500Y-199795272D01*
X121290499Y-199795258D01*
X121286977Y-199768509D01*
X121260548Y-199567762D01*
X121201158Y-199346113D01*
X121151190Y-199225480D01*
X121113349Y-199134123D01*
X121113346Y-199134117D01*
X121113344Y-199134112D01*
X120998611Y-198935388D01*
X120998608Y-198935385D01*
X120998607Y-198935382D01*
X120859173Y-198753670D01*
X120858919Y-198753339D01*
X120858918Y-198753338D01*
X120858911Y-198753330D01*
X120696670Y-198591089D01*
X120696661Y-198591081D01*
X120514617Y-198451392D01*
X120315890Y-198336657D01*
X120315876Y-198336650D01*
X120103887Y-198248842D01*
X119882238Y-198189452D01*
X119844215Y-198184446D01*
X119654741Y-198159500D01*
X119654734Y-198159500D01*
X119425266Y-198159500D01*
X119425258Y-198159500D01*
X119208715Y-198188009D01*
X119197762Y-198189452D01*
X119104076Y-198214554D01*
X118976112Y-198248842D01*
X118764123Y-198336650D01*
X118764109Y-198336657D01*
X118565382Y-198451392D01*
X118383338Y-198591081D01*
X118221081Y-198753338D01*
X118081392Y-198935382D01*
X117966657Y-199134109D01*
X117966650Y-199134123D01*
X117878842Y-199346112D01*
X117819453Y-199567759D01*
X117819451Y-199567770D01*
X117789500Y-199795258D01*
X117789500Y-201524741D01*
X104629331Y-201524741D01*
X104505198Y-201400608D01*
X104505178Y-201400586D01*
X104413733Y-201309141D01*
X104362509Y-201274915D01*
X104311286Y-201240688D01*
X104311283Y-201240686D01*
X104311280Y-201240685D01*
X104230792Y-201207347D01*
X104197453Y-201193537D01*
X104187427Y-201191543D01*
X104137029Y-201181518D01*
X104076610Y-201169500D01*
X104076607Y-201169500D01*
X104076606Y-201169500D01*
X102735615Y-201169500D01*
X102612402Y-201169500D01*
X102546226Y-201182663D01*
X102546225Y-201182662D01*
X102491562Y-201193535D01*
X102491554Y-201193538D01*
X102377725Y-201240687D01*
X102348074Y-201260500D01*
X102311243Y-201285110D01*
X102302310Y-201291078D01*
X102275272Y-201309144D01*
X102275271Y-201309145D01*
X101858892Y-201725525D01*
X101797569Y-201759010D01*
X101727877Y-201754026D01*
X101696898Y-201737109D01*
X101682332Y-201726204D01*
X101682328Y-201726202D01*
X101547483Y-201675908D01*
X101501243Y-201670937D01*
X101436693Y-201644199D01*
X101396845Y-201586806D01*
X101390500Y-201547648D01*
X101390500Y-188824741D01*
X117789500Y-188824741D01*
X117814446Y-189014215D01*
X117819452Y-189052238D01*
X117868232Y-189234288D01*
X117878842Y-189273887D01*
X117966650Y-189485876D01*
X117966657Y-189485890D01*
X118081392Y-189684617D01*
X118221081Y-189866661D01*
X118221089Y-189866670D01*
X118383330Y-190028911D01*
X118383338Y-190028918D01*
X118565382Y-190168607D01*
X118565385Y-190168608D01*
X118565388Y-190168611D01*
X118764112Y-190283344D01*
X118764117Y-190283346D01*
X118764123Y-190283349D01*
X118855480Y-190321190D01*
X118976113Y-190371158D01*
X119197762Y-190430548D01*
X119425266Y-190460500D01*
X119425273Y-190460500D01*
X119654727Y-190460500D01*
X119654734Y-190460500D01*
X119882238Y-190430548D01*
X120103887Y-190371158D01*
X120315888Y-190283344D01*
X120514612Y-190168611D01*
X120696661Y-190028919D01*
X120696665Y-190028914D01*
X120696670Y-190028911D01*
X120858911Y-189866670D01*
X120858914Y-189866665D01*
X120858919Y-189866661D01*
X120998611Y-189684612D01*
X121113344Y-189485888D01*
X121201158Y-189273887D01*
X121260548Y-189052238D01*
X121290500Y-188824734D01*
X121290500Y-188684500D01*
X121310185Y-188617461D01*
X121362989Y-188571706D01*
X121414500Y-188560500D01*
X122165500Y-188560500D01*
X122232539Y-188580185D01*
X122278294Y-188632989D01*
X122289500Y-188684500D01*
X122289500Y-188824741D01*
X122314446Y-189014215D01*
X122319452Y-189052238D01*
X122368232Y-189234288D01*
X122378842Y-189273887D01*
X122466650Y-189485876D01*
X122466657Y-189485890D01*
X122581392Y-189684617D01*
X122721081Y-189866661D01*
X122721089Y-189866670D01*
X122883330Y-190028911D01*
X122883338Y-190028918D01*
X123065382Y-190168607D01*
X123065385Y-190168608D01*
X123065388Y-190168611D01*
X123264112Y-190283344D01*
X123264117Y-190283346D01*
X123264123Y-190283349D01*
X123355480Y-190321190D01*
X123476113Y-190371158D01*
X123697762Y-190430548D01*
X123925266Y-190460500D01*
X123925273Y-190460500D01*
X124154727Y-190460500D01*
X124154734Y-190460500D01*
X124382238Y-190430548D01*
X124603887Y-190371158D01*
X124815888Y-190283344D01*
X125014612Y-190168611D01*
X125196661Y-190028919D01*
X125196665Y-190028914D01*
X125196670Y-190028911D01*
X125358911Y-189866670D01*
X125358914Y-189866665D01*
X125358919Y-189866661D01*
X125498611Y-189684612D01*
X125613344Y-189485888D01*
X125701158Y-189273887D01*
X125760548Y-189052238D01*
X125790500Y-188824734D01*
X125790500Y-187095266D01*
X125760548Y-186867762D01*
X125701158Y-186646113D01*
X125651190Y-186525480D01*
X125613349Y-186434123D01*
X125613346Y-186434117D01*
X125613344Y-186434112D01*
X125498611Y-186235388D01*
X125498608Y-186235385D01*
X125498607Y-186235382D01*
X125359173Y-186053670D01*
X125358919Y-186053339D01*
X125358918Y-186053338D01*
X125358911Y-186053330D01*
X125196670Y-185891089D01*
X125196661Y-185891081D01*
X125014617Y-185751392D01*
X124815890Y-185636657D01*
X124815876Y-185636650D01*
X124603887Y-185548842D01*
X124382238Y-185489452D01*
X124344215Y-185484446D01*
X124154741Y-185459500D01*
X124154734Y-185459500D01*
X123925266Y-185459500D01*
X123925258Y-185459500D01*
X123708715Y-185488009D01*
X123697762Y-185489452D01*
X123604076Y-185514554D01*
X123476112Y-185548842D01*
X123264123Y-185636650D01*
X123264109Y-185636657D01*
X123065382Y-185751392D01*
X122883338Y-185891081D01*
X122721081Y-186053338D01*
X122581392Y-186235382D01*
X122466657Y-186434109D01*
X122466650Y-186434123D01*
X122378842Y-186646112D01*
X122319453Y-186867759D01*
X122319451Y-186867770D01*
X122289500Y-187095258D01*
X122289500Y-187235500D01*
X122269815Y-187302539D01*
X122217011Y-187348294D01*
X122165500Y-187359500D01*
X121414500Y-187359500D01*
X121347461Y-187339815D01*
X121301706Y-187287011D01*
X121290500Y-187235500D01*
X121290500Y-187095272D01*
X121290499Y-187095258D01*
X121286977Y-187068509D01*
X121260548Y-186867762D01*
X121201158Y-186646113D01*
X121151190Y-186525480D01*
X121113349Y-186434123D01*
X121113346Y-186434117D01*
X121113344Y-186434112D01*
X120998611Y-186235388D01*
X120998608Y-186235385D01*
X120998607Y-186235382D01*
X120859173Y-186053670D01*
X120858919Y-186053339D01*
X120858918Y-186053338D01*
X120858911Y-186053330D01*
X120696670Y-185891089D01*
X120696661Y-185891081D01*
X120514617Y-185751392D01*
X120315890Y-185636657D01*
X120315876Y-185636650D01*
X120103887Y-185548842D01*
X119882238Y-185489452D01*
X119844215Y-185484446D01*
X119654741Y-185459500D01*
X119654734Y-185459500D01*
X119425266Y-185459500D01*
X119425258Y-185459500D01*
X119208715Y-185488009D01*
X119197762Y-185489452D01*
X119104076Y-185514554D01*
X118976112Y-185548842D01*
X118764123Y-185636650D01*
X118764109Y-185636657D01*
X118565382Y-185751392D01*
X118383338Y-185891081D01*
X118221081Y-186053338D01*
X118081392Y-186235382D01*
X117966657Y-186434109D01*
X117966650Y-186434123D01*
X117878842Y-186646112D01*
X117819453Y-186867759D01*
X117819451Y-186867770D01*
X117789500Y-187095258D01*
X117789500Y-188824741D01*
X101390500Y-188824741D01*
X101390500Y-176124741D01*
X117709500Y-176124741D01*
X117734446Y-176314215D01*
X117739452Y-176352238D01*
X117781724Y-176510000D01*
X117798842Y-176573887D01*
X117886650Y-176785876D01*
X117886657Y-176785890D01*
X118001392Y-176984617D01*
X118141081Y-177166661D01*
X118141089Y-177166670D01*
X118303330Y-177328911D01*
X118303338Y-177328918D01*
X118485382Y-177468607D01*
X118485385Y-177468608D01*
X118485388Y-177468611D01*
X118684112Y-177583344D01*
X118684117Y-177583346D01*
X118684123Y-177583349D01*
X118775480Y-177621190D01*
X118896113Y-177671158D01*
X119117762Y-177730548D01*
X119345266Y-177760500D01*
X119345273Y-177760500D01*
X119574727Y-177760500D01*
X119574734Y-177760500D01*
X119802238Y-177730548D01*
X120023887Y-177671158D01*
X120235888Y-177583344D01*
X120434612Y-177468611D01*
X120616661Y-177328919D01*
X120616665Y-177328914D01*
X120616670Y-177328911D01*
X120778911Y-177166670D01*
X120778914Y-177166665D01*
X120778919Y-177166661D01*
X120918611Y-176984612D01*
X121033344Y-176785888D01*
X121121158Y-176573887D01*
X121180548Y-176352238D01*
X121210500Y-176124734D01*
X121210500Y-175984500D01*
X121230185Y-175917461D01*
X121282989Y-175871706D01*
X121334500Y-175860500D01*
X122085500Y-175860500D01*
X122152539Y-175880185D01*
X122198294Y-175932989D01*
X122209500Y-175984500D01*
X122209500Y-176124741D01*
X122234446Y-176314215D01*
X122239452Y-176352238D01*
X122281724Y-176510000D01*
X122298842Y-176573887D01*
X122386650Y-176785876D01*
X122386657Y-176785890D01*
X122501392Y-176984617D01*
X122641081Y-177166661D01*
X122641089Y-177166670D01*
X122803330Y-177328911D01*
X122803338Y-177328918D01*
X122985382Y-177468607D01*
X122985385Y-177468608D01*
X122985388Y-177468611D01*
X123184112Y-177583344D01*
X123184117Y-177583346D01*
X123184123Y-177583349D01*
X123275480Y-177621190D01*
X123396113Y-177671158D01*
X123617762Y-177730548D01*
X123845266Y-177760500D01*
X123845273Y-177760500D01*
X124074727Y-177760500D01*
X124074734Y-177760500D01*
X124302238Y-177730548D01*
X124523887Y-177671158D01*
X124735888Y-177583344D01*
X124934612Y-177468611D01*
X125116661Y-177328919D01*
X125116665Y-177328914D01*
X125116670Y-177328911D01*
X125278911Y-177166670D01*
X125278914Y-177166665D01*
X125278919Y-177166661D01*
X125418611Y-176984612D01*
X125533344Y-176785888D01*
X125621158Y-176573887D01*
X125680548Y-176352238D01*
X125710500Y-176124734D01*
X125710500Y-174395266D01*
X125680548Y-174167762D01*
X125621158Y-173946113D01*
X125571190Y-173825480D01*
X125533349Y-173734123D01*
X125533346Y-173734117D01*
X125533344Y-173734112D01*
X125418611Y-173535388D01*
X125418608Y-173535385D01*
X125418607Y-173535382D01*
X125279173Y-173353670D01*
X125278919Y-173353339D01*
X125278918Y-173353338D01*
X125278911Y-173353330D01*
X125116670Y-173191089D01*
X125116661Y-173191081D01*
X124934617Y-173051392D01*
X124735890Y-172936657D01*
X124735876Y-172936650D01*
X124523887Y-172848842D01*
X124302238Y-172789452D01*
X124264215Y-172784446D01*
X124074741Y-172759500D01*
X124074734Y-172759500D01*
X123845266Y-172759500D01*
X123845258Y-172759500D01*
X123628715Y-172788009D01*
X123617762Y-172789452D01*
X123524076Y-172814554D01*
X123396112Y-172848842D01*
X123184123Y-172936650D01*
X123184109Y-172936657D01*
X122985382Y-173051392D01*
X122803338Y-173191081D01*
X122641081Y-173353338D01*
X122501392Y-173535382D01*
X122386657Y-173734109D01*
X122386650Y-173734123D01*
X122298842Y-173946112D01*
X122239453Y-174167759D01*
X122239451Y-174167770D01*
X122209500Y-174395258D01*
X122209500Y-174535500D01*
X122189815Y-174602539D01*
X122137011Y-174648294D01*
X122085500Y-174659500D01*
X121334500Y-174659500D01*
X121267461Y-174639815D01*
X121221706Y-174587011D01*
X121210500Y-174535500D01*
X121210500Y-174395272D01*
X121210499Y-174395258D01*
X121201033Y-174323362D01*
X121180548Y-174167762D01*
X121121158Y-173946113D01*
X121071190Y-173825480D01*
X121033349Y-173734123D01*
X121033346Y-173734117D01*
X121033344Y-173734112D01*
X120918611Y-173535388D01*
X120918608Y-173535385D01*
X120918607Y-173535382D01*
X120779173Y-173353670D01*
X120778919Y-173353339D01*
X120778918Y-173353338D01*
X120778911Y-173353330D01*
X120616670Y-173191089D01*
X120616661Y-173191081D01*
X120434617Y-173051392D01*
X120235890Y-172936657D01*
X120235876Y-172936650D01*
X120023887Y-172848842D01*
X119802238Y-172789452D01*
X119764215Y-172784446D01*
X119574741Y-172759500D01*
X119574734Y-172759500D01*
X119345266Y-172759500D01*
X119345258Y-172759500D01*
X119128715Y-172788009D01*
X119117762Y-172789452D01*
X119024076Y-172814554D01*
X118896112Y-172848842D01*
X118684123Y-172936650D01*
X118684109Y-172936657D01*
X118485382Y-173051392D01*
X118303338Y-173191081D01*
X118141081Y-173353338D01*
X118001392Y-173535382D01*
X117886657Y-173734109D01*
X117886650Y-173734123D01*
X117798842Y-173946112D01*
X117739453Y-174167759D01*
X117739451Y-174167770D01*
X117709500Y-174395258D01*
X117709500Y-176124741D01*
X101390500Y-176124741D01*
X101390500Y-163424741D01*
X117709500Y-163424741D01*
X117734446Y-163614215D01*
X117739452Y-163652238D01*
X117781724Y-163810000D01*
X117798842Y-163873887D01*
X117886650Y-164085876D01*
X117886657Y-164085890D01*
X118001392Y-164284617D01*
X118141081Y-164466661D01*
X118141089Y-164466670D01*
X118303330Y-164628911D01*
X118303338Y-164628918D01*
X118485382Y-164768607D01*
X118485385Y-164768608D01*
X118485388Y-164768611D01*
X118684112Y-164883344D01*
X118684117Y-164883346D01*
X118684123Y-164883349D01*
X118775480Y-164921190D01*
X118896113Y-164971158D01*
X119117762Y-165030548D01*
X119345266Y-165060500D01*
X119345273Y-165060500D01*
X119574727Y-165060500D01*
X119574734Y-165060500D01*
X119802238Y-165030548D01*
X120023887Y-164971158D01*
X120235888Y-164883344D01*
X120434612Y-164768611D01*
X120616661Y-164628919D01*
X120616665Y-164628914D01*
X120616670Y-164628911D01*
X120778911Y-164466670D01*
X120778914Y-164466665D01*
X120778919Y-164466661D01*
X120918611Y-164284612D01*
X121033344Y-164085888D01*
X121121158Y-163873887D01*
X121180548Y-163652238D01*
X121210500Y-163424734D01*
X121210500Y-163284500D01*
X121230185Y-163217461D01*
X121282989Y-163171706D01*
X121334500Y-163160500D01*
X122085500Y-163160500D01*
X122152539Y-163180185D01*
X122198294Y-163232989D01*
X122209500Y-163284500D01*
X122209500Y-163424741D01*
X122234446Y-163614215D01*
X122239452Y-163652238D01*
X122281724Y-163810000D01*
X122298842Y-163873887D01*
X122386650Y-164085876D01*
X122386657Y-164085890D01*
X122501392Y-164284617D01*
X122641081Y-164466661D01*
X122641089Y-164466670D01*
X122803330Y-164628911D01*
X122803338Y-164628918D01*
X122985382Y-164768607D01*
X122985385Y-164768608D01*
X122985388Y-164768611D01*
X123184112Y-164883344D01*
X123184117Y-164883346D01*
X123184123Y-164883349D01*
X123275480Y-164921190D01*
X123396113Y-164971158D01*
X123617762Y-165030548D01*
X123845266Y-165060500D01*
X123845273Y-165060500D01*
X124074727Y-165060500D01*
X124074734Y-165060500D01*
X124302238Y-165030548D01*
X124523887Y-164971158D01*
X124735888Y-164883344D01*
X124934612Y-164768611D01*
X125116661Y-164628919D01*
X125116665Y-164628914D01*
X125116670Y-164628911D01*
X125278911Y-164466670D01*
X125278914Y-164466665D01*
X125278919Y-164466661D01*
X125418611Y-164284612D01*
X125533344Y-164085888D01*
X125621158Y-163873887D01*
X125680548Y-163652238D01*
X125710500Y-163424734D01*
X125710500Y-161695266D01*
X125680548Y-161467762D01*
X125621158Y-161246113D01*
X125571190Y-161125480D01*
X125533349Y-161034123D01*
X125533346Y-161034117D01*
X125533344Y-161034112D01*
X125418611Y-160835388D01*
X125418608Y-160835385D01*
X125418607Y-160835382D01*
X125279173Y-160653670D01*
X125278919Y-160653339D01*
X125278918Y-160653338D01*
X125278911Y-160653330D01*
X125116670Y-160491089D01*
X125116661Y-160491081D01*
X124934617Y-160351392D01*
X124735890Y-160236657D01*
X124735876Y-160236650D01*
X124523887Y-160148842D01*
X124302238Y-160089452D01*
X124264215Y-160084446D01*
X124074741Y-160059500D01*
X124074734Y-160059500D01*
X123845266Y-160059500D01*
X123845258Y-160059500D01*
X123628715Y-160088009D01*
X123617762Y-160089452D01*
X123524076Y-160114554D01*
X123396112Y-160148842D01*
X123184123Y-160236650D01*
X123184109Y-160236657D01*
X122985382Y-160351392D01*
X122803338Y-160491081D01*
X122641081Y-160653338D01*
X122501392Y-160835382D01*
X122386657Y-161034109D01*
X122386650Y-161034123D01*
X122298842Y-161246112D01*
X122239453Y-161467759D01*
X122239451Y-161467770D01*
X122209500Y-161695258D01*
X122209500Y-161835500D01*
X122189815Y-161902539D01*
X122137011Y-161948294D01*
X122085500Y-161959500D01*
X121334500Y-161959500D01*
X121267461Y-161939815D01*
X121221706Y-161887011D01*
X121210500Y-161835500D01*
X121210500Y-161695272D01*
X121210499Y-161695258D01*
X121201033Y-161623362D01*
X121180548Y-161467762D01*
X121121158Y-161246113D01*
X121071190Y-161125480D01*
X121033349Y-161034123D01*
X121033346Y-161034117D01*
X121033344Y-161034112D01*
X120918611Y-160835388D01*
X120918608Y-160835385D01*
X120918607Y-160835382D01*
X120779173Y-160653670D01*
X120778919Y-160653339D01*
X120778918Y-160653338D01*
X120778911Y-160653330D01*
X120616670Y-160491089D01*
X120616661Y-160491081D01*
X120434617Y-160351392D01*
X120235890Y-160236657D01*
X120235876Y-160236650D01*
X120023887Y-160148842D01*
X119802238Y-160089452D01*
X119764215Y-160084446D01*
X119574741Y-160059500D01*
X119574734Y-160059500D01*
X119345266Y-160059500D01*
X119345258Y-160059500D01*
X119128715Y-160088009D01*
X119117762Y-160089452D01*
X119024076Y-160114554D01*
X118896112Y-160148842D01*
X118684123Y-160236650D01*
X118684109Y-160236657D01*
X118485382Y-160351392D01*
X118303338Y-160491081D01*
X118141081Y-160653338D01*
X118001392Y-160835382D01*
X117886657Y-161034109D01*
X117886650Y-161034123D01*
X117798842Y-161246112D01*
X117739453Y-161467759D01*
X117739451Y-161467770D01*
X117709500Y-161695258D01*
X117709500Y-163424741D01*
X101390500Y-163424741D01*
X101390500Y-150724741D01*
X117709500Y-150724741D01*
X117734446Y-150914215D01*
X117739452Y-150952238D01*
X117781724Y-151110000D01*
X117798842Y-151173887D01*
X117886650Y-151385876D01*
X117886657Y-151385890D01*
X118001392Y-151584617D01*
X118141081Y-151766661D01*
X118141089Y-151766670D01*
X118303330Y-151928911D01*
X118303338Y-151928918D01*
X118485382Y-152068607D01*
X118485385Y-152068608D01*
X118485388Y-152068611D01*
X118684112Y-152183344D01*
X118684117Y-152183346D01*
X118684123Y-152183349D01*
X118775480Y-152221190D01*
X118896113Y-152271158D01*
X119117762Y-152330548D01*
X119345266Y-152360500D01*
X119345273Y-152360500D01*
X119574727Y-152360500D01*
X119574734Y-152360500D01*
X119802238Y-152330548D01*
X120023887Y-152271158D01*
X120235888Y-152183344D01*
X120434612Y-152068611D01*
X120616661Y-151928919D01*
X120616665Y-151928914D01*
X120616670Y-151928911D01*
X120778911Y-151766670D01*
X120778914Y-151766665D01*
X120778919Y-151766661D01*
X120918611Y-151584612D01*
X121033344Y-151385888D01*
X121121158Y-151173887D01*
X121180548Y-150952238D01*
X121210500Y-150724734D01*
X121210500Y-150584500D01*
X121230185Y-150517461D01*
X121282989Y-150471706D01*
X121334500Y-150460500D01*
X122085500Y-150460500D01*
X122152539Y-150480185D01*
X122198294Y-150532989D01*
X122209500Y-150584500D01*
X122209500Y-150724741D01*
X122234446Y-150914215D01*
X122239452Y-150952238D01*
X122281724Y-151110000D01*
X122298842Y-151173887D01*
X122386650Y-151385876D01*
X122386657Y-151385890D01*
X122501392Y-151584617D01*
X122641081Y-151766661D01*
X122641089Y-151766670D01*
X122803330Y-151928911D01*
X122803338Y-151928918D01*
X122985382Y-152068607D01*
X122985385Y-152068608D01*
X122985388Y-152068611D01*
X123184112Y-152183344D01*
X123184117Y-152183346D01*
X123184123Y-152183349D01*
X123275480Y-152221190D01*
X123396113Y-152271158D01*
X123617762Y-152330548D01*
X123845266Y-152360500D01*
X123845273Y-152360500D01*
X124074727Y-152360500D01*
X124074734Y-152360500D01*
X124302238Y-152330548D01*
X124523887Y-152271158D01*
X124735888Y-152183344D01*
X124934612Y-152068611D01*
X125116661Y-151928919D01*
X125116665Y-151928914D01*
X125116670Y-151928911D01*
X125278911Y-151766670D01*
X125278914Y-151766665D01*
X125278919Y-151766661D01*
X125418611Y-151584612D01*
X125533344Y-151385888D01*
X125621158Y-151173887D01*
X125680548Y-150952238D01*
X125710500Y-150724734D01*
X125710500Y-148995266D01*
X125680548Y-148767762D01*
X125621158Y-148546113D01*
X125571190Y-148425480D01*
X125533349Y-148334123D01*
X125533346Y-148334117D01*
X125533344Y-148334112D01*
X125418611Y-148135388D01*
X125418608Y-148135385D01*
X125418607Y-148135382D01*
X125279173Y-147953670D01*
X125278919Y-147953339D01*
X125278918Y-147953338D01*
X125278911Y-147953330D01*
X125116670Y-147791089D01*
X125116661Y-147791081D01*
X124934617Y-147651392D01*
X124735890Y-147536657D01*
X124735876Y-147536650D01*
X124523887Y-147448842D01*
X124302238Y-147389452D01*
X124264215Y-147384446D01*
X124074741Y-147359500D01*
X124074734Y-147359500D01*
X123845266Y-147359500D01*
X123845258Y-147359500D01*
X123628715Y-147388009D01*
X123617762Y-147389452D01*
X123524076Y-147414554D01*
X123396112Y-147448842D01*
X123184123Y-147536650D01*
X123184109Y-147536657D01*
X122985382Y-147651392D01*
X122803338Y-147791081D01*
X122641081Y-147953338D01*
X122501392Y-148135382D01*
X122386657Y-148334109D01*
X122386650Y-148334123D01*
X122298842Y-148546112D01*
X122239453Y-148767759D01*
X122239451Y-148767770D01*
X122209500Y-148995258D01*
X122209500Y-149135500D01*
X122189815Y-149202539D01*
X122137011Y-149248294D01*
X122085500Y-149259500D01*
X121334500Y-149259500D01*
X121267461Y-149239815D01*
X121221706Y-149187011D01*
X121210500Y-149135500D01*
X121210500Y-148995272D01*
X121210499Y-148995258D01*
X121201033Y-148923362D01*
X121180548Y-148767762D01*
X121121158Y-148546113D01*
X121071190Y-148425480D01*
X121033349Y-148334123D01*
X121033346Y-148334117D01*
X121033344Y-148334112D01*
X120918611Y-148135388D01*
X120918608Y-148135385D01*
X120918607Y-148135382D01*
X120779173Y-147953670D01*
X120778919Y-147953339D01*
X120778918Y-147953338D01*
X120778911Y-147953330D01*
X120616670Y-147791089D01*
X120616661Y-147791081D01*
X120434617Y-147651392D01*
X120235890Y-147536657D01*
X120235876Y-147536650D01*
X120023887Y-147448842D01*
X119802238Y-147389452D01*
X119764215Y-147384446D01*
X119574741Y-147359500D01*
X119574734Y-147359500D01*
X119345266Y-147359500D01*
X119345258Y-147359500D01*
X119128715Y-147388009D01*
X119117762Y-147389452D01*
X119024076Y-147414554D01*
X118896112Y-147448842D01*
X118684123Y-147536650D01*
X118684109Y-147536657D01*
X118485382Y-147651392D01*
X118303338Y-147791081D01*
X118141081Y-147953338D01*
X118001392Y-148135382D01*
X117886657Y-148334109D01*
X117886650Y-148334123D01*
X117798842Y-148546112D01*
X117739453Y-148767759D01*
X117739451Y-148767770D01*
X117709500Y-148995258D01*
X117709500Y-150724741D01*
X101390500Y-150724741D01*
X101390500Y-147102229D01*
X101410185Y-147035190D01*
X101426819Y-147014548D01*
X111701743Y-136739624D01*
X111763066Y-136706139D01*
X111832758Y-136711123D01*
X111888691Y-136752995D01*
X111913108Y-136818459D01*
X111899932Y-136879026D01*
X111901720Y-136879860D01*
X111803261Y-137091002D01*
X111803258Y-137091011D01*
X111744366Y-137310802D01*
X111744364Y-137310813D01*
X111724532Y-137537498D01*
X111724532Y-137537501D01*
X111744364Y-137764186D01*
X111744366Y-137764197D01*
X111803258Y-137983988D01*
X111803261Y-137983997D01*
X111899431Y-138190232D01*
X111899432Y-138190234D01*
X112029954Y-138376641D01*
X112190858Y-138537545D01*
X112190861Y-138537547D01*
X112377266Y-138668068D01*
X112583504Y-138764239D01*
X112803308Y-138823135D01*
X112965230Y-138837301D01*
X113029998Y-138842968D01*
X113030000Y-138842968D01*
X113030002Y-138842968D01*
X113086673Y-138838009D01*
X113256692Y-138823135D01*
X113476496Y-138764239D01*
X113682734Y-138668068D01*
X113869139Y-138537547D01*
X114030047Y-138376639D01*
X114160568Y-138190234D01*
X114237739Y-138024741D01*
X117709500Y-138024741D01*
X117731289Y-138190234D01*
X117739452Y-138252238D01*
X117776648Y-138391058D01*
X117798842Y-138473887D01*
X117886650Y-138685876D01*
X117886657Y-138685890D01*
X118001392Y-138884617D01*
X118141081Y-139066661D01*
X118141089Y-139066670D01*
X118303330Y-139228911D01*
X118303338Y-139228918D01*
X118485382Y-139368607D01*
X118485385Y-139368608D01*
X118485388Y-139368611D01*
X118684112Y-139483344D01*
X118684117Y-139483346D01*
X118684123Y-139483349D01*
X118775480Y-139521190D01*
X118896113Y-139571158D01*
X119117762Y-139630548D01*
X119345266Y-139660500D01*
X119345273Y-139660500D01*
X119574727Y-139660500D01*
X119574734Y-139660500D01*
X119802238Y-139630548D01*
X120023887Y-139571158D01*
X120235888Y-139483344D01*
X120434612Y-139368611D01*
X120616661Y-139228919D01*
X120616665Y-139228914D01*
X120616670Y-139228911D01*
X120778911Y-139066670D01*
X120778914Y-139066665D01*
X120778919Y-139066661D01*
X120918611Y-138884612D01*
X121033344Y-138685888D01*
X121121158Y-138473887D01*
X121180548Y-138252238D01*
X121210500Y-138024734D01*
X121210500Y-137884500D01*
X121230185Y-137817461D01*
X121282989Y-137771706D01*
X121334500Y-137760500D01*
X122085500Y-137760500D01*
X122152539Y-137780185D01*
X122198294Y-137832989D01*
X122209500Y-137884500D01*
X122209500Y-138024741D01*
X122231289Y-138190234D01*
X122239452Y-138252238D01*
X122276648Y-138391058D01*
X122298842Y-138473887D01*
X122386650Y-138685876D01*
X122386657Y-138685890D01*
X122501392Y-138884617D01*
X122641081Y-139066661D01*
X122641089Y-139066670D01*
X122803330Y-139228911D01*
X122803338Y-139228918D01*
X122985382Y-139368607D01*
X122985385Y-139368608D01*
X122985388Y-139368611D01*
X123184112Y-139483344D01*
X123184117Y-139483346D01*
X123184123Y-139483349D01*
X123275480Y-139521190D01*
X123396113Y-139571158D01*
X123617762Y-139630548D01*
X123845266Y-139660500D01*
X123845273Y-139660500D01*
X124074727Y-139660500D01*
X124074734Y-139660500D01*
X124302238Y-139630548D01*
X124523887Y-139571158D01*
X124735888Y-139483344D01*
X124934612Y-139368611D01*
X125116661Y-139228919D01*
X125116665Y-139228914D01*
X125116670Y-139228911D01*
X125278911Y-139066670D01*
X125278914Y-139066665D01*
X125278919Y-139066661D01*
X125418611Y-138884612D01*
X125533344Y-138685888D01*
X125621158Y-138473887D01*
X125680548Y-138252238D01*
X125710500Y-138024734D01*
X125710500Y-136295266D01*
X125680548Y-136067762D01*
X125621158Y-135846113D01*
X125540022Y-135650234D01*
X125533349Y-135634123D01*
X125533346Y-135634117D01*
X125533344Y-135634112D01*
X125418611Y-135435388D01*
X125418608Y-135435385D01*
X125418607Y-135435382D01*
X125279173Y-135253670D01*
X125278919Y-135253339D01*
X125278918Y-135253338D01*
X125278911Y-135253330D01*
X125116670Y-135091089D01*
X125116661Y-135091081D01*
X124934617Y-134951392D01*
X124735890Y-134836657D01*
X124735876Y-134836650D01*
X124523887Y-134748842D01*
X124302238Y-134689452D01*
X124264215Y-134684446D01*
X124074741Y-134659500D01*
X124074734Y-134659500D01*
X123845266Y-134659500D01*
X123845258Y-134659500D01*
X123628715Y-134688009D01*
X123617762Y-134689452D01*
X123524076Y-134714554D01*
X123396112Y-134748842D01*
X123184123Y-134836650D01*
X123184109Y-134836657D01*
X122985382Y-134951392D01*
X122803338Y-135091081D01*
X122641081Y-135253338D01*
X122501392Y-135435382D01*
X122386657Y-135634109D01*
X122386650Y-135634123D01*
X122298842Y-135846112D01*
X122239453Y-136067759D01*
X122239451Y-136067770D01*
X122209500Y-136295258D01*
X122209500Y-136435500D01*
X122189815Y-136502539D01*
X122137011Y-136548294D01*
X122085500Y-136559500D01*
X121334500Y-136559500D01*
X121267461Y-136539815D01*
X121221706Y-136487011D01*
X121210500Y-136435500D01*
X121210500Y-136295272D01*
X121210499Y-136295258D01*
X121201033Y-136223362D01*
X121180548Y-136067762D01*
X121121158Y-135846113D01*
X121040022Y-135650234D01*
X121033349Y-135634123D01*
X121033346Y-135634117D01*
X121033344Y-135634112D01*
X120918611Y-135435388D01*
X120918608Y-135435385D01*
X120918607Y-135435382D01*
X120779173Y-135253670D01*
X120778919Y-135253339D01*
X120778918Y-135253338D01*
X120778911Y-135253330D01*
X120616670Y-135091089D01*
X120616661Y-135091081D01*
X120434617Y-134951392D01*
X120235890Y-134836657D01*
X120235876Y-134836650D01*
X120023887Y-134748842D01*
X119802238Y-134689452D01*
X119764215Y-134684446D01*
X119574741Y-134659500D01*
X119574734Y-134659500D01*
X119345266Y-134659500D01*
X119345258Y-134659500D01*
X119128715Y-134688009D01*
X119117762Y-134689452D01*
X119024076Y-134714554D01*
X118896112Y-134748842D01*
X118684123Y-134836650D01*
X118684109Y-134836657D01*
X118485382Y-134951392D01*
X118303338Y-135091081D01*
X118141081Y-135253338D01*
X118001392Y-135435382D01*
X117886657Y-135634109D01*
X117886650Y-135634123D01*
X117798842Y-135846112D01*
X117739453Y-136067759D01*
X117739451Y-136067770D01*
X117709500Y-136295258D01*
X117709500Y-138024741D01*
X114237739Y-138024741D01*
X114256739Y-137983996D01*
X114315635Y-137764192D01*
X114335468Y-137537500D01*
X114315635Y-137310808D01*
X114256739Y-137091004D01*
X114160568Y-136884766D01*
X114030047Y-136698361D01*
X114030045Y-136698358D01*
X113869141Y-136537454D01*
X113682734Y-136406932D01*
X113682728Y-136406929D01*
X113624725Y-136379882D01*
X113572285Y-136333710D01*
X113553133Y-136266517D01*
X113573348Y-136199635D01*
X113624725Y-136155118D01*
X113682734Y-136128068D01*
X113869139Y-135997547D01*
X114030047Y-135836639D01*
X114160568Y-135650234D01*
X114256739Y-135443996D01*
X114315635Y-135224192D01*
X114335468Y-134997500D01*
X114315635Y-134770808D01*
X114256739Y-134551004D01*
X114160568Y-134344766D01*
X114030047Y-134158361D01*
X114030045Y-134158358D01*
X113869141Y-133997454D01*
X113682734Y-133866932D01*
X113682732Y-133866931D01*
X113631607Y-133843091D01*
X113579168Y-133796918D01*
X113560016Y-133729725D01*
X113580232Y-133662844D01*
X113630212Y-133618988D01*
X113647977Y-133610433D01*
X113759379Y-133540433D01*
X113159408Y-132940462D01*
X113222993Y-132923425D01*
X113337007Y-132857599D01*
X113430099Y-132764507D01*
X113495925Y-132650493D01*
X113512962Y-132586909D01*
X114112933Y-133186880D01*
X114182932Y-133075477D01*
X114231997Y-132973594D01*
X114291538Y-132803433D01*
X114291540Y-132803427D01*
X114316701Y-132693189D01*
X114316703Y-132693173D01*
X114336886Y-132514047D01*
X114336887Y-132514047D01*
X114336887Y-132400953D01*
X114336886Y-132400952D01*
X114316703Y-132221826D01*
X114316701Y-132221810D01*
X114291540Y-132111572D01*
X114291538Y-132111566D01*
X114231999Y-131941409D01*
X114182926Y-131839511D01*
X114112932Y-131728119D01*
X113512962Y-132328089D01*
X113495925Y-132264507D01*
X113430099Y-132150493D01*
X113337007Y-132057401D01*
X113222993Y-131991575D01*
X113159409Y-131974537D01*
X113759380Y-131374565D01*
X113759379Y-131374564D01*
X113647981Y-131304569D01*
X113647978Y-131304567D01*
X113630208Y-131296009D01*
X113578349Y-131249185D01*
X113560038Y-131181757D01*
X113581088Y-131115134D01*
X113631603Y-131071910D01*
X113682734Y-131048068D01*
X113869139Y-130917547D01*
X114030047Y-130756639D01*
X114160568Y-130570234D01*
X114256739Y-130363996D01*
X114315635Y-130144192D01*
X114335468Y-129917500D01*
X114315635Y-129690808D01*
X114256739Y-129471004D01*
X114160568Y-129264766D01*
X114030047Y-129078361D01*
X114030045Y-129078358D01*
X113869141Y-128917454D01*
X113682734Y-128786932D01*
X113682728Y-128786929D01*
X113624725Y-128759882D01*
X113572285Y-128713710D01*
X113553133Y-128646517D01*
X113573348Y-128579635D01*
X113624725Y-128535118D01*
X113682734Y-128508068D01*
X113869139Y-128377547D01*
X114030047Y-128216639D01*
X114160568Y-128030234D01*
X114256739Y-127823996D01*
X114315635Y-127604192D01*
X114335468Y-127377500D01*
X114315635Y-127150808D01*
X114256739Y-126931004D01*
X114160568Y-126724766D01*
X114030047Y-126538361D01*
X114030045Y-126538358D01*
X113869141Y-126377454D01*
X113682734Y-126246932D01*
X113682728Y-126246929D01*
X113624725Y-126219882D01*
X113572285Y-126173710D01*
X113553133Y-126106517D01*
X113573348Y-126039635D01*
X113624725Y-125995118D01*
X113682734Y-125968068D01*
X113869139Y-125837547D01*
X114030047Y-125676639D01*
X114160568Y-125490234D01*
X114237739Y-125324741D01*
X117709500Y-125324741D01*
X117731289Y-125490234D01*
X117739452Y-125552238D01*
X117781724Y-125710000D01*
X117798842Y-125773887D01*
X117886650Y-125985876D01*
X117886657Y-125985890D01*
X118001392Y-126184617D01*
X118141081Y-126366661D01*
X118141089Y-126366670D01*
X118303330Y-126528911D01*
X118303338Y-126528918D01*
X118485382Y-126668607D01*
X118485385Y-126668608D01*
X118485388Y-126668611D01*
X118684112Y-126783344D01*
X118684117Y-126783346D01*
X118684123Y-126783349D01*
X118775480Y-126821190D01*
X118896113Y-126871158D01*
X119117762Y-126930548D01*
X119345266Y-126960500D01*
X119345273Y-126960500D01*
X119574727Y-126960500D01*
X119574734Y-126960500D01*
X119802238Y-126930548D01*
X120023887Y-126871158D01*
X120235888Y-126783344D01*
X120434612Y-126668611D01*
X120616661Y-126528919D01*
X120616665Y-126528914D01*
X120616670Y-126528911D01*
X120778911Y-126366670D01*
X120778914Y-126366665D01*
X120778919Y-126366661D01*
X120918611Y-126184612D01*
X121033344Y-125985888D01*
X121121158Y-125773887D01*
X121180548Y-125552238D01*
X121210500Y-125324734D01*
X121210500Y-125184500D01*
X121230185Y-125117461D01*
X121282989Y-125071706D01*
X121334500Y-125060500D01*
X122085500Y-125060500D01*
X122152539Y-125080185D01*
X122198294Y-125132989D01*
X122209500Y-125184500D01*
X122209500Y-125324741D01*
X122231289Y-125490234D01*
X122239452Y-125552238D01*
X122281724Y-125710000D01*
X122298842Y-125773887D01*
X122386650Y-125985876D01*
X122386657Y-125985890D01*
X122501392Y-126184617D01*
X122641081Y-126366661D01*
X122641089Y-126366670D01*
X122803330Y-126528911D01*
X122803338Y-126528918D01*
X122985382Y-126668607D01*
X122985385Y-126668608D01*
X122985388Y-126668611D01*
X123184112Y-126783344D01*
X123184117Y-126783346D01*
X123184123Y-126783349D01*
X123275480Y-126821190D01*
X123396113Y-126871158D01*
X123617762Y-126930548D01*
X123845266Y-126960500D01*
X123845273Y-126960500D01*
X124074727Y-126960500D01*
X124074734Y-126960500D01*
X124302238Y-126930548D01*
X124523887Y-126871158D01*
X124735888Y-126783344D01*
X124934612Y-126668611D01*
X125116661Y-126528919D01*
X125116665Y-126528914D01*
X125116670Y-126528911D01*
X125278911Y-126366670D01*
X125278914Y-126366665D01*
X125278919Y-126366661D01*
X125418611Y-126184612D01*
X125533344Y-125985888D01*
X125621158Y-125773887D01*
X125680548Y-125552238D01*
X125710500Y-125324734D01*
X125710500Y-123595266D01*
X125680548Y-123367762D01*
X125621158Y-123146113D01*
X125540022Y-122950234D01*
X125533349Y-122934123D01*
X125533346Y-122934117D01*
X125533344Y-122934112D01*
X125418611Y-122735388D01*
X125418608Y-122735385D01*
X125418607Y-122735382D01*
X125279173Y-122553670D01*
X125278919Y-122553339D01*
X125278918Y-122553338D01*
X125278911Y-122553330D01*
X125116670Y-122391089D01*
X125116661Y-122391081D01*
X124934617Y-122251392D01*
X124735890Y-122136657D01*
X124735876Y-122136650D01*
X124523887Y-122048842D01*
X124302238Y-121989452D01*
X124264215Y-121984446D01*
X124074741Y-121959500D01*
X124074734Y-121959500D01*
X123845266Y-121959500D01*
X123845258Y-121959500D01*
X123628715Y-121988009D01*
X123617762Y-121989452D01*
X123524076Y-122014554D01*
X123396112Y-122048842D01*
X123184123Y-122136650D01*
X123184109Y-122136657D01*
X122985382Y-122251392D01*
X122803338Y-122391081D01*
X122641081Y-122553338D01*
X122501392Y-122735382D01*
X122386657Y-122934109D01*
X122386650Y-122934123D01*
X122298842Y-123146112D01*
X122239453Y-123367759D01*
X122239451Y-123367770D01*
X122209500Y-123595258D01*
X122209500Y-123735500D01*
X122189815Y-123802539D01*
X122137011Y-123848294D01*
X122085500Y-123859500D01*
X121334500Y-123859500D01*
X121267461Y-123839815D01*
X121221706Y-123787011D01*
X121210500Y-123735500D01*
X121210500Y-123595272D01*
X121210499Y-123595258D01*
X121201033Y-123523362D01*
X121180548Y-123367762D01*
X121121158Y-123146113D01*
X121040022Y-122950234D01*
X121033349Y-122934123D01*
X121033346Y-122934117D01*
X121033344Y-122934112D01*
X120918611Y-122735388D01*
X120918608Y-122735385D01*
X120918607Y-122735382D01*
X120779173Y-122553670D01*
X120778919Y-122553339D01*
X120778918Y-122553338D01*
X120778911Y-122553330D01*
X120616670Y-122391089D01*
X120616661Y-122391081D01*
X120434617Y-122251392D01*
X120235890Y-122136657D01*
X120235876Y-122136650D01*
X120023887Y-122048842D01*
X119802238Y-121989452D01*
X119764215Y-121984446D01*
X119574741Y-121959500D01*
X119574734Y-121959500D01*
X119345266Y-121959500D01*
X119345258Y-121959500D01*
X119128715Y-121988009D01*
X119117762Y-121989452D01*
X119024076Y-122014554D01*
X118896112Y-122048842D01*
X118684123Y-122136650D01*
X118684109Y-122136657D01*
X118485382Y-122251392D01*
X118303338Y-122391081D01*
X118141081Y-122553338D01*
X118001392Y-122735382D01*
X117886657Y-122934109D01*
X117886650Y-122934123D01*
X117798842Y-123146112D01*
X117739453Y-123367759D01*
X117739451Y-123367770D01*
X117709500Y-123595258D01*
X117709500Y-125324741D01*
X114237739Y-125324741D01*
X114256739Y-125283996D01*
X114315635Y-125064192D01*
X114335468Y-124837500D01*
X114315635Y-124610808D01*
X114256739Y-124391004D01*
X114160568Y-124184766D01*
X114030047Y-123998361D01*
X114030045Y-123998358D01*
X113869141Y-123837454D01*
X113682734Y-123706932D01*
X113682728Y-123706929D01*
X113624725Y-123679882D01*
X113572285Y-123633710D01*
X113553133Y-123566517D01*
X113573348Y-123499635D01*
X113624725Y-123455118D01*
X113682734Y-123428068D01*
X113869139Y-123297547D01*
X114030047Y-123136639D01*
X114160568Y-122950234D01*
X114256739Y-122743996D01*
X114315635Y-122524192D01*
X114335468Y-122297500D01*
X114315635Y-122070808D01*
X114256739Y-121851004D01*
X114160568Y-121644766D01*
X114030047Y-121458361D01*
X114030045Y-121458358D01*
X113869141Y-121297454D01*
X113682734Y-121166932D01*
X113682732Y-121166931D01*
X113631607Y-121143091D01*
X113579168Y-121096918D01*
X113560016Y-121029725D01*
X113580232Y-120962844D01*
X113630212Y-120918988D01*
X113647977Y-120910433D01*
X113759379Y-120840433D01*
X113159408Y-120240462D01*
X113222993Y-120223425D01*
X113337007Y-120157599D01*
X113430099Y-120064507D01*
X113495925Y-119950493D01*
X113512962Y-119886909D01*
X114112933Y-120486880D01*
X114182932Y-120375477D01*
X114231997Y-120273594D01*
X114291538Y-120103433D01*
X114291540Y-120103427D01*
X114316701Y-119993189D01*
X114316703Y-119993173D01*
X114336886Y-119814047D01*
X114336887Y-119814047D01*
X114336887Y-119700953D01*
X114336886Y-119700952D01*
X114316703Y-119521826D01*
X114316701Y-119521810D01*
X114291540Y-119411572D01*
X114291538Y-119411566D01*
X114231999Y-119241409D01*
X114182926Y-119139511D01*
X114112932Y-119028119D01*
X113512962Y-119628089D01*
X113495925Y-119564507D01*
X113430099Y-119450493D01*
X113337007Y-119357401D01*
X113222993Y-119291575D01*
X113159409Y-119274537D01*
X113759380Y-118674565D01*
X113759379Y-118674564D01*
X113647981Y-118604569D01*
X113647978Y-118604567D01*
X113630208Y-118596009D01*
X113578349Y-118549185D01*
X113560038Y-118481757D01*
X113581088Y-118415134D01*
X113631603Y-118371910D01*
X113682734Y-118348068D01*
X113869139Y-118217547D01*
X114030047Y-118056639D01*
X114160568Y-117870234D01*
X114256739Y-117663996D01*
X114315635Y-117444192D01*
X114335468Y-117217500D01*
X114315635Y-116990808D01*
X114256739Y-116771004D01*
X114160568Y-116564766D01*
X114030047Y-116378361D01*
X114030045Y-116378358D01*
X113869141Y-116217454D01*
X113682734Y-116086932D01*
X113682728Y-116086929D01*
X113624725Y-116059882D01*
X113572285Y-116013710D01*
X113553133Y-115946517D01*
X113573348Y-115879635D01*
X113624725Y-115835118D01*
X113682734Y-115808068D01*
X113869139Y-115677547D01*
X114030047Y-115516639D01*
X114160568Y-115330234D01*
X114256739Y-115123996D01*
X114315635Y-114904192D01*
X114335468Y-114677500D01*
X114315635Y-114450808D01*
X114256739Y-114231004D01*
X114160568Y-114024766D01*
X114030047Y-113838361D01*
X114030045Y-113838358D01*
X113869141Y-113677454D01*
X113682734Y-113546932D01*
X113682728Y-113546929D01*
X113624725Y-113519882D01*
X113572285Y-113473710D01*
X113553133Y-113406517D01*
X113573348Y-113339635D01*
X113624725Y-113295118D01*
X113682734Y-113268068D01*
X113869139Y-113137547D01*
X114030047Y-112976639D01*
X114160568Y-112790234D01*
X114237739Y-112624741D01*
X117709500Y-112624741D01*
X117731289Y-112790234D01*
X117739452Y-112852238D01*
X117781724Y-113010000D01*
X117798842Y-113073887D01*
X117886650Y-113285876D01*
X117886657Y-113285890D01*
X118001392Y-113484617D01*
X118141081Y-113666661D01*
X118141089Y-113666670D01*
X118303330Y-113828911D01*
X118303338Y-113828918D01*
X118485382Y-113968607D01*
X118485385Y-113968608D01*
X118485388Y-113968611D01*
X118684112Y-114083344D01*
X118684117Y-114083346D01*
X118684123Y-114083349D01*
X118775480Y-114121190D01*
X118896113Y-114171158D01*
X119117762Y-114230548D01*
X119345266Y-114260500D01*
X119345273Y-114260500D01*
X119574727Y-114260500D01*
X119574734Y-114260500D01*
X119802238Y-114230548D01*
X120023887Y-114171158D01*
X120235888Y-114083344D01*
X120434612Y-113968611D01*
X120616661Y-113828919D01*
X120616665Y-113828914D01*
X120616670Y-113828911D01*
X120778911Y-113666670D01*
X120778914Y-113666665D01*
X120778919Y-113666661D01*
X120918611Y-113484612D01*
X121033344Y-113285888D01*
X121121158Y-113073887D01*
X121180548Y-112852238D01*
X121210500Y-112624734D01*
X121210500Y-112509500D01*
X121230185Y-112442461D01*
X121282989Y-112396706D01*
X121334500Y-112385500D01*
X122085500Y-112385500D01*
X122152539Y-112405185D01*
X122198294Y-112457989D01*
X122209500Y-112509500D01*
X122209500Y-112624741D01*
X122231289Y-112790234D01*
X122239452Y-112852238D01*
X122281724Y-113010000D01*
X122298842Y-113073887D01*
X122386650Y-113285876D01*
X122386657Y-113285890D01*
X122501392Y-113484617D01*
X122641081Y-113666661D01*
X122641089Y-113666670D01*
X122803330Y-113828911D01*
X122803338Y-113828918D01*
X122985382Y-113968607D01*
X122985385Y-113968608D01*
X122985388Y-113968611D01*
X123184112Y-114083344D01*
X123184117Y-114083346D01*
X123184123Y-114083349D01*
X123275480Y-114121190D01*
X123396113Y-114171158D01*
X123617762Y-114230548D01*
X123845266Y-114260500D01*
X123845273Y-114260500D01*
X124074727Y-114260500D01*
X124074734Y-114260500D01*
X124302238Y-114230548D01*
X124523887Y-114171158D01*
X124735888Y-114083344D01*
X124934612Y-113968611D01*
X125116661Y-113828919D01*
X125116665Y-113828914D01*
X125116670Y-113828911D01*
X125278911Y-113666670D01*
X125278914Y-113666665D01*
X125278919Y-113666661D01*
X125418611Y-113484612D01*
X125533344Y-113285888D01*
X125621158Y-113073887D01*
X125680548Y-112852238D01*
X125710500Y-112624734D01*
X125710500Y-110895266D01*
X125680548Y-110667762D01*
X125621158Y-110446113D01*
X125540022Y-110250234D01*
X125533349Y-110234123D01*
X125533346Y-110234117D01*
X125533344Y-110234112D01*
X125418611Y-110035388D01*
X125418608Y-110035385D01*
X125418607Y-110035382D01*
X125279173Y-109853670D01*
X125278919Y-109853339D01*
X125278918Y-109853338D01*
X125278911Y-109853330D01*
X125116670Y-109691089D01*
X125116661Y-109691081D01*
X124934617Y-109551392D01*
X124735890Y-109436657D01*
X124735876Y-109436650D01*
X124523887Y-109348842D01*
X124302238Y-109289452D01*
X124264215Y-109284446D01*
X124074741Y-109259500D01*
X124074734Y-109259500D01*
X123845266Y-109259500D01*
X123845258Y-109259500D01*
X123628715Y-109288009D01*
X123617762Y-109289452D01*
X123524076Y-109314554D01*
X123396112Y-109348842D01*
X123184123Y-109436650D01*
X123184109Y-109436657D01*
X122985382Y-109551392D01*
X122803338Y-109691081D01*
X122641081Y-109853338D01*
X122501392Y-110035382D01*
X122386657Y-110234109D01*
X122386650Y-110234123D01*
X122298842Y-110446112D01*
X122239453Y-110667759D01*
X122239451Y-110667770D01*
X122209500Y-110895258D01*
X122209500Y-111010500D01*
X122189815Y-111077539D01*
X122137011Y-111123294D01*
X122085500Y-111134500D01*
X121334500Y-111134500D01*
X121267461Y-111114815D01*
X121221706Y-111062011D01*
X121210500Y-111010500D01*
X121210500Y-110895272D01*
X121210499Y-110895258D01*
X121201033Y-110823362D01*
X121180548Y-110667762D01*
X121121158Y-110446113D01*
X121040022Y-110250234D01*
X121033349Y-110234123D01*
X121033346Y-110234117D01*
X121033344Y-110234112D01*
X120918611Y-110035388D01*
X120918608Y-110035385D01*
X120918607Y-110035382D01*
X120779173Y-109853670D01*
X120778919Y-109853339D01*
X120778918Y-109853338D01*
X120778911Y-109853330D01*
X120616670Y-109691089D01*
X120616661Y-109691081D01*
X120434617Y-109551392D01*
X120235890Y-109436657D01*
X120235876Y-109436650D01*
X120023887Y-109348842D01*
X119802238Y-109289452D01*
X119764215Y-109284446D01*
X119574741Y-109259500D01*
X119574734Y-109259500D01*
X119345266Y-109259500D01*
X119345258Y-109259500D01*
X119128715Y-109288009D01*
X119117762Y-109289452D01*
X119024076Y-109314554D01*
X118896112Y-109348842D01*
X118684123Y-109436650D01*
X118684109Y-109436657D01*
X118485382Y-109551392D01*
X118303338Y-109691081D01*
X118141081Y-109853338D01*
X118001392Y-110035382D01*
X117886657Y-110234109D01*
X117886650Y-110234123D01*
X117798842Y-110446112D01*
X117739453Y-110667759D01*
X117739451Y-110667770D01*
X117709500Y-110895258D01*
X117709500Y-112624741D01*
X114237739Y-112624741D01*
X114256739Y-112583996D01*
X114315635Y-112364192D01*
X114335468Y-112137500D01*
X114315635Y-111910808D01*
X114256739Y-111691004D01*
X114160568Y-111484766D01*
X114030047Y-111298361D01*
X114030045Y-111298358D01*
X113869141Y-111137454D01*
X113682734Y-111006932D01*
X113682728Y-111006929D01*
X113624725Y-110979882D01*
X113572285Y-110933710D01*
X113553133Y-110866517D01*
X113573348Y-110799635D01*
X113624725Y-110755118D01*
X113682734Y-110728068D01*
X113869139Y-110597547D01*
X114030047Y-110436639D01*
X114160568Y-110250234D01*
X114256739Y-110043996D01*
X114315635Y-109824192D01*
X114335468Y-109597500D01*
X114315635Y-109370808D01*
X114256739Y-109151004D01*
X114160568Y-108944766D01*
X114030047Y-108758361D01*
X114030045Y-108758358D01*
X113869141Y-108597454D01*
X113682734Y-108466932D01*
X113682732Y-108466931D01*
X113632188Y-108443362D01*
X113579749Y-108397189D01*
X113560597Y-108329996D01*
X113580813Y-108263115D01*
X113630792Y-108219260D01*
X113631355Y-108218989D01*
X113648245Y-108210855D01*
X113800890Y-108114942D01*
X113889390Y-108044365D01*
X114016865Y-107916890D01*
X114087442Y-107828390D01*
X114183355Y-107675745D01*
X114232470Y-107573758D01*
X114292011Y-107403598D01*
X114317198Y-107293242D01*
X114337383Y-107114099D01*
X114337383Y-107000901D01*
X114317198Y-106821758D01*
X114292050Y-106711572D01*
X114292013Y-106711410D01*
X114292012Y-106711408D01*
X114292011Y-106711402D01*
X114232470Y-106541242D01*
X114183355Y-106439255D01*
X114087442Y-106286610D01*
X114016865Y-106198110D01*
X113889390Y-106070635D01*
X113800890Y-106000058D01*
X113648909Y-105904562D01*
X113648244Y-105904144D01*
X113648238Y-105904141D01*
X113630788Y-105895737D01*
X113578930Y-105848913D01*
X113560619Y-105781485D01*
X113581669Y-105714862D01*
X113632184Y-105671639D01*
X113682734Y-105648068D01*
X113869139Y-105517547D01*
X114030047Y-105356639D01*
X114160568Y-105170234D01*
X114256739Y-104963996D01*
X114315635Y-104744192D01*
X114335468Y-104517500D01*
X114315635Y-104290808D01*
X114256739Y-104071004D01*
X114160568Y-103864766D01*
X114030047Y-103678361D01*
X114030045Y-103678358D01*
X113869141Y-103517454D01*
X113682734Y-103386932D01*
X113682728Y-103386929D01*
X113624725Y-103359882D01*
X113572285Y-103313710D01*
X113553133Y-103246517D01*
X113573348Y-103179635D01*
X113624725Y-103135118D01*
X113682734Y-103108068D01*
X113869139Y-102977547D01*
X114030047Y-102816639D01*
X114160568Y-102630234D01*
X114256739Y-102423996D01*
X114315635Y-102204192D01*
X114335468Y-101977500D01*
X114315635Y-101750808D01*
X114256739Y-101531004D01*
X114160568Y-101324766D01*
X114030047Y-101138361D01*
X114030045Y-101138358D01*
X113869141Y-100977454D01*
X113682734Y-100846932D01*
X113682728Y-100846929D01*
X113624725Y-100819882D01*
X113572285Y-100773710D01*
X113553133Y-100706517D01*
X113573348Y-100639635D01*
X113624725Y-100595118D01*
X113682734Y-100568068D01*
X113869139Y-100437547D01*
X114030047Y-100276639D01*
X114160568Y-100090234D01*
X114237739Y-99924741D01*
X117709500Y-99924741D01*
X117731289Y-100090234D01*
X117739452Y-100152238D01*
X117781724Y-100310000D01*
X117798842Y-100373887D01*
X117886650Y-100585876D01*
X117886657Y-100585890D01*
X118001392Y-100784617D01*
X118141081Y-100966661D01*
X118141089Y-100966670D01*
X118303330Y-101128911D01*
X118303338Y-101128918D01*
X118485382Y-101268607D01*
X118485385Y-101268608D01*
X118485388Y-101268611D01*
X118684112Y-101383344D01*
X118684117Y-101383346D01*
X118684123Y-101383349D01*
X118775480Y-101421190D01*
X118896113Y-101471158D01*
X119117762Y-101530548D01*
X119345266Y-101560500D01*
X119345273Y-101560500D01*
X119574727Y-101560500D01*
X119574734Y-101560500D01*
X119802238Y-101530548D01*
X120023887Y-101471158D01*
X120235888Y-101383344D01*
X120434612Y-101268611D01*
X120616661Y-101128919D01*
X120616665Y-101128914D01*
X120616670Y-101128911D01*
X120778911Y-100966670D01*
X120778914Y-100966665D01*
X120778919Y-100966661D01*
X120918611Y-100784612D01*
X121033344Y-100585888D01*
X121121158Y-100373887D01*
X121180548Y-100152238D01*
X121210500Y-99924734D01*
X121210500Y-99784500D01*
X121230185Y-99717461D01*
X121282989Y-99671706D01*
X121334500Y-99660500D01*
X122085500Y-99660500D01*
X122152539Y-99680185D01*
X122198294Y-99732989D01*
X122209500Y-99784500D01*
X122209500Y-99924741D01*
X122231289Y-100090234D01*
X122239452Y-100152238D01*
X122281724Y-100310000D01*
X122298842Y-100373887D01*
X122386650Y-100585876D01*
X122386657Y-100585890D01*
X122501392Y-100784617D01*
X122641081Y-100966661D01*
X122641089Y-100966670D01*
X122803330Y-101128911D01*
X122803338Y-101128918D01*
X122985382Y-101268607D01*
X122985385Y-101268608D01*
X122985388Y-101268611D01*
X123184112Y-101383344D01*
X123184117Y-101383346D01*
X123184123Y-101383349D01*
X123275480Y-101421190D01*
X123396113Y-101471158D01*
X123617762Y-101530548D01*
X123845266Y-101560500D01*
X123845273Y-101560500D01*
X124074727Y-101560500D01*
X124074734Y-101560500D01*
X124302238Y-101530548D01*
X124523887Y-101471158D01*
X124735888Y-101383344D01*
X124934612Y-101268611D01*
X125116661Y-101128919D01*
X125116665Y-101128914D01*
X125116670Y-101128911D01*
X125278911Y-100966670D01*
X125278914Y-100966665D01*
X125278919Y-100966661D01*
X125418611Y-100784612D01*
X125533344Y-100585888D01*
X125621158Y-100373887D01*
X125680548Y-100152238D01*
X125710500Y-99924734D01*
X125710500Y-98195266D01*
X125680548Y-97967762D01*
X125621158Y-97746113D01*
X125540022Y-97550234D01*
X125533349Y-97534123D01*
X125533346Y-97534117D01*
X125533344Y-97534112D01*
X125418611Y-97335388D01*
X125418608Y-97335385D01*
X125418607Y-97335382D01*
X125279173Y-97153670D01*
X125278919Y-97153339D01*
X125278918Y-97153338D01*
X125278911Y-97153330D01*
X125116670Y-96991089D01*
X125116661Y-96991081D01*
X124934617Y-96851392D01*
X124735890Y-96736657D01*
X124735876Y-96736650D01*
X124523887Y-96648842D01*
X124302238Y-96589452D01*
X124264215Y-96584446D01*
X124074741Y-96559500D01*
X124074734Y-96559500D01*
X123845266Y-96559500D01*
X123845258Y-96559500D01*
X123628715Y-96588009D01*
X123617762Y-96589452D01*
X123524076Y-96614554D01*
X123396112Y-96648842D01*
X123184123Y-96736650D01*
X123184109Y-96736657D01*
X122985382Y-96851392D01*
X122803338Y-96991081D01*
X122641081Y-97153338D01*
X122501392Y-97335382D01*
X122386657Y-97534109D01*
X122386650Y-97534123D01*
X122298842Y-97746112D01*
X122239453Y-97967759D01*
X122239451Y-97967770D01*
X122209500Y-98195258D01*
X122209500Y-98335500D01*
X122189815Y-98402539D01*
X122137011Y-98448294D01*
X122085500Y-98459500D01*
X121334500Y-98459500D01*
X121267461Y-98439815D01*
X121221706Y-98387011D01*
X121210500Y-98335500D01*
X121210500Y-98195272D01*
X121210499Y-98195258D01*
X121201033Y-98123362D01*
X121180548Y-97967762D01*
X121121158Y-97746113D01*
X121040022Y-97550234D01*
X121033349Y-97534123D01*
X121033346Y-97534117D01*
X121033344Y-97534112D01*
X120918611Y-97335388D01*
X120918608Y-97335385D01*
X120918607Y-97335382D01*
X120779173Y-97153670D01*
X120778919Y-97153339D01*
X120778918Y-97153338D01*
X120778911Y-97153330D01*
X120616670Y-96991089D01*
X120616661Y-96991081D01*
X120434617Y-96851392D01*
X120235890Y-96736657D01*
X120235876Y-96736650D01*
X120023887Y-96648842D01*
X119802238Y-96589452D01*
X119764215Y-96584446D01*
X119574741Y-96559500D01*
X119574734Y-96559500D01*
X119345266Y-96559500D01*
X119345258Y-96559500D01*
X119128715Y-96588009D01*
X119117762Y-96589452D01*
X119024076Y-96614554D01*
X118896112Y-96648842D01*
X118684123Y-96736650D01*
X118684109Y-96736657D01*
X118485382Y-96851392D01*
X118303338Y-96991081D01*
X118141081Y-97153338D01*
X118001392Y-97335382D01*
X117886657Y-97534109D01*
X117886650Y-97534123D01*
X117798842Y-97746112D01*
X117739453Y-97967759D01*
X117739451Y-97967770D01*
X117709500Y-98195258D01*
X117709500Y-99924741D01*
X114237739Y-99924741D01*
X114256739Y-99883996D01*
X114315635Y-99664192D01*
X114335468Y-99437500D01*
X114315635Y-99210808D01*
X114256739Y-98991004D01*
X114160568Y-98784766D01*
X114030047Y-98598361D01*
X114030045Y-98598358D01*
X113869141Y-98437454D01*
X113682734Y-98306932D01*
X113682728Y-98306929D01*
X113624725Y-98279882D01*
X113572285Y-98233710D01*
X113553133Y-98166517D01*
X113573348Y-98099635D01*
X113624725Y-98055118D01*
X113682734Y-98028068D01*
X113869139Y-97897547D01*
X114030047Y-97736639D01*
X114160568Y-97550234D01*
X114256739Y-97343996D01*
X114315635Y-97124192D01*
X114335468Y-96897500D01*
X114315635Y-96670808D01*
X114256739Y-96451004D01*
X114160568Y-96244766D01*
X114030047Y-96058361D01*
X114030045Y-96058358D01*
X113869141Y-95897454D01*
X113682734Y-95766932D01*
X113682732Y-95766931D01*
X113631607Y-95743091D01*
X113579168Y-95696918D01*
X113560016Y-95629725D01*
X113580232Y-95562844D01*
X113630212Y-95518988D01*
X113647977Y-95510433D01*
X113759379Y-95440433D01*
X113159408Y-94840462D01*
X113222993Y-94823425D01*
X113337007Y-94757599D01*
X113430099Y-94664507D01*
X113495925Y-94550493D01*
X113512962Y-94486909D01*
X114112933Y-95086880D01*
X114182932Y-94975477D01*
X114231997Y-94873594D01*
X114291538Y-94703433D01*
X114291540Y-94703427D01*
X114316701Y-94593189D01*
X114316703Y-94593173D01*
X114336886Y-94414047D01*
X114336887Y-94414047D01*
X114336887Y-94300953D01*
X114336886Y-94300952D01*
X114316703Y-94121826D01*
X114316701Y-94121810D01*
X114291540Y-94011572D01*
X114291538Y-94011566D01*
X114231999Y-93841409D01*
X114182926Y-93739511D01*
X114112932Y-93628119D01*
X113512962Y-94228089D01*
X113495925Y-94164507D01*
X113430099Y-94050493D01*
X113337007Y-93957401D01*
X113222993Y-93891575D01*
X113159409Y-93874537D01*
X113759380Y-93274565D01*
X113759379Y-93274564D01*
X113647981Y-93204569D01*
X113647978Y-93204567D01*
X113630208Y-93196009D01*
X113578349Y-93149185D01*
X113560038Y-93081757D01*
X113581088Y-93015134D01*
X113631603Y-92971910D01*
X113682734Y-92948068D01*
X113869139Y-92817547D01*
X114030047Y-92656639D01*
X114160568Y-92470234D01*
X114256739Y-92263996D01*
X114315635Y-92044192D01*
X114332634Y-91849884D01*
X114335468Y-91817501D01*
X114335468Y-91817498D01*
X114315635Y-91590813D01*
X114315635Y-91590808D01*
X114307725Y-91561288D01*
X125784500Y-91561288D01*
X125816161Y-91801785D01*
X125878947Y-92036104D01*
X125931192Y-92162234D01*
X125971776Y-92260212D01*
X126093064Y-92470289D01*
X126093066Y-92470292D01*
X126093067Y-92470293D01*
X126240733Y-92662736D01*
X126240739Y-92662743D01*
X126412256Y-92834260D01*
X126412262Y-92834265D01*
X126604711Y-92981936D01*
X126814788Y-93103224D01*
X127038900Y-93196054D01*
X127273211Y-93258838D01*
X127453586Y-93282584D01*
X127513711Y-93290500D01*
X127513712Y-93290500D01*
X127756289Y-93290500D01*
X127804388Y-93284167D01*
X127996789Y-93258838D01*
X128231100Y-93196054D01*
X128455212Y-93103224D01*
X128665289Y-92981936D01*
X128857738Y-92834265D01*
X129029265Y-92662738D01*
X129176936Y-92470289D01*
X129298224Y-92260212D01*
X129391054Y-92036100D01*
X129453838Y-91801789D01*
X129485500Y-91561288D01*
X129485500Y-91318712D01*
X129481844Y-91290945D01*
X129453838Y-91078214D01*
X129453838Y-91078211D01*
X129391054Y-90843900D01*
X129298224Y-90619788D01*
X129176936Y-90409711D01*
X129102488Y-90312688D01*
X129029266Y-90217263D01*
X129029260Y-90217256D01*
X128857743Y-90045739D01*
X128857736Y-90045733D01*
X128665293Y-89898067D01*
X128665292Y-89898066D01*
X128665289Y-89898064D01*
X128455212Y-89776776D01*
X128455205Y-89776773D01*
X128231104Y-89683947D01*
X127996785Y-89621161D01*
X127756289Y-89589500D01*
X127756288Y-89589500D01*
X127513712Y-89589500D01*
X127513711Y-89589500D01*
X127273214Y-89621161D01*
X127038895Y-89683947D01*
X126814794Y-89776773D01*
X126814785Y-89776777D01*
X126604706Y-89898067D01*
X126412263Y-90045733D01*
X126412256Y-90045739D01*
X126240739Y-90217256D01*
X126240733Y-90217263D01*
X126093067Y-90409706D01*
X125971777Y-90619785D01*
X125971773Y-90619794D01*
X125878947Y-90843895D01*
X125816161Y-91078214D01*
X125784500Y-91318711D01*
X125784500Y-91561288D01*
X114307725Y-91561288D01*
X114256739Y-91371004D01*
X114160568Y-91164766D01*
X114030047Y-90978361D01*
X114030045Y-90978358D01*
X113869141Y-90817454D01*
X113682734Y-90686932D01*
X113682728Y-90686929D01*
X113624725Y-90659882D01*
X113572285Y-90613710D01*
X113553133Y-90546517D01*
X113573348Y-90479635D01*
X113624725Y-90435118D01*
X113682734Y-90408068D01*
X113869139Y-90277547D01*
X114030047Y-90116639D01*
X114160568Y-89930234D01*
X114256739Y-89723996D01*
X114315635Y-89504192D01*
X114335468Y-89277500D01*
X114315635Y-89050808D01*
X114256739Y-88831004D01*
X114160568Y-88624766D01*
X114030047Y-88438361D01*
X114030045Y-88438358D01*
X113869141Y-88277454D01*
X113682734Y-88146932D01*
X113682732Y-88146931D01*
X113476497Y-88050761D01*
X113476488Y-88050758D01*
X113256697Y-87991866D01*
X113256693Y-87991865D01*
X113256692Y-87991865D01*
X113256691Y-87991864D01*
X113256686Y-87991864D01*
X113030002Y-87972032D01*
X113029998Y-87972032D01*
X112803313Y-87991864D01*
X112803302Y-87991866D01*
X112583511Y-88050758D01*
X112583502Y-88050761D01*
X112377267Y-88146931D01*
X112377265Y-88146932D01*
X112190858Y-88277454D01*
X112029954Y-88438358D01*
X111899432Y-88624765D01*
X111899431Y-88624767D01*
X111803261Y-88831002D01*
X111803258Y-88831011D01*
X111744366Y-89050802D01*
X111744364Y-89050813D01*
X111724532Y-89277498D01*
X111724532Y-89277503D01*
X111739129Y-89444361D01*
X111725362Y-89512860D01*
X111703282Y-89542848D01*
X110907047Y-90339084D01*
X110907045Y-90339086D01*
X110883594Y-90374185D01*
X110874238Y-90388189D01*
X110860954Y-90408070D01*
X110824914Y-90462007D01*
X110768343Y-90598582D01*
X110768340Y-90598592D01*
X110739500Y-90743579D01*
X110739500Y-130283500D01*
X110719815Y-130350539D01*
X110667011Y-130396294D01*
X110615500Y-130407500D01*
X97664500Y-130407500D01*
X97597461Y-130387815D01*
X97551706Y-130335011D01*
X97540500Y-130283500D01*
X97540500Y-92530013D01*
X100539500Y-92530013D01*
X100568445Y-92712765D01*
X100625619Y-92888732D01*
X100625620Y-92888735D01*
X100704854Y-93044239D01*
X100709622Y-93053596D01*
X100818379Y-93203287D01*
X100949213Y-93334121D01*
X101098904Y-93442878D01*
X101179763Y-93484077D01*
X101263764Y-93526879D01*
X101263767Y-93526880D01*
X101351750Y-93555467D01*
X101439736Y-93584055D01*
X101622486Y-93613000D01*
X101622487Y-93613000D01*
X101807513Y-93613000D01*
X101807514Y-93613000D01*
X101990264Y-93584055D01*
X102166235Y-93526879D01*
X102331096Y-93442878D01*
X102480787Y-93334121D01*
X102611621Y-93203287D01*
X102720378Y-93053596D01*
X102804379Y-92888735D01*
X102861555Y-92712764D01*
X102890500Y-92530014D01*
X102890500Y-92530013D01*
X105389500Y-92530013D01*
X105418445Y-92712765D01*
X105475619Y-92888732D01*
X105475620Y-92888735D01*
X105554854Y-93044239D01*
X105559622Y-93053596D01*
X105668379Y-93203287D01*
X105799213Y-93334121D01*
X105948904Y-93442878D01*
X106029763Y-93484077D01*
X106113764Y-93526879D01*
X106113767Y-93526880D01*
X106201750Y-93555467D01*
X106289736Y-93584055D01*
X106472486Y-93613000D01*
X106472487Y-93613000D01*
X106657513Y-93613000D01*
X106657514Y-93613000D01*
X106840264Y-93584055D01*
X107016235Y-93526879D01*
X107181096Y-93442878D01*
X107330787Y-93334121D01*
X107461621Y-93203287D01*
X107570378Y-93053596D01*
X107654379Y-92888735D01*
X107711555Y-92712764D01*
X107740500Y-92530014D01*
X107740500Y-92344986D01*
X107711555Y-92162236D01*
X107673202Y-92044197D01*
X107654380Y-91986267D01*
X107654379Y-91986264D01*
X107570377Y-91821403D01*
X107567542Y-91817501D01*
X107461621Y-91671713D01*
X107330787Y-91540879D01*
X107181096Y-91432122D01*
X107016235Y-91348120D01*
X107016232Y-91348119D01*
X106840265Y-91290945D01*
X106748889Y-91276472D01*
X106657514Y-91262000D01*
X106472486Y-91262000D01*
X106411569Y-91271648D01*
X106289734Y-91290945D01*
X106113767Y-91348119D01*
X106113764Y-91348120D01*
X105948903Y-91432122D01*
X105863499Y-91494172D01*
X105799213Y-91540879D01*
X105799211Y-91540881D01*
X105799210Y-91540881D01*
X105668381Y-91671710D01*
X105668381Y-91671711D01*
X105668379Y-91671713D01*
X105621672Y-91735999D01*
X105559622Y-91821403D01*
X105475620Y-91986264D01*
X105475619Y-91986267D01*
X105418445Y-92162234D01*
X105389500Y-92344986D01*
X105389500Y-92530013D01*
X102890500Y-92530013D01*
X102890500Y-92344986D01*
X102861555Y-92162236D01*
X102823202Y-92044197D01*
X102804380Y-91986267D01*
X102804379Y-91986264D01*
X102720377Y-91821403D01*
X102717542Y-91817501D01*
X102611621Y-91671713D01*
X102480787Y-91540879D01*
X102331096Y-91432122D01*
X102166235Y-91348120D01*
X102166232Y-91348119D01*
X101990265Y-91290945D01*
X101898889Y-91276472D01*
X101807514Y-91262000D01*
X101622486Y-91262000D01*
X101561569Y-91271648D01*
X101439734Y-91290945D01*
X101263767Y-91348119D01*
X101263764Y-91348120D01*
X101098903Y-91432122D01*
X101013499Y-91494172D01*
X100949213Y-91540879D01*
X100949211Y-91540881D01*
X100949210Y-91540881D01*
X100818381Y-91671710D01*
X100818381Y-91671711D01*
X100818379Y-91671713D01*
X100771672Y-91735999D01*
X100709622Y-91821403D01*
X100625620Y-91986264D01*
X100625619Y-91986267D01*
X100568445Y-92162234D01*
X100539500Y-92344986D01*
X100539500Y-92530013D01*
X97540500Y-92530013D01*
X97540500Y-91010241D01*
X97540501Y-91010220D01*
X97540501Y-90880891D01*
X97516463Y-90760048D01*
X97515613Y-90757997D01*
X97515608Y-90757986D01*
X97474631Y-90659057D01*
X97474629Y-90659052D01*
X97469314Y-90646219D01*
X97469311Y-90646214D01*
X97447592Y-90613710D01*
X97400858Y-90543767D01*
X97400855Y-90543763D01*
X96586819Y-89729727D01*
X96553334Y-89668404D01*
X96550500Y-89642046D01*
X96550500Y-89513786D01*
X100064500Y-89513786D01*
X100096373Y-89715027D01*
X100097754Y-89723743D01*
X100099698Y-89729727D01*
X100163444Y-89925914D01*
X100259951Y-90115320D01*
X100384890Y-90287286D01*
X100535213Y-90437609D01*
X100707179Y-90562548D01*
X100707181Y-90562549D01*
X100707184Y-90562551D01*
X100896588Y-90659057D01*
X101098757Y-90724746D01*
X101308713Y-90758000D01*
X101308714Y-90758000D01*
X101521286Y-90758000D01*
X101521287Y-90758000D01*
X101731243Y-90724746D01*
X101933412Y-90659057D01*
X102122816Y-90562551D01*
X102236941Y-90479635D01*
X102294786Y-90437609D01*
X102294788Y-90437606D01*
X102294792Y-90437604D01*
X102445104Y-90287292D01*
X102445106Y-90287288D01*
X102445109Y-90287286D01*
X102570048Y-90115320D01*
X102570047Y-90115320D01*
X102570051Y-90115316D01*
X102666557Y-89925912D01*
X102732246Y-89723743D01*
X102765500Y-89513787D01*
X102765500Y-89513786D01*
X105514500Y-89513786D01*
X105546373Y-89715027D01*
X105547754Y-89723743D01*
X105549698Y-89729727D01*
X105613444Y-89925914D01*
X105709951Y-90115320D01*
X105834890Y-90287286D01*
X105985213Y-90437609D01*
X106157179Y-90562548D01*
X106157181Y-90562549D01*
X106157184Y-90562551D01*
X106346588Y-90659057D01*
X106548757Y-90724746D01*
X106758713Y-90758000D01*
X106758714Y-90758000D01*
X106971286Y-90758000D01*
X106971287Y-90758000D01*
X107181243Y-90724746D01*
X107383412Y-90659057D01*
X107572816Y-90562551D01*
X107686941Y-90479635D01*
X107744786Y-90437609D01*
X107744788Y-90437606D01*
X107744792Y-90437604D01*
X107895104Y-90287292D01*
X107895106Y-90287288D01*
X107895109Y-90287286D01*
X108020048Y-90115320D01*
X108020047Y-90115320D01*
X108020051Y-90115316D01*
X108116557Y-89925912D01*
X108182246Y-89723743D01*
X108215500Y-89513787D01*
X108215500Y-89301213D01*
X108182246Y-89091257D01*
X108116557Y-88889088D01*
X108020051Y-88699684D01*
X108020049Y-88699681D01*
X108020048Y-88699679D01*
X107895109Y-88527713D01*
X107744786Y-88377390D01*
X107572820Y-88252451D01*
X107383414Y-88155944D01*
X107383413Y-88155943D01*
X107383412Y-88155943D01*
X107181243Y-88090254D01*
X107181241Y-88090253D01*
X107181240Y-88090253D01*
X107019957Y-88064708D01*
X106971287Y-88057000D01*
X106758713Y-88057000D01*
X106710042Y-88064708D01*
X106548760Y-88090253D01*
X106346585Y-88155944D01*
X106157179Y-88252451D01*
X105985213Y-88377390D01*
X105834890Y-88527713D01*
X105709951Y-88699679D01*
X105613444Y-88889085D01*
X105547753Y-89091260D01*
X105514500Y-89301213D01*
X105514500Y-89513786D01*
X102765500Y-89513786D01*
X102765500Y-89301213D01*
X102732246Y-89091257D01*
X102666557Y-88889088D01*
X102570051Y-88699684D01*
X102570049Y-88699681D01*
X102570048Y-88699679D01*
X102445109Y-88527713D01*
X102294786Y-88377390D01*
X102122820Y-88252451D01*
X101933414Y-88155944D01*
X101933413Y-88155943D01*
X101933412Y-88155943D01*
X101731243Y-88090254D01*
X101731241Y-88090253D01*
X101731240Y-88090253D01*
X101569957Y-88064708D01*
X101521287Y-88057000D01*
X101308713Y-88057000D01*
X101260042Y-88064708D01*
X101098760Y-88090253D01*
X100896585Y-88155944D01*
X100707179Y-88252451D01*
X100535213Y-88377390D01*
X100384890Y-88527713D01*
X100259951Y-88699679D01*
X100163444Y-88889085D01*
X100097753Y-89091260D01*
X100064500Y-89301213D01*
X100064500Y-89513786D01*
X96550500Y-89513786D01*
X96550500Y-88620886D01*
X96544086Y-88550307D01*
X96544086Y-88550304D01*
X96493478Y-88387894D01*
X96405472Y-88242315D01*
X96405470Y-88242313D01*
X96405469Y-88242311D01*
X96285188Y-88122030D01*
X96232624Y-88090254D01*
X96139606Y-88034022D01*
X95977196Y-87983414D01*
X95977194Y-87983413D01*
X95977192Y-87983413D01*
X95927778Y-87978923D01*
X95906616Y-87977000D01*
X94593384Y-87977000D01*
X94574145Y-87978748D01*
X94522807Y-87983413D01*
X94360393Y-88034022D01*
X94214811Y-88122030D01*
X94094530Y-88242311D01*
X94006522Y-88387893D01*
X93955913Y-88550307D01*
X93949500Y-88620886D01*
X93949500Y-89934113D01*
X93955913Y-90004692D01*
X93955913Y-90004694D01*
X93955914Y-90004696D01*
X93968702Y-90045735D01*
X94006522Y-90167106D01*
X94094530Y-90312688D01*
X94214811Y-90432969D01*
X94214813Y-90432970D01*
X94214815Y-90432972D01*
X94360394Y-90520978D01*
X94447250Y-90548043D01*
X94505397Y-90586780D01*
X94533372Y-90650805D01*
X94522291Y-90719790D01*
X94481483Y-90768003D01*
X94410858Y-90817454D01*
X94249954Y-90978358D01*
X94119432Y-91164765D01*
X94119431Y-91164767D01*
X94023261Y-91371002D01*
X94023258Y-91371011D01*
X93964366Y-91590802D01*
X93964364Y-91590813D01*
X93944532Y-91817498D01*
X93944532Y-91817501D01*
X93964364Y-92044186D01*
X93964366Y-92044197D01*
X94023258Y-92263988D01*
X94023261Y-92263997D01*
X94119431Y-92470232D01*
X94119432Y-92470234D01*
X94249954Y-92656641D01*
X94410858Y-92817545D01*
X94410861Y-92817547D01*
X94597266Y-92948068D01*
X94648389Y-92971907D01*
X94648391Y-92971908D01*
X94700831Y-93018080D01*
X94719983Y-93085273D01*
X94699767Y-93152155D01*
X94649793Y-93196008D01*
X94632031Y-93204562D01*
X94520618Y-93274565D01*
X95120590Y-93874537D01*
X95057007Y-93891575D01*
X94942993Y-93957401D01*
X94849901Y-94050493D01*
X94784075Y-94164507D01*
X94767037Y-94228090D01*
X94167066Y-93628119D01*
X94097066Y-93739523D01*
X94048002Y-93841405D01*
X93988461Y-94011566D01*
X93988459Y-94011572D01*
X93963298Y-94121810D01*
X93963296Y-94121826D01*
X93943113Y-94300952D01*
X93943113Y-94414047D01*
X93963296Y-94593173D01*
X93963298Y-94593189D01*
X93988459Y-94703427D01*
X93988461Y-94703433D01*
X94048002Y-94873594D01*
X94097066Y-94975476D01*
X94167066Y-95086879D01*
X94767037Y-94486909D01*
X94784075Y-94550493D01*
X94849901Y-94664507D01*
X94942993Y-94757599D01*
X95057007Y-94823425D01*
X95120590Y-94840462D01*
X94520619Y-95440433D01*
X94632023Y-95510433D01*
X94649789Y-95518989D01*
X94701649Y-95565812D01*
X94719961Y-95633239D01*
X94698913Y-95699863D01*
X94648393Y-95743091D01*
X94597264Y-95766933D01*
X94410858Y-95897454D01*
X94249954Y-96058358D01*
X94119432Y-96244765D01*
X94119431Y-96244767D01*
X94023261Y-96451002D01*
X94023258Y-96451011D01*
X93964366Y-96670802D01*
X93964364Y-96670813D01*
X93944532Y-96897498D01*
X93944532Y-96897501D01*
X93964364Y-97124186D01*
X93964366Y-97124197D01*
X94023258Y-97343988D01*
X94023261Y-97343997D01*
X94119431Y-97550232D01*
X94119432Y-97550234D01*
X94249954Y-97736641D01*
X94410858Y-97897545D01*
X94457693Y-97930339D01*
X94597266Y-98028068D01*
X94655275Y-98055118D01*
X94707714Y-98101291D01*
X94726866Y-98168484D01*
X94706650Y-98235365D01*
X94655275Y-98279882D01*
X94597267Y-98306931D01*
X94597265Y-98306932D01*
X94410858Y-98437454D01*
X94249954Y-98598358D01*
X94119432Y-98784765D01*
X94119431Y-98784767D01*
X94023261Y-98991002D01*
X94023258Y-98991011D01*
X93964366Y-99210802D01*
X93964364Y-99210813D01*
X93944532Y-99437498D01*
X93944532Y-99437501D01*
X93964364Y-99664186D01*
X93964366Y-99664197D01*
X94023258Y-99883988D01*
X94023261Y-99883997D01*
X94119431Y-100090232D01*
X94119432Y-100090234D01*
X94249954Y-100276641D01*
X94410858Y-100437545D01*
X94410861Y-100437547D01*
X94597266Y-100568068D01*
X94655275Y-100595118D01*
X94707714Y-100641291D01*
X94726866Y-100708484D01*
X94706650Y-100775365D01*
X94655275Y-100819882D01*
X94597267Y-100846931D01*
X94597265Y-100846932D01*
X94410858Y-100977454D01*
X94249954Y-101138358D01*
X94119432Y-101324765D01*
X94119431Y-101324767D01*
X94023261Y-101531002D01*
X94023258Y-101531011D01*
X93964366Y-101750802D01*
X93964364Y-101750813D01*
X93944532Y-101977498D01*
X93944532Y-101977501D01*
X93964364Y-102204186D01*
X93964366Y-102204197D01*
X94023258Y-102423988D01*
X94023261Y-102423997D01*
X94119431Y-102630232D01*
X94119432Y-102630234D01*
X94249954Y-102816641D01*
X94410858Y-102977545D01*
X94410861Y-102977547D01*
X94597266Y-103108068D01*
X94655275Y-103135118D01*
X94707714Y-103181291D01*
X94726866Y-103248484D01*
X94706650Y-103315365D01*
X94655275Y-103359882D01*
X94597267Y-103386931D01*
X94597265Y-103386932D01*
X94410858Y-103517454D01*
X94249954Y-103678358D01*
X94119432Y-103864765D01*
X94119431Y-103864767D01*
X94023261Y-104071002D01*
X94023258Y-104071011D01*
X93964366Y-104290802D01*
X93964364Y-104290813D01*
X93944532Y-104517498D01*
X93944532Y-104517501D01*
X93964364Y-104744186D01*
X93964366Y-104744197D01*
X94023258Y-104963988D01*
X94023261Y-104963997D01*
X94119431Y-105170232D01*
X94119432Y-105170234D01*
X94249954Y-105356641D01*
X94410858Y-105517545D01*
X94410861Y-105517547D01*
X94597266Y-105648068D01*
X94648391Y-105671908D01*
X94700831Y-105718080D01*
X94719983Y-105785273D01*
X94699767Y-105852155D01*
X94649793Y-105896008D01*
X94632031Y-105904562D01*
X94520618Y-105974565D01*
X95120590Y-106574537D01*
X95057007Y-106591575D01*
X94942993Y-106657401D01*
X94849901Y-106750493D01*
X94784075Y-106864507D01*
X94767037Y-106928090D01*
X94167066Y-106328119D01*
X94097066Y-106439523D01*
X94048002Y-106541405D01*
X93988461Y-106711566D01*
X93988459Y-106711572D01*
X93963298Y-106821810D01*
X93963296Y-106821826D01*
X93943113Y-107000952D01*
X93943113Y-107114047D01*
X93963296Y-107293173D01*
X93963298Y-107293189D01*
X93988459Y-107403427D01*
X93988461Y-107403433D01*
X94048002Y-107573594D01*
X94097066Y-107675476D01*
X94167066Y-107786879D01*
X94767037Y-107186909D01*
X94784075Y-107250493D01*
X94849901Y-107364507D01*
X94942993Y-107457599D01*
X95057007Y-107523425D01*
X95120590Y-107540462D01*
X94520619Y-108140433D01*
X94632023Y-108210433D01*
X94649789Y-108218989D01*
X94701649Y-108265812D01*
X94719961Y-108333239D01*
X94698913Y-108399863D01*
X94648393Y-108443091D01*
X94597264Y-108466933D01*
X94410858Y-108597454D01*
X94249954Y-108758358D01*
X94119432Y-108944765D01*
X94119431Y-108944767D01*
X94023261Y-109151002D01*
X94023258Y-109151011D01*
X93964366Y-109370802D01*
X93964364Y-109370813D01*
X93944532Y-109597498D01*
X93944532Y-109597501D01*
X93964364Y-109824186D01*
X93964366Y-109824197D01*
X94023258Y-110043988D01*
X94023261Y-110043997D01*
X94119431Y-110250232D01*
X94119432Y-110250234D01*
X94249954Y-110436641D01*
X94410858Y-110597545D01*
X94457693Y-110630339D01*
X94597266Y-110728068D01*
X94655275Y-110755118D01*
X94707714Y-110801291D01*
X94726866Y-110868484D01*
X94706650Y-110935365D01*
X94655275Y-110979882D01*
X94597267Y-111006931D01*
X94597265Y-111006932D01*
X94410858Y-111137454D01*
X94249954Y-111298358D01*
X94119432Y-111484765D01*
X94119431Y-111484767D01*
X94023261Y-111691002D01*
X94023258Y-111691011D01*
X93964366Y-111910802D01*
X93964364Y-111910813D01*
X93944532Y-112137498D01*
X93944532Y-112137501D01*
X93964364Y-112364186D01*
X93964366Y-112364197D01*
X94023258Y-112583988D01*
X94023261Y-112583997D01*
X94119431Y-112790232D01*
X94119432Y-112790234D01*
X94249954Y-112976641D01*
X94410858Y-113137545D01*
X94410861Y-113137547D01*
X94597266Y-113268068D01*
X94655275Y-113295118D01*
X94707714Y-113341291D01*
X94726866Y-113408484D01*
X94706650Y-113475365D01*
X94655275Y-113519882D01*
X94597267Y-113546931D01*
X94597265Y-113546932D01*
X94410858Y-113677454D01*
X94249954Y-113838358D01*
X94119432Y-114024765D01*
X94119431Y-114024767D01*
X94023261Y-114231002D01*
X94023258Y-114231011D01*
X93964366Y-114450802D01*
X93964364Y-114450813D01*
X93944532Y-114677498D01*
X93944532Y-114677501D01*
X93964364Y-114904186D01*
X93964366Y-114904197D01*
X94023258Y-115123988D01*
X94023261Y-115123997D01*
X94119431Y-115330232D01*
X94119432Y-115330234D01*
X94249954Y-115516641D01*
X94410858Y-115677545D01*
X94410861Y-115677547D01*
X94597266Y-115808068D01*
X94655275Y-115835118D01*
X94707714Y-115881291D01*
X94726866Y-115948484D01*
X94706650Y-116015365D01*
X94655275Y-116059882D01*
X94597267Y-116086931D01*
X94597265Y-116086932D01*
X94410858Y-116217454D01*
X94249954Y-116378358D01*
X94119432Y-116564765D01*
X94119431Y-116564767D01*
X94023261Y-116771002D01*
X94023258Y-116771011D01*
X93964366Y-116990802D01*
X93964364Y-116990813D01*
X93944532Y-117217498D01*
X93944532Y-117217501D01*
X93964364Y-117444186D01*
X93964366Y-117444197D01*
X94023258Y-117663988D01*
X94023261Y-117663997D01*
X94119431Y-117870232D01*
X94119432Y-117870234D01*
X94249954Y-118056641D01*
X94410858Y-118217545D01*
X94410861Y-118217547D01*
X94597266Y-118348068D01*
X94648389Y-118371907D01*
X94648391Y-118371908D01*
X94700831Y-118418080D01*
X94719983Y-118485273D01*
X94699767Y-118552155D01*
X94649793Y-118596008D01*
X94632031Y-118604562D01*
X94520618Y-118674565D01*
X95120590Y-119274537D01*
X95057007Y-119291575D01*
X94942993Y-119357401D01*
X94849901Y-119450493D01*
X94784075Y-119564507D01*
X94767037Y-119628090D01*
X94167066Y-119028119D01*
X94097066Y-119139523D01*
X94048002Y-119241405D01*
X93988461Y-119411566D01*
X93988459Y-119411572D01*
X93963298Y-119521810D01*
X93963296Y-119521826D01*
X93943113Y-119700952D01*
X93943113Y-119814047D01*
X93963296Y-119993173D01*
X93963298Y-119993189D01*
X93988459Y-120103427D01*
X93988461Y-120103433D01*
X94048002Y-120273594D01*
X94097066Y-120375476D01*
X94167066Y-120486879D01*
X94767037Y-119886909D01*
X94784075Y-119950493D01*
X94849901Y-120064507D01*
X94942993Y-120157599D01*
X95057007Y-120223425D01*
X95120590Y-120240462D01*
X94520619Y-120840433D01*
X94632023Y-120910433D01*
X94649789Y-120918989D01*
X94701649Y-120965812D01*
X94719961Y-121033239D01*
X94698913Y-121099863D01*
X94648393Y-121143091D01*
X94597264Y-121166933D01*
X94410858Y-121297454D01*
X94249954Y-121458358D01*
X94119432Y-121644765D01*
X94119431Y-121644767D01*
X94023261Y-121851002D01*
X94023258Y-121851011D01*
X93964366Y-122070802D01*
X93964364Y-122070813D01*
X93944532Y-122297498D01*
X93944532Y-122297501D01*
X93964364Y-122524186D01*
X93964366Y-122524197D01*
X94023258Y-122743988D01*
X94023261Y-122743997D01*
X94119431Y-122950232D01*
X94119432Y-122950234D01*
X94249954Y-123136641D01*
X94410858Y-123297545D01*
X94457693Y-123330339D01*
X94597266Y-123428068D01*
X94655275Y-123455118D01*
X94707714Y-123501291D01*
X94726866Y-123568484D01*
X94706650Y-123635365D01*
X94655275Y-123679882D01*
X94597267Y-123706931D01*
X94597265Y-123706932D01*
X94410858Y-123837454D01*
X94249954Y-123998358D01*
X94119432Y-124184765D01*
X94119431Y-124184767D01*
X94023261Y-124391002D01*
X94023258Y-124391011D01*
X93964366Y-124610802D01*
X93964364Y-124610813D01*
X93944532Y-124837498D01*
X93944532Y-124837501D01*
X93964364Y-125064186D01*
X93964366Y-125064197D01*
X94023258Y-125283988D01*
X94023261Y-125283997D01*
X94119431Y-125490232D01*
X94119432Y-125490234D01*
X94249954Y-125676641D01*
X94410858Y-125837545D01*
X94410861Y-125837547D01*
X94597266Y-125968068D01*
X94655275Y-125995118D01*
X94707714Y-126041291D01*
X94726866Y-126108484D01*
X94706650Y-126175365D01*
X94655275Y-126219882D01*
X94597267Y-126246931D01*
X94597265Y-126246932D01*
X94410858Y-126377454D01*
X94249954Y-126538358D01*
X94119432Y-126724765D01*
X94119431Y-126724767D01*
X94023261Y-126931002D01*
X94023258Y-126931011D01*
X93964366Y-127150802D01*
X93964364Y-127150813D01*
X93944532Y-127377498D01*
X93944532Y-127377501D01*
X93964364Y-127604186D01*
X93964366Y-127604197D01*
X94023258Y-127823988D01*
X94023261Y-127823997D01*
X94119431Y-128030232D01*
X94119432Y-128030234D01*
X94249954Y-128216641D01*
X94410858Y-128377545D01*
X94410861Y-128377547D01*
X94597266Y-128508068D01*
X94655275Y-128535118D01*
X94707714Y-128581291D01*
X94726866Y-128648484D01*
X94706650Y-128715365D01*
X94655275Y-128759882D01*
X94597267Y-128786931D01*
X94597265Y-128786932D01*
X94410858Y-128917454D01*
X94249954Y-129078358D01*
X94119432Y-129264765D01*
X94119431Y-129264767D01*
X94023261Y-129471002D01*
X94023258Y-129471011D01*
X93964366Y-129690802D01*
X93964364Y-129690813D01*
X93944532Y-129917498D01*
X93944532Y-129917501D01*
X93964364Y-130144186D01*
X93964366Y-130144197D01*
X94023258Y-130363988D01*
X94023261Y-130363997D01*
X94119431Y-130570232D01*
X94119432Y-130570234D01*
X94249954Y-130756641D01*
X94410858Y-130917545D01*
X94410861Y-130917547D01*
X94597266Y-131048068D01*
X94648389Y-131071907D01*
X94648391Y-131071908D01*
X94700831Y-131118080D01*
X94719983Y-131185273D01*
X94699767Y-131252155D01*
X94649793Y-131296008D01*
X94632031Y-131304562D01*
X94520618Y-131374565D01*
X95120590Y-131974537D01*
X95057007Y-131991575D01*
X94942993Y-132057401D01*
X94849901Y-132150493D01*
X94784075Y-132264507D01*
X94767037Y-132328090D01*
X94167066Y-131728119D01*
X94097066Y-131839523D01*
X94048002Y-131941405D01*
X93988461Y-132111566D01*
X93988459Y-132111572D01*
X93963298Y-132221810D01*
X93963296Y-132221826D01*
X93943113Y-132400952D01*
X93943113Y-132514047D01*
X76835000Y-132514047D01*
X76835000Y-125431572D01*
X76854685Y-125364533D01*
X76907489Y-125318778D01*
X76976647Y-125308834D01*
X77040203Y-125337859D01*
X77077977Y-125396637D01*
X77081939Y-125415387D01*
X77099942Y-125552137D01*
X77159318Y-125773730D01*
X77247102Y-125985659D01*
X77247106Y-125985668D01*
X77361809Y-126184338D01*
X77501455Y-126366329D01*
X77501461Y-126366336D01*
X77663663Y-126528538D01*
X77663670Y-126528544D01*
X77845661Y-126668190D01*
X78044331Y-126782893D01*
X78044340Y-126782897D01*
X78256269Y-126870681D01*
X78477859Y-126930056D01*
X78477864Y-126930057D01*
X78569999Y-126942186D01*
X78570000Y-126942186D01*
X78570000Y-125643012D01*
X78627007Y-125675925D01*
X78754174Y-125710000D01*
X78885826Y-125710000D01*
X79012993Y-125675925D01*
X79070000Y-125643012D01*
X79070000Y-126942186D01*
X79162135Y-126930057D01*
X79162140Y-126930056D01*
X79383730Y-126870681D01*
X79595659Y-126782897D01*
X79595668Y-126782893D01*
X79794338Y-126668190D01*
X79976329Y-126528544D01*
X79976336Y-126528538D01*
X80138538Y-126366336D01*
X80138544Y-126366329D01*
X80278190Y-126184338D01*
X80392893Y-125985668D01*
X80392897Y-125985659D01*
X80480681Y-125773730D01*
X80540057Y-125552137D01*
X80569994Y-125324741D01*
X82569500Y-125324741D01*
X82591289Y-125490234D01*
X82599452Y-125552238D01*
X82641724Y-125710000D01*
X82658842Y-125773887D01*
X82746650Y-125985876D01*
X82746657Y-125985890D01*
X82861392Y-126184617D01*
X83001081Y-126366661D01*
X83001089Y-126366670D01*
X83163330Y-126528911D01*
X83163338Y-126528918D01*
X83345382Y-126668607D01*
X83345385Y-126668608D01*
X83345388Y-126668611D01*
X83544112Y-126783344D01*
X83544117Y-126783346D01*
X83544123Y-126783349D01*
X83635480Y-126821190D01*
X83756113Y-126871158D01*
X83977762Y-126930548D01*
X84205266Y-126960500D01*
X84205273Y-126960500D01*
X84434727Y-126960500D01*
X84434734Y-126960500D01*
X84662238Y-126930548D01*
X84883887Y-126871158D01*
X85095888Y-126783344D01*
X85294612Y-126668611D01*
X85476661Y-126528919D01*
X85476665Y-126528914D01*
X85476670Y-126528911D01*
X85638911Y-126366670D01*
X85638914Y-126366665D01*
X85638919Y-126366661D01*
X85778611Y-126184612D01*
X85893344Y-125985888D01*
X85981158Y-125773887D01*
X86040548Y-125552238D01*
X86070500Y-125324734D01*
X86070500Y-125209500D01*
X86090185Y-125142461D01*
X86142989Y-125096706D01*
X86194500Y-125085500D01*
X86945500Y-125085500D01*
X87012539Y-125105185D01*
X87058294Y-125157989D01*
X87069500Y-125209500D01*
X87069500Y-125324741D01*
X87091289Y-125490234D01*
X87099452Y-125552238D01*
X87141724Y-125710000D01*
X87158842Y-125773887D01*
X87246650Y-125985876D01*
X87246657Y-125985890D01*
X87361392Y-126184617D01*
X87501081Y-126366661D01*
X87501089Y-126366670D01*
X87663330Y-126528911D01*
X87663338Y-126528918D01*
X87845382Y-126668607D01*
X87845385Y-126668608D01*
X87845388Y-126668611D01*
X88044112Y-126783344D01*
X88044117Y-126783346D01*
X88044123Y-126783349D01*
X88135480Y-126821190D01*
X88256113Y-126871158D01*
X88477762Y-126930548D01*
X88705266Y-126960500D01*
X88705273Y-126960500D01*
X88934727Y-126960500D01*
X88934734Y-126960500D01*
X89162238Y-126930548D01*
X89383887Y-126871158D01*
X89595888Y-126783344D01*
X89794612Y-126668611D01*
X89976661Y-126528919D01*
X89976665Y-126528914D01*
X89976670Y-126528911D01*
X90138911Y-126366670D01*
X90138914Y-126366665D01*
X90138919Y-126366661D01*
X90278611Y-126184612D01*
X90393344Y-125985888D01*
X90481158Y-125773887D01*
X90540548Y-125552238D01*
X90570500Y-125324734D01*
X90570500Y-123595266D01*
X90540548Y-123367762D01*
X90481158Y-123146113D01*
X90400022Y-122950234D01*
X90393349Y-122934123D01*
X90393346Y-122934117D01*
X90393344Y-122934112D01*
X90278611Y-122735388D01*
X90278608Y-122735385D01*
X90278607Y-122735382D01*
X90139173Y-122553670D01*
X90138919Y-122553339D01*
X90138918Y-122553338D01*
X90138911Y-122553330D01*
X89976670Y-122391089D01*
X89976661Y-122391081D01*
X89794617Y-122251392D01*
X89595890Y-122136657D01*
X89595876Y-122136650D01*
X89383887Y-122048842D01*
X89162238Y-121989452D01*
X89124215Y-121984446D01*
X88934741Y-121959500D01*
X88934734Y-121959500D01*
X88705266Y-121959500D01*
X88705258Y-121959500D01*
X88488715Y-121988009D01*
X88477762Y-121989452D01*
X88384076Y-122014554D01*
X88256112Y-122048842D01*
X88044123Y-122136650D01*
X88044109Y-122136657D01*
X87845382Y-122251392D01*
X87663338Y-122391081D01*
X87501081Y-122553338D01*
X87361392Y-122735382D01*
X87246657Y-122934109D01*
X87246650Y-122934123D01*
X87158842Y-123146112D01*
X87099453Y-123367759D01*
X87099451Y-123367770D01*
X87069500Y-123595258D01*
X87069500Y-123710500D01*
X87049815Y-123777539D01*
X86997011Y-123823294D01*
X86945500Y-123834500D01*
X86194500Y-123834500D01*
X86127461Y-123814815D01*
X86081706Y-123762011D01*
X86070500Y-123710500D01*
X86070500Y-123595272D01*
X86070499Y-123595258D01*
X86061033Y-123523362D01*
X86040548Y-123367762D01*
X85981158Y-123146113D01*
X85900022Y-122950234D01*
X85893349Y-122934123D01*
X85893346Y-122934117D01*
X85893344Y-122934112D01*
X85778611Y-122735388D01*
X85778608Y-122735385D01*
X85778607Y-122735382D01*
X85639173Y-122553670D01*
X85638919Y-122553339D01*
X85638918Y-122553338D01*
X85638911Y-122553330D01*
X85476670Y-122391089D01*
X85476661Y-122391081D01*
X85294617Y-122251392D01*
X85095890Y-122136657D01*
X85095876Y-122136650D01*
X84883887Y-122048842D01*
X84662238Y-121989452D01*
X84624215Y-121984446D01*
X84434741Y-121959500D01*
X84434734Y-121959500D01*
X84205266Y-121959500D01*
X84205258Y-121959500D01*
X83988715Y-121988009D01*
X83977762Y-121989452D01*
X83884076Y-122014554D01*
X83756112Y-122048842D01*
X83544123Y-122136650D01*
X83544109Y-122136657D01*
X83345382Y-122251392D01*
X83163338Y-122391081D01*
X83001081Y-122553338D01*
X82861392Y-122735382D01*
X82746657Y-122934109D01*
X82746650Y-122934123D01*
X82658842Y-123146112D01*
X82599453Y-123367759D01*
X82599451Y-123367770D01*
X82569500Y-123595258D01*
X82569500Y-125324741D01*
X80569994Y-125324741D01*
X80569998Y-125324710D01*
X80570000Y-125324694D01*
X80570000Y-124710000D01*
X79320000Y-124710000D01*
X79320000Y-124210000D01*
X80570000Y-124210000D01*
X80570000Y-123595305D01*
X80569998Y-123595289D01*
X80540057Y-123367862D01*
X80480681Y-123146269D01*
X80392897Y-122934340D01*
X80392893Y-122934331D01*
X80278190Y-122735661D01*
X80138544Y-122553670D01*
X80138538Y-122553663D01*
X79976336Y-122391461D01*
X79976329Y-122391455D01*
X79794338Y-122251809D01*
X79595668Y-122137106D01*
X79595659Y-122137102D01*
X79383730Y-122049318D01*
X79162137Y-121989942D01*
X79070000Y-121977811D01*
X79070000Y-123276988D01*
X79012993Y-123244075D01*
X78885826Y-123210000D01*
X78754174Y-123210000D01*
X78627007Y-123244075D01*
X78570000Y-123276988D01*
X78570000Y-121977811D01*
X78569999Y-121977811D01*
X78477862Y-121989942D01*
X78256269Y-122049318D01*
X78044340Y-122137102D01*
X78044331Y-122137106D01*
X77845661Y-122251809D01*
X77663670Y-122391455D01*
X77663663Y-122391461D01*
X77501461Y-122553663D01*
X77501455Y-122553670D01*
X77361809Y-122735661D01*
X77247106Y-122934331D01*
X77247102Y-122934340D01*
X77159318Y-123146269D01*
X77099942Y-123367862D01*
X77081939Y-123504612D01*
X77053672Y-123568509D01*
X76995348Y-123606980D01*
X76925483Y-123607811D01*
X76866260Y-123570739D01*
X76836481Y-123507533D01*
X76835000Y-123488427D01*
X76835000Y-112731572D01*
X76854685Y-112664533D01*
X76907489Y-112618778D01*
X76976647Y-112608834D01*
X77040203Y-112637859D01*
X77077977Y-112696637D01*
X77081939Y-112715387D01*
X77099942Y-112852137D01*
X77159318Y-113073730D01*
X77247102Y-113285659D01*
X77247106Y-113285668D01*
X77361809Y-113484338D01*
X77501455Y-113666329D01*
X77501461Y-113666336D01*
X77663663Y-113828538D01*
X77663670Y-113828544D01*
X77845661Y-113968190D01*
X78044331Y-114082893D01*
X78044340Y-114082897D01*
X78256269Y-114170681D01*
X78477859Y-114230056D01*
X78477864Y-114230057D01*
X78569999Y-114242186D01*
X78570000Y-114242186D01*
X78570000Y-112943012D01*
X78627007Y-112975925D01*
X78754174Y-113010000D01*
X78885826Y-113010000D01*
X79012993Y-112975925D01*
X79070000Y-112943012D01*
X79070000Y-114242186D01*
X79162135Y-114230057D01*
X79162140Y-114230056D01*
X79383730Y-114170681D01*
X79595659Y-114082897D01*
X79595668Y-114082893D01*
X79794338Y-113968190D01*
X79976329Y-113828544D01*
X79976336Y-113828538D01*
X80138538Y-113666336D01*
X80138544Y-113666329D01*
X80278190Y-113484338D01*
X80392893Y-113285668D01*
X80392897Y-113285659D01*
X80480681Y-113073730D01*
X80540057Y-112852137D01*
X80569994Y-112624741D01*
X82569500Y-112624741D01*
X82591289Y-112790234D01*
X82599452Y-112852238D01*
X82641724Y-113010000D01*
X82658842Y-113073887D01*
X82746650Y-113285876D01*
X82746657Y-113285890D01*
X82861392Y-113484617D01*
X83001081Y-113666661D01*
X83001089Y-113666670D01*
X83163330Y-113828911D01*
X83163338Y-113828918D01*
X83345382Y-113968607D01*
X83345385Y-113968608D01*
X83345388Y-113968611D01*
X83544112Y-114083344D01*
X83544117Y-114083346D01*
X83544123Y-114083349D01*
X83635480Y-114121190D01*
X83756113Y-114171158D01*
X83977762Y-114230548D01*
X84205266Y-114260500D01*
X84205273Y-114260500D01*
X84434727Y-114260500D01*
X84434734Y-114260500D01*
X84662238Y-114230548D01*
X84883887Y-114171158D01*
X85095888Y-114083344D01*
X85294612Y-113968611D01*
X85476661Y-113828919D01*
X85476665Y-113828914D01*
X85476670Y-113828911D01*
X85638911Y-113666670D01*
X85638914Y-113666665D01*
X85638919Y-113666661D01*
X85778611Y-113484612D01*
X85893344Y-113285888D01*
X85981158Y-113073887D01*
X86040548Y-112852238D01*
X86070500Y-112624734D01*
X86070500Y-112509500D01*
X86090185Y-112442461D01*
X86142989Y-112396706D01*
X86194500Y-112385500D01*
X86945500Y-112385500D01*
X87012539Y-112405185D01*
X87058294Y-112457989D01*
X87069500Y-112509500D01*
X87069500Y-112624741D01*
X87091289Y-112790234D01*
X87099452Y-112852238D01*
X87141724Y-113010000D01*
X87158842Y-113073887D01*
X87246650Y-113285876D01*
X87246657Y-113285890D01*
X87361392Y-113484617D01*
X87501081Y-113666661D01*
X87501089Y-113666670D01*
X87663330Y-113828911D01*
X87663338Y-113828918D01*
X87845382Y-113968607D01*
X87845385Y-113968608D01*
X87845388Y-113968611D01*
X88044112Y-114083344D01*
X88044117Y-114083346D01*
X88044123Y-114083349D01*
X88135480Y-114121190D01*
X88256113Y-114171158D01*
X88477762Y-114230548D01*
X88705266Y-114260500D01*
X88705273Y-114260500D01*
X88934727Y-114260500D01*
X88934734Y-114260500D01*
X89162238Y-114230548D01*
X89383887Y-114171158D01*
X89595888Y-114083344D01*
X89794612Y-113968611D01*
X89976661Y-113828919D01*
X89976665Y-113828914D01*
X89976670Y-113828911D01*
X90138911Y-113666670D01*
X90138914Y-113666665D01*
X90138919Y-113666661D01*
X90278611Y-113484612D01*
X90393344Y-113285888D01*
X90481158Y-113073887D01*
X90540548Y-112852238D01*
X90570500Y-112624734D01*
X90570500Y-110895266D01*
X90540548Y-110667762D01*
X90481158Y-110446113D01*
X90400022Y-110250234D01*
X90393349Y-110234123D01*
X90393346Y-110234117D01*
X90393344Y-110234112D01*
X90278611Y-110035388D01*
X90278608Y-110035385D01*
X90278607Y-110035382D01*
X90139173Y-109853670D01*
X90138919Y-109853339D01*
X90138918Y-109853338D01*
X90138911Y-109853330D01*
X89976670Y-109691089D01*
X89976661Y-109691081D01*
X89794617Y-109551392D01*
X89595890Y-109436657D01*
X89595876Y-109436650D01*
X89383887Y-109348842D01*
X89162238Y-109289452D01*
X89124215Y-109284446D01*
X88934741Y-109259500D01*
X88934734Y-109259500D01*
X88705266Y-109259500D01*
X88705258Y-109259500D01*
X88488715Y-109288009D01*
X88477762Y-109289452D01*
X88384076Y-109314554D01*
X88256112Y-109348842D01*
X88044123Y-109436650D01*
X88044109Y-109436657D01*
X87845382Y-109551392D01*
X87663338Y-109691081D01*
X87501081Y-109853338D01*
X87361392Y-110035382D01*
X87246657Y-110234109D01*
X87246650Y-110234123D01*
X87158842Y-110446112D01*
X87099453Y-110667759D01*
X87099451Y-110667770D01*
X87069500Y-110895258D01*
X87069500Y-111010500D01*
X87049815Y-111077539D01*
X86997011Y-111123294D01*
X86945500Y-111134500D01*
X86194500Y-111134500D01*
X86127461Y-111114815D01*
X86081706Y-111062011D01*
X86070500Y-111010500D01*
X86070500Y-110895272D01*
X86070499Y-110895258D01*
X86061033Y-110823362D01*
X86040548Y-110667762D01*
X85981158Y-110446113D01*
X85900022Y-110250234D01*
X85893349Y-110234123D01*
X85893346Y-110234117D01*
X85893344Y-110234112D01*
X85778611Y-110035388D01*
X85778608Y-110035385D01*
X85778607Y-110035382D01*
X85639173Y-109853670D01*
X85638919Y-109853339D01*
X85638918Y-109853338D01*
X85638911Y-109853330D01*
X85476670Y-109691089D01*
X85476661Y-109691081D01*
X85294617Y-109551392D01*
X85095890Y-109436657D01*
X85095876Y-109436650D01*
X84883887Y-109348842D01*
X84662238Y-109289452D01*
X84624215Y-109284446D01*
X84434741Y-109259500D01*
X84434734Y-109259500D01*
X84205266Y-109259500D01*
X84205258Y-109259500D01*
X83988715Y-109288009D01*
X83977762Y-109289452D01*
X83884076Y-109314554D01*
X83756112Y-109348842D01*
X83544123Y-109436650D01*
X83544109Y-109436657D01*
X83345382Y-109551392D01*
X83163338Y-109691081D01*
X83001081Y-109853338D01*
X82861392Y-110035382D01*
X82746657Y-110234109D01*
X82746650Y-110234123D01*
X82658842Y-110446112D01*
X82599453Y-110667759D01*
X82599451Y-110667770D01*
X82569500Y-110895258D01*
X82569500Y-112624741D01*
X80569994Y-112624741D01*
X80569998Y-112624710D01*
X80570000Y-112624694D01*
X80570000Y-112010000D01*
X79320000Y-112010000D01*
X79320000Y-111510000D01*
X80570000Y-111510000D01*
X80570000Y-110895305D01*
X80569998Y-110895289D01*
X80540057Y-110667862D01*
X80480681Y-110446269D01*
X80392897Y-110234340D01*
X80392893Y-110234331D01*
X80278190Y-110035661D01*
X80138544Y-109853670D01*
X80138538Y-109853663D01*
X79976336Y-109691461D01*
X79976329Y-109691455D01*
X79794338Y-109551809D01*
X79595668Y-109437106D01*
X79595659Y-109437102D01*
X79383730Y-109349318D01*
X79162137Y-109289942D01*
X79070000Y-109277811D01*
X79070000Y-110576988D01*
X79012993Y-110544075D01*
X78885826Y-110510000D01*
X78754174Y-110510000D01*
X78627007Y-110544075D01*
X78570000Y-110576988D01*
X78570000Y-109277811D01*
X78569999Y-109277811D01*
X78477862Y-109289942D01*
X78256269Y-109349318D01*
X78044340Y-109437102D01*
X78044331Y-109437106D01*
X77845661Y-109551809D01*
X77663670Y-109691455D01*
X77663663Y-109691461D01*
X77501461Y-109853663D01*
X77501455Y-109853670D01*
X77361809Y-110035661D01*
X77247106Y-110234331D01*
X77247102Y-110234340D01*
X77159318Y-110446269D01*
X77099942Y-110667862D01*
X77081939Y-110804612D01*
X77053672Y-110868509D01*
X76995348Y-110906980D01*
X76925483Y-110907811D01*
X76866260Y-110870739D01*
X76836481Y-110807533D01*
X76835000Y-110788427D01*
X76835000Y-100031572D01*
X76854685Y-99964533D01*
X76907489Y-99918778D01*
X76976647Y-99908834D01*
X77040203Y-99937859D01*
X77077977Y-99996637D01*
X77081939Y-100015387D01*
X77099942Y-100152137D01*
X77159318Y-100373730D01*
X77247102Y-100585659D01*
X77247106Y-100585668D01*
X77361809Y-100784338D01*
X77501455Y-100966329D01*
X77501461Y-100966336D01*
X77663663Y-101128538D01*
X77663670Y-101128544D01*
X77845661Y-101268190D01*
X78044331Y-101382893D01*
X78044340Y-101382897D01*
X78256269Y-101470681D01*
X78477859Y-101530056D01*
X78477864Y-101530057D01*
X78569999Y-101542186D01*
X78570000Y-101542186D01*
X78570000Y-100243012D01*
X78627007Y-100275925D01*
X78754174Y-100310000D01*
X78885826Y-100310000D01*
X79012993Y-100275925D01*
X79070000Y-100243012D01*
X79070000Y-101542186D01*
X79162135Y-101530057D01*
X79162140Y-101530056D01*
X79383730Y-101470681D01*
X79595659Y-101382897D01*
X79595668Y-101382893D01*
X79794338Y-101268190D01*
X79976329Y-101128544D01*
X79976336Y-101128538D01*
X80138538Y-100966336D01*
X80138544Y-100966329D01*
X80278190Y-100784338D01*
X80392893Y-100585668D01*
X80392897Y-100585659D01*
X80480681Y-100373730D01*
X80540057Y-100152137D01*
X80569994Y-99924741D01*
X82569500Y-99924741D01*
X82591289Y-100090234D01*
X82599452Y-100152238D01*
X82641724Y-100310000D01*
X82658842Y-100373887D01*
X82746650Y-100585876D01*
X82746657Y-100585890D01*
X82861392Y-100784617D01*
X83001081Y-100966661D01*
X83001089Y-100966670D01*
X83163330Y-101128911D01*
X83163338Y-101128918D01*
X83345382Y-101268607D01*
X83345385Y-101268608D01*
X83345388Y-101268611D01*
X83544112Y-101383344D01*
X83544117Y-101383346D01*
X83544123Y-101383349D01*
X83635480Y-101421190D01*
X83756113Y-101471158D01*
X83977762Y-101530548D01*
X84205266Y-101560500D01*
X84205273Y-101560500D01*
X84434727Y-101560500D01*
X84434734Y-101560500D01*
X84662238Y-101530548D01*
X84883887Y-101471158D01*
X85095888Y-101383344D01*
X85294612Y-101268611D01*
X85476661Y-101128919D01*
X85476665Y-101128914D01*
X85476670Y-101128911D01*
X85638911Y-100966670D01*
X85638914Y-100966665D01*
X85638919Y-100966661D01*
X85778611Y-100784612D01*
X85893344Y-100585888D01*
X85981158Y-100373887D01*
X86040548Y-100152238D01*
X86070500Y-99924734D01*
X86070500Y-99809500D01*
X86090185Y-99742461D01*
X86142989Y-99696706D01*
X86194500Y-99685500D01*
X86945500Y-99685500D01*
X87012539Y-99705185D01*
X87058294Y-99757989D01*
X87069500Y-99809500D01*
X87069500Y-99924741D01*
X87091289Y-100090234D01*
X87099452Y-100152238D01*
X87141724Y-100310000D01*
X87158842Y-100373887D01*
X87246650Y-100585876D01*
X87246657Y-100585890D01*
X87361392Y-100784617D01*
X87501081Y-100966661D01*
X87501089Y-100966670D01*
X87663330Y-101128911D01*
X87663338Y-101128918D01*
X87845382Y-101268607D01*
X87845385Y-101268608D01*
X87845388Y-101268611D01*
X88044112Y-101383344D01*
X88044117Y-101383346D01*
X88044123Y-101383349D01*
X88135480Y-101421190D01*
X88256113Y-101471158D01*
X88477762Y-101530548D01*
X88705266Y-101560500D01*
X88705273Y-101560500D01*
X88934727Y-101560500D01*
X88934734Y-101560500D01*
X89162238Y-101530548D01*
X89383887Y-101471158D01*
X89595888Y-101383344D01*
X89794612Y-101268611D01*
X89976661Y-101128919D01*
X89976665Y-101128914D01*
X89976670Y-101128911D01*
X90138911Y-100966670D01*
X90138914Y-100966665D01*
X90138919Y-100966661D01*
X90278611Y-100784612D01*
X90393344Y-100585888D01*
X90481158Y-100373887D01*
X90540548Y-100152238D01*
X90570500Y-99924734D01*
X90570500Y-98195266D01*
X90540548Y-97967762D01*
X90481158Y-97746113D01*
X90400022Y-97550234D01*
X90393349Y-97534123D01*
X90393346Y-97534117D01*
X90393344Y-97534112D01*
X90278611Y-97335388D01*
X90278608Y-97335385D01*
X90278607Y-97335382D01*
X90139173Y-97153670D01*
X90138919Y-97153339D01*
X90138918Y-97153338D01*
X90138911Y-97153330D01*
X89976670Y-96991089D01*
X89976661Y-96991081D01*
X89794617Y-96851392D01*
X89595890Y-96736657D01*
X89595876Y-96736650D01*
X89383887Y-96648842D01*
X89162238Y-96589452D01*
X89124215Y-96584446D01*
X88934741Y-96559500D01*
X88934734Y-96559500D01*
X88705266Y-96559500D01*
X88705258Y-96559500D01*
X88488715Y-96588009D01*
X88477762Y-96589452D01*
X88384076Y-96614554D01*
X88256112Y-96648842D01*
X88044123Y-96736650D01*
X88044109Y-96736657D01*
X87845382Y-96851392D01*
X87663338Y-96991081D01*
X87501081Y-97153338D01*
X87361392Y-97335382D01*
X87246657Y-97534109D01*
X87246650Y-97534123D01*
X87158842Y-97746112D01*
X87099453Y-97967759D01*
X87099451Y-97967770D01*
X87069500Y-98195258D01*
X87069500Y-98310500D01*
X87049815Y-98377539D01*
X86997011Y-98423294D01*
X86945500Y-98434500D01*
X86194500Y-98434500D01*
X86127461Y-98414815D01*
X86081706Y-98362011D01*
X86070500Y-98310500D01*
X86070500Y-98195272D01*
X86070499Y-98195258D01*
X86061033Y-98123362D01*
X86040548Y-97967762D01*
X85981158Y-97746113D01*
X85900022Y-97550234D01*
X85893349Y-97534123D01*
X85893346Y-97534117D01*
X85893344Y-97534112D01*
X85778611Y-97335388D01*
X85778608Y-97335385D01*
X85778607Y-97335382D01*
X85639173Y-97153670D01*
X85638919Y-97153339D01*
X85638918Y-97153338D01*
X85638911Y-97153330D01*
X85476670Y-96991089D01*
X85476661Y-96991081D01*
X85294617Y-96851392D01*
X85095890Y-96736657D01*
X85095876Y-96736650D01*
X84883887Y-96648842D01*
X84662238Y-96589452D01*
X84624215Y-96584446D01*
X84434741Y-96559500D01*
X84434734Y-96559500D01*
X84205266Y-96559500D01*
X84205258Y-96559500D01*
X83988715Y-96588009D01*
X83977762Y-96589452D01*
X83884076Y-96614554D01*
X83756112Y-96648842D01*
X83544123Y-96736650D01*
X83544109Y-96736657D01*
X83345382Y-96851392D01*
X83163338Y-96991081D01*
X83001081Y-97153338D01*
X82861392Y-97335382D01*
X82746657Y-97534109D01*
X82746650Y-97534123D01*
X82658842Y-97746112D01*
X82599453Y-97967759D01*
X82599451Y-97967770D01*
X82569500Y-98195258D01*
X82569500Y-99924741D01*
X80569994Y-99924741D01*
X80569998Y-99924710D01*
X80570000Y-99924694D01*
X80570000Y-99310000D01*
X79320000Y-99310000D01*
X79320000Y-98810000D01*
X80570000Y-98810000D01*
X80570000Y-98195305D01*
X80569998Y-98195289D01*
X80540057Y-97967862D01*
X80480681Y-97746269D01*
X80392897Y-97534340D01*
X80392893Y-97534331D01*
X80278190Y-97335661D01*
X80138544Y-97153670D01*
X80138538Y-97153663D01*
X79976336Y-96991461D01*
X79976329Y-96991455D01*
X79794338Y-96851809D01*
X79595668Y-96737106D01*
X79595659Y-96737102D01*
X79383730Y-96649318D01*
X79162137Y-96589942D01*
X79070000Y-96577811D01*
X79070000Y-97876988D01*
X79012993Y-97844075D01*
X78885826Y-97810000D01*
X78754174Y-97810000D01*
X78627007Y-97844075D01*
X78570000Y-97876988D01*
X78570000Y-96577811D01*
X78569999Y-96577811D01*
X78477862Y-96589942D01*
X78256269Y-96649318D01*
X78044340Y-96737102D01*
X78044331Y-96737106D01*
X77845661Y-96851809D01*
X77663670Y-96991455D01*
X77663663Y-96991461D01*
X77501461Y-97153663D01*
X77501455Y-97153670D01*
X77361809Y-97335661D01*
X77247106Y-97534331D01*
X77247102Y-97534340D01*
X77159318Y-97746269D01*
X77099942Y-97967862D01*
X77081939Y-98104612D01*
X77053672Y-98168509D01*
X76995348Y-98206980D01*
X76925483Y-98207811D01*
X76866260Y-98170739D01*
X76836481Y-98107533D01*
X76835000Y-98088427D01*
X76835000Y-91561288D01*
X78794500Y-91561288D01*
X78826161Y-91801785D01*
X78888947Y-92036104D01*
X78941192Y-92162234D01*
X78981776Y-92260212D01*
X79103064Y-92470289D01*
X79103066Y-92470292D01*
X79103067Y-92470293D01*
X79250733Y-92662736D01*
X79250739Y-92662743D01*
X79422256Y-92834260D01*
X79422262Y-92834265D01*
X79614711Y-92981936D01*
X79824788Y-93103224D01*
X80048900Y-93196054D01*
X80283211Y-93258838D01*
X80463586Y-93282584D01*
X80523711Y-93290500D01*
X80523712Y-93290500D01*
X80766289Y-93290500D01*
X80814388Y-93284167D01*
X81006789Y-93258838D01*
X81241100Y-93196054D01*
X81465212Y-93103224D01*
X81675289Y-92981936D01*
X81867738Y-92834265D01*
X82039265Y-92662738D01*
X82186936Y-92470289D01*
X82308224Y-92260212D01*
X82401054Y-92036100D01*
X82463838Y-91801789D01*
X82495500Y-91561288D01*
X82495500Y-91318712D01*
X82491844Y-91290945D01*
X82463838Y-91078214D01*
X82463838Y-91078211D01*
X82401054Y-90843900D01*
X82308224Y-90619788D01*
X82186936Y-90409711D01*
X82112488Y-90312688D01*
X82039266Y-90217263D01*
X82039260Y-90217256D01*
X81867743Y-90045739D01*
X81867736Y-90045733D01*
X81675293Y-89898067D01*
X81675292Y-89898066D01*
X81675289Y-89898064D01*
X81465212Y-89776776D01*
X81465205Y-89776773D01*
X81241104Y-89683947D01*
X81006785Y-89621161D01*
X80766289Y-89589500D01*
X80766288Y-89589500D01*
X80523712Y-89589500D01*
X80523711Y-89589500D01*
X80283214Y-89621161D01*
X80048895Y-89683947D01*
X79824794Y-89776773D01*
X79824785Y-89776777D01*
X79614706Y-89898067D01*
X79422263Y-90045733D01*
X79422256Y-90045739D01*
X79250739Y-90217256D01*
X79250733Y-90217263D01*
X79103067Y-90409706D01*
X78981777Y-90619785D01*
X78981773Y-90619794D01*
X78888947Y-90843895D01*
X78826161Y-91078214D01*
X78794500Y-91318711D01*
X78794500Y-91561288D01*
X76835000Y-91561288D01*
X76835000Y-91440781D01*
X76835011Y-91439159D01*
X76837329Y-91262000D01*
X76837536Y-91246142D01*
X76838203Y-91234828D01*
X76878646Y-90850029D01*
X76880677Y-90837214D01*
X76884877Y-90817454D01*
X76960946Y-90459575D01*
X76964304Y-90447045D01*
X76968180Y-90435118D01*
X77083611Y-90079857D01*
X77088260Y-90067746D01*
X77245301Y-89715027D01*
X77251178Y-89703493D01*
X77444228Y-89369118D01*
X77451280Y-89358258D01*
X77678231Y-89045889D01*
X77686385Y-89035820D01*
X77944734Y-88748893D01*
X77953893Y-88739734D01*
X78240820Y-88481385D01*
X78250889Y-88473231D01*
X78563258Y-88246280D01*
X78574118Y-88239228D01*
X78908493Y-88046178D01*
X78920027Y-88040301D01*
X79272753Y-87883257D01*
X79284857Y-87878611D01*
X79652051Y-87759302D01*
X79664575Y-87755946D01*
X80042219Y-87675676D01*
X80055029Y-87673646D01*
X80439828Y-87633203D01*
X80451142Y-87632536D01*
X80644159Y-87630010D01*
X80645781Y-87630000D01*
X127634219Y-87630000D01*
X127635840Y-87630010D01*
G37*
%TD.AperFunction*%
%TD*%
M02*
