M48
; DRILL file {KiCad 8.0.1} date 2024-04-04T17:18:12-0400
; FORMAT={-:-/ absolute / inch / decimal}
; #@! TF.CreationDate,2024-04-04T17:18:12-04:00
; #@! TF.GenerationSoftware,Kicad,Pcbnew,8.0.1
; #@! TF.FileFunction,Plated,1,2,PTH
FMAT,2
INCH
; #@! TA.AperFunction,Plated,PTH,ComponentDrill
T1C0.0374
; #@! TA.AperFunction,Plated,PTH,ComponentDrill
T2C0.0394
; #@! TA.AperFunction,Plated,PTH,ComponentDrill
T3C0.0906
%
G90
G05
T1
X3.9622Y-7.989
X4.0606Y-7.989
X4.1394Y-7.989
X4.2378Y-7.989
T2
X3.75Y-3.5149
X3.75Y-3.6149
X3.75Y-3.7149
X3.75Y-3.8149
X3.75Y-3.9149
X3.75Y-4.0149
X3.75Y-4.1149
X3.75Y-4.2149
X3.75Y-4.3149
X3.75Y-4.4149
X3.75Y-4.5149
X3.75Y-4.6149
X3.75Y-4.7149
X3.75Y-4.8149
X3.75Y-4.9149
X3.75Y-5.0149
X3.75Y-5.1149
X3.75Y-5.2149
X3.75Y-5.3149
X3.75Y-5.4149
X4.45Y-3.5149
X4.45Y-3.6149
X4.45Y-3.7149
X4.45Y-3.8149
X4.45Y-3.9149
X4.45Y-4.0149
X4.45Y-4.1149
X4.45Y-4.2149
X4.45Y-4.3149
X4.45Y-4.4149
X4.45Y-4.5149
X4.45Y-4.6149
X4.45Y-4.7149
X4.45Y-4.8149
X4.45Y-4.9149
X4.45Y-5.0149
X4.45Y-5.1149
X4.45Y-5.2149
X4.45Y-5.3149
X4.45Y-5.4149
T3
X3.8413Y-8.0957
X4.3587Y-8.0957
T2
G00X3.1031Y-3.8705
M15
G01X3.1031Y-3.9295
M16
G05
G00X3.1031Y-4.3705
M15
G01X3.1031Y-4.4295
M16
G05
G00X3.1031Y-4.8705
M15
G01X3.1031Y-4.9295
M16
G05
G00X3.1031Y-5.3705
M15
G01X3.1031Y-5.4295
M16
G05
G00X3.1031Y-5.8705
M15
G01X3.1031Y-5.9295
M16
G05
G00X3.1031Y-6.3705
M15
G01X3.1031Y-6.4295
M16
G05
G00X3.1031Y-6.8705
M15
G01X3.1031Y-6.9295
M16
G05
G00X3.1031Y-7.3705
M15
G01X3.1031Y-7.4295
M16
G05
G00X3.1031Y-7.8705
M15
G01X3.1031Y-7.9295
M16
G05
G00X3.3197Y-3.8705
M15
G01X3.3197Y-3.9295
M16
G05
G00X3.3197Y-4.3705
M15
G01X3.3197Y-4.4295
M16
G05
G00X3.3197Y-4.8705
M15
G01X3.3197Y-4.9295
M16
G05
G00X3.3197Y-5.3705
M15
G01X3.3197Y-5.4295
M16
G05
G00X3.3197Y-5.8705
M15
G01X3.3197Y-5.9295
M16
G05
G00X3.3197Y-6.3705
M15
G01X3.3197Y-6.4295
M16
G05
G00X3.3197Y-6.8705
M15
G01X3.3197Y-6.9295
M16
G05
G00X3.3197Y-7.3705
M15
G01X3.3197Y-7.4295
M16
G05
G00X3.3197Y-7.8705
M15
G01X3.3197Y-7.9295
M16
G05
G00X3.4969Y-3.8705
M15
G01X3.4969Y-3.9295
M16
G05
G00X3.4969Y-4.3705
M15
G01X3.4969Y-4.4295
M16
G05
G00X3.4969Y-4.8705
M15
G01X3.4969Y-4.9295
M16
G05
G00X3.4969Y-5.3705
M15
G01X3.4969Y-5.4295
M16
G05
G00X3.4969Y-5.8705
M15
G01X3.4969Y-5.9295
M16
G05
G00X3.4969Y-6.3705
M15
G01X3.4969Y-6.4295
M16
G05
G00X3.4969Y-6.8705
M15
G01X3.4969Y-6.9295
M16
G05
G00X3.4969Y-7.3705
M15
G01X3.4969Y-7.4295
M16
G05
G00X3.4969Y-7.8705
M15
G01X3.4969Y-7.9295
M16
G05
G00X4.7031Y-3.9295
M15
G01X4.7031Y-3.8705
M16
G05
G00X4.7031Y-4.4295
M15
G01X4.7031Y-4.3705
M16
G05
G00X4.7031Y-4.9295
M15
G01X4.7031Y-4.8705
M16
G05
G00X4.7031Y-5.4295
M15
G01X4.7031Y-5.3705
M16
G05
G00X4.7031Y-5.9295
M15
G01X4.7031Y-5.8705
M16
G05
G00X4.7031Y-6.4295
M15
G01X4.7031Y-6.3705
M16
G05
G00X4.7031Y-6.9295
M15
G01X4.7031Y-6.8705
M16
G05
G00X4.7063Y-7.4295
M15
G01X4.7063Y-7.3705
M16
G05
G00X4.7063Y-7.9295
M15
G01X4.7063Y-7.8705
M16
G05
G00X4.8803Y-3.9295
M15
G01X4.8803Y-3.8705
M16
G05
G00X4.8803Y-4.4295
M15
G01X4.8803Y-4.3705
M16
G05
G00X4.8803Y-4.9295
M15
G01X4.8803Y-4.8705
M16
G05
G00X4.8803Y-5.4295
M15
G01X4.8803Y-5.3705
M16
G05
G00X4.8803Y-5.9295
M15
G01X4.8803Y-5.8705
M16
G05
G00X4.8803Y-6.4295
M15
G01X4.8803Y-6.3705
M16
G05
G00X4.8803Y-6.9295
M15
G01X4.8803Y-6.8705
M16
G05
G00X4.8835Y-7.4295
M15
G01X4.8835Y-7.3705
M16
G05
G00X4.8835Y-7.9295
M15
G01X4.8835Y-7.8705
M16
G05
G00X5.0969Y-3.9295
M15
G01X5.0969Y-3.8705
M16
G05
G00X5.0969Y-4.4295
M15
G01X5.0969Y-4.3705
M16
G05
G00X5.0969Y-4.9295
M15
G01X5.0969Y-4.8705
M16
G05
G00X5.0969Y-5.4295
M15
G01X5.0969Y-5.3705
M16
G05
G00X5.0969Y-5.9295
M15
G01X5.0969Y-5.8705
M16
G05
G00X5.0969Y-6.4295
M15
G01X5.0969Y-6.3705
M16
G05
G00X5.0969Y-6.9295
M15
G01X5.0969Y-6.8705
M16
G05
G00X5.1Y-7.4295
M15
G01X5.1Y-7.3705
M16
G05
G00X5.1Y-7.9295
M15
G01X5.1Y-7.8705
M16
G05
M30
