%TF.GenerationSoftware,KiCad,Pcbnew,8.0.0*%
%TF.CreationDate,2024-03-21T17:59:56-04:00*%
%TF.ProjectId,adaptive-2040,61646170-7469-4766-952d-323034302e6b,1*%
%TF.SameCoordinates,Original*%
%TF.FileFunction,Soldermask,Bot*%
%TF.FilePolarity,Negative*%
%FSLAX46Y46*%
G04 Gerber Fmt 4.6, Leading zero omitted, Abs format (unit mm)*
G04 Created by KiCad (PCBNEW 8.0.0) date 2024-03-21 17:59:56*
%MOMM*%
%LPD*%
G01*
G04 APERTURE LIST*
G04 Aperture macros list*
%AMRoundRect*
0 Rectangle with rounded corners*
0 $1 Rounding radius*
0 $2 $3 $4 $5 $6 $7 $8 $9 X,Y pos of 4 corners*
0 Add a 4 corners polygon primitive as box body*
4,1,4,$2,$3,$4,$5,$6,$7,$8,$9,$2,$3,0*
0 Add four circle primitives for the rounded corners*
1,1,$1+$1,$2,$3*
1,1,$1+$1,$4,$5*
1,1,$1+$1,$6,$7*
1,1,$1+$1,$8,$9*
0 Add four rect primitives between the rounded corners*
20,1,$1+$1,$2,$3,$4,$5,0*
20,1,$1+$1,$4,$5,$6,$7,0*
20,1,$1+$1,$6,$7,$8,$9,0*
20,1,$1+$1,$8,$9,$2,$3,0*%
%AMFreePoly0*
4,1,28,0.605014,0.794986,0.644504,0.794986,0.724698,0.756366,0.780194,0.686777,0.800000,0.600000,0.800000,-0.600000,0.780194,-0.686777,0.724698,-0.756366,0.644504,-0.794986,0.605014,-0.794986,0.600000,-0.800000,0.000000,-0.800000,-0.178017,-0.779942,-0.347107,-0.720775,-0.498792,-0.625465,-0.625465,-0.498792,-0.720775,-0.347107,-0.779942,-0.178017,-0.800000,0.000000,-0.779942,0.178017,
-0.720775,0.347107,-0.625465,0.498792,-0.498792,0.625465,-0.347107,0.720775,-0.178017,0.779942,0.000000,0.800000,0.600000,0.800000,0.605014,0.794986,0.605014,0.794986,$1*%
%AMFreePoly1*
4,1,28,0.178017,0.779942,0.347107,0.720775,0.498792,0.625465,0.625465,0.498792,0.720775,0.347107,0.779942,0.178017,0.800000,0.000000,0.779942,-0.178017,0.720775,-0.347107,0.625465,-0.498792,0.498792,-0.625465,0.347107,-0.720775,0.178017,-0.779942,0.000000,-0.800000,-0.600000,-0.800000,-0.605014,-0.794986,-0.644504,-0.794986,-0.724698,-0.756366,-0.780194,-0.686777,-0.800000,-0.600000,
-0.800000,0.600000,-0.780194,0.686777,-0.724698,0.756366,-0.644504,0.794986,-0.605014,0.794986,-0.600000,0.800000,0.000000,0.800000,0.178017,0.779942,0.178017,0.779942,$1*%
G04 Aperture macros list end*
%ADD10O,2.500000X4.000000*%
%ADD11R,1.600000X1.500000*%
%ADD12C,1.600000*%
%ADD13C,3.000000*%
%ADD14C,3.200000*%
%ADD15C,2.200000*%
%ADD16C,1.850000*%
%ADD17RoundRect,0.200000X-0.600000X-0.600000X0.600000X-0.600000X0.600000X0.600000X-0.600000X0.600000X0*%
%ADD18FreePoly0,0.000000*%
%ADD19FreePoly1,0.000000*%
G04 APERTURE END LIST*
D10*
%TO.C,J10*%
X78820000Y-200660000D03*
X84320000Y-200660000D03*
X88820000Y-200660000D03*
%TD*%
D11*
%TO.C,J1*%
X100640000Y-202920000D03*
D12*
X103140000Y-202920000D03*
X105140000Y-202920000D03*
X107640000Y-202920000D03*
D13*
X97570000Y-205630000D03*
X110710000Y-205630000D03*
%TD*%
D10*
%TO.C,J2*%
X78820000Y-99060000D03*
X84320000Y-99060000D03*
X88820000Y-99060000D03*
%TD*%
D14*
%TO.C,REF11*%
X80645000Y-91440000D03*
%TD*%
D10*
%TO.C,J14*%
X129460000Y-162560000D03*
X123960000Y-162560000D03*
X119460000Y-162560000D03*
%TD*%
%TO.C,J15*%
X129460000Y-149860000D03*
X123960000Y-149860000D03*
X119460000Y-149860000D03*
%TD*%
%TO.C,J19*%
X129460000Y-99060000D03*
X123960000Y-99060000D03*
X119460000Y-99060000D03*
%TD*%
D14*
%TO.C,REF13*%
X80645000Y-208280000D03*
%TD*%
D10*
%TO.C,J3*%
X78820000Y-111760000D03*
X84320000Y-111760000D03*
X88820000Y-111760000D03*
%TD*%
%TO.C,J12*%
X129540000Y-187960000D03*
X124040000Y-187960000D03*
X119540000Y-187960000D03*
%TD*%
%TO.C,J5*%
X78820000Y-137160000D03*
X84320000Y-137160000D03*
X88820000Y-137160000D03*
%TD*%
%TO.C,J17*%
X129460000Y-124460000D03*
X123960000Y-124460000D03*
X119460000Y-124460000D03*
%TD*%
%TO.C,J4*%
X78820000Y-124460000D03*
X84320000Y-124460000D03*
X88820000Y-124460000D03*
%TD*%
D14*
%TO.C,REF14145235*%
X127635000Y-208280000D03*
%TD*%
D10*
%TO.C,J9*%
X78820000Y-187960000D03*
X84320000Y-187960000D03*
X88820000Y-187960000D03*
%TD*%
%TO.C,J7*%
X78820000Y-162560000D03*
X84320000Y-162560000D03*
X88820000Y-162560000D03*
%TD*%
%TO.C,J16*%
X129460000Y-137160000D03*
X123960000Y-137160000D03*
X119460000Y-137160000D03*
%TD*%
D14*
%TO.C,REF12*%
X127635000Y-91440000D03*
%TD*%
D10*
%TO.C,J6*%
X78820000Y-149860000D03*
X84320000Y-149860000D03*
X88820000Y-149860000D03*
%TD*%
D15*
%TO.C,U1*%
X101415000Y-89407500D03*
D16*
X101715000Y-92437500D03*
X106565000Y-92437500D03*
D15*
X106865000Y-89407500D03*
D17*
X95250000Y-89277500D03*
D12*
X95250000Y-91817500D03*
D18*
X95250000Y-94357500D03*
D12*
X95250000Y-96897500D03*
X95250000Y-99437500D03*
X95250000Y-101977500D03*
X95250000Y-104517500D03*
D18*
X95250000Y-107057500D03*
D12*
X95250000Y-109597500D03*
X95250000Y-112137500D03*
X95250000Y-114677500D03*
X95250000Y-117217500D03*
D18*
X95250000Y-119757500D03*
D12*
X95250000Y-122297500D03*
X95250000Y-124837500D03*
X95250000Y-127377500D03*
X95250000Y-129917500D03*
D18*
X95250000Y-132457500D03*
D12*
X95250000Y-134997500D03*
X95250000Y-137537500D03*
X113030000Y-137537500D03*
X113030000Y-134997500D03*
D19*
X113030000Y-132457500D03*
D12*
X113030000Y-129917500D03*
X113030000Y-127377500D03*
X113030000Y-124837500D03*
X113030000Y-122297500D03*
D19*
X113030000Y-119757500D03*
D12*
X113030000Y-117217500D03*
X113030000Y-114677500D03*
X113030000Y-112137500D03*
X113030000Y-109597500D03*
D19*
X113030000Y-107057500D03*
D12*
X113030000Y-104517500D03*
X113030000Y-101977500D03*
X113030000Y-99437500D03*
X113030000Y-96897500D03*
D19*
X113030000Y-94357500D03*
D12*
X113030000Y-91817500D03*
X113030000Y-89277500D03*
%TD*%
D10*
%TO.C,J8*%
X78820000Y-175260000D03*
X84320000Y-175260000D03*
X88820000Y-175260000D03*
%TD*%
%TO.C,J11*%
X129540000Y-200660000D03*
X124040000Y-200660000D03*
X119540000Y-200660000D03*
%TD*%
%TO.C,J13*%
X129460000Y-175260000D03*
X123960000Y-175260000D03*
X119460000Y-175260000D03*
%TD*%
%TO.C,J18*%
X129460000Y-111760000D03*
X123960000Y-111760000D03*
X119460000Y-111760000D03*
%TD*%
M02*
